<svg xmlns="http://www.w3.org/2000/svg" xmlns:xlink="http://www.w3.org/1999/xlink" contentStyleType="text/css" data-diagram-type="DESCRIPTION" height="1902px" preserveAspectRatio="none" style="width:1179px;height:1902px;background:#FFFFFF;" version="1.1" viewBox="0 0 1179 1902" width="1179px" zoomAndPan="magnify"><defs/><g><!--cluster ????????\n(Educational Administration Management System)--><g class="cluster" data-entity=".........n.Educational Administration Management System." data-source-line="11" data-uid="ent0007" id="cluster_.........n.Educational Administration Management System."><rect fill="none" height="1472" rx="2.5" ry="2.5" style="stroke:#181818;stroke-width:1;" width="1006" x="167" y="256.41"/><text fill="#000000" font-family="sans-serif" font-size="14" font-weight="bold" lengthAdjust="spacing" textLength="115.5" x="612.25" y="272.9432">&#23398;&#26657;&#25945;&#21153;&#31649;&#29702;&#31995;&#32479;</text><text fill="#000000" font-family="sans-serif" font-size="14" font-weight="bold" lengthAdjust="spacing" textLength="334.4961" x="502.752" y="290.5526">(Educational Administration Management System)</text></g><!--entity UC01--><g class="entity" data-entity="UC01" data-source-line="14" data-uid="ent0008" id="entity_UC01"><ellipse cx="315.4673" cy="427.5964" fill="#F1F1F1" rx="69.9673" ry="26.6864" style="stroke:#181818;stroke-width:0.5;"/><text fill="#000000" font-family="sans-serif" font-size="14" lengthAdjust="spacing" textLength="99.5723" x="265.6812" y="425.8642">UC01: &#29992;&#25143;&#30331;&#24405;</text><text fill="#000000" font-family="sans-serif" font-size="14" lengthAdjust="spacing" textLength="77.0273" x="276.9536" y="443.4736">(User Login)</text></g><!--entity UC02--><g class="entity" data-entity="UC02" data-source-line="15" data-uid="ent0009" id="entity_UC02"><ellipse cx="315.7218" cy="781.242" fill="#F1F1F1" rx="86.7218" ry="26.832" style="stroke:#181818;stroke-width:0.5;"/><text fill="#000000" font-family="sans-serif" font-size="14" lengthAdjust="spacing" textLength="99.5723" x="265.9357" y="776.191">UC02: &#20462;&#25913;&#23494;&#30721;</text><text fill="#000000" font-family="sans-serif" font-size="14" lengthAdjust="spacing" textLength="123.7236" x="253.86" y="793.8004">(Change Password)</text></g><!--entity UC03--><g class="entity" data-entity="UC03" data-source-line="16" data-uid="ent0010" id="entity_UC03"><ellipse cx="315.3876" cy="871.2604" fill="#F1F1F1" rx="100.3876" ry="27.3504" style="stroke:#181818;stroke-width:0.5;"/><text fill="#000000" font-family="sans-serif" font-size="14" lengthAdjust="spacing" textLength="127.5723" x="251.6015" y="866.9693">UC03: &#26356;&#26032;&#20010;&#20154;&#20449;&#24687;</text><text fill="#000000" font-family="sans-serif" font-size="14" lengthAdjust="spacing" textLength="140.8545" x="244.9603" y="884.5787">(Update Personal Info)</text></g><!--entity UC04--><g class="entity" data-entity="UC04" data-source-line="19" data-uid="ent0011" id="entity_UC04"><ellipse cx="689.5255" cy="338.2151" fill="#F1F1F1" rx="124.5255" ry="27.3051" style="stroke:#181818;stroke-width:0.5;"/><text fill="#000000" font-family="sans-serif" font-size="14" lengthAdjust="spacing" textLength="141.5723" x="618.7394" y="332.5682">UC04: &#27983;&#35272;&#21644;&#25628;&#32034;&#35838;&#31243;</text><text fill="#000000" font-family="sans-serif" font-size="14" lengthAdjust="spacing" textLength="187.5234" x="595.7638" y="350.1776">(Browse and Search Courses)</text></g><!--entity UC05--><g class="entity" data-entity="UC05" data-source-line="20" data-uid="ent0012" id="entity_UC05"><ellipse cx="689.4486" cy="427.4297" fill="#F1F1F1" rx="67.9486" ry="26.5197" style="stroke:#181818;stroke-width:0.5;"/><text fill="#000000" font-family="sans-serif" font-size="14" lengthAdjust="spacing" textLength="71.5723" x="653.6625" y="421.9116">UC05: &#36873;&#35838;</text><text fill="#000000" font-family="sans-serif" font-size="14" lengthAdjust="spacing" textLength="97.2549" x="640.8212" y="439.521">(Select Course)</text></g><!--entity UC06--><g class="entity" data-entity="UC06" data-source-line="21" data-uid="ent0013" id="entity_UC06"><ellipse cx="689.5413" cy="606.2525" fill="#F1F1F1" rx="63.0413" ry="26.8425" style="stroke:#181818;stroke-width:0.5;"/><text fill="#000000" font-family="sans-serif" font-size="14" lengthAdjust="spacing" textLength="71.5723" x="653.7551" y="601.2172">UC06: &#36864;&#35838;</text><text fill="#000000" font-family="sans-serif" font-size="14" lengthAdjust="spacing" textLength="88.6895" x="645.1965" y="618.8265">(Drop Course)</text></g><!--entity UC07--><g class="entity" data-entity="UC07" data-source-line="22" data-uid="ent0014" id="entity_UC07"><ellipse cx="315.7337" cy="338.2211" fill="#F1F1F1" rx="71.7337" ry="27.3111" style="stroke:#181818;stroke-width:0.5;"/><text fill="#000000" font-family="sans-serif" font-size="14" lengthAdjust="spacing" textLength="99.5723" x="265.9476" y="335.5692">UC07: &#26597;&#30475;&#25104;&#32489;</text><text fill="#000000" font-family="sans-serif" font-size="14" lengthAdjust="spacing" textLength="89.4688" x="270.9993" y="353.1786">(View Grades)</text></g><!--entity UC08--><g class="entity" data-entity="UC08" data-source-line="23" data-uid="ent0015" id="entity_UC08"><ellipse cx="315.5638" cy="693.6174" fill="#F1F1F1" rx="87.0638" ry="26.2074" style="stroke:#181818;stroke-width:0.5;"/><text fill="#000000" font-family="sans-serif" font-size="14" lengthAdjust="spacing" textLength="127.5723" x="251.7777" y="692.6108">UC08: &#21152;&#20837;&#20505;&#34917;&#21517;&#21333;</text><text fill="#000000" font-family="sans-serif" font-size="14" lengthAdjust="spacing" textLength="84.0068" x="273.5604" y="710.2201">(Join Waitlist)</text></g><!--entity UC09--><g class="entity" data-entity="UC09" data-source-line="26" data-uid="ent0016" id="entity_UC09"><ellipse cx="315.7268" cy="1320.3955" fill="#F1F1F1" rx="72.2268" ry="27.4855" style="stroke:#181818;stroke-width:0.5;"/><text fill="#000000" font-family="sans-serif" font-size="14" lengthAdjust="spacing" textLength="99.5723" x="265.9407" y="1317.4916">UC09: &#24405;&#20837;&#25104;&#32489;</text><text fill="#000000" font-family="sans-serif" font-size="14" lengthAdjust="spacing" textLength="92.5859" x="269.4338" y="1335.101">(Enter Grades)</text></g><!--entity UC10--><g class="entity" data-entity="UC10" data-source-line="27" data-uid="ent0017" id="entity_UC10"><ellipse cx="315.3258" cy="1411.2649" fill="#F1F1F1" rx="73.8258" ry="27.8549" style="stroke:#181818;stroke-width:0.5;"/><text fill="#000000" font-family="sans-serif" font-size="14" lengthAdjust="spacing" textLength="99.5723" x="265.5397" y="1407.6962">UC10: &#20462;&#25913;&#25104;&#32489;</text><text fill="#000000" font-family="sans-serif" font-size="14" lengthAdjust="spacing" textLength="100.3584" x="265.1466" y="1425.3056">(Modify Grades)</text></g><!--entity UC11--><g class="entity" data-entity="UC11" data-source-line="28" data-uid="ent0018" id="entity_UC11"><ellipse cx="315.6528" cy="1230.1641" fill="#F1F1F1" rx="112.1528" ry="26.7541" style="stroke:#181818;stroke-width:0.5;"/><text fill="#000000" font-family="sans-serif" font-size="14" lengthAdjust="spacing" textLength="127.5723" x="251.8667" y="1224.9974">UC11: &#25104;&#32489;&#32479;&#35745;&#20998;&#26512;</text><text fill="#000000" font-family="sans-serif" font-size="14" lengthAdjust="spacing" textLength="161.834" x="234.7358" y="1242.6068">(Analyze Grade Statistics)</text></g><!--entity UC12--><g class="entity" data-entity="UC12" data-source-line="31" data-uid="ent0019" id="entity_UC12"><ellipse cx="689.2965" cy="920.4693" fill="#F1F1F1" rx="120.7965" ry="26.5593" style="stroke:#181818;stroke-width:0.5;"/><text fill="#000000" font-family="sans-serif" font-size="14" lengthAdjust="spacing" textLength="127.5723" x="625.5104" y="914.7723">UC12: &#21457;&#24067;&#35838;&#31243;&#20449;&#24687;</text><text fill="#000000" font-family="sans-serif" font-size="14" lengthAdjust="spacing" textLength="178.1855" x="600.2038" y="932.3816">(Publish Course Information)</text></g><!--entity UC13--><g class="entity" data-entity="UC13" data-source-line="32" data-uid="ent0020" id="entity_UC13"><ellipse cx="689.2607" cy="1233.5313" fill="#F1F1F1" rx="104.2607" ry="27.1213" style="stroke:#181818;stroke-width:0.5;"/><text fill="#000000" font-family="sans-serif" font-size="14" lengthAdjust="spacing" textLength="127.5723" x="625.4745" y="1228.9066">UC13: &#31649;&#29702;&#35838;&#31243;&#35745;&#21010;</text><text fill="#000000" font-family="sans-serif" font-size="14" lengthAdjust="spacing" textLength="147.8477" x="615.3368" y="1246.516">(Manage Course Plans)</text></g><!--entity UC14--><g class="entity" data-entity="UC14" data-source-line="33" data-uid="ent0021" id="entity_UC14"><ellipse cx="315.7499" cy="1683.36" fill="#F1F1F1" rx="132.7499" ry="28.95" style="stroke:#181818;stroke-width:0.5;"/><text fill="#000000" font-family="sans-serif" font-size="14" lengthAdjust="spacing" textLength="155.5723" x="237.9637" y="1676.6998">UC14: &#22788;&#29702;&#29305;&#27530;&#36873;&#35838;&#35831;&#27714;</text><text fill="#000000" font-family="sans-serif" font-size="14" lengthAdjust="spacing" textLength="215.5508" x="207.9745" y="1694.3092">(Handle Special Course Requests)</text></g><!--entity UC15--><g class="entity" data-entity="UC15" data-source-line="34" data-uid="ent0022" id="entity_UC15"><ellipse cx="315.4149" cy="1502.193" fill="#F1F1F1" rx="126.9149" ry="27.783" style="stroke:#181818;stroke-width:0.5;"/><text fill="#000000" font-family="sans-serif" font-size="14" lengthAdjust="spacing" textLength="155.5723" x="237.6288" y="1497.0107">UC15: &#23457;&#25209;&#24310;&#26399;&#36864;&#35838;&#30003;&#35831;</text><text fill="#000000" font-family="sans-serif" font-size="14" lengthAdjust="spacing" textLength="189.875" x="220.4774" y="1514.6201">(Approve Late Drop Requests)</text></g><!--entity UC16--><g class="entity" data-entity="UC16" data-source-line="35" data-uid="ent0023" id="entity_UC16"><ellipse cx="315.2974" cy="1592.5695" fill="#F1F1F1" rx="121.2974" ry="26.6595" style="stroke:#181818;stroke-width:0.5;"/><text fill="#000000" font-family="sans-serif" font-size="14" lengthAdjust="spacing" textLength="127.5723" x="251.5113" y="1586.7534">UC16: &#35774;&#32622;&#36873;&#35838;&#35268;&#21017;</text><text fill="#000000" font-family="sans-serif" font-size="14" lengthAdjust="spacing" textLength="180.5234" x="225.0357" y="1604.3628">(Set Course Selection Rules)</text></g><!--entity UC17--><g class="entity" data-entity="UC17" data-source-line="38" data-uid="ent0024" id="entity_UC17"><ellipse cx="315.4982" cy="1141.3096" fill="#F1F1F1" rx="122.4982" ry="26.8996" style="stroke:#181818;stroke-width:0.5;"/><text fill="#000000" font-family="sans-serif" font-size="14" lengthAdjust="spacing" textLength="127.5723" x="251.712" y="1135.209">UC17: &#31649;&#29702;&#23398;&#29983;&#20449;&#24687;</text><text fill="#000000" font-family="sans-serif" font-size="14" lengthAdjust="spacing" textLength="185.9922" x="222.5021" y="1152.8183">(Manage Student Information)</text></g><!--entity UC18--><g class="entity" data-entity="UC18" data-source-line="39" data-uid="ent0025" id="entity_UC18"><ellipse cx="315.6962" cy="516.4492" fill="#F1F1F1" rx="123.1962" ry="27.0392" style="stroke:#181818;stroke-width:0.5;"/><text fill="#000000" font-family="sans-serif" font-size="14" lengthAdjust="spacing" textLength="127.5723" x="251.91" y="510.1837">UC18: &#31649;&#29702;&#25945;&#24072;&#20449;&#24687;</text><text fill="#000000" font-family="sans-serif" font-size="14" lengthAdjust="spacing" textLength="189.0889" x="221.1517" y="527.793">(Manage Teacher Information)</text></g><!--entity UC19--><g class="entity" data-entity="UC19" data-source-line="40" data-uid="ent0026" id="entity_UC19"><ellipse cx="315.2605" cy="605.3989" fill="#F1F1F1" rx="119.7605" ry="26.4889" style="stroke:#181818;stroke-width:0.5;"/><text fill="#000000" font-family="sans-serif" font-size="14" lengthAdjust="spacing" textLength="127.5723" x="251.4744" y="599.8342">UC19: &#37197;&#32622;&#31995;&#32479;&#35774;&#32622;</text><text fill="#000000" font-family="sans-serif" font-size="14" lengthAdjust="spacing" textLength="175.0684" x="227.7263" y="617.4436">(Configure System Settings)</text></g><!--entity UC20--><g class="entity" data-entity="UC20" data-source-line="41" data-uid="ent0027" id="entity_UC20"><ellipse cx="689.4787" cy="516.3078" fill="#F1F1F1" rx="71.9787" ry="27.3978" style="stroke:#181818;stroke-width:0.5;"/><text fill="#000000" font-family="sans-serif" font-size="14" lengthAdjust="spacing" textLength="99.5723" x="639.6926" y="513.5304">UC20: &#23457;&#26680;&#25104;&#32489;</text><text fill="#000000" font-family="sans-serif" font-size="14" lengthAdjust="spacing" textLength="91.0342" x="643.9616" y="531.1398">(Audit Grades)</text></g><!--entity UC21--><g class="entity" data-entity="UC21" data-source-line="42" data-uid="ent0028" id="entity_UC21"><ellipse cx="315.581" cy="961.6262" fill="#F1F1F1" rx="126.581" ry="27.7162" style="stroke:#181818;stroke-width:0.5;"/><text fill="#000000" font-family="sans-serif" font-size="14" lengthAdjust="spacing" textLength="155.5723" x="237.7949" y="956.5298">UC21: &#20840;&#23616;&#25104;&#32489;&#32479;&#35745;&#20998;&#26512;</text><text fill="#000000" font-family="sans-serif" font-size="14" lengthAdjust="spacing" textLength="188.2754" x="221.4433" y="974.1391">(System-wide Grade Analysis)</text></g><!--entity UC22--><g class="entity" data-entity="UC22" data-source-line="43" data-uid="ent0029" id="entity_UC22"><ellipse cx="315.4445" cy="1051.2893" fill="#F1F1F1" rx="99.9445" ry="27.3793" style="stroke:#181818;stroke-width:0.5;"/><text fill="#000000" font-family="sans-serif" font-size="14" lengthAdjust="spacing" textLength="127.5723" x="251.6584" y="1047.0399">UC22: &#22791;&#20221;&#31995;&#32479;&#25968;&#25454;</text><text fill="#000000" font-family="sans-serif" font-size="14" lengthAdjust="spacing" textLength="140.0479" x="245.4206" y="1064.6493">(Backup System Data)</text></g><!--entity UC23--><g class="entity" data-entity="UC23" data-source-line="46" data-uid="ent0030" id="entity_UC23"><ellipse cx="1044.0424" cy="612.6293" fill="#F1F1F1" rx="113.0424" ry="26.7193" style="stroke:#181818;stroke-width:0.5;"/><text fill="#000000" font-family="sans-serif" font-size="14" lengthAdjust="spacing" textLength="127.5723" x="980.2563" y="607.4106">UC23: &#21516;&#27493;&#35838;&#31243;&#20449;&#24687;</text><text fill="#000000" font-family="sans-serif" font-size="14" lengthAdjust="spacing" textLength="163.3926" x="962.3461" y="625.02">(Sync Course Information)</text></g><!--entity Student--><g class="entity" data-entity="Student" data-source-line="5" data-uid="ent0002" id="entity_Student"><ellipse cx="62.793" cy="188.41" fill="#F1F1F1" rx="8" ry="8" style="stroke:#181818;stroke-width:0.5;"/><path d="M62.793,196.41 L62.793,223.41 M49.793,204.41 L75.793,204.41 M62.793,223.41 L49.793,238.41 M62.793,223.41 L75.793,238.41" fill="none" style="stroke:#181818;stroke-width:0.5;"/><text fill="#000000" font-family="sans-serif" font-size="14" lengthAdjust="spacing" textLength="28" x="34" y="254.4432">&#23398;&#29983;</text><text fill="#000000" font-family="sans-serif" font-size="14" lengthAdjust="spacing" textLength="57.5859" x="34" y="272.0526">(Student)</text></g><!--entity Teacher--><g class="entity" data-entity="Teacher" data-source-line="6" data-uid="ent0003" id="entity_Teacher"><ellipse cx="62.8413" cy="905.41" fill="#F1F1F1" rx="8" ry="8" style="stroke:#181818;stroke-width:0.5;"/><path d="M62.8413,913.41 L62.8413,940.41 M49.8413,921.41 L75.8413,921.41 M62.8413,940.41 L49.8413,955.41 M62.8413,940.41 L75.8413,955.41" fill="none" style="stroke:#181818;stroke-width:0.5;"/><text fill="#000000" font-family="sans-serif" font-size="14" lengthAdjust="spacing" textLength="28" x="32.5" y="971.4432">&#25945;&#24072;</text><text fill="#000000" font-family="sans-serif" font-size="14" lengthAdjust="spacing" textLength="60.6826" x="32.5" y="989.0526">(Teacher)</text></g><!--entity AcademicAffairs--><g class="entity" data-entity="AcademicAffairs" data-source-line="7" data-uid="ent0004" id="entity_AcademicAffairs"><ellipse cx="63.1792" cy="1644.41" fill="#F1F1F1" rx="8" ry="8" style="stroke:#181818;stroke-width:0.5;"/><path d="M63.1792,1652.41 L63.1792,1679.41 M50.1792,1660.41 L76.1792,1660.41 M63.1792,1679.41 L50.1792,1694.41 M63.1792,1679.41 L76.1792,1694.41" fill="none" style="stroke:#181818;stroke-width:0.5;"/><text fill="#000000" font-family="sans-serif" font-size="14" lengthAdjust="spacing" textLength="42" x="6" y="1710.4432">&#25945;&#21153;&#22788;</text><text fill="#000000" font-family="sans-serif" font-size="14" lengthAdjust="spacing" textLength="114.3584" x="6" y="1728.0526">(Academic Affairs)</text></g><!--entity Admin--><g class="entity" data-entity="Admin" data-source-line="8" data-uid="ent0005" id="entity_Admin"><ellipse cx="62.8965" cy="597.41" fill="#F1F1F1" rx="8" ry="8" style="stroke:#181818;stroke-width:0.5;"/><path d="M62.8965,605.41 L62.8965,632.41 M49.8965,613.41 L75.8965,613.41 M62.8965,632.41 L49.8965,647.41 M62.8965,632.41 L75.8965,647.41" fill="none" style="stroke:#181818;stroke-width:0.5;"/><text fill="#000000" font-family="sans-serif" font-size="14" lengthAdjust="spacing" textLength="42" x="17" y="663.4432">&#31649;&#29702;&#21592;</text><text fill="#000000" font-family="sans-serif" font-size="14" lengthAdjust="spacing" textLength="91.793" x="17" y="681.0526">(Administrator)</text></g><!--entity ExternalDB--><g class="entity" data-entity="ExternalDB" data-source-line="9" data-uid="ent0006" id="entity_ExternalDB"><ellipse cx="689.5205" cy="1753.41" fill="#F1F1F1" rx="8" ry="8" style="stroke:#181818;stroke-width:0.5;"/><path d="M689.5205,1761.41 L689.5205,1788.41 M676.5205,1769.41 L702.5205,1769.41 M689.5205,1788.41 L676.5205,1803.41 M689.5205,1788.41 L702.5205,1803.41" fill="none" style="stroke:#181818;stroke-width:0.5;"/><text fill="#000000" font-family="sans-serif" font-size="14" lengthAdjust="spacing" textLength="84" x="623" y="1819.4432">&#22806;&#37096;&#35838;&#31243;&#20449;&#24687;</text><text fill="#000000" font-family="sans-serif" font-size="14" lengthAdjust="spacing" textLength="70" x="623" y="1837.0526">&#25968;&#25454;&#24211;&#31995;&#32479;</text><text fill="#000000" font-family="sans-serif" font-size="14" lengthAdjust="spacing" textLength="133.041" x="623" y="1854.662">(External Course DB)</text></g><g class="entity" data-entity="GMN63" data-source-line="104" data-uid="ent0064" id="entity_GMN63"><path d="M955.5,40.91 L955.5,83.6131 L1132.5,83.6131 L1132.5,50.91 L1122.5,40.91 L955.5,40.91" fill="#FEFFDD" style="stroke:#181818;stroke-width:0.5;"/><path d="M1122.5,40.91 L1122.5,50.91 L1132.5,50.91 L1122.5,40.91" fill="#FEFFDD" style="stroke:#181818;stroke-width:1;"/><text fill="#000000" font-family="sans-serif" font-size="13" lengthAdjust="spacing" textLength="156" x="961.5" y="59.4051">&#36873;&#35838;&#38656;&#28385;&#36275;&#20808;&#20462;&#35838;&#31243;&#35201;&#27714;&#12289;</text><text fill="#000000" font-family="sans-serif" font-size="13" lengthAdjust="spacing" textLength="117" x="961.5" y="75.7567">&#36873;&#35838;&#20154;&#25968;&#38480;&#21046;&#31561;&#26465;&#20214;</text></g><g class="entity" data-entity="GMN66" data-source-line="109" data-uid="ent0067" id="entity_GMN66"><path d="M942.5,118.91 L942.5,161.6131 L1145.5,161.6131 L1145.5,128.91 L1135.5,118.91 L942.5,118.91" fill="#FEFFDD" style="stroke:#181818;stroke-width:0.5;"/><path d="M1135.5,118.91 L1135.5,128.91 L1145.5,128.91 L1135.5,118.91" fill="#FEFFDD" style="stroke:#181818;stroke-width:1;"/><text fill="#000000" font-family="sans-serif" font-size="13" lengthAdjust="spacing" textLength="182" x="948.5" y="137.4051">&#36873;&#35838;&#25130;&#27490;&#26085;&#26399;&#21069;&#21487;&#26080;&#26465;&#20214;&#36864;&#35838;&#65292;</text><text fill="#000000" font-family="sans-serif" font-size="13" lengthAdjust="spacing" textLength="78" x="948.5" y="153.7567">&#25130;&#27490;&#21518;&#38656;&#23457;&#25209;</text></g><g class="entity" data-entity="GMN69" data-source-line="114" data-uid="ent0070" id="entity_GMN69"><path d="M955.5,196.91 L955.5,239.6131 A0,0 0 0 0 955.5,239.6131 L1040,239.6131 L1044,585.86 L1048,239.6131 L1132.5,239.6131 A0,0 0 0 0 1132.5,239.6131 L1132.5,206.91 L1122.5,196.91 L955.5,196.91 A0,0 0 0 0 955.5,196.91" fill="#FEFFDD" style="stroke:#181818;stroke-width:0.5;"/><path d="M1122.5,196.91 L1122.5,206.91 L1132.5,206.91 L1122.5,196.91" fill="#FEFFDD" style="stroke:#181818;stroke-width:0.5;"/><text fill="#000000" font-family="sans-serif" font-size="13" lengthAdjust="spacing" textLength="156" x="961.5" y="215.4051">&#19982;&#22806;&#37096;&#35838;&#31243;&#20449;&#24687;&#25968;&#25454;&#24211;&#31995;&#32479;</text><text fill="#000000" font-family="sans-serif" font-size="13" lengthAdjust="spacing" textLength="117" x="961.5" y="231.7567">&#36827;&#34892;&#23454;&#26102;&#21516;&#27493;&#19982;&#20849;&#20139;</text></g><!--link Student to UC01--><g class="link" data-entity-1="Student" data-entity-2="UC01" data-source-line="51" data-uid="lnk31" id="link_Student_UC01"><path d="M92.21,239.83 C112.26,250.26 137.87,267.2 151,290.41 C161.22,308.46 145.79,367.41 159,383.41 C180,408.82 208.5511,419.2591 239.7111,424.0991" fill="none" id="Student-to-UC01" style="stroke:#181818;stroke-width:1;"/><polygon fill="#181818" points="245.64,425.02,237.3606,419.686,240.6992,424.2526,236.1327,427.5912,245.64,425.02" style="stroke:#181818;stroke-width:1;"/></g><!--link Student to UC02--><g class="link" data-entity-1="Student" data-entity-2="UC02" data-source-line="52" data-uid="lnk32" id="link_Student_UC02"><path d="M92.14,251.08 C112.71,270.32 139.03,299.44 151,331.41 C158.89,352.48 145.3,718.55 159,736.41 C176.02,758.59 197.4456,769.016 224.4456,775.076" fill="none" id="Student-to-UC02" style="stroke:#181818;stroke-width:1;"/><polygon fill="#181818" points="230.3,776.39,222.3945,770.5161,225.4214,775.295,220.6425,778.3219,230.3,776.39" style="stroke:#181818;stroke-width:1;"/></g><!--link Student to UC03--><g class="link" data-entity-1="Student" data-entity-2="UC03" data-source-line="53" data-uid="lnk33" id="link_Student_UC03"><path d="M76.31,275.12 C95.9,353.33 133.74,513.96 151,652.41 C153.38,671.5 147.13,810.26 159,825.41 C174.02,844.57 190.8774,854.3689 214.2574,861.1489" fill="none" id="Student-to-UC03" style="stroke:#181818;stroke-width:1;"/><polygon fill="#181818" points="220.02,862.82,212.4902,856.4716,215.2178,861.4274,210.2621,864.1551,220.02,862.82" style="stroke:#181818;stroke-width:1;"/></g><!--link Student to UC04--><g class="link" data-entity-1="Student" data-entity-2="UC04" data-source-line="54" data-uid="lnk34" id="link_Student_UC04"><path d="M79.69,179.9 C92.96,148.06 115.45,108.59 150,89.41 C299.61,6.36 385.6,6 535,89.41 C621.47,137.68 663.5704,251.1257 679.5404,305.1957" fill="none" id="Student-to-UC04" style="stroke:#181818;stroke-width:1;"/><polygon fill="#181818" points="681.24,310.95,682.5268,301.1856,679.8237,306.1548,674.8545,303.4517,681.24,310.95" style="stroke:#181818;stroke-width:1;"/></g><!--link Student to UC05--><g class="link" data-entity-1="Student" data-entity-2="UC05" data-source-line="55" data-uid="lnk35" id="link_Student_UC05"><path d="M92.07,197.72 C107.61,183.48 128.16,167.91 150,160.41 C311.83,104.81 406.19,47.77 535,160.41 C610.28,226.24 502.03,305.72 565,383.41 C579.83,401.71 597.0851,410.772 619.2551,417.022" fill="none" id="Student-to-UC05" style="stroke:#181818;stroke-width:1;"/><polygon fill="#181818" points="625.03,418.65,617.453,412.358,620.2176,417.2933,615.2823,420.0579,625.03,418.65" style="stroke:#181818;stroke-width:1;"/></g><!--link Student to UC06--><g class="link" data-entity-1="Student" data-entity-2="UC06" data-source-line="56" data-uid="lnk36" id="link_Student_UC06"><path d="M92.29,223.8 C109.35,222.2 131.48,221.14 151,223.41 C285.71,239.07 328.96,228.43 448,293.41 C495.18,319.16 510.07,329.79 535,377.41 C573.43,450.81 512.16,497.58 565,561.41 C581.01,580.74 600.2662,590.2106 623.6362,596.5006" fill="none" id="Student-to-UC06" style="stroke:#181818;stroke-width:1;"/><polygon fill="#181818" points="629.43,598.06,621.7789,591.8584,624.6018,596.7605,619.6997,599.5834,629.43,598.06" style="stroke:#181818;stroke-width:1;"/></g><!--link Student to UC07--><g class="link" data-entity-1="Student" data-entity-2="UC07" data-source-line="57" data-uid="lnk37" id="link_Student_UC07"><path d="M92.38,232.7 C109.66,236.38 131.99,241.97 151,249.41 C196.59,267.25 240.3631,292.0168 272.6831,311.8068" fill="none" id="Student-to-UC07" style="stroke:#181818;stroke-width:1;"/><polygon fill="#181818" points="277.8,314.94,272.2134,306.8289,273.5359,312.329,268.0358,313.6515,277.8,314.94" style="stroke:#181818;stroke-width:1;"/></g><!--link Teacher to UC01--><g class="link" data-entity-1="Teacher" data-entity-2="UC01" data-source-line="60" data-uid="lnk38" id="link_Teacher_UC01"><path d="M75.88,896.63 C87.83,847.76 106.38,769.54 120,701.41 C140.32,599.74 89.74,548.56 159,471.41 C180.83,447.08 209.0805,436.7698 239.8305,431.6798" fill="none" id="Teacher-to-UC01" style="stroke:#181818;stroke-width:1;"/><polygon fill="#181818" points="245.75,430.7,236.2176,428.2235,240.8171,431.5165,237.524,436.1161,245.75,430.7" style="stroke:#181818;stroke-width:1;"/></g><!--link Teacher to UC02--><g class="link" data-entity-1="Teacher" data-entity-2="UC02" data-source-line="61" data-uid="lnk39" id="link_Teacher_UC02"><path d="M92.27,896.76 C108.9,872.5 131.96,844.41 159,826.41 C182.51,810.75 205.7142,801.9353 232.2842,795.1953" fill="none" id="Teacher-to-UC02" style="stroke:#181818;stroke-width:1;"/><polygon fill="#181818" points="238.1,793.72,228.3928,792.0557,233.2535,794.9494,230.3598,799.8101,238.1,793.72" style="stroke:#181818;stroke-width:1;"/></g><!--link Teacher to UC03--><g class="link" data-entity-1="Teacher" data-entity-2="UC03" data-source-line="62" data-uid="lnk40" id="link_Teacher_UC03"><path d="M93.52,935.67 C112.26,930.12 137.05,922.82 159,916.41 C187.33,908.13 212.8163,900.7472 239.8163,892.9372" fill="none" id="Teacher-to-UC03" style="stroke:#181818;stroke-width:1;"/><polygon fill="#181818" points="245.58,891.27,235.823,889.9283,240.7769,892.6593,238.0459,897.6133,245.58,891.27" style="stroke:#181818;stroke-width:1;"/></g><!--link Teacher to UC09--><g class="link" data-entity-1="Teacher" data-entity-2="UC09" data-source-line="63" data-uid="lnk41" id="link_Teacher_UC09"><path d="M64.07,992.18 C66.83,1063.46 82.66,1197.51 159,1274.41 C181.61,1297.18 209.0317,1307.6478 239.0317,1313.5178" fill="none" id="Teacher-to-UC09" style="stroke:#181818;stroke-width:1;"/><polygon fill="#181818" points="244.92,1314.67,236.8556,1309.0162,240.0131,1313.7099,235.3194,1316.8673,244.92,1314.67" style="stroke:#181818;stroke-width:1;"/></g><!--link Teacher to UC10--><g class="link" data-entity-1="Teacher" data-entity-2="UC10" data-source-line="64" data-uid="lnk42" id="link_Teacher_UC10"><path d="M68.73,992.22 C79.42,1090.71 108.49,1311.47 159,1365.41 C180.55,1388.42 207.1235,1398.9386 236.8235,1404.7986" fill="none" id="Teacher-to-UC10" style="stroke:#181818;stroke-width:1;"/><polygon fill="#181818" points="242.71,1405.96,234.6545,1400.2935,237.8046,1404.9921,233.1059,1408.1422,242.71,1405.96" style="stroke:#181818;stroke-width:1;"/></g><!--link Teacher to UC11--><g class="link" data-entity-1="Teacher" data-entity-2="UC11" data-source-line="65" data-uid="lnk43" id="link_Teacher_UC11"><path d="M93.7,989.31 C113.39,1021.39 137.91,1066.34 151,1109.41 C155.94,1125.65 148.1,1172.38 159,1185.41 C172.8,1201.89 186.5485,1210.641 207.0185,1217.471" fill="none" id="Teacher-to-UC11" style="stroke:#181818;stroke-width:1;"/><polygon fill="#181818" points="212.71,1219.37,205.4387,1212.7271,207.967,1217.7875,202.9067,1220.3158,212.71,1219.37" style="stroke:#181818;stroke-width:1;"/></g><!--link AcademicAffairs to UC12--><g class="link" data-entity-1="AcademicAffairs" data-entity-2="UC12" data-source-line="68" data-uid="lnk44" id="link_AcademicAffairs_UC12"><path d="M120.24,1715.73 C132.63,1721.39 145.96,1726.42 159,1729.41 C284.19,1758.12 345.67,1807.04 448,1729.41 C643.99,1580.72 496.84,1424.78 565,1188.41 C591.83,1095.37 643.3906,998.8437 670.0906,951.9637" fill="none" id="AcademicAffairs-to-UC12" style="stroke:#181818;stroke-width:1;"/><polygon fill="#181818" points="673.06,946.75,665.1301,952.5909,670.5855,951.0947,672.0817,956.5501,673.06,946.75" style="stroke:#181818;stroke-width:1;"/></g><!--link AcademicAffairs to UC13--><g class="link" data-entity-1="AcademicAffairs" data-entity-2="UC13" data-source-line="69" data-uid="lnk45" id="link_AcademicAffairs_UC13"><path d="M88.55,1731.04 C103.06,1753.79 123.77,1778.76 150,1791.41 C304.14,1865.7 398.9,1895.12 535,1791.41 C557.1,1774.56 654.2569,1375.8736 680.5969,1266.3636" fill="none" id="AcademicAffairs-to-UC13" style="stroke:#181818;stroke-width:1;"/><polygon fill="#181818" points="682,1260.53,676.0062,1268.345,680.8307,1265.3914,683.7844,1270.2159,682,1260.53" style="stroke:#181818;stroke-width:1;"/></g><!--link AcademicAffairs to UC14--><g class="link" data-entity-1="AcademicAffairs" data-entity-2="UC14" data-source-line="70" data-uid="lnk46" id="link_AcademicAffairs_UC14"><path d="M120.22,1683.41 C138.97,1683.41 154.72,1683.41 176.75,1683.41" fill="none" id="AcademicAffairs-to-UC14" style="stroke:#181818;stroke-width:1;"/><polygon fill="#181818" points="182.75,1683.41,173.75,1679.41,177.75,1683.41,173.75,1687.41,182.75,1683.41" style="stroke:#181818;stroke-width:1;"/></g><!--link AcademicAffairs to UC15--><g class="link" data-entity-1="AcademicAffairs" data-entity-2="UC15" data-source-line="71" data-uid="lnk47" id="link_AcademicAffairs_UC15"><path d="M87.09,1635.58 C103.42,1606.47 127.92,1570.72 159,1548.41 C176.27,1536.01 191.1633,1528.783 211.6433,1522.133" fill="none" id="AcademicAffairs-to-UC15" style="stroke:#181818;stroke-width:1;"/><polygon fill="#181818" points="217.35,1520.28,207.5546,1519.255,212.5944,1521.8242,210.0253,1526.864,217.35,1520.28" style="stroke:#181818;stroke-width:1;"/></g><!--link AcademicAffairs to UC16--><g class="link" data-entity-1="AcademicAffairs" data-entity-2="UC16" data-source-line="72" data-uid="lnk48" id="link_AcademicAffairs_UC16"><path d="M120,1653.58 C132.63,1647.45 146.12,1641.37 159,1636.41 C182.96,1627.18 203.8699,1620.5395 228.2899,1613.7395" fill="none" id="AcademicAffairs-to-UC16" style="stroke:#181818;stroke-width:1;"/><polygon fill="#181818" points="234.07,1612.13,224.3268,1610.6909,229.2533,1613.4713,226.4729,1618.3977,234.07,1612.13" style="stroke:#181818;stroke-width:1;"/></g><!--link Admin to UC17--><g class="link" data-entity-1="Admin" data-entity-2="UC17" data-source-line="75" data-uid="lnk49" id="link_Admin_UC17"><path d="M75.74,684.21 C87.58,733.1 106.05,811.34 120,879.41 C124.92,903.4 142.6,1078.21 159,1096.41 C172.26,1111.13 184.3791,1119.1053 203.1391,1125.9053" fill="none" id="Admin-to-UC17" style="stroke:#181818;stroke-width:1;"/><polygon fill="#181818" points="208.78,1127.95,201.6818,1121.1224,204.0793,1126.2461,198.9556,1128.6436,208.78,1127.95" style="stroke:#181818;stroke-width:1;"/></g><!--link Admin to UC18--><g class="link" data-entity-1="Admin" data-entity-2="UC18" data-source-line="76" data-uid="lnk50" id="link_Admin_UC18"><path d="M109.36,594.78 C124.33,582.69 141.62,570.34 159,561.41 C180.12,550.55 198.4785,543.625 221.3185,536.985" fill="none" id="Admin-to-UC18" style="stroke:#181818;stroke-width:1;"/><polygon fill="#181818" points="227.08,535.31,217.3212,533.9815,222.2788,536.7058,219.5544,541.6634,227.08,535.31" style="stroke:#181818;stroke-width:1;"/></g><!--link Admin to UC19--><g class="link" data-entity-1="Admin" data-entity-2="UC19" data-source-line="77" data-uid="lnk51" id="link_Admin_UC19"><path d="M109.07,630.83 C137.39,627.32 169.1754,623.3868 204.5754,619.0068" fill="none" id="Admin-to-UC19" style="stroke:#181818;stroke-width:1;"/><polygon fill="#181818" points="210.53,618.27,201.1069,615.4054,205.5678,618.884,202.0893,623.3449,210.53,618.27" style="stroke:#181818;stroke-width:1;"/></g><!--link Admin to UC20--><g class="link" data-entity-1="Admin" data-entity-2="UC20" data-source-line="78" data-uid="lnk52" id="link_Admin_UC20"><path d="M70.09,588.88 C82.11,503.39 111.91,329.23 159,293.41 C261.23,215.64 328.91,245.3 448,293.41 C497.84,313.54 506.63,331.75 535,377.41 C558.14,414.66 534.62,439.78 565,471.41 C580.73,487.78 597.1648,496.435 618.3748,503.085" fill="none" id="Admin-to-UC20" style="stroke:#181818;stroke-width:1;"/><polygon fill="#181818" points="624.1,504.88,616.7089,498.3707,619.329,503.3841,614.3155,506.0043,624.1,504.88" style="stroke:#181818;stroke-width:1;"/></g><!--link Admin to UC21--><g class="link" data-entity-1="Admin" data-entity-2="UC21" data-source-line="79" data-uid="lnk53" id="link_Admin_UC21"><path d="M109.07,647.6 C125.03,653.93 141.39,663.65 151,678.41 C165.44,700.58 142.75,895.53 159,916.41 C170.48,931.16 180.9121,939.0693 198.3221,945.9693" fill="none" id="Admin-to-UC21" style="stroke:#181818;stroke-width:1;"/><polygon fill="#181818" points="203.9,948.18,197.0069,941.1454,199.2517,946.3378,194.0594,948.5826,203.9,948.18" style="stroke:#181818;stroke-width:1;"/></g><!--link Admin to UC22--><g class="link" data-entity-1="Admin" data-entity-2="UC22" data-source-line="80" data-uid="lnk54" id="link_Admin_UC22"><path d="M109.35,668.16 C125.56,682.14 142.02,700.04 151,720.41 C163.83,749.49 139.55,981.26 159,1006.41 C173.79,1025.52 190.4217,1035.2187 213.6517,1041.8687" fill="none" id="Admin-to-UC22" style="stroke:#181818;stroke-width:1;"/><polygon fill="#181818" points="219.42,1043.52,211.8684,1037.1975,214.6131,1042.1439,209.6667,1044.8886,219.42,1043.52" style="stroke:#181818;stroke-width:1;"/></g><!--link ExternalDB to UC23--><g class="link" data-entity-1="ExternalDB" data-entity-2="UC23" data-source-line="83" data-uid="lnk55" id="link_ExternalDB_UC23"><path d="M756.07,1775.71 C777.53,1764.26 799.54,1748.68 814,1728.41 C945.95,1543.44 1024.9248,797.5814 1039.8448,645.3414" fill="none" id="ExternalDB-to-UC23" style="stroke:#181818;stroke-width:1;"/><polygon fill="#181818" points="1040.43,639.37,1035.5712,647.9369,1039.9423,644.3462,1043.5331,648.7172,1040.43,639.37" style="stroke:#181818;stroke-width:1;"/></g><!--link UC04 to UC23--><g class="link" data-entity-1="UC04" data-entity-2="UC23" data-source-line="86" data-uid="lnk56" id="link_UC04_UC23"><path d="M765.14,360.32 C781.79,366.63 798.96,374.32 814,383.41 C905.68,438.78 984.0938,533.7698 1020.0738,581.1998" fill="none" id="UC04-to-UC23" style="stroke:#181818;stroke-width:1;stroke-dasharray:7,7;"/><polygon fill="#181818" points="1023.7,585.98,1021.4475,576.3922,1020.6781,581.9965,1015.0738,581.2272,1023.7,585.98" style="stroke:#181818;stroke-width:1;"/><text fill="#000000" font-family="sans-serif" font-size="13" lengthAdjust="spacing" textLength="55.6563" x="845" y="404.9051">&#171;include&#187;</text></g><!--link UC05 to UC23--><g class="link" data-entity-1="UC05" data-entity-2="UC23" data-source-line="87" data-uid="lnk57" id="link_UC05_UC23"><path d="M743.46,443.56 C765.68,451.02 791.53,460.63 814,471.41 C885.78,505.82 958.5918,553.5321 1002.5118,583.8421" fill="none" id="UC05-to-UC23" style="stroke:#181818;stroke-width:1;stroke-dasharray:7,7;"/><polygon fill="#181818" points="1007.45,587.25,1002.3147,578.8459,1003.3348,584.41,997.7707,585.4302,1007.45,587.25" style="stroke:#181818;stroke-width:1;"/><text fill="#000000" font-family="sans-serif" font-size="13" lengthAdjust="spacing" textLength="55.6563" x="845" y="484.9051">&#171;include&#187;</text></g><!--link UC12 to UC23--><g class="link" data-entity-1="UC12" data-entity-2="UC23" data-source-line="90" data-uid="lnk58" id="link_UC12_UC23"><path d="M719.95,894.68 C786.3,836.7 942.3616,700.3377 1008.8716,642.2277" fill="none" id="UC12-to-UC23" style="stroke:#181818;stroke-width:1;stroke-dasharray:7,7;"/><polygon fill="#181818" points="1013.39,638.28,1003.9807,641.1893,1009.6247,641.5698,1009.2443,647.2138,1013.39,638.28" style="stroke:#181818;stroke-width:1;"/><text fill="#000000" font-family="sans-serif" font-size="13" lengthAdjust="spacing" textLength="55.6563" x="845" y="735.9051">&#171;include&#187;</text></g><!--link UC13 to UC23--><g class="link" data-entity-1="UC13" data-entity-2="UC23" data-source-line="91" data-uid="lnk59" id="link_UC13_UC23"><path d="M705.65,1206.72 C763.56,1104.69 967.6683,745.1281 1025.1483,643.8581" fill="none" id="UC13-to-UC23" style="stroke:#181818;stroke-width:1;stroke-dasharray:7,7;"/><polygon fill="#181818" points="1028.11,638.64,1020.1887,644.4926,1025.6419,642.9884,1027.1461,648.4416,1028.11,638.64" style="stroke:#181818;stroke-width:1;"/><text fill="#000000" font-family="sans-serif" font-size="13" lengthAdjust="spacing" textLength="55.6563" x="845" y="863.9051">&#171;include&#187;</text></g><!--link UC08 to UC05--><g class="link" data-entity-1="UC08" data-entity-2="UC05" data-source-line="94" data-uid="lnk60" id="link_UC08_UC05"><path d="M387.99,678.9 C408.77,672.3 430.55,662.84 448,649.41 C523.02,591.65 490.55,529.88 565,471.41 C583.71,456.71 601.9854,448.4547 623.8554,441.7247" fill="none" id="UC08-to-UC05" style="stroke:#181818;stroke-width:1;stroke-dasharray:7,7;"/><polygon fill="#181818" points="629.59,439.96,619.8116,438.784,624.8112,441.4306,622.1645,446.4301,629.59,439.96" style="stroke:#181818;stroke-width:1;"/><text fill="#000000" font-family="sans-serif" font-size="13" lengthAdjust="spacing" textLength="53.4917" x="480" y="499.9051">&#171;extend&#187;</text></g><!--link UC15 to UC06--><g class="link" data-entity-1="UC15" data-entity-2="UC06" data-source-line="97" data-uid="lnk61" id="link_UC15_UC06"><path d="M409.63,1483.59 C424.11,1477.06 437.67,1468.26 448,1456.41 C620.74,1258.13 483.77,1126.52 565,876.41 C595.17,783.5 645.4996,685.4697 671.0896,638.0697" fill="none" id="UC15-to-UC06" style="stroke:#181818;stroke-width:1;stroke-dasharray:7,7;"/><polygon fill="#181818" points="673.94,632.79,666.1446,638.8093,671.5647,637.1898,673.1842,642.6098,673.94,632.79" style="stroke:#181818;stroke-width:1;"/><text fill="#000000" font-family="sans-serif" font-size="13" lengthAdjust="spacing" textLength="55.6563" x="479" y="1287.9051">&#171;include&#187;</text></g><!--link UC07 to UC20--><g class="link" data-entity-1="UC07" data-entity-2="UC20" data-source-line="100" data-uid="lnk62" id="link_UC07_UC20"><path d="M374.77,354 C398.22,361.38 425.08,371.26 448,383.41 C505.49,413.87 507.81,440.37 565,471.41 C585.96,482.78 604.7115,490.4324 626.2815,497.7924" fill="none" id="UC07-to-UC20" style="stroke:#181818;stroke-width:1;stroke-dasharray:7,7;"/><polygon fill="#181818" points="631.96,499.73,624.7339,493.0379,627.2279,498.1153,622.1505,500.6093,631.96,499.73" style="stroke:#181818;stroke-width:1;"/><text fill="#000000" font-family="sans-serif" font-size="13" lengthAdjust="spacing" textLength="55.6563" x="479" y="399.9051">&#171;include&#187;</text></g><!--link UC05 to GMN63--><g class="link" data-entity-1="UC05" data-entity-2="GMN63" data-source-line="104" data-uid="lnk65" id="link_UC05_GMN63"><path d="M754.19,418.83 C776.39,412.6 799.37,401.87 814,383.41 C888.68,289.1 765.3,205.39 844,114.41 C871.45,82.67 915.62,69.12 955.39,63.73" fill="none" id="UC05-GMN63" style="stroke:#181818;stroke-width:1;stroke-dasharray:7,7;"/></g><!--link UC06 to GMN66--><g class="link" data-entity-1="UC06" data-entity-2="GMN66" data-source-line="109" data-uid="lnk68" id="link_UC06_GMN66"><path d="M749.53,598.02 C772.89,591.73 797.95,580.71 814,561.41 C865.58,499.38 821.28,459.81 844,382.41 C871.64,288.22 859.21,246.35 931,179.41 C938.45,172.46 947.21,166.73 956.49,162.03" fill="none" id="UC06-GMN66" style="stroke:#181818;stroke-width:1;stroke-dasharray:7,7;"/></g><!--SRC=[ZLTFKzj65B_xK-paKdeWOyc0WKap0o7JffFCCA6qbrmKUGsQs98hoQMqqnaSOce33auAIMbem9b0I5fCA0a1NCA7gNSbJlqAVQkLPBCsK8QBtxxtU_z-x-qgXPCsiWraQcFZDafe9bPjpT0ZrZrDpoYcaaOPHRsdZE4HUpA54JjMzB4KZaGKrJPCT8biRJYBgtVqZX4xcy2w_Uabf5Z8_n4eqQLbiby0fQ-meevZaolvFvgLPYlavGFG6r2L14vhAXf89XNDjBX18FM5WQ5JhJZb6VBeLsQOI6kwPjcc0aU-5HE5uRvySZAzwMv_T3RdwiSLcjk-ezEbjxHK9OU_EBirfyPokVwzZKrTIQ5hHjQqC1eQv521V6Wm4WbBuTM0hbLu_3oO1b8YgogieW3M51i8q2r5XxgceKnePDAoSHfy_1X12Fu_GP-5VuZa_oJv7MTni_vnhaaEQbaBgmg4TsdqMbJgHw122n-SvHevMWBNenOsqKrZJDDvy4n9C9BxKVsuIXSFoFQCivO3eslZa1D6mufbJHXc8hIK1SjOFwBFtj4dR-lxR-g7Xq4fEqOp2SK6UsnQNiutzAGHWiJQPUVnvwBiki3T-mNtLO4ydgVb5UVT2zv2y3Xe6XEWfUW9D88LKnttcsQ5Rhi4iEv-T39L1036Mfo2FleceKMtOD73BAQunP1fP4Jz7a4_3k6khZihSxHGTcglmUfh3K-WpqtWRoEkk63Lsu_8x1h9hvEfPRUoJiebKcAD_DBGTFIDejaf84zetTkcc7pEBYfc7_WvMW8_ONJNTU2r65xVQJCf6f0bDBjb9BJaf60dHGKxO2QtW8bmgnLIcA7FosnKWH-JFs1k3Xi3fiAoDRK199sHeRSaBaXI0cgJXKTaV_hqh7SCP-z26GEIUFmqqzv0Xdu5hal0TJxL7ChBuJ5BtnlW06aufUYDs6C21X2O1GsReNX0gxESV-xs1xfp7v2-0FR28Xd9O5LhR9tR-Diijkm6g41a2OXCgXLQF22rFRgooYdgBEu2Bgjl9cCQts5qamsanzeMG87d4l3ShNvqZgf-VAyUaCAoDoN1Y20-C6n_tSwcchhUqwPPuMA-g5dneC9y6uJDyYlitoPjcoKCaTGRGF5P4A7yEwSjLAy01NDoaYz1DVWsvvLXEzBGazfOriJ-teQQsBQcZpMA8OoE7EMDMjiFHsSWcz1iON9aON9ac1oItoGxKstdXplldD0ImGnv4sLf3K1XtyjiA5x-NAyTyOpunSTsADpnsKoGpf1YAo64tAwldlN9inaMr_cjbM5uI7cURgqBSpWogQld3A7Szgx8xu9hKlsjVb0yxT7JvEG19JUt28A0DPsTLuExJn39hQ9OgwYhLTJTAkff5SM3m3WLmy023ZO59eZaLb6iLTJN8l9sho2IcgFmLcSOYF2U2YpaiuzYPnzrdNtKVVPHk3R2NT68ZZsN0hsuAEWL1Ns2m9kcKm9958JSvgz2JklGV-En5-Y7dBoXgobeDUSZwlIV4-njuZrIEDLFLgRSZLmh-G61iGfTlin1KJ-wSaNZY5UlyjFkiq_R1i2lEWYW-Q9g3i23bUJpd4gn2vooWkW98MdwT8zitAVFLxXFyk4lMgkGXUrwRRtvCSFJwlKzG7xC0_O0pydAkzoQhpMwLoGBirn2t-V08Gyzg5Uqv__Lgy6sfhLCoWzfiUHE7xdLrtoNy4SSZpqUL2SgkFWf4j4Dk6Bv9vIH31O4hmyq0GhYxksIF5n6LVy9iP63Y_-VgLoe1czesCOdosLIs7EsYlJtIhss5u7g88RTnaDFQ4eBR-ZM2_fq7Pu0f5Y2sjEdQno05-hVl-T1cQj1ZX0HBwm8VzUmRIFDyJskr_SVjdul2LzBeEOUFtChywJwd771OnippE_K3_zekFWF]--></g></svg>