<svg xmlns="http://www.w3.org/2000/svg" xmlns:xlink="http://www.w3.org/1999/xlink" contentStyleType="text/css" data-diagram-type="CLASS" height="507px" preserveAspectRatio="none" style="width:253px;height:507px;background:#FFFFFF;" version="1.1" viewBox="0 0 253 507" width="253px" zoomAndPan="magnify"><title>UC01: &#29992;&#25143;&#30331;&#24405; - &#21442;&#19982;&#31867;&#22270; (VOPC)</title><defs/><g><g class="title" data-source-line="1"><text fill="#000000" font-family="sans-serif" font-size="14" font-weight="bold" lengthAdjust="spacing" textLength="225.1758" x="10" y="24.5332">UC01: &#29992;&#25143;&#30331;&#24405; - &#21442;&#19982;&#31867;&#22270; (VOPC)</text></g><!--class LoginForm--><g class="entity" data-entity="LoginForm" data-source-line="3" data-uid="ent0002" id="entity_LoginForm"><rect fill="#F1F1F1" height="93.9219" rx="2.5" ry="2.5" style="stroke:#181818;stroke-width:0.5;" width="166.8203" x="45.9194" y="45.6094"/><ellipse cx="91.6211" cy="66.9609" fill="#ADD1B2" rx="11" ry="11" style="stroke:#181818;stroke-width:1;"/><path d="M94.3867,62.8359 Q94.543,62.6172 94.7305,62.5078 Q94.918,62.3984 95.1367,62.3984 Q95.5117,62.3984 95.7461,62.6641 Q95.9805,62.9141 95.9805,63.5234 L95.9805,64.9766 Q95.9805,65.5859 95.7461,65.8516 Q95.5117,66.1172 95.1367,66.1172 Q94.793,66.1172 94.5898,65.9141 Q94.3867,65.7266 94.2773,65.2109 Q94.2305,64.8516 94.043,64.6641 Q93.7148,64.2891 93.1055,64.0703 Q92.4961,63.8516 91.8711,63.8516 Q91.1055,63.8516 90.4648,64.1797 Q89.8398,64.5078 89.3398,65.2578 Q88.8555,66.0078 88.8555,67.0391 L88.8555,68.1328 Q88.8555,69.3672 89.7461,70.1953 Q90.6367,71.0078 92.2305,71.0078 Q93.168,71.0078 93.8242,70.7578 Q94.2148,70.6016 94.6367,70.1641 Q94.9023,69.8984 95.043,69.8203 Q95.1992,69.7422 95.4023,69.7422 Q95.7305,69.7422 95.9805,70.0078 Q96.2461,70.2578 96.2461,70.6016 Q96.2461,70.9453 95.9023,71.3516 Q95.4023,71.9297 94.6055,72.2578 Q93.5273,72.7109 92.2305,72.7109 Q90.7148,72.7109 89.5117,72.0859 Q88.5273,71.5859 87.8398,70.5234 Q87.1523,69.4453 87.1523,68.1641 L87.1523,67.0078 Q87.1523,65.6797 87.7617,64.5391 Q88.3867,63.3828 89.4805,62.7734 Q90.5742,62.1484 91.8086,62.1484 Q92.543,62.1484 93.1836,62.3203 Q93.8398,62.4766 94.3867,62.8359 Z " fill="#000000"/><text fill="#000000" font-family="sans-serif" font-size="12" font-style="italic" lengthAdjust="spacing" textLength="63.3867" x="113.8862" y="63.0664">&#171;boundary&#187;</text><text fill="#000000" font-family="sans-serif" font-size="14" lengthAdjust="spacing" textLength="66.917" x="112.1211" y="80.2363">LoginForm</text><line style="stroke:#181818;stroke-width:0.5;" x1="46.9194" x2="211.7397" y1="88.3125" y2="88.3125"/><line style="stroke:#181818;stroke-width:0.5;" x1="46.9194" x2="211.7397" y1="96.3125" y2="96.3125"/><ellipse cx="56.9194" cy="110.6172" fill="#84BE84" rx="3" ry="3" style="stroke:#038048;stroke-width:1;"/><text fill="#000000" font-family="sans-serif" font-size="14" lengthAdjust="spacing" textLength="140.8203" x="65.9194" y="114.8457">displayErrorMessage()</text><ellipse cx="56.9194" cy="128.2266" fill="#84BE84" rx="3" ry="3" style="stroke:#038048;stroke-width:1;"/><text fill="#000000" font-family="sans-serif" font-size="14" lengthAdjust="spacing" textLength="115.9375" x="65.9194" y="132.4551">navigateToHome()</text></g><!--class LoginController--><g class="entity" data-entity="LoginController" data-source-line="8" data-uid="ent0003" id="entity_LoginController"><rect fill="#F1F1F1" height="76.3125" rx="2.5" ry="2.5" style="stroke:#181818;stroke-width:0.5;" width="194.8545" x="31.9194" y="217.6094"/><ellipse cx="77.6245" cy="238.9609" fill="#ADD1B2" rx="11" ry="11" style="stroke:#181818;stroke-width:1;"/><path d="M80.3901,234.8359 Q80.5464,234.6172 80.7339,234.5078 Q80.9214,234.3984 81.1401,234.3984 Q81.5151,234.3984 81.7495,234.6641 Q81.9839,234.9141 81.9839,235.5234 L81.9839,236.9766 Q81.9839,237.5859 81.7495,237.8516 Q81.5151,238.1172 81.1401,238.1172 Q80.7964,238.1172 80.5933,237.9141 Q80.3901,237.7266 80.2808,237.2109 Q80.2339,236.8516 80.0464,236.6641 Q79.7183,236.2891 79.1089,236.0703 Q78.4995,235.8516 77.8745,235.8516 Q77.1089,235.8516 76.4683,236.1797 Q75.8433,236.5078 75.3433,237.2578 Q74.8589,238.0078 74.8589,239.0391 L74.8589,240.1328 Q74.8589,241.3672 75.7495,242.1953 Q76.6401,243.0078 78.2339,243.0078 Q79.1714,243.0078 79.8276,242.7578 Q80.2183,242.6016 80.6401,242.1641 Q80.9058,241.8984 81.0464,241.8203 Q81.2026,241.7422 81.4058,241.7422 Q81.7339,241.7422 81.9839,242.0078 Q82.2495,242.2578 82.2495,242.6016 Q82.2495,242.9453 81.9058,243.3516 Q81.4058,243.9297 80.6089,244.2578 Q79.5308,244.7109 78.2339,244.7109 Q76.7183,244.7109 75.5151,244.0859 Q74.5308,243.5859 73.8433,242.5234 Q73.1558,241.4453 73.1558,240.1641 L73.1558,239.0078 Q73.1558,237.6797 73.7651,236.5391 Q74.3901,235.3828 75.4839,234.7734 Q76.5776,234.1484 77.812,234.1484 Q78.5464,234.1484 79.187,234.3203 Q79.8433,234.4766 80.3901,234.8359 Z " fill="#000000"/><text fill="#000000" font-family="sans-serif" font-size="12" font-style="italic" lengthAdjust="spacing" textLength="49.3652" x="120.9141" y="235.0664">&#171;control&#187;</text><text fill="#000000" font-family="sans-serif" font-size="14" lengthAdjust="spacing" textLength="94.9443" x="98.1245" y="252.2363">LoginController</text><line style="stroke:#181818;stroke-width:0.5;" x1="32.9194" x2="225.7739" y1="260.3125" y2="260.3125"/><line style="stroke:#181818;stroke-width:0.5;" x1="32.9194" x2="225.7739" y1="268.3125" y2="268.3125"/><ellipse cx="42.9194" cy="282.6172" fill="#84BE84" rx="3" ry="3" style="stroke:#038048;stroke-width:1;"/><text fill="#000000" font-family="sans-serif" font-size="14" lengthAdjust="spacing" textLength="168.8545" x="51.9194" y="286.8457">login(username, password)</text></g><!--class User--><g class="entity" data-entity="User" data-source-line="12" data-uid="ent0004" id="entity_User"><rect fill="#F1F1F1" height="129.1406" rx="2.5" ry="2.5" style="stroke:#181818;stroke-width:0.5;" width="228.3369" x="15.4194" y="371.6094"/><ellipse cx="106.3232" cy="392.9609" fill="#ADD1B2" rx="11" ry="11" style="stroke:#181818;stroke-width:1;"/><path d="M109.0889,388.8359 Q109.2451,388.6172 109.4326,388.5078 Q109.6201,388.3984 109.8389,388.3984 Q110.2139,388.3984 110.4482,388.6641 Q110.6826,388.9141 110.6826,389.5234 L110.6826,390.9766 Q110.6826,391.5859 110.4482,391.8516 Q110.2139,392.1172 109.8389,392.1172 Q109.4951,392.1172 109.292,391.9141 Q109.0889,391.7266 108.9795,391.2109 Q108.9326,390.8516 108.7451,390.6641 Q108.417,390.2891 107.8076,390.0703 Q107.1982,389.8516 106.5732,389.8516 Q105.8076,389.8516 105.167,390.1797 Q104.542,390.5078 104.042,391.2578 Q103.5576,392.0078 103.5576,393.0391 L103.5576,394.1328 Q103.5576,395.3672 104.4482,396.1953 Q105.3389,397.0078 106.9326,397.0078 Q107.8701,397.0078 108.5264,396.7578 Q108.917,396.6016 109.3389,396.1641 Q109.6045,395.8984 109.7451,395.8203 Q109.9014,395.7422 110.1045,395.7422 Q110.4326,395.7422 110.6826,396.0078 Q110.9482,396.2578 110.9482,396.6016 Q110.9482,396.9453 110.6045,397.3516 Q110.1045,397.9297 109.3076,398.2578 Q108.2295,398.7109 106.9326,398.7109 Q105.417,398.7109 104.2139,398.0859 Q103.2295,397.5859 102.542,396.5234 Q101.8545,395.4453 101.8545,394.1641 L101.8545,393.0078 Q101.8545,391.6797 102.4639,390.5391 Q103.0889,389.3828 104.1826,388.7734 Q105.2764,388.1484 106.5107,388.1484 Q107.2451,388.1484 107.8857,388.3203 Q108.542,388.4766 109.0889,388.8359 Z " fill="#000000"/><text fill="#000000" font-family="sans-serif" font-size="12" font-style="italic" lengthAdjust="spacing" textLength="42.0293" x="124.8232" y="389.0664">&#171;entity&#187;</text><text fill="#000000" font-family="sans-serif" font-size="14" lengthAdjust="spacing" textLength="29.5586" x="131.0586" y="406.2363">User</text><line style="stroke:#181818;stroke-width:0.5;" x1="16.4194" x2="242.7563" y1="414.3125" y2="414.3125"/><rect fill="none" height="6" style="stroke:#C82930;stroke-width:1;" width="6" x="23.4194" y="425.6172"/><text fill="#000000" font-family="sans-serif" font-size="14" lengthAdjust="spacing" textLength="106.6064" x="35.4194" y="432.8457">username: String</text><rect fill="none" height="6" style="stroke:#C82930;stroke-width:1;" width="6" x="23.4194" y="443.2266"/><text fill="#000000" font-family="sans-serif" font-size="14" lengthAdjust="spacing" textLength="104.2686" x="35.4194" y="450.4551">password: String</text><rect fill="none" height="6" style="stroke:#C82930;stroke-width:1;" width="6" x="23.4194" y="460.8359"/><text fill="#000000" font-family="sans-serif" font-size="14" lengthAdjust="spacing" textLength="67.6963" x="35.4194" y="468.0645">role: Enum</text><line style="stroke:#181818;stroke-width:0.5;" x1="16.4194" x2="242.7563" y1="475.1406" y2="475.1406"/><ellipse cx="26.4194" cy="489.4453" fill="#84BE84" rx="3" ry="3" style="stroke:#038048;stroke-width:1;"/><text fill="#000000" font-family="sans-serif" font-size="14" lengthAdjust="spacing" textLength="202.3369" x="35.4194" y="493.6738">validatePassword(pwd): boolean</text></g><!--link LoginForm to LoginController--><g class="link" data-entity-1="LoginForm" data-entity-2="LoginController" data-source-line="19" data-uid="lnk5" id="link_LoginForm_LoginController"><path codeLine="19" d="M129.4194,139.7494 C129.4194,164.3694 129.4194,188.2694 129.4194,211.3994" fill="none" id="LoginForm-to-LoginController" style="stroke:#181818;stroke-width:1;stroke-dasharray:7,7;"/><polygon fill="#181818" points="129.4194,217.3994,133.4194,208.3994,129.4194,212.3994,125.4194,208.3994,129.4194,217.3994" style="stroke:#181818;stroke-width:1;"/><text fill="#000000" font-family="sans-serif" font-size="13" lengthAdjust="spacing" textLength="27.46" x="130.4194" y="184.1045">uses</text></g><!--link LoginController to User--><g class="link" data-entity-1="LoginController" data-entity-2="User" data-source-line="20" data-uid="lnk6" id="link_LoginController_User"><path codeLine="20" d="M129.4194,294.0294 C129.4194,316.4194 129.4194,339.4694 129.4194,365.3794" fill="none" id="LoginController-to-User" style="stroke:#181818;stroke-width:1;stroke-dasharray:7,7;"/><polygon fill="#181818" points="129.4194,371.3794,133.4194,362.3794,129.4194,366.3794,125.4194,362.3794,129.4194,371.3794" style="stroke:#181818;stroke-width:1;"/><text fill="#000000" font-family="sans-serif" font-size="13" lengthAdjust="spacing" textLength="54.1899" x="130.4194" y="338.1045">accesses</text></g><!--SRC=[PL2zJiCm4Dxp53ScWbQmMbMMg8YXY4fGzcjiHPOSEpexhIh4miG42mo85s1b0gc2fo7aDR1BgfRsjlly_VcST4h093iwPj0-llxSlRVFo-Rp2NhGFDn-VzotRylcvGlYg_DnbaHHhj1Q69b2wXD39Gm6KrDhZhH8KxYEmCy1S6ahXOiXaQ4pOIqM8awwDuqpMQ0Jb-RKb06- -MUQ6Ut8A2N8M-T_ovQp2fouje8qbk8GAY-S6-9RDXExqWhjfDkKwi5QnE32aTH51wyTTc0Vwvb3NPTTyWoLvBxtkEF7rPmd3AR64r67-CrH-lrqxpSi5B3HBXoegyOCCC_zhOJz1G00]--></g></svg>