<svg xmlns="http://www.w3.org/2000/svg" xmlns:xlink="http://www.w3.org/1999/xlink" contentStyleType="text/css" data-diagram-type="SEQUENCE" height="575px" preserveAspectRatio="none" style="width:579px;height:575px;background:#FFFFFF;" version="1.1" viewBox="0 0 579 575" width="579px" zoomAndPan="magnify"><title>UC01: &#29992;&#25143;&#30331;&#24405; - &#39034;&#24207;&#22270;</title><defs/><g><text fill="#000000" font-family="sans-serif" font-size="14" font-weight="bold" lengthAdjust="spacing" textLength="157.8486" x="211.8301" y="29.5332">UC01: &#29992;&#25143;&#30331;&#24405; - &#39034;&#24207;&#22270;</text><rect fill="none" height="155.5938" style="stroke:#000000;stroke-width:1.5;" width="408.3271" x="10" y="320.3281"/><g><title>..</title><rect fill="#000000" fill-opacity="0.00000" height="371.7031" width="8" x="33" y="121.2188"/><line style="stroke:#181818;stroke-width:0.5;stroke-dasharray:5,5;" x1="37" x2="37" y1="121.2188" y2="492.9219"/></g><g><title>....</title><rect fill="#000000" fill-opacity="0.00000" height="371.7031" width="8" x="135" y="121.2188"/><line style="stroke:#181818;stroke-width:0.5;stroke-dasharray:5,5;" x1="139" x2="139" y1="121.2188" y2="492.9219"/></g><g><title>.....</title><rect fill="#000000" fill-opacity="0.00000" height="371.7031" width="8" x="366.3271" y="121.2188"/><line style="stroke:#181818;stroke-width:0.5;stroke-dasharray:5,5;" x1="370.3271" x2="370.3271" y1="121.2188" y2="492.9219"/></g><g><title>..</title><rect fill="#000000" fill-opacity="0.00000" height="371.7031" width="8" x="556.5088" y="121.2188"/><line style="stroke:#181818;stroke-width:0.5;stroke-dasharray:5,5;" x1="560.5088" x2="560.5088" y1="121.2188" y2="492.9219"/></g><g class="participant participant-head" data-participant="UserActor"><text fill="#000000" font-family="sans-serif" font-size="14" lengthAdjust="spacing" textLength="28" x="20" y="118.1426">&#29992;&#25143;</text><ellipse cx="37" cy="52.1094" fill="#E2E2F0" rx="8" ry="8" style="stroke:#181818;stroke-width:0.5;"/><path d="M37,60.1094 L37,87.1094 M24,68.1094 L50,68.1094 M37,87.1094 L24,102.1094 M37,87.1094 L50,102.1094" fill="none" style="stroke:#181818;stroke-width:0.5;"/></g><g class="participant participant-tail" data-participant="UserActor"><text fill="#000000" font-family="sans-serif" font-size="14" lengthAdjust="spacing" textLength="28" x="20" y="506.4551">&#29992;&#25143;</text><ellipse cx="37" cy="518.0313" fill="#E2E2F0" rx="8" ry="8" style="stroke:#181818;stroke-width:0.5;"/><path d="M37,526.0313 L37,553.0313 M24,534.0313 L50,534.0313 M37,553.0313 L24,568.0313 M37,553.0313 L50,568.0313" fill="none" style="stroke:#181818;stroke-width:0.5;"/></g><g class="participant participant-head" data-participant="LoginForm"><text fill="#000000" font-family="sans-serif" font-size="14" lengthAdjust="spacing" textLength="56" x="108" y="118.1426">&#30331;&#24405;&#30028;&#38754;</text><path d="M118.5,75.6094 L118.5,99.6094 M118.5,87.6094 L135.5,87.6094" fill="none" style="stroke:#181818;stroke-width:0.5;"/><ellipse cx="147.5" cy="87.6094" fill="#E2E2F0" rx="12" ry="12" style="stroke:#181818;stroke-width:0.5;"/></g><g class="participant participant-tail" data-participant="LoginForm"><text fill="#000000" font-family="sans-serif" font-size="14" lengthAdjust="spacing" textLength="56" x="108" y="506.4551">&#30331;&#24405;&#30028;&#38754;</text><path d="M118.5,513.5313 L118.5,537.5313 M118.5,525.5313 L135.5,525.5313" fill="none" style="stroke:#181818;stroke-width:0.5;"/><ellipse cx="147.5" cy="525.5313" fill="#E2E2F0" rx="12" ry="12" style="stroke:#181818;stroke-width:0.5;"/></g><g class="participant participant-head" data-participant="LoginController"><text fill="#000000" font-family="sans-serif" font-size="14" lengthAdjust="spacing" textLength="70" x="332.3271" y="118.1426">&#30331;&#24405;&#25511;&#21046;&#22120;</text><ellipse cx="370.3271" cy="87.6094" fill="#E2E2F0" rx="12" ry="12" style="stroke:#181818;stroke-width:0.5;"/><polygon fill="#181818" points="366.3271,75.6094,372.3271,70.6094,370.3271,75.6094,372.3271,80.6094,366.3271,75.6094" style="stroke:#181818;stroke-width:1;"/></g><g class="participant participant-tail" data-participant="LoginController"><text fill="#000000" font-family="sans-serif" font-size="14" lengthAdjust="spacing" textLength="70" x="332.3271" y="506.4551">&#30331;&#24405;&#25511;&#21046;&#22120;</text><ellipse cx="370.3271" cy="525.5313" fill="#E2E2F0" rx="12" ry="12" style="stroke:#181818;stroke-width:0.5;"/><polygon fill="#181818" points="366.3271,513.5313,372.3271,508.5313,370.3271,513.5313,372.3271,518.5313,366.3271,513.5313" style="stroke:#181818;stroke-width:1;"/></g><g class="participant participant-head" data-participant="UserEntity"><text fill="#000000" font-family="sans-serif" font-size="14" lengthAdjust="spacing" textLength="28" x="543.5088" y="118.1426">&#29992;&#25143;</text><ellipse cx="560.5088" cy="87.6094" fill="#E2E2F0" rx="12" ry="12" style="stroke:#181818;stroke-width:0.5;"/><line style="stroke:#181818;stroke-width:0.5;" x1="548.5088" x2="572.5088" y1="101.6094" y2="101.6094"/></g><g class="participant participant-tail" data-participant="UserEntity"><text fill="#000000" font-family="sans-serif" font-size="14" lengthAdjust="spacing" textLength="28" x="543.5088" y="506.4551">&#29992;&#25143;</text><ellipse cx="560.5088" cy="525.5313" fill="#E2E2F0" rx="12" ry="12" style="stroke:#181818;stroke-width:0.5;"/><line style="stroke:#181818;stroke-width:0.5;" x1="548.5088" x2="572.5088" y1="539.5313" y2="539.5313"/></g><g class="message" data-participant-1="UserActor" data-participant-2="LoginForm"><polygon fill="#181818" points="127,149.5703,137,153.5703,127,157.5703,131,153.5703" style="stroke:#181818;stroke-width:1;"/><line style="stroke:#181818;stroke-width:1;" x1="37" x2="133" y1="153.5703" y2="153.5703"/><text fill="#000000" font-family="sans-serif" font-size="13" lengthAdjust="spacing" textLength="78" x="44" y="148.7139">&#36755;&#20837;&#36134;&#21495;&#23494;&#30721;</text></g><g class="message" data-participant-1="LoginForm" data-participant-2="LoginController"><polygon fill="#181818" points="358.3271,179.9219,368.3271,183.9219,358.3271,187.9219,362.3271,183.9219" style="stroke:#181818;stroke-width:1;"/><line style="stroke:#181818;stroke-width:1;" x1="139" x2="364.3271" y1="183.9219" y2="183.9219"/><text fill="#000000" font-family="sans-serif" font-size="13" lengthAdjust="spacing" textLength="207.3271" x="146" y="179.0654">&#25552;&#20132;&#30331;&#24405;&#35831;&#27714;(username, password)</text></g><g class="message" data-participant-1="LoginController" data-participant-2="UserEntity"><polygon fill="#181818" points="548.5088,210.2734,558.5088,214.2734,548.5088,218.2734,552.5088,214.2734" style="stroke:#181818;stroke-width:1;"/><line style="stroke:#181818;stroke-width:1;" x1="370.3271" x2="554.5088" y1="214.2734" y2="214.2734"/><text fill="#000000" font-family="sans-serif" font-size="13" lengthAdjust="spacing" textLength="114.8735" x="377.3271" y="209.417">findUser(username)</text></g><g class="message" data-participant-1="UserEntity" data-participant-2="LoginController"><polygon fill="#181818" points="381.3271,240.625,371.3271,244.625,381.3271,248.625,377.3271,244.625" style="stroke:#181818;stroke-width:1;"/><line style="stroke:#181818;stroke-width:1;stroke-dasharray:2,2;" x1="375.3271" x2="559.5088" y1="244.625" y2="244.625"/><text fill="#000000" font-family="sans-serif" font-size="13" lengthAdjust="spacing" textLength="45.519" x="387.3271" y="239.7686">userObj</text></g><g class="message" data-participant-1="LoginController" data-participant-2="UserEntity"><polygon fill="#181818" points="548.5088,270.9766,558.5088,274.9766,548.5088,278.9766,552.5088,274.9766" style="stroke:#181818;stroke-width:1;"/><line style="stroke:#181818;stroke-width:1;" x1="370.3271" x2="554.5088" y1="274.9766" y2="274.9766"/><text fill="#000000" font-family="sans-serif" font-size="13" lengthAdjust="spacing" textLength="166.1816" x="377.3271" y="270.1201">validatePassword(password)</text></g><g class="message" data-participant-1="UserEntity" data-participant-2="LoginController"><polygon fill="#181818" points="381.3271,301.3281,371.3271,305.3281,381.3271,309.3281,377.3271,305.3281" style="stroke:#181818;stroke-width:1;"/><line style="stroke:#181818;stroke-width:1;stroke-dasharray:2,2;" x1="375.3271" x2="559.5088" y1="305.3281" y2="305.3281"/><text fill="#000000" font-family="sans-serif" font-size="13" lengthAdjust="spacing" textLength="46.2681" x="387.3271" y="300.4717">boolean</text></g><path d="M10,320.3281 L70.1709,320.3281 L70.1709,328.6797 L60.1709,338.6797 L10,338.6797 L10,320.3281" fill="#EEEEEE" style="stroke:#000000;stroke-width:1.5;"/><rect fill="none" height="155.5938" style="stroke:#000000;stroke-width:1.5;" width="408.3271" x="10" y="320.3281"/><text fill="#000000" font-family="sans-serif" font-size="13" font-weight="bold" lengthAdjust="spacing" textLength="15.1709" x="25" y="334.8232">alt</text><text fill="#000000" font-family="sans-serif" font-size="11" font-weight="bold" lengthAdjust="spacing" textLength="52.7012" x="85.1709" y="333.7471">[&#39564;&#35777;&#36890;&#36807;]</text><g class="message" data-participant-1="LoginController" data-participant-2="LoginForm"><polygon fill="#181818" points="150,357.0313,140,361.0313,150,365.0313,146,361.0313" style="stroke:#181818;stroke-width:1;"/><line style="stroke:#181818;stroke-width:1;stroke-dasharray:2,2;" x1="144" x2="369.3271" y1="361.0313" y2="361.0313"/><text fill="#000000" font-family="sans-serif" font-size="13" lengthAdjust="spacing" textLength="52" x="156" y="356.1748">&#30331;&#24405;&#25104;&#21151;</text></g><g class="message" data-participant-1="LoginForm" data-participant-2="UserActor"><polygon fill="#181818" points="48,387.3828,38,391.3828,48,395.3828,44,391.3828" style="stroke:#181818;stroke-width:1;"/><line style="stroke:#181818;stroke-width:1;" x1="42" x2="138" y1="391.3828" y2="391.3828"/><text fill="#000000" font-family="sans-serif" font-size="13" lengthAdjust="spacing" textLength="52" x="54" y="386.5264">&#36827;&#20837;&#20027;&#39029;</text></g><line style="stroke:#000000;stroke-width:1;stroke-dasharray:2,2;" x1="10" x2="418.3271" y1="400.3828" y2="400.3828"/><text fill="#000000" font-family="sans-serif" font-size="11" font-weight="bold" lengthAdjust="spacing" textLength="52.7012" x="15" y="411.8018">[&#39564;&#35777;&#22833;&#36133;]</text><g class="message" data-participant-1="LoginController" data-participant-2="LoginForm"><polygon fill="#181818" points="150,433.5703,140,437.5703,150,441.5703,146,437.5703" style="stroke:#181818;stroke-width:1;"/><line style="stroke:#181818;stroke-width:1;stroke-dasharray:2,2;" x1="144" x2="369.3271" y1="437.5703" y2="437.5703"/><text fill="#000000" font-family="sans-serif" font-size="13" lengthAdjust="spacing" textLength="78" x="156" y="432.7139">&#25552;&#31034;&#38169;&#35823;&#20449;&#24687;</text></g><g class="message" data-participant-1="LoginForm" data-participant-2="UserActor"><polygon fill="#181818" points="48,463.9219,38,467.9219,48,471.9219,44,467.9219" style="stroke:#181818;stroke-width:1;"/><line style="stroke:#181818;stroke-width:1;" x1="42" x2="138" y1="467.9219" y2="467.9219"/><text fill="#000000" font-family="sans-serif" font-size="13" lengthAdjust="spacing" textLength="52" x="54" y="463.0654">&#20801;&#35768;&#37325;&#35797;</text></g><!--SRC=[ZP9FIm916CRlyoa6Jme9TVKGXDGfg8iVO7Ids5XtOdSilBM1AM4ff0UJA6CjwT0YMCfA-cMStTblqVXtGYERu_i-p_jxUD-XAjKmJCGtjsBGhxIyGjUlzTbN5KPXq72PMsBr0G0eHOa1GrD1228J9anix8oh84aokeACh6XFd7wr63myJqJxv5ZLzuYH1YcYKuDeSurt-yeAdwpMahBuLA5X0s2TgZIxWjkTb05Oe65qMo9W3FB17SirUUU5bRhCkVAVB23RSwta28TNAezSUvg9ErslVHdEYEawIkCDU8fCyvmOIWGi6yKi6KYCEL9rPLnOc2FWHp_wAteiFKYUh9rzXZHLGHGVpjA4PQorZ2GX6aQwk9z6OV1Mv8uLNDppOHv0yLR8I-kSdQfGPjUFqZ1Vfho2MFomBXO_wlM3nWV0cebdC6QtUQVvBvYuX6-xGQN67MSqR7YMypUIvIp-tWloDzofYW-ZV0C0]--></g></svg>