<svg xmlns="http://www.w3.org/2000/svg" xmlns:xlink="http://www.w3.org/1999/xlink" contentStyleType="text/css" data-diagram-type="SEQUENCE" height="575px" preserveAspectRatio="none" style="width:574px;height:575px;background:#FFFFFF;" version="1.1" viewBox="0 0 574 575" width="574px" zoomAndPan="magnify"><title>UC02: &#20462;&#25913;&#23494;&#30721; - &#39034;&#24207;&#22270;</title><defs/><g><text fill="#000000" font-family="sans-serif" font-size="14" font-weight="bold" lengthAdjust="spacing" textLength="157.8486" x="209.2214" y="29.5332">UC02: &#20462;&#25913;&#23494;&#30721; - &#39034;&#24207;&#22270;</text><rect fill="none" height="216.2969" style="stroke:#000000;stroke-width:1.5;" width="557.2915" x="10" y="259.625"/><g><title>..</title><rect fill="#000000" fill-opacity="0.00000" height="371.7031" width="8" x="33" y="121.2188"/><line style="stroke:#181818;stroke-width:0.5;stroke-dasharray:5,5;" x1="37" x2="37" y1="121.2188" y2="492.9219"/></g><g><title>......</title><rect fill="#000000" fill-opacity="0.00000" height="371.7031" width="8" x="174" y="121.2188"/><line style="stroke:#181818;stroke-width:0.5;stroke-dasharray:5,5;" x1="178" x2="178" y1="121.2188" y2="492.9219"/></g><g><title>.......</title><rect fill="#000000" fill-opacity="0.00000" height="371.7031" width="8" x="357.6563" y="121.2188"/><line style="stroke:#181818;stroke-width:0.5;stroke-dasharray:5,5;" x1="361.6563" x2="361.6563" y1="121.2188" y2="492.9219"/></g><g><title>..</title><rect fill="#000000" fill-opacity="0.00000" height="371.7031" width="8" x="536.2915" y="121.2188"/><line style="stroke:#181818;stroke-width:0.5;stroke-dasharray:5,5;" x1="540.2915" x2="540.2915" y1="121.2188" y2="492.9219"/></g><g class="participant participant-head" data-participant="UserActor"><text fill="#000000" font-family="sans-serif" font-size="14" lengthAdjust="spacing" textLength="28" x="20" y="118.1426">&#29992;&#25143;</text><ellipse cx="37" cy="52.1094" fill="#E2E2F0" rx="8" ry="8" style="stroke:#181818;stroke-width:0.5;"/><path d="M37,60.1094 L37,87.1094 M24,68.1094 L50,68.1094 M37,87.1094 L24,102.1094 M37,87.1094 L50,102.1094" fill="none" style="stroke:#181818;stroke-width:0.5;"/></g><g class="participant participant-tail" data-participant="UserActor"><text fill="#000000" font-family="sans-serif" font-size="14" lengthAdjust="spacing" textLength="28" x="20" y="506.4551">&#29992;&#25143;</text><ellipse cx="37" cy="518.0313" fill="#E2E2F0" rx="8" ry="8" style="stroke:#181818;stroke-width:0.5;"/><path d="M37,526.0313 L37,553.0313 M24,534.0313 L50,534.0313 M37,553.0313 L24,568.0313 M37,553.0313 L50,568.0313" fill="none" style="stroke:#181818;stroke-width:0.5;"/></g><g class="participant participant-head" data-participant="PwdForm"><text fill="#000000" font-family="sans-serif" font-size="14" lengthAdjust="spacing" textLength="84" x="133" y="118.1426">&#20462;&#25913;&#23494;&#30721;&#30028;&#38754;</text><path d="M157.5,75.6094 L157.5,99.6094 M157.5,87.6094 L174.5,87.6094" fill="none" style="stroke:#181818;stroke-width:0.5;"/><ellipse cx="186.5" cy="87.6094" fill="#E2E2F0" rx="12" ry="12" style="stroke:#181818;stroke-width:0.5;"/></g><g class="participant participant-tail" data-participant="PwdForm"><text fill="#000000" font-family="sans-serif" font-size="14" lengthAdjust="spacing" textLength="84" x="133" y="506.4551">&#20462;&#25913;&#23494;&#30721;&#30028;&#38754;</text><path d="M157.5,513.5313 L157.5,537.5313 M157.5,525.5313 L174.5,525.5313" fill="none" style="stroke:#181818;stroke-width:0.5;"/><ellipse cx="186.5" cy="525.5313" fill="#E2E2F0" rx="12" ry="12" style="stroke:#181818;stroke-width:0.5;"/></g><g class="participant participant-head" data-participant="PwdController"><text fill="#000000" font-family="sans-serif" font-size="14" lengthAdjust="spacing" textLength="98" x="309.6563" y="118.1426">&#23494;&#30721;&#31649;&#29702;&#25511;&#21046;&#22120;</text><ellipse cx="361.6563" cy="87.6094" fill="#E2E2F0" rx="12" ry="12" style="stroke:#181818;stroke-width:0.5;"/><polygon fill="#181818" points="357.6563,75.6094,363.6563,70.6094,361.6563,75.6094,363.6563,80.6094,357.6563,75.6094" style="stroke:#181818;stroke-width:1;"/></g><g class="participant participant-tail" data-participant="PwdController"><text fill="#000000" font-family="sans-serif" font-size="14" lengthAdjust="spacing" textLength="98" x="309.6563" y="506.4551">&#23494;&#30721;&#31649;&#29702;&#25511;&#21046;&#22120;</text><ellipse cx="361.6563" cy="525.5313" fill="#E2E2F0" rx="12" ry="12" style="stroke:#181818;stroke-width:0.5;"/><polygon fill="#181818" points="357.6563,513.5313,363.6563,508.5313,361.6563,513.5313,363.6563,518.5313,357.6563,513.5313" style="stroke:#181818;stroke-width:1;"/></g><g class="participant participant-head" data-participant="UserEntity"><text fill="#000000" font-family="sans-serif" font-size="14" lengthAdjust="spacing" textLength="28" x="523.2915" y="118.1426">&#29992;&#25143;</text><ellipse cx="540.2915" cy="87.6094" fill="#E2E2F0" rx="12" ry="12" style="stroke:#181818;stroke-width:0.5;"/><line style="stroke:#181818;stroke-width:0.5;" x1="528.2915" x2="552.2915" y1="101.6094" y2="101.6094"/></g><g class="participant participant-tail" data-participant="UserEntity"><text fill="#000000" font-family="sans-serif" font-size="14" lengthAdjust="spacing" textLength="28" x="523.2915" y="506.4551">&#29992;&#25143;</text><ellipse cx="540.2915" cy="525.5313" fill="#E2E2F0" rx="12" ry="12" style="stroke:#181818;stroke-width:0.5;"/><line style="stroke:#181818;stroke-width:0.5;" x1="528.2915" x2="552.2915" y1="539.5313" y2="539.5313"/></g><g class="message" data-participant-1="UserActor" data-participant-2="PwdForm"><polygon fill="#181818" points="166,149.5703,176,153.5703,166,157.5703,170,153.5703" style="stroke:#181818;stroke-width:1;"/><line style="stroke:#181818;stroke-width:1;" x1="37" x2="172" y1="153.5703" y2="153.5703"/><text fill="#000000" font-family="sans-serif" font-size="13" lengthAdjust="spacing" textLength="117" x="44" y="148.7139">&#36755;&#20837;&#21407;&#23494;&#30721;&#21450;&#26032;&#23494;&#30721;</text></g><g class="message" data-participant-1="PwdForm" data-participant-2="PwdController"><polygon fill="#181818" points="349.6563,179.9219,359.6563,183.9219,349.6563,187.9219,353.6563,183.9219" style="stroke:#181818;stroke-width:1;"/><line style="stroke:#181818;stroke-width:1;" x1="178" x2="355.6563" y1="183.9219" y2="183.9219"/><text fill="#000000" font-family="sans-serif" font-size="13" lengthAdjust="spacing" textLength="159.6563" x="185" y="179.0654">&#20462;&#25913;&#35831;&#27714;(oldPwd, newPwd)</text></g><g class="message" data-participant-1="PwdController" data-participant-2="UserEntity"><polygon fill="#181818" points="528.2915,210.2734,538.2915,214.2734,528.2915,218.2734,532.2915,214.2734" style="stroke:#181818;stroke-width:1;"/><line style="stroke:#181818;stroke-width:1;" x1="361.6563" x2="534.2915" y1="214.2734" y2="214.2734"/><text fill="#000000" font-family="sans-serif" font-size="13" lengthAdjust="spacing" textLength="153.1816" x="368.6563" y="209.417">validatePassword(oldPwd)</text></g><g class="message" data-participant-1="UserEntity" data-participant-2="PwdController"><polygon fill="#181818" points="372.6563,240.625,362.6563,244.625,372.6563,248.625,368.6563,244.625" style="stroke:#181818;stroke-width:1;"/><line style="stroke:#181818;stroke-width:1;stroke-dasharray:2,2;" x1="366.6563" x2="539.2915" y1="244.625" y2="244.625"/><text fill="#000000" font-family="sans-serif" font-size="13" lengthAdjust="spacing" textLength="46.2681" x="378.6563" y="239.7686">boolean</text></g><path d="M10,259.625 L70.1709,259.625 L70.1709,267.9766 L60.1709,277.9766 L10,277.9766 L10,259.625" fill="#EEEEEE" style="stroke:#000000;stroke-width:1.5;"/><rect fill="none" height="216.2969" style="stroke:#000000;stroke-width:1.5;" width="557.2915" x="10" y="259.625"/><text fill="#000000" font-family="sans-serif" font-size="13" font-weight="bold" lengthAdjust="spacing" textLength="15.1709" x="25" y="274.1201">alt</text><text fill="#000000" font-family="sans-serif" font-size="11" font-weight="bold" lengthAdjust="spacing" textLength="64.0449" x="85.1709" y="273.0439">[&#21407;&#23494;&#30721;&#27491;&#30830;]</text><g class="message" data-participant-1="PwdController" data-participant-2="UserEntity"><polygon fill="#181818" points="528.2915,296.3281,538.2915,300.3281,528.2915,304.3281,532.2915,300.3281" style="stroke:#181818;stroke-width:1;"/><line style="stroke:#181818;stroke-width:1;" x1="361.6563" x2="534.2915" y1="300.3281" y2="300.3281"/><text fill="#000000" font-family="sans-serif" font-size="13" lengthAdjust="spacing" textLength="154.6353" x="368.6563" y="295.4717">updatePassword(newPwd)</text></g><g class="message" data-participant-1="UserEntity" data-participant-2="PwdController"><polygon fill="#181818" points="372.6563,326.6797,362.6563,330.6797,372.6563,334.6797,368.6563,330.6797" style="stroke:#181818;stroke-width:1;"/><line style="stroke:#181818;stroke-width:1;stroke-dasharray:2,2;" x1="366.6563" x2="539.2915" y1="330.6797" y2="330.6797"/><text fill="#000000" font-family="sans-serif" font-size="13" lengthAdjust="spacing" textLength="46.96" x="378.6563" y="325.8232">success</text></g><g class="message" data-participant-1="PwdController" data-participant-2="PwdForm"><polygon fill="#181818" points="189,357.0313,179,361.0313,189,365.0313,185,361.0313" style="stroke:#181818;stroke-width:1;"/><line style="stroke:#181818;stroke-width:1;stroke-dasharray:2,2;" x1="183" x2="360.6563" y1="361.0313" y2="361.0313"/><text fill="#000000" font-family="sans-serif" font-size="13" lengthAdjust="spacing" textLength="52" x="195" y="356.1748">&#25104;&#21151;&#25552;&#31034;</text></g><g class="message" data-participant-1="PwdForm" data-participant-2="UserActor"><polygon fill="#181818" points="48,387.3828,38,391.3828,48,395.3828,44,391.3828" style="stroke:#181818;stroke-width:1;"/><line style="stroke:#181818;stroke-width:1;" x1="42" x2="177" y1="391.3828" y2="391.3828"/><text fill="#000000" font-family="sans-serif" font-size="13" lengthAdjust="spacing" textLength="52" x="54" y="386.5264">&#26174;&#31034;&#25104;&#21151;</text></g><line style="stroke:#000000;stroke-width:1;stroke-dasharray:2,2;" x1="10" x2="567.2915" y1="400.3828" y2="400.3828"/><text fill="#000000" font-family="sans-serif" font-size="11" font-weight="bold" lengthAdjust="spacing" textLength="64.0449" x="15" y="411.8018">[&#21407;&#23494;&#30721;&#38169;&#35823;]</text><g class="message" data-participant-1="PwdController" data-participant-2="PwdForm"><polygon fill="#181818" points="189,433.5703,179,437.5703,189,441.5703,185,437.5703" style="stroke:#181818;stroke-width:1;"/><line style="stroke:#181818;stroke-width:1;stroke-dasharray:2,2;" x1="183" x2="360.6563" y1="437.5703" y2="437.5703"/><text fill="#000000" font-family="sans-serif" font-size="13" lengthAdjust="spacing" textLength="52" x="195" y="432.7139">&#25552;&#31034;&#38169;&#35823;</text></g><g class="message" data-participant-1="PwdForm" data-participant-2="UserActor"><polygon fill="#181818" points="48,463.9219,38,467.9219,48,471.9219,44,467.9219" style="stroke:#181818;stroke-width:1;"/><line style="stroke:#181818;stroke-width:1;" x1="42" x2="177" y1="467.9219" y2="467.9219"/><text fill="#000000" font-family="sans-serif" font-size="13" lengthAdjust="spacing" textLength="52" x="54" y="463.0654">&#37325;&#26032;&#36755;&#20837;</text></g><!--SRC=[XP8_Jm8n68VtVeetDqaYYN5aC354PnO-m77NWQHUJLiaZ9g8X2YGY4PY3EAVo0AdYqG6_3AsntqB2qSvBXBfqgPzVddUlgqe2e8XdztPpS3Fzr2rlwHV3HvF8GrXRop7JNa_GSXs16LW1Us-geqii3daEMRxirrKe2NFjLa5hDLyS7CPFZpDqLpPFQJi23dK4umIi1R4i1Uqgghn9ckVijCtQ3QY26O8Uw8eAd-q1_DjX9ObG7hFI203qycrF7-LZMwaaSswkdsFriXGKI1MWRdyr1-fZxCjIbnzlWqUBkivXPAmJiTrwEY9JOgkBN3EvhnCcRk8fz0AbLwZB51AiEtfzX81ouBLu3de3H7eyR-sT9oGcbfdmGrYNd8SpFawHwALgjQIzQvgjeANiO5D_-BkQ-vkeec8HfXm7DycR7Uclh_PD7SauNMcyE9AlsRqnFf_kBy0]--></g></svg>