<svg xmlns="http://www.w3.org/2000/svg" xmlns:xlink="http://www.w3.org/1999/xlink" contentStyleType="text/css" data-diagram-type="CLASS" height="490px" preserveAspectRatio="none" style="width:263px;height:490px;background:#FFFFFF;" version="1.1" viewBox="0 0 263 490" width="263px" zoomAndPan="magnify"><title>UC02: &#20462;&#25913;&#23494;&#30721; - &#21442;&#19982;&#31867;&#22270; (VOPC)</title><defs/><g><g class="title" data-source-line="1"><text fill="#000000" font-family="sans-serif" font-size="14" font-weight="bold" lengthAdjust="spacing" textLength="225.1758" x="12.0806" y="24.5332">UC02: &#20462;&#25913;&#23494;&#30721; - &#21442;&#19982;&#31867;&#22270; (VOPC)</text></g><!--class PasswordChangeForm--><g class="entity" data-entity="PasswordChangeForm" data-source-line="3" data-uid="ent0002" id="entity_PasswordChangeForm"><rect fill="#F1F1F1" height="93.9219" rx="2.5" ry="2.5" style="stroke:#181818;stroke-width:0.5;" width="175.1719" x="44" y="45.6094"/><ellipse cx="59" cy="66.9609" fill="#ADD1B2" rx="11" ry="11" style="stroke:#181818;stroke-width:1;"/><path d="M61.7656,62.8359 Q61.9219,62.6172 62.1094,62.5078 Q62.2969,62.3984 62.5156,62.3984 Q62.8906,62.3984 63.125,62.6641 Q63.3594,62.9141 63.3594,63.5234 L63.3594,64.9766 Q63.3594,65.5859 63.125,65.8516 Q62.8906,66.1172 62.5156,66.1172 Q62.1719,66.1172 61.9688,65.9141 Q61.7656,65.7266 61.6563,65.2109 Q61.6094,64.8516 61.4219,64.6641 Q61.0938,64.2891 60.4844,64.0703 Q59.875,63.8516 59.25,63.8516 Q58.4844,63.8516 57.8438,64.1797 Q57.2188,64.5078 56.7188,65.2578 Q56.2344,66.0078 56.2344,67.0391 L56.2344,68.1328 Q56.2344,69.3672 57.125,70.1953 Q58.0156,71.0078 59.6094,71.0078 Q60.5469,71.0078 61.2031,70.7578 Q61.5938,70.6016 62.0156,70.1641 Q62.2813,69.8984 62.4219,69.8203 Q62.5781,69.7422 62.7813,69.7422 Q63.1094,69.7422 63.3594,70.0078 Q63.625,70.2578 63.625,70.6016 Q63.625,70.9453 63.2813,71.3516 Q62.7813,71.9297 61.9844,72.2578 Q60.9063,72.7109 59.6094,72.7109 Q58.0938,72.7109 56.8906,72.0859 Q55.9063,71.5859 55.2188,70.5234 Q54.5313,69.4453 54.5313,68.1641 L54.5313,67.0078 Q54.5313,65.6797 55.1406,64.5391 Q55.7656,63.3828 56.8594,62.7734 Q57.9531,62.1484 59.1875,62.1484 Q59.9219,62.1484 60.5625,62.3203 Q61.2188,62.4766 61.7656,62.8359 Z " fill="#000000"/><text fill="#000000" font-family="sans-serif" font-size="12" font-style="italic" lengthAdjust="spacing" textLength="63.3867" x="112.8926" y="63.0664">&#171;boundary&#187;</text><text fill="#000000" font-family="sans-serif" font-size="14" lengthAdjust="spacing" textLength="143.1719" x="73" y="80.2363">PasswordChangeForm</text><line style="stroke:#181818;stroke-width:0.5;" x1="45" x2="218.1719" y1="88.3125" y2="88.3125"/><line style="stroke:#181818;stroke-width:0.5;" x1="45" x2="218.1719" y1="96.3125" y2="96.3125"/><ellipse cx="55" cy="110.6172" fill="#84BE84" rx="3" ry="3" style="stroke:#038048;stroke-width:1;"/><text fill="#000000" font-family="sans-serif" font-size="14" lengthAdjust="spacing" textLength="105.8135" x="64" y="114.8457">displaySuccess()</text><ellipse cx="55" cy="128.2266" fill="#84BE84" rx="3" ry="3" style="stroke:#038048;stroke-width:1;"/><text fill="#000000" font-family="sans-serif" font-size="14" lengthAdjust="spacing" textLength="84.0137" x="64" y="132.4551">displayError()</text></g><!--class PasswordController--><g class="entity" data-entity="PasswordController" data-source-line="8" data-uid="ent0003" id="entity_PasswordController"><rect fill="#F1F1F1" height="76.3125" rx="2.5" ry="2.5" style="stroke:#181818;stroke-width:0.5;" width="249.3369" x="7" y="217.6094"/><ellipse cx="66.3394" cy="238.9609" fill="#ADD1B2" rx="11" ry="11" style="stroke:#181818;stroke-width:1;"/><path d="M69.105,234.8359 Q69.2612,234.6172 69.4487,234.5078 Q69.6362,234.3984 69.855,234.3984 Q70.23,234.3984 70.4644,234.6641 Q70.6987,234.9141 70.6987,235.5234 L70.6987,236.9766 Q70.6987,237.5859 70.4644,237.8516 Q70.23,238.1172 69.855,238.1172 Q69.5112,238.1172 69.3081,237.9141 Q69.105,237.7266 68.9956,237.2109 Q68.9487,236.8516 68.7612,236.6641 Q68.4331,236.2891 67.8237,236.0703 Q67.2144,235.8516 66.5894,235.8516 Q65.8237,235.8516 65.1831,236.1797 Q64.5581,236.5078 64.0581,237.2578 Q63.5737,238.0078 63.5737,239.0391 L63.5737,240.1328 Q63.5737,241.3672 64.4644,242.1953 Q65.355,243.0078 66.9487,243.0078 Q67.8862,243.0078 68.5425,242.7578 Q68.9331,242.6016 69.355,242.1641 Q69.6206,241.8984 69.7612,241.8203 Q69.9175,241.7422 70.1206,241.7422 Q70.4487,241.7422 70.6987,242.0078 Q70.9644,242.2578 70.9644,242.6016 Q70.9644,242.9453 70.6206,243.3516 Q70.1206,243.9297 69.3237,244.2578 Q68.2456,244.7109 66.9487,244.7109 Q65.4331,244.7109 64.23,244.0859 Q63.2456,243.5859 62.5581,242.5234 Q61.8706,241.4453 61.8706,240.1641 L61.8706,239.0078 Q61.8706,237.6797 62.48,236.5391 Q63.105,235.3828 64.1987,234.7734 Q65.2925,234.1484 66.5269,234.1484 Q67.2612,234.1484 67.9019,234.3203 Q68.5581,234.4766 69.105,234.8359 Z " fill="#000000"/><text fill="#000000" font-family="sans-serif" font-size="12" font-style="italic" lengthAdjust="spacing" textLength="49.3652" x="123.2358" y="235.0664">&#171;control&#187;</text><text fill="#000000" font-family="sans-serif" font-size="14" lengthAdjust="spacing" textLength="122.1582" x="86.8394" y="252.2363">PasswordController</text><line style="stroke:#181818;stroke-width:0.5;" x1="8" x2="255.3369" y1="260.3125" y2="260.3125"/><line style="stroke:#181818;stroke-width:0.5;" x1="8" x2="255.3369" y1="268.3125" y2="268.3125"/><ellipse cx="18" cy="282.6172" fill="#84BE84" rx="3" ry="3" style="stroke:#038048;stroke-width:1;"/><text fill="#000000" font-family="sans-serif" font-size="14" lengthAdjust="spacing" textLength="223.3369" x="27" y="286.8457">changePassword(oldPwd, newPwd)</text></g><!--class User--><g class="entity" data-entity="User" data-source-line="12" data-uid="ent0004" id="entity_User"><rect fill="#F1F1F1" height="111.5313" rx="2.5" ry="2.5" style="stroke:#181818;stroke-width:0.5;" width="228.3369" x="17.5" y="371.6094"/><ellipse cx="108.4038" cy="392.9609" fill="#ADD1B2" rx="11" ry="11" style="stroke:#181818;stroke-width:1;"/><path d="M111.1694,388.8359 Q111.3257,388.6172 111.5132,388.5078 Q111.7007,388.3984 111.9194,388.3984 Q112.2944,388.3984 112.5288,388.6641 Q112.7632,388.9141 112.7632,389.5234 L112.7632,390.9766 Q112.7632,391.5859 112.5288,391.8516 Q112.2944,392.1172 111.9194,392.1172 Q111.5757,392.1172 111.3726,391.9141 Q111.1694,391.7266 111.0601,391.2109 Q111.0132,390.8516 110.8257,390.6641 Q110.4976,390.2891 109.8882,390.0703 Q109.2788,389.8516 108.6538,389.8516 Q107.8882,389.8516 107.2476,390.1797 Q106.6226,390.5078 106.1226,391.2578 Q105.6382,392.0078 105.6382,393.0391 L105.6382,394.1328 Q105.6382,395.3672 106.5288,396.1953 Q107.4194,397.0078 109.0132,397.0078 Q109.9507,397.0078 110.6069,396.7578 Q110.9976,396.6016 111.4194,396.1641 Q111.6851,395.8984 111.8257,395.8203 Q111.9819,395.7422 112.1851,395.7422 Q112.5132,395.7422 112.7632,396.0078 Q113.0288,396.2578 113.0288,396.6016 Q113.0288,396.9453 112.6851,397.3516 Q112.1851,397.9297 111.3882,398.2578 Q110.3101,398.7109 109.0132,398.7109 Q107.4976,398.7109 106.2944,398.0859 Q105.3101,397.5859 104.6226,396.5234 Q103.9351,395.4453 103.9351,394.1641 L103.9351,393.0078 Q103.9351,391.6797 104.5444,390.5391 Q105.1694,389.3828 106.2632,388.7734 Q107.3569,388.1484 108.5913,388.1484 Q109.3257,388.1484 109.9663,388.3203 Q110.6226,388.4766 111.1694,388.8359 Z " fill="#000000"/><text fill="#000000" font-family="sans-serif" font-size="12" font-style="italic" lengthAdjust="spacing" textLength="42.0293" x="126.9038" y="389.0664">&#171;entity&#187;</text><text fill="#000000" font-family="sans-serif" font-size="14" lengthAdjust="spacing" textLength="29.5586" x="133.1392" y="406.2363">User</text><line style="stroke:#181818;stroke-width:0.5;" x1="18.5" x2="244.8369" y1="414.3125" y2="414.3125"/><rect fill="none" height="6" style="stroke:#C82930;stroke-width:1;" width="6" x="25.5" y="425.6172"/><text fill="#000000" font-family="sans-serif" font-size="14" lengthAdjust="spacing" textLength="104.2686" x="37.5" y="432.8457">password: String</text><line style="stroke:#181818;stroke-width:0.5;" x1="18.5" x2="244.8369" y1="439.9219" y2="439.9219"/><ellipse cx="28.5" cy="454.2266" fill="#84BE84" rx="3" ry="3" style="stroke:#038048;stroke-width:1;"/><text fill="#000000" font-family="sans-serif" font-size="14" lengthAdjust="spacing" textLength="202.3369" x="37.5" y="458.4551">validatePassword(pwd): boolean</text><ellipse cx="28.5" cy="471.8359" fill="#84BE84" rx="3" ry="3" style="stroke:#038048;stroke-width:1;"/><text fill="#000000" font-family="sans-serif" font-size="14" lengthAdjust="spacing" textLength="166.5303" x="37.5" y="476.0645">updatePassword(newPwd)</text></g><!--link PasswordChangeForm to PasswordController--><g class="link" data-entity-1="PasswordChangeForm" data-entity-2="PasswordController" data-source-line="18" data-uid="lnk5" id="link_PasswordChangeForm_PasswordController"><path codeLine="18" d="M131.5,139.7494 C131.5,164.3694 131.5,188.2694 131.5,211.3994" fill="none" id="PasswordChangeForm-to-PasswordController" style="stroke:#181818;stroke-width:1;stroke-dasharray:7,7;"/><polygon fill="#181818" points="131.5,217.3994,135.5,208.3994,131.5,212.3994,127.5,208.3994,131.5,217.3994" style="stroke:#181818;stroke-width:1;"/><text fill="#000000" font-family="sans-serif" font-size="13" lengthAdjust="spacing" textLength="27.46" x="132.5" y="184.1045">uses</text></g><!--link PasswordController to User--><g class="link" data-entity-1="PasswordController" data-entity-2="User" data-source-line="19" data-uid="lnk6" id="link_PasswordController_User"><path codeLine="19" d="M131.5,293.9194 C131.5,316.5894 131.5,339.9594 131.5,365.3094" fill="none" id="PasswordController-to-User" style="stroke:#181818;stroke-width:1;stroke-dasharray:7,7;"/><polygon fill="#181818" points="131.5,371.3094,135.5,362.3094,131.5,366.3094,127.5,362.3094,131.5,371.3094" style="stroke:#181818;stroke-width:1;"/><text fill="#000000" font-family="sans-serif" font-size="13" lengthAdjust="spacing" textLength="46.2617" x="132.5" y="338.1045">updates</text></g><!--SRC=[AyaioKbL27KsCB9IUB9_tRCfEv-kRtk-e551L-5fVzEJ7NtFD-v-EdkVWaQOVu2p9XTNSavYSR52090epozASSv8p4jFTSilobMmiKdAByrBIIogjBDJgEPI009jXPJCueASnChWqkJarE9Y3KrKOTUYelmYe60jXh7vUIL5-JavgKL0OvCX72HJay6smXHhvEUa19Idw2ZafPO3QIJZGel11gJcbMIM85obgr00rMcb45nIb9cN3ZMsB34dCoMn165m0T0qAuMa_FoSrCGygABI0XGbI7PY2HCzFJjiVh9IA2rEBUR28WFI07Qr5TIYOW00]--></g></svg>