<svg xmlns="http://www.w3.org/2000/svg" xmlns:xlink="http://www.w3.org/1999/xlink" contentStyleType="text/css" data-diagram-type="CLASS" height="507px" preserveAspectRatio="none" style="width:327px;height:507px;background:#FFFFFF;" version="1.1" viewBox="0 0 327 507" width="327px" zoomAndPan="magnify"><title>UC03: &#26356;&#26032;&#20010;&#20154;&#20449;&#24687; - &#21442;&#19982;&#31867;&#22270; (VOPC)</title><defs/><g><g class="title" data-source-line="1"><text fill="#000000" font-family="sans-serif" font-size="14" font-weight="bold" lengthAdjust="spacing" textLength="254.0508" x="29.6709" y="24.5332">UC03: &#26356;&#26032;&#20010;&#20154;&#20449;&#24687; - &#21442;&#19982;&#31867;&#22270; (VOPC)</text></g><!--class ProfileForm--><g class="entity" data-entity="ProfileForm" data-source-line="3" data-uid="ent0002" id="entity_ProfileForm"><rect fill="#F1F1F1" height="93.9219" rx="2.5" ry="2.5" style="stroke:#181818;stroke-width:0.5;" width="131.8135" x="90" y="45.6094"/><ellipse cx="117.3609" cy="66.9609" fill="#ADD1B2" rx="11" ry="11" style="stroke:#181818;stroke-width:1;"/><path d="M120.1266,62.8359 Q120.2828,62.6172 120.4703,62.5078 Q120.6578,62.3984 120.8766,62.3984 Q121.2516,62.3984 121.4859,62.6641 Q121.7203,62.9141 121.7203,63.5234 L121.7203,64.9766 Q121.7203,65.5859 121.4859,65.8516 Q121.2516,66.1172 120.8766,66.1172 Q120.5328,66.1172 120.3297,65.9141 Q120.1266,65.7266 120.0172,65.2109 Q119.9703,64.8516 119.7828,64.6641 Q119.4547,64.2891 118.8453,64.0703 Q118.2359,63.8516 117.6109,63.8516 Q116.8453,63.8516 116.2047,64.1797 Q115.5797,64.5078 115.0797,65.2578 Q114.5953,66.0078 114.5953,67.0391 L114.5953,68.1328 Q114.5953,69.3672 115.4859,70.1953 Q116.3766,71.0078 117.9703,71.0078 Q118.9078,71.0078 119.5641,70.7578 Q119.9547,70.6016 120.3766,70.1641 Q120.6422,69.8984 120.7828,69.8203 Q120.9391,69.7422 121.1422,69.7422 Q121.4703,69.7422 121.7203,70.0078 Q121.9859,70.2578 121.9859,70.6016 Q121.9859,70.9453 121.6422,71.3516 Q121.1422,71.9297 120.3453,72.2578 Q119.2672,72.7109 117.9703,72.7109 Q116.4547,72.7109 115.2516,72.0859 Q114.2672,71.5859 113.5797,70.5234 Q112.8922,69.4453 112.8922,68.1641 L112.8922,67.0078 Q112.8922,65.6797 113.5016,64.5391 Q114.1266,63.3828 115.2203,62.7734 Q116.3141,62.1484 117.5484,62.1484 Q118.2828,62.1484 118.9234,62.3203 Q119.5797,62.4766 120.1266,62.8359 Z " fill="#000000"/><text fill="#000000" font-family="sans-serif" font-size="12" font-style="italic" lengthAdjust="spacing" textLength="63.3867" x="138.5868" y="63.0664">&#171;boundary&#187;</text><text fill="#000000" font-family="sans-serif" font-size="14" lengthAdjust="spacing" textLength="72.3447" x="134.1078" y="80.2363">ProfileForm</text><line style="stroke:#181818;stroke-width:0.5;" x1="91" x2="220.8135" y1="88.3125" y2="88.3125"/><line style="stroke:#181818;stroke-width:0.5;" x1="91" x2="220.8135" y1="96.3125" y2="96.3125"/><ellipse cx="101" cy="110.6172" fill="#84BE84" rx="3" ry="3" style="stroke:#038048;stroke-width:1;"/><text fill="#000000" font-family="sans-serif" font-size="14" lengthAdjust="spacing" textLength="105.8135" x="110" y="114.8457">displaySuccess()</text><ellipse cx="101" cy="128.2266" fill="#84BE84" rx="3" ry="3" style="stroke:#038048;stroke-width:1;"/><text fill="#000000" font-family="sans-serif" font-size="14" lengthAdjust="spacing" textLength="88.7168" x="110" y="132.4551">validateInput()</text></g><!--class ProfileController--><g class="entity" data-entity="ProfileController" data-source-line="8" data-uid="ent0003" id="entity_ProfileController"><rect fill="#F1F1F1" height="76.3125" rx="2.5" ry="2.5" style="stroke:#181818;stroke-width:0.5;" width="140.3994" x="86" y="217.6094"/><ellipse cx="104.6123" cy="238.9609" fill="#ADD1B2" rx="11" ry="11" style="stroke:#181818;stroke-width:1;"/><path d="M107.3779,234.8359 Q107.5342,234.6172 107.7217,234.5078 Q107.9092,234.3984 108.1279,234.3984 Q108.5029,234.3984 108.7373,234.6641 Q108.9717,234.9141 108.9717,235.5234 L108.9717,236.9766 Q108.9717,237.5859 108.7373,237.8516 Q108.5029,238.1172 108.1279,238.1172 Q107.7842,238.1172 107.5811,237.9141 Q107.3779,237.7266 107.2686,237.2109 Q107.2217,236.8516 107.0342,236.6641 Q106.7061,236.2891 106.0967,236.0703 Q105.4873,235.8516 104.8623,235.8516 Q104.0967,235.8516 103.4561,236.1797 Q102.8311,236.5078 102.3311,237.2578 Q101.8467,238.0078 101.8467,239.0391 L101.8467,240.1328 Q101.8467,241.3672 102.7373,242.1953 Q103.6279,243.0078 105.2217,243.0078 Q106.1592,243.0078 106.8154,242.7578 Q107.2061,242.6016 107.6279,242.1641 Q107.8936,241.8984 108.0342,241.8203 Q108.1904,241.7422 108.3936,241.7422 Q108.7217,241.7422 108.9717,242.0078 Q109.2373,242.2578 109.2373,242.6016 Q109.2373,242.9453 108.8936,243.3516 Q108.3936,243.9297 107.5967,244.2578 Q106.5186,244.7109 105.2217,244.7109 Q103.7061,244.7109 102.5029,244.0859 Q101.5186,243.5859 100.8311,242.5234 Q100.1436,241.4453 100.1436,240.1641 L100.1436,239.0078 Q100.1436,237.6797 100.7529,236.5391 Q101.3779,235.3828 102.4717,234.7734 Q103.5654,234.1484 104.7998,234.1484 Q105.5342,234.1484 106.1748,234.3203 Q106.8311,234.4766 107.3779,234.8359 Z " fill="#000000"/><text fill="#000000" font-family="sans-serif" font-size="12" font-style="italic" lengthAdjust="spacing" textLength="49.3652" x="144.9185" y="235.0664">&#171;control&#187;</text><text fill="#000000" font-family="sans-serif" font-size="14" lengthAdjust="spacing" textLength="100.3721" x="119.415" y="252.2363">ProfileController</text><line style="stroke:#181818;stroke-width:0.5;" x1="87" x2="225.3994" y1="260.3125" y2="260.3125"/><line style="stroke:#181818;stroke-width:0.5;" x1="87" x2="225.3994" y1="268.3125" y2="268.3125"/><ellipse cx="97" cy="282.6172" fill="#84BE84" rx="3" ry="3" style="stroke:#038048;stroke-width:1;"/><text fill="#000000" font-family="sans-serif" font-size="14" lengthAdjust="spacing" textLength="114.3994" x="106" y="286.8457">updateProfile(info)</text></g><!--class Student--><g class="entity" data-entity="Student" data-source-line="12" data-uid="ent0004" id="entity_Student"><rect fill="#F1F1F1" height="129.1406" rx="2.5" ry="2.5" style="stroke:#181818;stroke-width:0.5;" width="124.0684" x="7" y="371.6094"/><ellipse cx="41.713" cy="392.9609" fill="#ADD1B2" rx="11" ry="11" style="stroke:#181818;stroke-width:1;"/><path d="M44.4786,388.8359 Q44.6349,388.6172 44.8224,388.5078 Q45.0099,388.3984 45.2286,388.3984 Q45.6036,388.3984 45.838,388.6641 Q46.0724,388.9141 46.0724,389.5234 L46.0724,390.9766 Q46.0724,391.5859 45.838,391.8516 Q45.6036,392.1172 45.2286,392.1172 Q44.8849,392.1172 44.6817,391.9141 Q44.4786,391.7266 44.3692,391.2109 Q44.3224,390.8516 44.1349,390.6641 Q43.8067,390.2891 43.1974,390.0703 Q42.588,389.8516 41.963,389.8516 Q41.1974,389.8516 40.5567,390.1797 Q39.9317,390.5078 39.4317,391.2578 Q38.9474,392.0078 38.9474,393.0391 L38.9474,394.1328 Q38.9474,395.3672 39.838,396.1953 Q40.7286,397.0078 42.3224,397.0078 Q43.2599,397.0078 43.9161,396.7578 Q44.3067,396.6016 44.7286,396.1641 Q44.9942,395.8984 45.1349,395.8203 Q45.2911,395.7422 45.4942,395.7422 Q45.8224,395.7422 46.0724,396.0078 Q46.338,396.2578 46.338,396.6016 Q46.338,396.9453 45.9942,397.3516 Q45.4942,397.9297 44.6974,398.2578 Q43.6192,398.7109 42.3224,398.7109 Q40.8067,398.7109 39.6036,398.0859 Q38.6192,397.5859 37.9317,396.5234 Q37.2442,395.4453 37.2442,394.1641 L37.2442,393.0078 Q37.2442,391.6797 37.8536,390.5391 Q38.4786,389.3828 39.5724,388.7734 Q40.6661,388.1484 41.9005,388.1484 Q42.6349,388.1484 43.2755,388.3203 Q43.9317,388.4766 44.4786,388.8359 Z " fill="#000000"/><text fill="#000000" font-family="sans-serif" font-size="12" font-style="italic" lengthAdjust="spacing" textLength="42.0293" x="63.2099" y="389.0664">&#171;entity&#187;</text><text fill="#000000" font-family="sans-serif" font-size="14" lengthAdjust="spacing" textLength="48.2617" x="60.0937" y="406.2363">Student</text><line style="stroke:#181818;stroke-width:0.5;" x1="8" x2="130.0684" y1="414.3125" y2="414.3125"/><rect fill="none" height="6" style="stroke:#C82930;stroke-width:1;" width="6" x="15" y="425.6172"/><text fill="#000000" font-family="sans-serif" font-size="14" lengthAdjust="spacing" textLength="83.2822" x="27" y="432.8457">phone: String</text><rect fill="none" height="6" style="stroke:#C82930;stroke-width:1;" width="6" x="15" y="443.2266"/><text fill="#000000" font-family="sans-serif" font-size="14" lengthAdjust="spacing" textLength="77.8066" x="27" y="450.4551">email: String</text><rect fill="none" height="6" style="stroke:#C82930;stroke-width:1;" width="6" x="15" y="460.8359"/><text fill="#000000" font-family="sans-serif" font-size="14" lengthAdjust="spacing" textLength="94.1582" x="27" y="468.0645">address: String</text><line style="stroke:#181818;stroke-width:0.5;" x1="8" x2="130.0684" y1="475.1406" y2="475.1406"/><ellipse cx="18" cy="489.4453" fill="#84BE84" rx="3" ry="3" style="stroke:#038048;stroke-width:1;"/><text fill="#000000" font-family="sans-serif" font-size="14" lengthAdjust="spacing" textLength="98.0684" x="27" y="493.6738">updateInfo(info)</text></g><!--class Teacher--><g class="entity" data-entity="Teacher" data-source-line="19" data-uid="ent0005" id="entity_Teacher"><rect fill="#F1F1F1" height="129.1406" rx="2.5" ry="2.5" style="stroke:#181818;stroke-width:0.5;" width="154.3926" x="166" y="371.6094"/><ellipse cx="213.2671" cy="392.9609" fill="#ADD1B2" rx="11" ry="11" style="stroke:#181818;stroke-width:1;"/><path d="M216.0327,388.8359 Q216.189,388.6172 216.3765,388.5078 Q216.564,388.3984 216.7827,388.3984 Q217.1577,388.3984 217.3921,388.6641 Q217.6265,388.9141 217.6265,389.5234 L217.6265,390.9766 Q217.6265,391.5859 217.3921,391.8516 Q217.1577,392.1172 216.7827,392.1172 Q216.439,392.1172 216.2358,391.9141 Q216.0327,391.7266 215.9233,391.2109 Q215.8765,390.8516 215.689,390.6641 Q215.3608,390.2891 214.7515,390.0703 Q214.1421,389.8516 213.5171,389.8516 Q212.7515,389.8516 212.1108,390.1797 Q211.4858,390.5078 210.9858,391.2578 Q210.5015,392.0078 210.5015,393.0391 L210.5015,394.1328 Q210.5015,395.3672 211.3921,396.1953 Q212.2827,397.0078 213.8765,397.0078 Q214.814,397.0078 215.4702,396.7578 Q215.8608,396.6016 216.2827,396.1641 Q216.5483,395.8984 216.689,395.8203 Q216.8452,395.7422 217.0483,395.7422 Q217.3765,395.7422 217.6265,396.0078 Q217.8921,396.2578 217.8921,396.6016 Q217.8921,396.9453 217.5483,397.3516 Q217.0483,397.9297 216.2515,398.2578 Q215.1733,398.7109 213.8765,398.7109 Q212.3608,398.7109 211.1577,398.0859 Q210.1733,397.5859 209.4858,396.5234 Q208.7983,395.4453 208.7983,394.1641 L208.7983,393.0078 Q208.7983,391.6797 209.4077,390.5391 Q210.0327,389.3828 211.1265,388.7734 Q212.2202,388.1484 213.4546,388.1484 Q214.189,388.1484 214.8296,388.3203 Q215.4858,388.4766 216.0327,388.8359 Z " fill="#000000"/><text fill="#000000" font-family="sans-serif" font-size="12" font-style="italic" lengthAdjust="spacing" textLength="42.0293" x="238.4316" y="389.0664">&#171;entity&#187;</text><text fill="#000000" font-family="sans-serif" font-size="14" lengthAdjust="spacing" textLength="51.3584" x="233.7671" y="406.2363">Teacher</text><line style="stroke:#181818;stroke-width:0.5;" x1="167" x2="319.3926" y1="414.3125" y2="414.3125"/><rect fill="none" height="6" style="stroke:#C82930;stroke-width:1;" width="6" x="174" y="425.6172"/><text fill="#000000" font-family="sans-serif" font-size="14" lengthAdjust="spacing" textLength="83.2822" x="186" y="432.8457">phone: String</text><rect fill="none" height="6" style="stroke:#C82930;stroke-width:1;" width="6" x="174" y="443.2266"/><text fill="#000000" font-family="sans-serif" font-size="14" lengthAdjust="spacing" textLength="77.8066" x="186" y="450.4551">email: String</text><rect fill="none" height="6" style="stroke:#C82930;stroke-width:1;" width="6" x="174" y="460.8359"/><text fill="#000000" font-family="sans-serif" font-size="14" lengthAdjust="spacing" textLength="128.3926" x="186" y="468.0645">researchArea: String</text><line style="stroke:#181818;stroke-width:0.5;" x1="167" x2="319.3926" y1="475.1406" y2="475.1406"/><ellipse cx="177" cy="489.4453" fill="#84BE84" rx="3" ry="3" style="stroke:#038048;stroke-width:1;"/><text fill="#000000" font-family="sans-serif" font-size="14" lengthAdjust="spacing" textLength="98.0684" x="186" y="493.6738">updateInfo(info)</text></g><!--link ProfileForm to ProfileController--><g class="link" data-entity-1="ProfileForm" data-entity-2="ProfileController" data-source-line="26" data-uid="lnk6" id="link_ProfileForm_ProfileController"><path codeLine="26" d="M156,139.7494 C156,164.3694 156,188.2694 156,211.3994" fill="none" id="ProfileForm-to-ProfileController" style="stroke:#181818;stroke-width:1;stroke-dasharray:7,7;"/><polygon fill="#181818" points="156,217.3994,160,208.3994,156,212.3994,152,208.3994,156,217.3994" style="stroke:#181818;stroke-width:1;"/><text fill="#000000" font-family="sans-serif" font-size="13" lengthAdjust="spacing" textLength="27.46" x="157" y="184.1045">uses</text></g><!--link ProfileController to Student--><g class="link" data-entity-1="ProfileController" data-entity-2="Student" data-source-line="27" data-uid="lnk7" id="link_ProfileController_Student"><path codeLine="27" d="M137.76,294.0294 C126.85,316.4194 115.319,340.076 102.689,365.986" fill="none" id="ProfileController-to-Student" style="stroke:#181818;stroke-width:1;stroke-dasharray:7,7;"/><polygon fill="#181818" points="100.06,371.3794,107.5991,365.042,102.2509,366.8849,100.408,361.5367,100.06,371.3794" style="stroke:#181818;stroke-width:1;"/><text fill="#000000" font-family="sans-serif" font-size="13" lengthAdjust="spacing" textLength="46.2617" x="124" y="338.1045">updates</text></g><!--link ProfileController to Teacher--><g class="link" data-entity-1="ProfileController" data-entity-2="Teacher" data-source-line="28" data-uid="lnk8" id="link_ProfileController_Teacher"><path codeLine="28" d="M174.24,294.0294 C185.15,316.4194 196.681,340.076 209.311,365.986" fill="none" id="ProfileController-to-Teacher" style="stroke:#181818;stroke-width:1;stroke-dasharray:7,7;"/><polygon fill="#181818" points="211.94,371.3794,211.592,361.5367,209.7491,366.8849,204.4009,365.042,211.94,371.3794" style="stroke:#181818;stroke-width:1;"/><text fill="#000000" font-family="sans-serif" font-size="13" lengthAdjust="spacing" textLength="46.2617" x="197" y="338.1045">updates</text></g><!--SRC=[dL0zImD15EplLxpoWYG8TaSua82Goa3K_hdxuYriTe_z489Ow0_GpYQLhOqA5Y62_fdB-JVSw9sUfuAunSBEpfkPDquuIR0_sDnAe9m_b5TtnUAcM2wBv-lox1QwiBeyBnONB_UFg_aJn0Uxeq4dYfX4Qs5az4H8sj5c2lt-eVQAevcbAPn44Cu6S65pYREnPuoiZJiLV8nIS7GqLBbt0Jrj2GwqSaPBIIR8ilT7GzNdw-6A6mirqGs9iVESb0k3uHRkCqqNyamhIWB327LKOJH58LiOScv2t2zexJeCRctBFKAMlMNzjsNm8pGispQ4V_1j5j_hfJ_qbe2tPAFl7sjwtL5IYV_6gnVxuBq2]--></g></svg>