<svg xmlns="http://www.w3.org/2000/svg" xmlns:xlink="http://www.w3.org/1999/xlink" contentStyleType="text/css" data-diagram-type="SEQUENCE" height="405px" preserveAspectRatio="none" style="width:403px;height:405px;background:#FFFFFF;" version="1.1" viewBox="0 0 403 405" width="403px" zoomAndPan="magnify"><title>UC03: &#26356;&#26032;&#20010;&#20154;&#20449;&#24687; - &#39034;&#24207;&#22270;</title><defs/><g><text fill="#000000" font-family="sans-serif" font-size="14" font-weight="bold" lengthAdjust="spacing" textLength="186.7236" x="109.8931" y="29.5332">UC03: &#26356;&#26032;&#20010;&#20154;&#20449;&#24687; - &#39034;&#24207;&#22270;</text><g><title>..</title><rect fill="#000000" fill-opacity="0.00000" height="202.1094" width="8" x="18" y="121.2188"/><line style="stroke:#181818;stroke-width:0.5;stroke-dasharray:5,5;" x1="22" x2="22" y1="121.2188" y2="323.3281"/></g><g><title>......</title><rect fill="#000000" fill-opacity="0.00000" height="202.1094" width="8" x="120" y="121.2188"/><line style="stroke:#181818;stroke-width:0.5;stroke-dasharray:5,5;" x1="124" x2="124" y1="121.2188" y2="323.3281"/></g><g><title>.......</title><rect fill="#000000" fill-opacity="0.00000" height="202.1094" width="8" x="227" y="121.2188"/><line style="stroke:#181818;stroke-width:0.5;stroke-dasharray:5,5;" x1="231" x2="231" y1="121.2188" y2="323.3281"/></g><g><title>Student.Teacher</title><rect fill="#000000" fill-opacity="0.00000" height="202.1094" width="8" x="343.7549" y="121.2188"/><line style="stroke:#181818;stroke-width:0.5;stroke-dasharray:5,5;" x1="347" x2="347" y1="121.2188" y2="323.3281"/></g><g class="participant participant-head" data-participant="UserActor"><text fill="#000000" font-family="sans-serif" font-size="14" lengthAdjust="spacing" textLength="28" x="5" y="118.1426">&#29992;&#25143;</text><ellipse cx="22" cy="52.1094" fill="#E2E2F0" rx="8" ry="8" style="stroke:#181818;stroke-width:0.5;"/><path d="M22,60.1094 L22,87.1094 M9,68.1094 L35,68.1094 M22,87.1094 L9,102.1094 M22,87.1094 L35,102.1094" fill="none" style="stroke:#181818;stroke-width:0.5;"/></g><g class="participant participant-tail" data-participant="UserActor"><text fill="#000000" font-family="sans-serif" font-size="14" lengthAdjust="spacing" textLength="28" x="5" y="336.8613">&#29992;&#25143;</text><ellipse cx="22" cy="348.4375" fill="#E2E2F0" rx="8" ry="8" style="stroke:#181818;stroke-width:0.5;"/><path d="M22,356.4375 L22,383.4375 M9,364.4375 L35,364.4375 M22,383.4375 L9,398.4375 M22,383.4375 L35,398.4375" fill="none" style="stroke:#181818;stroke-width:0.5;"/></g><g class="participant participant-head" data-participant="ProfileForm"><text fill="#000000" font-family="sans-serif" font-size="14" lengthAdjust="spacing" textLength="84" x="79" y="118.1426">&#20010;&#20154;&#20013;&#24515;&#30028;&#38754;</text><path d="M103.5,75.6094 L103.5,99.6094 M103.5,87.6094 L120.5,87.6094" fill="none" style="stroke:#181818;stroke-width:0.5;"/><ellipse cx="132.5" cy="87.6094" fill="#E2E2F0" rx="12" ry="12" style="stroke:#181818;stroke-width:0.5;"/></g><g class="participant participant-tail" data-participant="ProfileForm"><text fill="#000000" font-family="sans-serif" font-size="14" lengthAdjust="spacing" textLength="84" x="79" y="336.8613">&#20010;&#20154;&#20013;&#24515;&#30028;&#38754;</text><path d="M103.5,343.9375 L103.5,367.9375 M103.5,355.9375 L120.5,355.9375" fill="none" style="stroke:#181818;stroke-width:0.5;"/><ellipse cx="132.5" cy="355.9375" fill="#E2E2F0" rx="12" ry="12" style="stroke:#181818;stroke-width:0.5;"/></g><g class="participant participant-head" data-participant="ProfileController"><text fill="#000000" font-family="sans-serif" font-size="14" lengthAdjust="spacing" textLength="98" x="179" y="118.1426">&#36164;&#26009;&#31649;&#29702;&#25511;&#21046;&#22120;</text><ellipse cx="231" cy="87.6094" fill="#E2E2F0" rx="12" ry="12" style="stroke:#181818;stroke-width:0.5;"/><polygon fill="#181818" points="227,75.6094,233,70.6094,231,75.6094,233,80.6094,227,75.6094" style="stroke:#181818;stroke-width:1;"/></g><g class="participant participant-tail" data-participant="ProfileController"><text fill="#000000" font-family="sans-serif" font-size="14" lengthAdjust="spacing" textLength="98" x="179" y="336.8613">&#36164;&#26009;&#31649;&#29702;&#25511;&#21046;&#22120;</text><ellipse cx="231" cy="355.9375" fill="#E2E2F0" rx="12" ry="12" style="stroke:#181818;stroke-width:0.5;"/><polygon fill="#181818" points="227,343.9375,233,338.9375,231,343.9375,233,348.9375,227,343.9375" style="stroke:#181818;stroke-width:1;"/></g><g class="participant participant-head" data-participant="UserEntity"><text fill="#000000" font-family="sans-serif" font-size="14" lengthAdjust="spacing" textLength="103.5098" x="293" y="118.1426">Student/Teacher</text><ellipse cx="347.7549" cy="87.6094" fill="#E2E2F0" rx="12" ry="12" style="stroke:#181818;stroke-width:0.5;"/><line style="stroke:#181818;stroke-width:0.5;" x1="335.7549" x2="359.7549" y1="101.6094" y2="101.6094"/></g><g class="participant participant-tail" data-participant="UserEntity"><text fill="#000000" font-family="sans-serif" font-size="14" lengthAdjust="spacing" textLength="103.5098" x="293" y="336.8613">Student/Teacher</text><ellipse cx="347.7549" cy="355.9375" fill="#E2E2F0" rx="12" ry="12" style="stroke:#181818;stroke-width:0.5;"/><line style="stroke:#181818;stroke-width:0.5;" x1="335.7549" x2="359.7549" y1="369.9375" y2="369.9375"/></g><g class="message" data-participant-1="UserActor" data-participant-2="ProfileForm"><polygon fill="#181818" points="112,149.5703,122,153.5703,112,157.5703,116,153.5703" style="stroke:#181818;stroke-width:1;"/><line style="stroke:#181818;stroke-width:1;" x1="22" x2="118" y1="153.5703" y2="153.5703"/><text fill="#000000" font-family="sans-serif" font-size="13" lengthAdjust="spacing" textLength="78" x="29" y="148.7139">&#26356;&#26032;&#32852;&#31995;&#20449;&#24687;</text></g><g class="message" data-participant-1="ProfileForm" data-participant-2="ProfileController"><polygon fill="#181818" points="219,179.9219,229,183.9219,219,187.9219,223,183.9219" style="stroke:#181818;stroke-width:1;"/><line style="stroke:#181818;stroke-width:1;" x1="124" x2="225" y1="183.9219" y2="183.9219"/><text fill="#000000" font-family="sans-serif" font-size="13" lengthAdjust="spacing" textLength="81.6182" x="131" y="179.0654">&#20445;&#23384;&#35831;&#27714;(info)</text></g><g class="message" data-participant-1="ProfileController" data-participant-2="UserEntity"><polygon fill="#181818" points="335.7549,210.2734,345.7549,214.2734,335.7549,218.2734,339.7549,214.2734" style="stroke:#181818;stroke-width:1;"/><line style="stroke:#181818;stroke-width:1;" x1="231" x2="341.7549" y1="214.2734" y2="214.2734"/><text fill="#000000" font-family="sans-serif" font-size="13" lengthAdjust="spacing" textLength="91.0635" x="238" y="209.417">updateInfo(info)</text></g><g class="message" data-participant-1="UserEntity" data-participant-2="ProfileController"><polygon fill="#181818" points="242,240.625,232,244.625,242,248.625,238,244.625" style="stroke:#181818;stroke-width:1;"/><line style="stroke:#181818;stroke-width:1;stroke-dasharray:2,2;" x1="236" x2="346.7549" y1="244.625" y2="244.625"/><text fill="#000000" font-family="sans-serif" font-size="13" lengthAdjust="spacing" textLength="46.96" x="248" y="239.7686">success</text></g><g class="message" data-participant-1="ProfileController" data-participant-2="ProfileForm"><polygon fill="#181818" points="135,270.9766,125,274.9766,135,278.9766,131,274.9766" style="stroke:#181818;stroke-width:1;"/><line style="stroke:#181818;stroke-width:1;stroke-dasharray:2,2;" x1="129" x2="230" y1="274.9766" y2="274.9766"/><text fill="#000000" font-family="sans-serif" font-size="13" lengthAdjust="spacing" textLength="52" x="141" y="270.1201">&#26356;&#26032;&#25104;&#21151;</text></g><g class="message" data-participant-1="ProfileForm" data-participant-2="UserActor"><polygon fill="#181818" points="33,301.3281,23,305.3281,33,309.3281,29,305.3281" style="stroke:#181818;stroke-width:1;"/><line style="stroke:#181818;stroke-width:1;" x1="27" x2="123" y1="305.3281" y2="305.3281"/><text fill="#000000" font-family="sans-serif" font-size="13" lengthAdjust="spacing" textLength="52" x="39" y="300.4717">&#25552;&#31034;&#25104;&#21151;</text></g><!--SRC=[AyaioKbL27KsCBPIU3PxoxDf6vxiMFLarwud-nS-QroleAlmSk6kfxlwdyxUnyMLc5oINwIWz7pAYcSTsvKK4eiLGejJYnn1ebn9-QLvAOb5bGfAKFqxrZxTt_nyQi_BkOl0IWEAyjCoSrBTyejokPBpyqgAydCKb5viRNasRURpTGkVJsXxrhVyQSUsfpDN82jtXgZCIItYIiqhoIm1cXzSKfe2PEk7f2OcPwGMmTtX2fRdueAxIK7N3jbM1PW7NpHEURvvDyI3NCWA4EeHrW9rFTa_z-dQ6I_MRt-siKaZCoyjNvCBKnbGBy8HG4sb1Ic99QcUGDLGBKYokZWiAYvDJaujBiPcEWwlFEkOyBHhFhed4240LDS_uVcINH1r0000]--></g></svg>