<svg xmlns="http://www.w3.org/2000/svg" xmlns:xlink="http://www.w3.org/1999/xlink" contentStyleType="text/css" data-diagram-type="SEQUENCE" height="466px" preserveAspectRatio="none" style="width:590px;height:466px;background:#FFFFFF;" version="1.1" viewBox="0 0 590 466" width="590px" zoomAndPan="magnify"><title>UC04: &#27983;&#35272;&#21644;&#25628;&#32034;&#35838;&#31243; - &#39034;&#24207;&#22270;</title><defs/><g><text fill="#000000" font-family="sans-serif" font-size="14" font-weight="bold" lengthAdjust="spacing" textLength="201.1611" x="196.0461" y="29.5332">UC04: &#27983;&#35272;&#21644;&#25628;&#32034;&#35838;&#31243; - &#39034;&#24207;&#22270;</text><g><title>..</title><rect fill="#000000" fill-opacity="0.00000" height="262.8125" width="8" x="18" y="121.2188"/><line style="stroke:#181818;stroke-width:0.5;stroke-dasharray:5,5;" x1="22" x2="22" y1="121.2188" y2="384.0313"/></g><g><title>......</title><rect fill="#000000" fill-opacity="0.00000" height="262.8125" width="8" x="200.8818" y="121.2188"/><line style="stroke:#181818;stroke-width:0.5;stroke-dasharray:5,5;" x1="204.8818" x2="204.8818" y1="121.2188" y2="384.0313"/></g><g><title>.....</title><rect fill="#000000" fill-opacity="0.00000" height="262.8125" width="8" x="359.9727" y="121.2188"/><line style="stroke:#181818;stroke-width:0.5;stroke-dasharray:5,5;" x1="363.9727" x2="363.9727" y1="121.2188" y2="384.0313"/></g><g><title>.......</title><rect fill="#000000" fill-opacity="0.00000" height="262.8125" width="8" x="472.1226" y="121.2188"/><line style="stroke:#181818;stroke-width:0.5;stroke-dasharray:5,5;" x1="476.1226" x2="476.1226" y1="121.2188" y2="384.0313"/></g><g><title>Course</title><rect fill="#000000" fill-opacity="0.00000" height="262.8125" width="8" x="559.688" y="121.2188"/><line style="stroke:#181818;stroke-width:0.5;stroke-dasharray:5,5;" x1="563.1226" x2="563.1226" y1="121.2188" y2="384.0313"/></g><g class="participant participant-head" data-participant="Student"><text fill="#000000" font-family="sans-serif" font-size="14" lengthAdjust="spacing" textLength="28" x="5" y="118.1426">&#23398;&#29983;</text><ellipse cx="22" cy="52.1094" fill="#E2E2F0" rx="8" ry="8" style="stroke:#181818;stroke-width:0.5;"/><path d="M22,60.1094 L22,87.1094 M9,68.1094 L35,68.1094 M22,87.1094 L9,102.1094 M22,87.1094 L35,102.1094" fill="none" style="stroke:#181818;stroke-width:0.5;"/></g><g class="participant participant-tail" data-participant="Student"><text fill="#000000" font-family="sans-serif" font-size="14" lengthAdjust="spacing" textLength="28" x="5" y="397.5645">&#23398;&#29983;</text><ellipse cx="22" cy="409.1406" fill="#E2E2F0" rx="8" ry="8" style="stroke:#181818;stroke-width:0.5;"/><path d="M22,417.1406 L22,444.1406 M9,425.1406 L35,425.1406 M22,444.1406 L9,459.1406 M22,444.1406 L35,459.1406" fill="none" style="stroke:#181818;stroke-width:0.5;"/></g><g class="participant participant-head" data-participant="SearchPage"><text fill="#000000" font-family="sans-serif" font-size="14" lengthAdjust="spacing" textLength="84" x="159.8818" y="118.1426">&#35838;&#31243;&#25628;&#32034;&#39029;&#38754;</text><path d="M184.3818,75.6094 L184.3818,99.6094 M184.3818,87.6094 L201.3818,87.6094" fill="none" style="stroke:#181818;stroke-width:0.5;"/><ellipse cx="213.3818" cy="87.6094" fill="#E2E2F0" rx="12" ry="12" style="stroke:#181818;stroke-width:0.5;"/></g><g class="participant participant-tail" data-participant="SearchPage"><text fill="#000000" font-family="sans-serif" font-size="14" lengthAdjust="spacing" textLength="84" x="159.8818" y="397.5645">&#35838;&#31243;&#25628;&#32034;&#39029;&#38754;</text><path d="M184.3818,404.6406 L184.3818,428.6406 M184.3818,416.6406 L201.3818,416.6406" fill="none" style="stroke:#181818;stroke-width:0.5;"/><ellipse cx="213.3818" cy="416.6406" fill="#E2E2F0" rx="12" ry="12" style="stroke:#181818;stroke-width:0.5;"/></g><g class="participant participant-head" data-participant="CourseCtrl"><text fill="#000000" font-family="sans-serif" font-size="14" lengthAdjust="spacing" textLength="70" x="325.9727" y="118.1426">&#35838;&#31243;&#25511;&#21046;&#22120;</text><ellipse cx="363.9727" cy="87.6094" fill="#E2E2F0" rx="12" ry="12" style="stroke:#181818;stroke-width:0.5;"/><polygon fill="#181818" points="359.9727,75.6094,365.9727,70.6094,363.9727,75.6094,365.9727,80.6094,359.9727,75.6094" style="stroke:#181818;stroke-width:1;"/></g><g class="participant participant-tail" data-participant="CourseCtrl"><text fill="#000000" font-family="sans-serif" font-size="14" lengthAdjust="spacing" textLength="70" x="325.9727" y="397.5645">&#35838;&#31243;&#25511;&#21046;&#22120;</text><ellipse cx="363.9727" cy="416.6406" fill="#E2E2F0" rx="12" ry="12" style="stroke:#181818;stroke-width:0.5;"/><polygon fill="#181818" points="359.9727,404.6406,365.9727,399.6406,363.9727,404.6406,365.9727,409.6406,359.9727,404.6406" style="stroke:#181818;stroke-width:1;"/></g><g class="participant participant-head" data-participant="DBInterface"><text fill="#000000" font-family="sans-serif" font-size="14" lengthAdjust="spacing" textLength="98" x="424.1226" y="118.1426">&#22806;&#37096;&#25968;&#25454;&#24211;&#25509;&#21475;</text><ellipse cx="476.1226" cy="87.6094" fill="#E2E2F0" rx="12" ry="12" style="stroke:#181818;stroke-width:0.5;"/><line style="stroke:#181818;stroke-width:0.5;" x1="464.1226" x2="488.1226" y1="101.6094" y2="101.6094"/></g><g class="participant participant-tail" data-participant="DBInterface"><text fill="#000000" font-family="sans-serif" font-size="14" lengthAdjust="spacing" textLength="98" x="424.1226" y="397.5645">&#22806;&#37096;&#25968;&#25454;&#24211;&#25509;&#21475;</text><ellipse cx="476.1226" cy="416.6406" fill="#E2E2F0" rx="12" ry="12" style="stroke:#181818;stroke-width:0.5;"/><line style="stroke:#181818;stroke-width:0.5;" x1="464.1226" x2="488.1226" y1="430.6406" y2="430.6406"/></g><g class="participant participant-head" data-participant="Course"><text fill="#000000" font-family="sans-serif" font-size="14" lengthAdjust="spacing" textLength="45.1309" x="538.1226" y="118.1426">Course</text><ellipse cx="563.688" cy="87.6094" fill="#E2E2F0" rx="12" ry="12" style="stroke:#181818;stroke-width:0.5;"/><line style="stroke:#181818;stroke-width:0.5;" x1="551.688" x2="575.688" y1="101.6094" y2="101.6094"/></g><g class="participant participant-tail" data-participant="Course"><text fill="#000000" font-family="sans-serif" font-size="14" lengthAdjust="spacing" textLength="45.1309" x="538.1226" y="397.5645">Course</text><ellipse cx="563.688" cy="416.6406" fill="#E2E2F0" rx="12" ry="12" style="stroke:#181818;stroke-width:0.5;"/><line style="stroke:#181818;stroke-width:0.5;" x1="551.688" x2="575.688" y1="430.6406" y2="430.6406"/></g><g class="message" data-participant-1="Student" data-participant-2="SearchPage"><polygon fill="#181818" points="192.8818,149.5703,202.8818,153.5703,192.8818,157.5703,196.8818,153.5703" style="stroke:#181818;stroke-width:1;"/><line style="stroke:#181818;stroke-width:1;" x1="22" x2="198.8818" y1="153.5703" y2="153.5703"/><text fill="#000000" font-family="sans-serif" font-size="13" lengthAdjust="spacing" textLength="158.8818" x="29" y="148.7139">&#36755;&#20837;&#31579;&#36873;&#26465;&#20214;(&#21517;&#31216;, &#25945;&#24072;&#31561;)</text></g><g class="message" data-participant-1="SearchPage" data-participant-2="CourseCtrl"><polygon fill="#181818" points="351.9727,179.9219,361.9727,183.9219,351.9727,187.9219,355.9727,183.9219" style="stroke:#181818;stroke-width:1;"/><line style="stroke:#181818;stroke-width:1;" x1="204.8818" x2="357.9727" y1="183.9219" y2="183.9219"/><text fill="#000000" font-family="sans-serif" font-size="13" lengthAdjust="spacing" textLength="135.0908" x="211.8818" y="179.0654">searchCourses(criteria)</text></g><g class="message" data-participant-1="CourseCtrl" data-participant-2="DBInterface"><polygon fill="#181818" points="464.1226,210.2734,474.1226,214.2734,464.1226,218.2734,468.1226,214.2734" style="stroke:#181818;stroke-width:1;"/><line style="stroke:#181818;stroke-width:1;" x1="363.9727" x2="470.1226" y1="214.2734" y2="214.2734"/><text fill="#000000" font-family="sans-serif" font-size="13" lengthAdjust="spacing" textLength="88.1499" x="370.9727" y="209.417">syncIfNeeded()</text></g><g class="message" data-participant-1="DBInterface" data-participant-2="CourseCtrl"><polygon fill="#181818" points="374.9727,240.625,364.9727,244.625,374.9727,248.625,370.9727,244.625" style="stroke:#181818;stroke-width:1;"/><line style="stroke:#181818;stroke-width:1;stroke-dasharray:2,2;" x1="368.9727" x2="475.1226" y1="244.625" y2="244.625"/><text fill="#000000" font-family="sans-serif" font-size="13" lengthAdjust="spacing" textLength="58.5317" x="380.9727" y="239.7686">latestData</text></g><g class="message" data-participant-1="CourseCtrl" data-participant-2="Course"><polygon fill="#181818" points="551.688,270.9766,561.688,274.9766,551.688,278.9766,555.688,274.9766" style="stroke:#181818;stroke-width:1;"/><line style="stroke:#181818;stroke-width:1;" x1="363.9727" x2="557.688" y1="274.9766" y2="274.9766"/><text fill="#000000" font-family="sans-serif" font-size="13" lengthAdjust="spacing" textLength="117.7554" x="370.9727" y="270.1201">findMatches(criteria)</text></g><g class="message" data-participant-1="Course" data-participant-2="CourseCtrl"><polygon fill="#181818" points="374.9727,301.3281,364.9727,305.3281,374.9727,309.3281,370.9727,305.3281" style="stroke:#181818;stroke-width:1;"/><line style="stroke:#181818;stroke-width:1;stroke-dasharray:2,2;" x1="368.9727" x2="562.688" y1="305.3281" y2="305.3281"/><text fill="#000000" font-family="sans-serif" font-size="13" lengthAdjust="spacing" textLength="38.2891" x="380.9727" y="300.4717">results</text></g><g class="message" data-participant-1="CourseCtrl" data-participant-2="SearchPage"><polygon fill="#181818" points="215.8818,331.6797,205.8818,335.6797,215.8818,339.6797,211.8818,335.6797" style="stroke:#181818;stroke-width:1;"/><line style="stroke:#181818;stroke-width:1;stroke-dasharray:2,2;" x1="209.8818" x2="362.9727" y1="335.6797" y2="335.6797"/><text fill="#000000" font-family="sans-serif" font-size="13" lengthAdjust="spacing" textLength="130" x="221.8818" y="330.8232">&#23637;&#31034;&#35838;&#31243;&#21015;&#34920;&#21450;&#20854;&#35814;&#24773;</text></g><g class="message" data-participant-1="SearchPage" data-participant-2="Student"><polygon fill="#181818" points="33,362.0313,23,366.0313,33,370.0313,29,366.0313" style="stroke:#181818;stroke-width:1;"/><line style="stroke:#181818;stroke-width:1;" x1="27" x2="203.8818" y1="366.0313" y2="366.0313"/><text fill="#000000" font-family="sans-serif" font-size="13" lengthAdjust="spacing" textLength="52" x="39" y="361.1748">&#26174;&#31034;&#32467;&#26524;</text></g><!--SRC=[RP9FJy8m78Rl_HGD9qWayU29WmVXua5ZOlm0TIkoPDcIhXoucH2IeSA8Y4e0pP1_5mGJ8MOa-pIssxw5bIdEwR7jypvzyskfGbKCJxBREnd85vO_Djdr5MzqlTU-FtEzoILCmy1sc6EnZWi0agXEO89DHzxDOm8Y0nxJeemr2axreYOZKeA9C1Sw0diHzFeXY16H2aVe30D9roZHrGrQ7pDpoTgJDPVLYyJ0MKfK8BmA5KOsk0tA4zwQyzepSvgyFcJMqnhExUrh59Cyal263WKH5m1V9M5wDr83Pg3lDbbbw4qxmNcLz-ptrJB96ZLlFD-2lDLcRwOthQP09284F_s4m5WVXLj6KYAAAAEW58X08X9f-PafQT9-_X1Z6Sl958WUfkD-5L5iq1oYAAOCLuB8AvfyWAXK-EV-lpw2ZQ9AZL-o-53OIyiREE7JCFFEjoVCkc2LfJyRyN8bDetloOhVS- -AcBTgyeVk1m00]--></g></svg>