<svg xmlns="http://www.w3.org/2000/svg" xmlns:xlink="http://www.w3.org/1999/xlink" contentStyleType="text/css" data-diagram-type="CLASS" height="560px" preserveAspectRatio="none" style="width:367px;height:560px;background:#FFFFFF;" version="1.1" viewBox="0 0 367 560" width="367px" zoomAndPan="magnify"><title>UC04: &#27983;&#35272;&#21644;&#25628;&#32034;&#35838;&#31243; - &#21442;&#19982;&#31867;&#22270; (VOPC)</title><defs/><g><g class="title" data-source-line="1"><text fill="#000000" font-family="sans-serif" font-size="14" font-weight="bold" lengthAdjust="spacing" textLength="268.4883" x="42.397" y="24.5332">UC04: &#27983;&#35272;&#21644;&#25628;&#32034;&#35838;&#31243; - &#21442;&#19982;&#31867;&#22270; (VOPC)</text></g><!--class CourseSearchPage--><g class="entity" data-entity="CourseSearchPage" data-source-line="3" data-uid="ent0002" id="entity_CourseSearchPage"><rect fill="#F1F1F1" height="93.9219" rx="2.5" ry="2.5" style="stroke:#181818;stroke-width:0.5;" width="154.1855" x="107.5" y="45.6094"/><ellipse cx="122.5" cy="66.9609" fill="#ADD1B2" rx="11" ry="11" style="stroke:#181818;stroke-width:1;"/><path d="M125.2656,62.8359 Q125.4219,62.6172 125.6094,62.5078 Q125.7969,62.3984 126.0156,62.3984 Q126.3906,62.3984 126.625,62.6641 Q126.8594,62.9141 126.8594,63.5234 L126.8594,64.9766 Q126.8594,65.5859 126.625,65.8516 Q126.3906,66.1172 126.0156,66.1172 Q125.6719,66.1172 125.4688,65.9141 Q125.2656,65.7266 125.1563,65.2109 Q125.1094,64.8516 124.9219,64.6641 Q124.5938,64.2891 123.9844,64.0703 Q123.375,63.8516 122.75,63.8516 Q121.9844,63.8516 121.3438,64.1797 Q120.7188,64.5078 120.2188,65.2578 Q119.7344,66.0078 119.7344,67.0391 L119.7344,68.1328 Q119.7344,69.3672 120.625,70.1953 Q121.5156,71.0078 123.1094,71.0078 Q124.0469,71.0078 124.7031,70.7578 Q125.0938,70.6016 125.5156,70.1641 Q125.7813,69.8984 125.9219,69.8203 Q126.0781,69.7422 126.2813,69.7422 Q126.6094,69.7422 126.8594,70.0078 Q127.125,70.2578 127.125,70.6016 Q127.125,70.9453 126.7813,71.3516 Q126.2813,71.9297 125.4844,72.2578 Q124.4063,72.7109 123.1094,72.7109 Q121.5938,72.7109 120.3906,72.0859 Q119.4063,71.5859 118.7188,70.5234 Q118.0313,69.4453 118.0313,68.1641 L118.0313,67.0078 Q118.0313,65.6797 118.6406,64.5391 Q119.2656,63.3828 120.3594,62.7734 Q121.4531,62.1484 122.6875,62.1484 Q123.4219,62.1484 124.0625,62.3203 Q124.7188,62.4766 125.2656,62.8359 Z " fill="#000000"/><text fill="#000000" font-family="sans-serif" font-size="12" font-style="italic" lengthAdjust="spacing" textLength="63.3867" x="165.8994" y="63.0664">&#171;boundary&#187;</text><text fill="#000000" font-family="sans-serif" font-size="14" lengthAdjust="spacing" textLength="122.1855" x="136.5" y="80.2363">CourseSearchPage</text><line style="stroke:#181818;stroke-width:0.5;" x1="108.5" x2="260.6855" y1="88.3125" y2="88.3125"/><line style="stroke:#181818;stroke-width:0.5;" x1="108.5" x2="260.6855" y1="96.3125" y2="96.3125"/><ellipse cx="118.5" cy="110.6172" fill="#84BE84" rx="3" ry="3" style="stroke:#038048;stroke-width:1;"/><text fill="#000000" font-family="sans-serif" font-size="14" lengthAdjust="spacing" textLength="113.5859" x="127.5" y="114.8457">renderResults(list)</text><ellipse cx="118.5" cy="128.2266" fill="#84BE84" rx="3" ry="3" style="stroke:#038048;stroke-width:1;"/><text fill="#000000" font-family="sans-serif" font-size="14" lengthAdjust="spacing" textLength="105.0137" x="127.5" y="132.4551">getFilterCriteria()</text></g><!--class CourseController--><g class="entity" data-entity="CourseController" data-source-line="8" data-uid="ent0003" id="entity_CourseController"><rect fill="#F1F1F1" height="93.9219" rx="2.5" ry="2.5" style="stroke:#181818;stroke-width:0.5;" width="171.4824" x="99" y="217.6094"/><ellipse cx="129.1479" cy="238.9609" fill="#ADD1B2" rx="11" ry="11" style="stroke:#181818;stroke-width:1;"/><path d="M131.9136,234.8359 Q132.0698,234.6172 132.2573,234.5078 Q132.4448,234.3984 132.6636,234.3984 Q133.0386,234.3984 133.2729,234.6641 Q133.5073,234.9141 133.5073,235.5234 L133.5073,236.9766 Q133.5073,237.5859 133.2729,237.8516 Q133.0386,238.1172 132.6636,238.1172 Q132.3198,238.1172 132.1167,237.9141 Q131.9136,237.7266 131.8042,237.2109 Q131.7573,236.8516 131.5698,236.6641 Q131.2417,236.2891 130.6323,236.0703 Q130.0229,235.8516 129.3979,235.8516 Q128.6323,235.8516 127.9917,236.1797 Q127.3667,236.5078 126.8667,237.2578 Q126.3823,238.0078 126.3823,239.0391 L126.3823,240.1328 Q126.3823,241.3672 127.2729,242.1953 Q128.1636,243.0078 129.7573,243.0078 Q130.6948,243.0078 131.3511,242.7578 Q131.7417,242.6016 132.1636,242.1641 Q132.4292,241.8984 132.5698,241.8203 Q132.7261,241.7422 132.9292,241.7422 Q133.2573,241.7422 133.5073,242.0078 Q133.7729,242.2578 133.7729,242.6016 Q133.7729,242.9453 133.4292,243.3516 Q132.9292,243.9297 132.1323,244.2578 Q131.0542,244.7109 129.7573,244.7109 Q128.2417,244.7109 127.0386,244.0859 Q126.0542,243.5859 125.3667,242.5234 Q124.6792,241.4453 124.6792,240.1641 L124.6792,239.0078 Q124.6792,237.6797 125.2886,236.5391 Q125.9136,235.3828 127.0073,234.7734 Q128.1011,234.1484 129.3354,234.1484 Q130.0698,234.1484 130.7104,234.3203 Q131.3667,234.4766 131.9136,234.8359 Z " fill="#000000"/><text fill="#000000" font-family="sans-serif" font-size="12" font-style="italic" lengthAdjust="spacing" textLength="49.3652" x="174.7417" y="235.0664">&#171;control&#187;</text><text fill="#000000" font-family="sans-serif" font-size="14" lengthAdjust="spacing" textLength="105.8203" x="146.5142" y="252.2363">CourseController</text><line style="stroke:#181818;stroke-width:0.5;" x1="100" x2="269.4824" y1="260.3125" y2="260.3125"/><line style="stroke:#181818;stroke-width:0.5;" x1="100" x2="269.4824" y1="268.3125" y2="268.3125"/><ellipse cx="110" cy="282.6172" fill="#84BE84" rx="3" ry="3" style="stroke:#038048;stroke-width:1;"/><text fill="#000000" font-family="sans-serif" font-size="14" lengthAdjust="spacing" textLength="145.4824" x="119" y="286.8457">searchCourses(criteria)</text><ellipse cx="110" cy="300.2266" fill="#84BE84" rx="3" ry="3" style="stroke:#038048;stroke-width:1;"/><text fill="#000000" font-family="sans-serif" font-size="14" lengthAdjust="spacing" textLength="127.6064" x="119" y="304.4551">getCourseDetails(id)</text></g><!--class Course--><g class="entity" data-entity="Course" data-source-line="13" data-uid="ent0004" id="entity_Course"><rect fill="#F1F1F1" height="164.3594" rx="2.5" ry="2.5" style="stroke:#181818;stroke-width:0.5;" width="161.3584" x="7" y="389.6094"/><ellipse cx="60.8638" cy="410.9609" fill="#ADD1B2" rx="11" ry="11" style="stroke:#181818;stroke-width:1;"/><path d="M63.6294,406.8359 Q63.7856,406.6172 63.9731,406.5078 Q64.1606,406.3984 64.3794,406.3984 Q64.7544,406.3984 64.9888,406.6641 Q65.2231,406.9141 65.2231,407.5234 L65.2231,408.9766 Q65.2231,409.5859 64.9888,409.8516 Q64.7544,410.1172 64.3794,410.1172 Q64.0356,410.1172 63.8325,409.9141 Q63.6294,409.7266 63.52,409.2109 Q63.4731,408.8516 63.2856,408.6641 Q62.9575,408.2891 62.3481,408.0703 Q61.7388,407.8516 61.1138,407.8516 Q60.3481,407.8516 59.7075,408.1797 Q59.0825,408.5078 58.5825,409.2578 Q58.0981,410.0078 58.0981,411.0391 L58.0981,412.1328 Q58.0981,413.3672 58.9888,414.1953 Q59.8794,415.0078 61.4731,415.0078 Q62.4106,415.0078 63.0669,414.7578 Q63.4575,414.6016 63.8794,414.1641 Q64.145,413.8984 64.2856,413.8203 Q64.4419,413.7422 64.645,413.7422 Q64.9731,413.7422 65.2231,414.0078 Q65.4888,414.2578 65.4888,414.6016 Q65.4888,414.9453 65.145,415.3516 Q64.645,415.9297 63.8481,416.2578 Q62.77,416.7109 61.4731,416.7109 Q59.9575,416.7109 58.7544,416.0859 Q57.77,415.5859 57.0825,414.5234 Q56.395,413.4453 56.395,412.1641 L56.395,411.0078 Q56.395,409.6797 57.0044,408.5391 Q57.6294,407.3828 58.7231,406.7734 Q59.8169,406.1484 61.0513,406.1484 Q61.7856,406.1484 62.4263,406.3203 Q63.0825,406.4766 63.6294,406.8359 Z " fill="#000000"/><text fill="#000000" font-family="sans-serif" font-size="12" font-style="italic" lengthAdjust="spacing" textLength="42.0293" x="82.9146" y="407.0664">&#171;entity&#187;</text><text fill="#000000" font-family="sans-serif" font-size="14" lengthAdjust="spacing" textLength="45.1309" x="81.3638" y="424.2363">Course</text><line style="stroke:#181818;stroke-width:0.5;" x1="8" x2="167.3584" y1="432.3125" y2="432.3125"/><rect fill="none" height="6" style="stroke:#C82930;stroke-width:1;" width="6" x="15" y="443.6172"/><text fill="#000000" font-family="sans-serif" font-size="14" lengthAdjust="spacing" textLength="74.71" x="27" y="450.8457">code: String</text><rect fill="none" height="6" style="stroke:#C82930;stroke-width:1;" width="6" x="15" y="461.2266"/><text fill="#000000" font-family="sans-serif" font-size="14" lengthAdjust="spacing" textLength="79.3721" x="27" y="468.4551">name: String</text><rect fill="none" height="6" style="stroke:#C82930;stroke-width:1;" width="6" x="15" y="478.8359"/><text fill="#000000" font-family="sans-serif" font-size="14" lengthAdjust="spacing" textLength="75.4756" x="27" y="486.0645">credits: float</text><rect fill="none" height="6" style="stroke:#C82930;stroke-width:1;" width="6" x="15" y="496.4453"/><text fill="#000000" font-family="sans-serif" font-size="14" lengthAdjust="spacing" textLength="91.0479" x="27" y="503.6738">teacher: String</text><rect fill="none" height="6" style="stroke:#C82930;stroke-width:1;" width="6" x="15" y="514.0547"/><text fill="#000000" font-family="sans-serif" font-size="14" lengthAdjust="spacing" textLength="112.0547" x="27" y="521.2832">description: String</text><line style="stroke:#181818;stroke-width:0.5;" x1="8" x2="167.3584" y1="528.3594" y2="528.3594"/><ellipse cx="18" cy="542.6641" fill="#84BE84" rx="3" ry="3" style="stroke:#038048;stroke-width:1;"/><text fill="#000000" font-family="sans-serif" font-size="14" lengthAdjust="spacing" textLength="135.3584" x="27" y="546.8926">findByCriteria(criteria)</text></g><!--class ExternalDBInterface--><g class="entity" data-entity="ExternalDBInterface" data-source-line="22" data-uid="ent0005" id="entity_ExternalDBInterface"><rect fill="#F1F1F1" height="76.3125" rx="2.5" ry="2.5" style="stroke:#181818;stroke-width:0.5;" width="157.2822" x="203" y="433.6094"/><ellipse cx="218" cy="454.9609" fill="#ADD1B2" rx="11" ry="11" style="stroke:#181818;stroke-width:1;"/><path d="M220.7656,450.8359 Q220.9219,450.6172 221.1094,450.5078 Q221.2969,450.3984 221.5156,450.3984 Q221.8906,450.3984 222.125,450.6641 Q222.3594,450.9141 222.3594,451.5234 L222.3594,452.9766 Q222.3594,453.5859 222.125,453.8516 Q221.8906,454.1172 221.5156,454.1172 Q221.1719,454.1172 220.9688,453.9141 Q220.7656,453.7266 220.6563,453.2109 Q220.6094,452.8516 220.4219,452.6641 Q220.0938,452.2891 219.4844,452.0703 Q218.875,451.8516 218.25,451.8516 Q217.4844,451.8516 216.8438,452.1797 Q216.2188,452.5078 215.7188,453.2578 Q215.2344,454.0078 215.2344,455.0391 L215.2344,456.1328 Q215.2344,457.3672 216.125,458.1953 Q217.0156,459.0078 218.6094,459.0078 Q219.5469,459.0078 220.2031,458.7578 Q220.5938,458.6016 221.0156,458.1641 Q221.2813,457.8984 221.4219,457.8203 Q221.5781,457.7422 221.7813,457.7422 Q222.1094,457.7422 222.3594,458.0078 Q222.625,458.2578 222.625,458.6016 Q222.625,458.9453 222.2813,459.3516 Q221.7813,459.9297 220.9844,460.2578 Q219.9063,460.7109 218.6094,460.7109 Q217.0938,460.7109 215.8906,460.0859 Q214.9063,459.5859 214.2188,458.5234 Q213.5313,457.4453 213.5313,456.1641 L213.5313,455.0078 Q213.5313,453.6797 214.1406,452.5391 Q214.7656,451.3828 215.8594,450.7734 Q216.9531,450.1484 218.1875,450.1484 Q218.9219,450.1484 219.5625,450.3203 Q220.2188,450.4766 220.7656,450.8359 Z " fill="#000000"/><text fill="#000000" font-family="sans-serif" font-size="12" font-style="italic" lengthAdjust="spacing" textLength="42.0293" x="273.6265" y="451.0664">&#171;entity&#187;</text><text fill="#000000" font-family="sans-serif" font-size="14" lengthAdjust="spacing" textLength="125.2822" x="232" y="468.2363">ExternalDBInterface</text><line style="stroke:#181818;stroke-width:0.5;" x1="204" x2="359.2822" y1="476.3125" y2="476.3125"/><line style="stroke:#181818;stroke-width:0.5;" x1="204" x2="359.2822" y1="484.3125" y2="484.3125"/><ellipse cx="214" cy="498.6172" fill="#84BE84" rx="3" ry="3" style="stroke:#038048;stroke-width:1;"/><text fill="#000000" font-family="sans-serif" font-size="14" lengthAdjust="spacing" textLength="67.6826" x="223" y="502.8457">syncData()</text></g><!--link CourseSearchPage to CourseController--><g class="link" data-entity-1="CourseSearchPage" data-entity-2="CourseController" data-source-line="26" data-uid="lnk6" id="link_CourseSearchPage_CourseController"><path codeLine="26" d="M184.5,139.6094 C184.5,163.7994 184.5,187.3694 184.5,211.5694" fill="none" id="CourseSearchPage-to-CourseController" style="stroke:#181818;stroke-width:1;stroke-dasharray:7,7;"/><polygon fill="#181818" points="184.5,217.5694,188.5,208.5694,184.5,212.5694,180.5,208.5694,184.5,217.5694" style="stroke:#181818;stroke-width:1;"/><text fill="#000000" font-family="sans-serif" font-size="13" lengthAdjust="spacing" textLength="27.46" x="185.5" y="184.1045">uses</text></g><!--link CourseController to Course--><g class="link" data-entity-1="CourseController" data-entity-2="Course" data-source-line="27" data-uid="lnk7" id="link_CourseController_Course"><path codeLine="27" d="M162.73,311.6194 C151.9,334.5194 141.0368,357.4662 128.5368,383.8762" fill="none" id="CourseController-to-Course" style="stroke:#181818;stroke-width:1;stroke-dasharray:7,7;"/><polygon fill="#181818" points="125.97,389.2994,133.4357,382.8758,128.109,384.78,126.2048,379.4533,125.97,389.2994" style="stroke:#181818;stroke-width:1;"/><text fill="#000000" font-family="sans-serif" font-size="13" lengthAdjust="spacing" textLength="42.6372" x="149.5" y="356.1045">queries</text></g><!--link CourseController to ExternalDBInterface--><g class="link" data-entity-1="CourseController" data-entity-2="ExternalDBInterface" data-source-line="28" data-uid="lnk8" id="link_CourseController_ExternalDBInterface"><path codeLine="28" d="M206.27,311.6194 C223.64,348.3294 245.1047,393.6754 261.2847,427.8854" fill="none" id="CourseController-to-ExternalDBInterface" style="stroke:#181818;stroke-width:1;stroke-dasharray:7,7;"/><polygon fill="#181818" points="263.85,433.3094,263.618,423.4633,261.7122,428.7894,256.3861,426.8837,263.85,433.3094" style="stroke:#181818;stroke-width:1;"/><text fill="#000000" font-family="sans-serif" font-size="13" lengthAdjust="spacing" textLength="49.1309" x="227.5" y="356.1045">interacts</text></g><!--SRC=[TL4zImD14EtlLqnv8KGih8wG8XS5AuD1-t5taYoikxex1mQniH8K8xPQsMWdWe8WvDUOZv_XQevyNTnYcNtpUFFcBIlM10VfvbO2eu_-vFbgU7ypkdiSlpzDNWVZbskemB1_-VrvEtxx6ZuC83xSQwQbA18QlOVKPivJYz29RXCx1DNgaSsCHDUhrU0yWd3AuCX8SllaCyq-rifpAUzqY7UKPdAfK-5M69UYYsNnr1fsLcjoGLnC7mlQ_c_sbEfZaSiiw4zR3M9KsiTA5WO4MJAiUEwu0i9AIg35JfbE3XayNeM48wdO9z3M5Za7cL1qoQrG9VdWxOILDKkTChILaVNURF_v1ZERssS1CQWRzLqJgZQADPv34ZqZ6iXvX8MVsTYe5HDD80knHGLyJWwKqomO-e-rpbm2whT6mVu7]--></g></svg>