<svg xmlns="http://www.w3.org/2000/svg" xmlns:xlink="http://www.w3.org/1999/xlink" contentStyleType="text/css" data-diagram-type="CLASS" height="507px" preserveAspectRatio="none" style="width:590px;height:507px;background:#FFFFFF;" version="1.1" viewBox="0 0 590 507" width="590px" zoomAndPan="magnify"><title>UC05: &#36873;&#35838; - &#21442;&#19982;&#31867;&#22270; (VOPC)</title><defs/><g><g class="title" data-source-line="1"><text fill="#000000" font-family="sans-serif" font-size="14" font-weight="bold" lengthAdjust="spacing" textLength="196.3008" x="190.1167" y="24.5332">UC05: &#36873;&#35838; - &#21442;&#19982;&#31867;&#22270; (VOPC)</text></g><!--class CourseSelectionForm--><g class="entity" data-entity="CourseSelectionForm" data-source-line="3" data-uid="ent0002" id="entity_CourseSelectionForm"><rect fill="#F1F1F1" height="93.9219" rx="2.5" ry="2.5" style="stroke:#181818;stroke-width:0.5;" width="167.3857" x="202.5" y="45.6094"/><ellipse cx="217.5" cy="66.9609" fill="#ADD1B2" rx="11" ry="11" style="stroke:#181818;stroke-width:1;"/><path d="M220.2656,62.8359 Q220.4219,62.6172 220.6094,62.5078 Q220.7969,62.3984 221.0156,62.3984 Q221.3906,62.3984 221.625,62.6641 Q221.8594,62.9141 221.8594,63.5234 L221.8594,64.9766 Q221.8594,65.5859 221.625,65.8516 Q221.3906,66.1172 221.0156,66.1172 Q220.6719,66.1172 220.4688,65.9141 Q220.2656,65.7266 220.1563,65.2109 Q220.1094,64.8516 219.9219,64.6641 Q219.5938,64.2891 218.9844,64.0703 Q218.375,63.8516 217.75,63.8516 Q216.9844,63.8516 216.3438,64.1797 Q215.7188,64.5078 215.2188,65.2578 Q214.7344,66.0078 214.7344,67.0391 L214.7344,68.1328 Q214.7344,69.3672 215.625,70.1953 Q216.5156,71.0078 218.1094,71.0078 Q219.0469,71.0078 219.7031,70.7578 Q220.0938,70.6016 220.5156,70.1641 Q220.7813,69.8984 220.9219,69.8203 Q221.0781,69.7422 221.2813,69.7422 Q221.6094,69.7422 221.8594,70.0078 Q222.125,70.2578 222.125,70.6016 Q222.125,70.9453 221.7813,71.3516 Q221.2813,71.9297 220.4844,72.2578 Q219.4063,72.7109 218.1094,72.7109 Q216.5938,72.7109 215.3906,72.0859 Q214.4063,71.5859 213.7188,70.5234 Q213.0313,69.4453 213.0313,68.1641 L213.0313,67.0078 Q213.0313,65.6797 213.6406,64.5391 Q214.2656,63.3828 215.3594,62.7734 Q216.4531,62.1484 217.6875,62.1484 Q218.4219,62.1484 219.0625,62.3203 Q219.7188,62.4766 220.2656,62.8359 Z " fill="#000000"/><text fill="#000000" font-family="sans-serif" font-size="12" font-style="italic" lengthAdjust="spacing" textLength="63.3867" x="267.4995" y="63.0664">&#171;boundary&#187;</text><text fill="#000000" font-family="sans-serif" font-size="14" lengthAdjust="spacing" textLength="135.3857" x="231.5" y="80.2363">CourseSelectionForm</text><line style="stroke:#181818;stroke-width:0.5;" x1="203.5" x2="368.8857" y1="88.3125" y2="88.3125"/><line style="stroke:#181818;stroke-width:0.5;" x1="203.5" x2="368.8857" y1="96.3125" y2="96.3125"/><ellipse cx="213.5" cy="110.6172" fill="#84BE84" rx="3" ry="3" style="stroke:#038048;stroke-width:1;"/><text fill="#000000" font-family="sans-serif" font-size="14" lengthAdjust="spacing" textLength="94.917" x="222.5" y="114.8457">showSuccess()</text><ellipse cx="213.5" cy="128.2266" fill="#84BE84" rx="3" ry="3" style="stroke:#038048;stroke-width:1;"/><text fill="#000000" font-family="sans-serif" font-size="14" lengthAdjust="spacing" textLength="127.6064" x="222.5" y="132.4551">showFailure(reason)</text></g><!--class EnrollmentController--><g class="entity" data-entity="EnrollmentController" data-source-line="8" data-uid="ent0003" id="entity_EnrollmentController"><rect fill="#F1F1F1" height="76.3125" rx="2.5" ry="2.5" style="stroke:#181818;stroke-width:0.5;" width="188.6406" x="191.5" y="217.6094"/><ellipse cx="219.5654" cy="238.9609" fill="#ADD1B2" rx="11" ry="11" style="stroke:#181818;stroke-width:1;"/><path d="M222.331,234.8359 Q222.4873,234.6172 222.6748,234.5078 Q222.8623,234.3984 223.081,234.3984 Q223.456,234.3984 223.6904,234.6641 Q223.9248,234.9141 223.9248,235.5234 L223.9248,236.9766 Q223.9248,237.5859 223.6904,237.8516 Q223.456,238.1172 223.081,238.1172 Q222.7373,238.1172 222.5341,237.9141 Q222.331,237.7266 222.2216,237.2109 Q222.1748,236.8516 221.9873,236.6641 Q221.6591,236.2891 221.0498,236.0703 Q220.4404,235.8516 219.8154,235.8516 Q219.0498,235.8516 218.4091,236.1797 Q217.7841,236.5078 217.2841,237.2578 Q216.7998,238.0078 216.7998,239.0391 L216.7998,240.1328 Q216.7998,241.3672 217.6904,242.1953 Q218.581,243.0078 220.1748,243.0078 Q221.1123,243.0078 221.7685,242.7578 Q222.1591,242.6016 222.581,242.1641 Q222.8466,241.8984 222.9873,241.8203 Q223.1435,241.7422 223.3466,241.7422 Q223.6748,241.7422 223.9248,242.0078 Q224.1904,242.2578 224.1904,242.6016 Q224.1904,242.9453 223.8466,243.3516 Q223.3466,243.9297 222.5498,244.2578 Q221.4716,244.7109 220.1748,244.7109 Q218.6591,244.7109 217.456,244.0859 Q216.4716,243.5859 215.7841,242.5234 Q215.0966,241.4453 215.0966,240.1641 L215.0966,239.0078 Q215.0966,237.6797 215.706,236.5391 Q216.331,235.3828 217.4248,234.7734 Q218.5185,234.1484 219.7529,234.1484 Q220.4873,234.1484 221.1279,234.3203 Q221.7841,234.4766 222.331,234.8359 Z " fill="#000000"/><text fill="#000000" font-family="sans-serif" font-size="12" font-style="italic" lengthAdjust="spacing" textLength="49.3652" x="275.5894" y="235.0664">&#171;control&#187;</text><text fill="#000000" font-family="sans-serif" font-size="14" lengthAdjust="spacing" textLength="127.6064" x="236.4688" y="252.2363">EnrollmentController</text><line style="stroke:#181818;stroke-width:0.5;" x1="192.5" x2="379.1406" y1="260.3125" y2="260.3125"/><line style="stroke:#181818;stroke-width:0.5;" x1="192.5" x2="379.1406" y1="268.3125" y2="268.3125"/><ellipse cx="202.5" cy="282.6172" fill="#84BE84" rx="3" ry="3" style="stroke:#038048;stroke-width:1;"/><text fill="#000000" font-family="sans-serif" font-size="14" lengthAdjust="spacing" textLength="162.6406" x="211.5" y="286.8457">enroll(studentId, courseId)</text></g><!--class Course--><g class="entity" data-entity="Course" data-source-line="12" data-uid="ent0004" id="entity_Course"><rect fill="#F1F1F1" height="129.1406" rx="2.5" ry="2.5" style="stroke:#181818;stroke-width:0.5;" width="139.627" x="7" y="371.6094"/><ellipse cx="50.1232" cy="392.9609" fill="#ADD1B2" rx="11" ry="11" style="stroke:#181818;stroke-width:1;"/><path d="M52.8889,388.8359 Q53.0451,388.6172 53.2326,388.5078 Q53.4201,388.3984 53.6389,388.3984 Q54.0139,388.3984 54.2482,388.6641 Q54.4826,388.9141 54.4826,389.5234 L54.4826,390.9766 Q54.4826,391.5859 54.2482,391.8516 Q54.0139,392.1172 53.6389,392.1172 Q53.2951,392.1172 53.092,391.9141 Q52.8889,391.7266 52.7795,391.2109 Q52.7326,390.8516 52.5451,390.6641 Q52.217,390.2891 51.6076,390.0703 Q50.9982,389.8516 50.3732,389.8516 Q49.6076,389.8516 48.967,390.1797 Q48.342,390.5078 47.842,391.2578 Q47.3576,392.0078 47.3576,393.0391 L47.3576,394.1328 Q47.3576,395.3672 48.2482,396.1953 Q49.1389,397.0078 50.7326,397.0078 Q51.6701,397.0078 52.3264,396.7578 Q52.717,396.6016 53.1389,396.1641 Q53.4045,395.8984 53.5451,395.8203 Q53.7014,395.7422 53.9045,395.7422 Q54.2326,395.7422 54.4826,396.0078 Q54.7482,396.2578 54.7482,396.6016 Q54.7482,396.9453 54.4045,397.3516 Q53.9045,397.9297 53.1076,398.2578 Q52.0295,398.7109 50.7326,398.7109 Q49.217,398.7109 48.0139,398.0859 Q47.0295,397.5859 46.342,396.5234 Q45.6545,395.4453 45.6545,394.1641 L45.6545,393.0078 Q45.6545,391.6797 46.2639,390.5391 Q46.8889,389.3828 47.9826,388.7734 Q49.0764,388.1484 50.3107,388.1484 Q51.0451,388.1484 51.6857,388.3203 Q52.342,388.4766 52.8889,388.8359 Z " fill="#000000"/><text fill="#000000" font-family="sans-serif" font-size="12" font-style="italic" lengthAdjust="spacing" textLength="42.0293" x="71.9236" y="389.0664">&#171;entity&#187;</text><text fill="#000000" font-family="sans-serif" font-size="14" lengthAdjust="spacing" textLength="45.1309" x="70.3729" y="406.2363">Course</text><line style="stroke:#181818;stroke-width:0.5;" x1="8" x2="145.627" y1="414.3125" y2="414.3125"/><rect fill="none" height="6" style="stroke:#C82930;stroke-width:1;" width="6" x="15" y="425.6172"/><text fill="#000000" font-family="sans-serif" font-size="14" lengthAdjust="spacing" textLength="98.0479" x="27" y="432.8457">courseId: String</text><rect fill="none" height="6" style="stroke:#C82930;stroke-width:1;" width="6" x="15" y="443.2266"/><text fill="#000000" font-family="sans-serif" font-size="14" lengthAdjust="spacing" textLength="73.9238" x="27" y="450.4551">capacity: int</text><rect fill="none" height="6" style="stroke:#C82930;stroke-width:1;" width="6" x="15" y="460.8359"/><text fill="#000000" font-family="sans-serif" font-size="14" lengthAdjust="spacing" textLength="109.7373" x="27" y="468.0645">enrolledCount: int</text><line style="stroke:#181818;stroke-width:0.5;" x1="8" x2="145.627" y1="475.1406" y2="475.1406"/><ellipse cx="18" cy="489.4453" fill="#84BE84" rx="3" ry="3" style="stroke:#038048;stroke-width:1;"/><text fill="#000000" font-family="sans-serif" font-size="14" lengthAdjust="spacing" textLength="113.627" x="27" y="493.6738">hasSlot(): boolean</text></g><!--class Student--><g class="entity" data-entity="Student" data-source-line="19" data-uid="ent0005" id="entity_Student"><rect fill="#F1F1F1" height="93.9219" rx="2.5" ry="2.5" style="stroke:#181818;stroke-width:0.5;" width="206.5576" x="182.5" y="389.1094"/><ellipse cx="257.3979" cy="410.4609" fill="#ADD1B2" rx="11" ry="11" style="stroke:#181818;stroke-width:1;"/><path d="M260.1636,406.3359 Q260.3198,406.1172 260.5073,406.0078 Q260.6948,405.8984 260.9136,405.8984 Q261.2886,405.8984 261.5229,406.1641 Q261.7573,406.4141 261.7573,407.0234 L261.7573,408.4766 Q261.7573,409.0859 261.5229,409.3516 Q261.2886,409.6172 260.9136,409.6172 Q260.5698,409.6172 260.3667,409.4141 Q260.1636,409.2266 260.0542,408.7109 Q260.0073,408.3516 259.8198,408.1641 Q259.4917,407.7891 258.8823,407.5703 Q258.2729,407.3516 257.6479,407.3516 Q256.8823,407.3516 256.2417,407.6797 Q255.6167,408.0078 255.1167,408.7578 Q254.6323,409.5078 254.6323,410.5391 L254.6323,411.6328 Q254.6323,412.8672 255.5229,413.6953 Q256.4136,414.5078 258.0073,414.5078 Q258.9448,414.5078 259.6011,414.2578 Q259.9917,414.1016 260.4136,413.6641 Q260.6792,413.3984 260.8198,413.3203 Q260.9761,413.2422 261.1792,413.2422 Q261.5073,413.2422 261.7573,413.5078 Q262.0229,413.7578 262.0229,414.1016 Q262.0229,414.4453 261.6792,414.8516 Q261.1792,415.4297 260.3823,415.7578 Q259.3042,416.2109 258.0073,416.2109 Q256.4917,416.2109 255.2886,415.5859 Q254.3042,415.0859 253.6167,414.0234 Q252.9292,412.9453 252.9292,411.6641 L252.9292,410.5078 Q252.9292,409.1797 253.5386,408.0391 Q254.1636,406.8828 255.2573,406.2734 Q256.3511,405.6484 257.5854,405.6484 Q258.3198,405.6484 258.9604,405.8203 Q259.6167,405.9766 260.1636,406.3359 Z " fill="#000000"/><text fill="#000000" font-family="sans-serif" font-size="12" font-style="italic" lengthAdjust="spacing" textLength="42.0293" x="281.0142" y="406.5664">&#171;entity&#187;</text><text fill="#000000" font-family="sans-serif" font-size="14" lengthAdjust="spacing" textLength="48.2617" x="277.8979" y="423.7363">Student</text><line style="stroke:#181818;stroke-width:0.5;" x1="183.5" x2="388.0576" y1="431.8125" y2="431.8125"/><rect fill="none" height="6" style="stroke:#C82930;stroke-width:1;" width="6" x="190.5" y="443.1172"/><text fill="#000000" font-family="sans-serif" font-size="14" lengthAdjust="spacing" textLength="101.9512" x="202.5" y="450.3457">studentId: String</text><line style="stroke:#181818;stroke-width:0.5;" x1="183.5" x2="388.0576" y1="457.4219" y2="457.4219"/><ellipse cx="193.5" cy="471.7266" fill="#84BE84" rx="3" ry="3" style="stroke:#038048;stroke-width:1;"/><text fill="#000000" font-family="sans-serif" font-size="14" lengthAdjust="spacing" textLength="180.5576" x="202.5" y="475.9551">hasTaken(prereqId): boolean</text></g><!--class EnrollmentRecord--><g class="entity" data-entity="EnrollmentRecord" data-source-line="24" data-uid="ent0006" id="entity_EnrollmentRecord"><rect fill="#F1F1F1" height="111.5313" rx="2.5" ry="2.5" style="stroke:#181818;stroke-width:0.5;" width="159.0342" x="424.5" y="380.1094"/><ellipse cx="446.2438" cy="401.4609" fill="#ADD1B2" rx="11" ry="11" style="stroke:#181818;stroke-width:1;"/><path d="M449.0095,397.3359 Q449.1657,397.1172 449.3532,397.0078 Q449.5407,396.8984 449.7595,396.8984 Q450.1345,396.8984 450.3688,397.1641 Q450.6032,397.4141 450.6032,398.0234 L450.6032,399.4766 Q450.6032,400.0859 450.3688,400.3516 Q450.1345,400.6172 449.7595,400.6172 Q449.4157,400.6172 449.2126,400.4141 Q449.0095,400.2266 448.9001,399.7109 Q448.8532,399.3516 448.6657,399.1641 Q448.3376,398.7891 447.7282,398.5703 Q447.1188,398.3516 446.4938,398.3516 Q445.7282,398.3516 445.0876,398.6797 Q444.4626,399.0078 443.9626,399.7578 Q443.4782,400.5078 443.4782,401.5391 L443.4782,402.6328 Q443.4782,403.8672 444.3688,404.6953 Q445.2595,405.5078 446.8532,405.5078 Q447.7907,405.5078 448.447,405.2578 Q448.8376,405.1016 449.2595,404.6641 Q449.5251,404.3984 449.6657,404.3203 Q449.822,404.2422 450.0251,404.2422 Q450.3532,404.2422 450.6032,404.5078 Q450.8688,404.7578 450.8688,405.1016 Q450.8688,405.4453 450.5251,405.8516 Q450.0251,406.4297 449.2282,406.7578 Q448.1501,407.2109 446.8532,407.2109 Q445.3376,407.2109 444.1345,406.5859 Q443.1501,406.0859 442.4626,405.0234 Q441.7751,403.9453 441.7751,402.6641 L441.7751,401.5078 Q441.7751,400.1797 442.3845,399.0391 Q443.0095,397.8828 444.1032,397.2734 Q445.197,396.6484 446.4313,396.6484 Q447.1657,396.6484 447.8063,396.8203 Q448.4626,396.9766 449.0095,397.3359 Z " fill="#000000"/><text fill="#000000" font-family="sans-serif" font-size="12" font-style="italic" lengthAdjust="spacing" textLength="42.0293" x="496.7518" y="397.5664">&#171;entity&#187;</text><text fill="#000000" font-family="sans-serif" font-size="14" lengthAdjust="spacing" textLength="112.0479" x="461.7425" y="414.7363">EnrollmentRecord</text><line style="stroke:#181818;stroke-width:0.5;" x1="425.5" x2="582.5342" y1="422.8125" y2="422.8125"/><rect fill="none" height="6" style="stroke:#C82930;stroke-width:1;" width="6" x="432.5" y="434.1172"/><text fill="#000000" font-family="sans-serif" font-size="14" lengthAdjust="spacing" textLength="101.9512" x="444.5" y="441.3457">studentId: String</text><rect fill="none" height="6" style="stroke:#C82930;stroke-width:1;" width="6" x="432.5" y="451.7266"/><text fill="#000000" font-family="sans-serif" font-size="14" lengthAdjust="spacing" textLength="98.0479" x="444.5" y="458.9551">courseId: String</text><rect fill="none" height="6" style="stroke:#C82930;stroke-width:1;" width="6" x="432.5" y="469.3359"/><text fill="#000000" font-family="sans-serif" font-size="14" lengthAdjust="spacing" textLength="133.0342" x="444.5" y="476.5645">timestamp: DateTime</text><line style="stroke:#181818;stroke-width:0.5;" x1="425.5" x2="582.5342" y1="483.6406" y2="483.6406"/></g><!--link CourseSelectionForm to EnrollmentController--><g class="link" data-entity-1="CourseSelectionForm" data-entity-2="EnrollmentController" data-source-line="30" data-uid="lnk7" id="link_CourseSelectionForm_EnrollmentController"><path codeLine="30" d="M286,139.7494 C286,164.3694 286,188.2694 286,211.3994" fill="none" id="CourseSelectionForm-to-EnrollmentController" style="stroke:#181818;stroke-width:1;stroke-dasharray:7,7;"/><polygon fill="#181818" points="286,217.3994,290,208.3994,286,212.3994,282,208.3994,286,217.3994" style="stroke:#181818;stroke-width:1;"/><text fill="#000000" font-family="sans-serif" font-size="13" lengthAdjust="spacing" textLength="27.46" x="287" y="184.1045">uses</text></g><!--link EnrollmentController to Course--><g class="link" data-entity-1="EnrollmentController" data-entity-2="Course" data-source-line="31" data-uid="lnk8" id="link_EnrollmentController_Course"><path codeLine="31" d="M217.13,293.6694 C202.64,302.6794 187.86,312.8494 175,323.6094 C158.1,337.7394 145.5114,350.373 130.9714,366.913" fill="none" id="EnrollmentController-to-Course" style="stroke:#181818;stroke-width:1;stroke-dasharray:7,7;"/><polygon fill="#181818" points="127.01,371.4194,135.9564,367.3008,130.3112,367.6641,129.9479,362.0189,127.01,371.4194" style="stroke:#181818;stroke-width:1;"/><text fill="#000000" font-family="sans-serif" font-size="13" lengthAdjust="spacing" textLength="101.1816" x="176" y="338.1045">validates/updates</text></g><!--link EnrollmentController to Student--><g class="link" data-entity-1="EnrollmentController" data-entity-2="Student" data-source-line="32" data-uid="lnk9" id="link_EnrollmentController_Student"><path codeLine="32" d="M286,294.0294 C286,321.6294 286,353.3594 286,382.8494" fill="none" id="EnrollmentController-to-Student" style="stroke:#181818;stroke-width:1;stroke-dasharray:7,7;"/><polygon fill="#181818" points="286,388.8494,290,379.8494,286,383.8494,282,379.8494,286,388.8494" style="stroke:#181818;stroke-width:1;"/><text fill="#000000" font-family="sans-serif" font-size="13" lengthAdjust="spacing" textLength="51.3081" x="287" y="338.1045">validates</text></g><!--link EnrollmentController to EnrollmentRecord--><g class="link" data-entity-1="EnrollmentController" data-entity-2="EnrollmentRecord" data-source-line="33" data-uid="lnk10" id="link_EnrollmentController_EnrollmentRecord"><path codeLine="33" d="M331.43,293.8094 C361.88,318.7394 397.8579,348.198 432.0379,376.188" fill="none" id="EnrollmentController-to-EnrollmentRecord" style="stroke:#181818;stroke-width:1;stroke-dasharray:7,7;"/><polygon fill="#181818" points="436.68,379.9894,432.2511,371.1925,432.8116,376.8215,427.1826,377.382,436.68,379.9894" style="stroke:#181818;stroke-width:1;"/><text fill="#000000" font-family="sans-serif" font-size="13" lengthAdjust="spacing" textLength="42.6309" x="390" y="338.1045">creates</text></g><!--SRC=[ZL8zJiCm5DvpYZScAYqiB5RL9L2f4uWKTjT-eXQE7Vm3GWW9iR700JW4OaD2wcce2hV0JTecY5J2I-pdxy_lnGad4KxJlNq2t_UFNwypwCBy-U7p_MdnzZ5_cK5yTdIS9b749BKMKksDnGmbCYUq6cgJGxy_qLvnQcu60xYD8AmEsAc-pZnZQ6sSD6f3AgGt61kaLgiakbih7ogZfSnHkLGhjzoZ2TAiEZIKiGJ6rdaUm2E-0wmCDU8DjIfdu0U8S7MmxWPC87D6gFDrcHQK1IG1eTogLZaX3sBArHSTc5ARIUtYXC14QubKrSvPbQlDUXFvbtSfDwONgEB2eC7By90MtRe_9yYquVytsFfc9tAqZkO5WGFgS1oEIx-s6VTwW_O94V0MRTHwjoIj1a7WYah1WulTzKNvtSvPjx11sWx-qnS2BFnSWVC3]--></g></svg>