<svg xmlns="http://www.w3.org/2000/svg" xmlns:xlink="http://www.w3.org/1999/xlink" contentStyleType="text/css" data-diagram-type="SEQUENCE" height="774px" preserveAspectRatio="none" style="width:803px;height:774px;background:#FFFFFF;" version="1.1" viewBox="0 0 803 774" width="803px" zoomAndPan="magnify"><title>UC05: &#36873;&#35838; - &#39034;&#24207;&#22270;</title><defs/><g><text fill="#000000" font-family="sans-serif" font-size="14" font-weight="bold" lengthAdjust="spacing" textLength="128.9736" x="338.1355" y="29.5332">UC05: &#36873;&#35838; - &#39034;&#24207;&#22270;</text><rect fill="none" height="416.2422" style="stroke:#000000;stroke-width:1.5;" width="786.2446" x="10" y="259.625"/><rect fill="none" height="246.6484" style="stroke:#000000;stroke-width:1.5;" width="711.9829" x="20" y="345.6797"/><g><title>..</title><rect fill="#000000" fill-opacity="0.00000" height="571.6484" width="8" x="43" y="121.2188"/><line style="stroke:#181818;stroke-width:0.5;stroke-dasharray:5,5;" x1="47" x2="47" y1="121.2188" y2="692.8672"/></g><g><title>....</title><rect fill="#000000" fill-opacity="0.00000" height="571.6484" width="8" x="212.8945" y="121.2188"/><line style="stroke:#181818;stroke-width:0.5;stroke-dasharray:5,5;" x1="216.8945" x2="216.8945" y1="121.2188" y2="692.8672"/></g><g><title>.....</title><rect fill="#000000" fill-opacity="0.00000" height="571.6484" width="8" x="436.3379" y="121.2188"/><line style="stroke:#181818;stroke-width:0.5;stroke-dasharray:5,5;" x1="440.3379" x2="440.3379" y1="121.2188" y2="692.8672"/></g><g><title>Course</title><rect fill="#000000" fill-opacity="0.00000" height="571.6484" width="8" x="564.3696" y="121.2188"/><line style="stroke:#181818;stroke-width:0.5;stroke-dasharray:5,5;" x1="567.8042" x2="567.8042" y1="121.2188" y2="692.8672"/></g><g><title>EnrollmentRecord</title><rect fill="#000000" fill-opacity="0.00000" height="571.6484" width="8" x="658.959" y="121.2188"/><line style="stroke:#181818;stroke-width:0.5;stroke-dasharray:5,5;" x1="662.9351" x2="662.9351" y1="121.2188" y2="692.8672"/></g><g><title>Student</title><rect fill="#000000" fill-opacity="0.00000" height="571.6484" width="8" x="755.1138" y="121.2188"/><line style="stroke:#181818;stroke-width:0.5;stroke-dasharray:5,5;" x1="758.9829" x2="758.9829" y1="121.2188" y2="692.8672"/></g><g class="participant participant-head" data-participant="StudentActor"><text fill="#000000" font-family="sans-serif" font-size="14" lengthAdjust="spacing" textLength="28" x="30" y="118.1426">&#23398;&#29983;</text><ellipse cx="47" cy="52.1094" fill="#E2E2F0" rx="8" ry="8" style="stroke:#181818;stroke-width:0.5;"/><path d="M47,60.1094 L47,87.1094 M34,68.1094 L60,68.1094 M47,87.1094 L34,102.1094 M47,87.1094 L60,102.1094" fill="none" style="stroke:#181818;stroke-width:0.5;"/></g><g class="participant participant-tail" data-participant="StudentActor"><text fill="#000000" font-family="sans-serif" font-size="14" lengthAdjust="spacing" textLength="28" x="30" y="706.4004">&#23398;&#29983;</text><ellipse cx="47" cy="717.9766" fill="#E2E2F0" rx="8" ry="8" style="stroke:#181818;stroke-width:0.5;"/><path d="M47,725.9766 L47,752.9766 M34,733.9766 L60,733.9766 M47,752.9766 L34,767.9766 M47,752.9766 L60,767.9766" fill="none" style="stroke:#181818;stroke-width:0.5;"/></g><g class="participant participant-head" data-participant="SelectForm"><text fill="#000000" font-family="sans-serif" font-size="14" lengthAdjust="spacing" textLength="56" x="185.8945" y="118.1426">&#36873;&#35838;&#30028;&#38754;</text><path d="M196.3945,75.6094 L196.3945,99.6094 M196.3945,87.6094 L213.3945,87.6094" fill="none" style="stroke:#181818;stroke-width:0.5;"/><ellipse cx="225.3945" cy="87.6094" fill="#E2E2F0" rx="12" ry="12" style="stroke:#181818;stroke-width:0.5;"/></g><g class="participant participant-tail" data-participant="SelectForm"><text fill="#000000" font-family="sans-serif" font-size="14" lengthAdjust="spacing" textLength="56" x="185.8945" y="706.4004">&#36873;&#35838;&#30028;&#38754;</text><path d="M196.3945,713.4766 L196.3945,737.4766 M196.3945,725.4766 L213.3945,725.4766" fill="none" style="stroke:#181818;stroke-width:0.5;"/><ellipse cx="225.3945" cy="725.4766" fill="#E2E2F0" rx="12" ry="12" style="stroke:#181818;stroke-width:0.5;"/></g><g class="participant participant-head" data-participant="EnrollCtrl"><text fill="#000000" font-family="sans-serif" font-size="14" lengthAdjust="spacing" textLength="70" x="402.3379" y="118.1426">&#36873;&#35838;&#25511;&#21046;&#22120;</text><ellipse cx="440.3379" cy="87.6094" fill="#E2E2F0" rx="12" ry="12" style="stroke:#181818;stroke-width:0.5;"/><polygon fill="#181818" points="436.3379,75.6094,442.3379,70.6094,440.3379,75.6094,442.3379,80.6094,436.3379,75.6094" style="stroke:#181818;stroke-width:1;"/></g><g class="participant participant-tail" data-participant="EnrollCtrl"><text fill="#000000" font-family="sans-serif" font-size="14" lengthAdjust="spacing" textLength="70" x="402.3379" y="706.4004">&#36873;&#35838;&#25511;&#21046;&#22120;</text><ellipse cx="440.3379" cy="725.4766" fill="#E2E2F0" rx="12" ry="12" style="stroke:#181818;stroke-width:0.5;"/><polygon fill="#181818" points="436.3379,713.4766,442.3379,708.4766,440.3379,713.4766,442.3379,718.4766,436.3379,713.4766" style="stroke:#181818;stroke-width:1;"/></g><g class="participant participant-head" data-participant="Course"><text fill="#000000" font-family="sans-serif" font-size="14" lengthAdjust="spacing" textLength="45.1309" x="542.8042" y="118.1426">Course</text><ellipse cx="568.3696" cy="87.6094" fill="#E2E2F0" rx="12" ry="12" style="stroke:#181818;stroke-width:0.5;"/><line style="stroke:#181818;stroke-width:0.5;" x1="556.3696" x2="580.3696" y1="101.6094" y2="101.6094"/></g><g class="participant participant-tail" data-participant="Course"><text fill="#000000" font-family="sans-serif" font-size="14" lengthAdjust="spacing" textLength="45.1309" x="542.8042" y="706.4004">Course</text><ellipse cx="568.3696" cy="725.4766" fill="#E2E2F0" rx="12" ry="12" style="stroke:#181818;stroke-width:0.5;"/><line style="stroke:#181818;stroke-width:0.5;" x1="556.3696" x2="580.3696" y1="739.4766" y2="739.4766"/></g><g class="participant participant-head" data-participant="Record"><text fill="#000000" font-family="sans-serif" font-size="14" lengthAdjust="spacing" textLength="112.0479" x="603.9351" y="118.1426">EnrollmentRecord</text><ellipse cx="662.959" cy="87.6094" fill="#E2E2F0" rx="12" ry="12" style="stroke:#181818;stroke-width:0.5;"/><line style="stroke:#181818;stroke-width:0.5;" x1="650.959" x2="674.959" y1="101.6094" y2="101.6094"/></g><g class="participant participant-tail" data-participant="Record"><text fill="#000000" font-family="sans-serif" font-size="14" lengthAdjust="spacing" textLength="112.0479" x="603.9351" y="706.4004">EnrollmentRecord</text><ellipse cx="662.959" cy="725.4766" fill="#E2E2F0" rx="12" ry="12" style="stroke:#181818;stroke-width:0.5;"/><line style="stroke:#181818;stroke-width:0.5;" x1="650.959" x2="674.959" y1="739.4766" y2="739.4766"/></g><g class="participant participant-head" data-participant="StudentEntity"><text fill="#000000" font-family="sans-serif" font-size="14" lengthAdjust="spacing" textLength="48.2617" x="731.9829" y="118.1426">Student</text><ellipse cx="759.1138" cy="87.6094" fill="#E2E2F0" rx="12" ry="12" style="stroke:#181818;stroke-width:0.5;"/><line style="stroke:#181818;stroke-width:0.5;" x1="747.1138" x2="771.1138" y1="101.6094" y2="101.6094"/></g><g class="participant participant-tail" data-participant="StudentEntity"><text fill="#000000" font-family="sans-serif" font-size="14" lengthAdjust="spacing" textLength="48.2617" x="731.9829" y="706.4004">Student</text><ellipse cx="759.1138" cy="725.4766" fill="#E2E2F0" rx="12" ry="12" style="stroke:#181818;stroke-width:0.5;"/><line style="stroke:#181818;stroke-width:0.5;" x1="747.1138" x2="771.1138" y1="739.4766" y2="739.4766"/></g><g class="message" data-participant-1="StudentActor" data-participant-2="SelectForm"><polygon fill="#181818" points="204.8945,149.5703,214.8945,153.5703,204.8945,157.5703,208.8945,153.5703" style="stroke:#181818;stroke-width:1;"/><line style="stroke:#181818;stroke-width:1;" x1="47" x2="210.8945" y1="153.5703" y2="153.5703"/><text fill="#000000" font-family="sans-serif" font-size="13" lengthAdjust="spacing" textLength="110.519" x="54" y="148.7139">&#28857;&#20987;&#36873;&#35838;(courseId)</text></g><g class="message" data-participant-1="SelectForm" data-participant-2="EnrollCtrl"><polygon fill="#181818" points="428.3379,179.9219,438.3379,183.9219,428.3379,187.9219,432.3379,183.9219" style="stroke:#181818;stroke-width:1;"/><line style="stroke:#181818;stroke-width:1;" x1="216.8945" x2="434.3379" y1="183.9219" y2="183.9219"/><text fill="#000000" font-family="sans-serif" font-size="13" lengthAdjust="spacing" textLength="199.4434" x="223.8945" y="179.0654">enrollRequest(studentId, courseId)</text></g><g class="message" data-participant-1="EnrollCtrl" data-participant-2="Course"><polygon fill="#181818" points="556.3696,210.2734,566.3696,214.2734,556.3696,218.2734,560.3696,214.2734" style="stroke:#181818;stroke-width:1;"/><line style="stroke:#181818;stroke-width:1;" x1="440.3379" x2="562.3696" y1="214.2734" y2="214.2734"/><text fill="#000000" font-family="sans-serif" font-size="13" lengthAdjust="spacing" textLength="104.0317" x="447.3379" y="209.417">checkAvailability()</text></g><g class="message" data-participant-1="Course" data-participant-2="EnrollCtrl"><polygon fill="#181818" points="451.3379,240.625,441.3379,244.625,451.3379,248.625,447.3379,244.625" style="stroke:#181818;stroke-width:1;"/><line style="stroke:#181818;stroke-width:1;stroke-dasharray:2,2;" x1="445.3379" x2="567.3696" y1="244.625" y2="244.625"/><text fill="#000000" font-family="sans-serif" font-size="13" lengthAdjust="spacing" textLength="80.2153" x="457.3379" y="239.7686">availableSlots</text></g><path d="M10,259.625 L70.1709,259.625 L70.1709,267.9766 L60.1709,277.9766 L10,277.9766 L10,259.625" fill="#EEEEEE" style="stroke:#000000;stroke-width:1.5;"/><rect fill="none" height="416.2422" style="stroke:#000000;stroke-width:1.5;" width="786.2446" x="10" y="259.625"/><text fill="#000000" font-family="sans-serif" font-size="13" font-weight="bold" lengthAdjust="spacing" textLength="15.1709" x="25" y="274.1201">alt</text><text fill="#000000" font-family="sans-serif" font-size="11" font-weight="bold" lengthAdjust="spacing" textLength="52.7012" x="85.1709" y="273.0439">[&#21517;&#39069;&#20805;&#36275;]</text><g class="message" data-participant-1="EnrollCtrl" data-participant-2="StudentEntity"><polygon fill="#181818" points="747.1138,296.3281,757.1138,300.3281,747.1138,304.3281,751.1138,300.3281" style="stroke:#181818;stroke-width:1;"/><line style="stroke:#181818;stroke-width:1;" x1="440.3379" x2="753.1138" y1="300.3281" y2="300.3281"/><text fill="#000000" font-family="sans-serif" font-size="13" lengthAdjust="spacing" textLength="168.3462" x="447.3379" y="295.4717">checkPrerequisites(courseId)</text></g><g class="message" data-participant-1="StudentEntity" data-participant-2="EnrollCtrl"><polygon fill="#181818" points="451.3379,326.6797,441.3379,330.6797,451.3379,334.6797,447.3379,330.6797" style="stroke:#181818;stroke-width:1;"/><line style="stroke:#181818;stroke-width:1;stroke-dasharray:2,2;" x1="445.3379" x2="758.1138" y1="330.6797" y2="330.6797"/><text fill="#000000" font-family="sans-serif" font-size="13" lengthAdjust="spacing" textLength="41.9199" x="457.3379" y="325.8232">passed</text></g><path d="M20,345.6797 L80.1709,345.6797 L80.1709,354.0313 L70.1709,364.0313 L20,364.0313 L20,345.6797" fill="#EEEEEE" style="stroke:#000000;stroke-width:1.5;"/><rect fill="none" height="246.6484" style="stroke:#000000;stroke-width:1.5;" width="711.9829" x="20" y="345.6797"/><text fill="#000000" font-family="sans-serif" font-size="13" font-weight="bold" lengthAdjust="spacing" textLength="15.1709" x="35" y="360.1748">alt</text><text fill="#000000" font-family="sans-serif" font-size="11" font-weight="bold" lengthAdjust="spacing" textLength="75.3887" x="95.1709" y="359.0986">[&#28385;&#36275;&#20808;&#20462;&#26465;&#20214;]</text><g class="message" data-participant-1="EnrollCtrl" data-participant-2="Record"><polygon fill="#181818" points="650.959,382.3828,660.959,386.3828,650.959,390.3828,654.959,386.3828" style="stroke:#181818;stroke-width:1;"/><line style="stroke:#181818;stroke-width:1;" x1="440.3379" x2="656.959" y1="386.3828" y2="386.3828"/><text fill="#000000" font-family="sans-serif" font-size="13" lengthAdjust="spacing" textLength="197.2661" x="447.3379" y="381.5264">createRecord(studentId, courseId)</text></g><g class="message" data-participant-1="Record" data-participant-2="EnrollCtrl"><polygon fill="#181818" points="451.3379,412.7344,441.3379,416.7344,451.3379,420.7344,447.3379,416.7344" style="stroke:#181818;stroke-width:1;"/><line style="stroke:#181818;stroke-width:1;stroke-dasharray:2,2;" x1="445.3379" x2="661.959" y1="416.7344" y2="416.7344"/><text fill="#000000" font-family="sans-serif" font-size="13" lengthAdjust="spacing" textLength="46.96" x="457.3379" y="411.8779">success</text></g><g class="message" data-participant-1="EnrollCtrl" data-participant-2="Course"><polygon fill="#181818" points="556.3696,443.0859,566.3696,447.0859,556.3696,451.0859,560.3696,447.0859" style="stroke:#181818;stroke-width:1;"/><line style="stroke:#181818;stroke-width:1;" x1="440.3379" x2="562.3696" y1="447.0859" y2="447.0859"/><text fill="#000000" font-family="sans-serif" font-size="13" lengthAdjust="spacing" textLength="92.479" x="447.3379" y="442.2295">decrementSlot()</text></g><g class="message" data-participant-1="EnrollCtrl" data-participant-2="SelectForm"><polygon fill="#181818" points="227.8945,473.4375,217.8945,477.4375,227.8945,481.4375,223.8945,477.4375" style="stroke:#181818;stroke-width:1;"/><line style="stroke:#181818;stroke-width:1;stroke-dasharray:2,2;" x1="221.8945" x2="439.3379" y1="477.4375" y2="477.4375"/><text fill="#000000" font-family="sans-serif" font-size="13" lengthAdjust="spacing" textLength="52" x="233.8945" y="472.5811">&#36873;&#35838;&#25104;&#21151;</text></g><g class="message" data-participant-1="SelectForm" data-participant-2="StudentActor"><polygon fill="#181818" points="58,503.7891,48,507.7891,58,511.7891,54,507.7891" style="stroke:#181818;stroke-width:1;"/><line style="stroke:#181818;stroke-width:1;" x1="52" x2="215.8945" y1="507.7891" y2="507.7891"/><text fill="#000000" font-family="sans-serif" font-size="13" lengthAdjust="spacing" textLength="52" x="64" y="502.9326">&#25552;&#31034;&#25104;&#21151;</text></g><line style="stroke:#000000;stroke-width:1;stroke-dasharray:2,2;" x1="20" x2="731.9829" y1="516.7891" y2="516.7891"/><text fill="#000000" font-family="sans-serif" font-size="11" font-weight="bold" lengthAdjust="spacing" textLength="52.7012" x="25" y="528.208">[&#26465;&#20214;&#19981;&#31526;]</text><g class="message" data-participant-1="EnrollCtrl" data-participant-2="SelectForm"><polygon fill="#181818" points="227.8945,549.9766,217.8945,553.9766,227.8945,557.9766,223.8945,553.9766" style="stroke:#181818;stroke-width:1;"/><line style="stroke:#181818;stroke-width:1;stroke-dasharray:2,2;" x1="221.8945" x2="439.3379" y1="553.9766" y2="553.9766"/><text fill="#000000" font-family="sans-serif" font-size="13" lengthAdjust="spacing" textLength="130" x="233.8945" y="549.1201">&#25552;&#31034;&#20808;&#20462;&#35838;&#35201;&#27714;&#26410;&#28385;&#36275;</text></g><g class="message" data-participant-1="SelectForm" data-participant-2="StudentActor"><polygon fill="#181818" points="58,580.3281,48,584.3281,58,588.3281,54,584.3281" style="stroke:#181818;stroke-width:1;"/><line style="stroke:#181818;stroke-width:1;" x1="52" x2="215.8945" y1="584.3281" y2="584.3281"/><text fill="#000000" font-family="sans-serif" font-size="13" lengthAdjust="spacing" textLength="78" x="64" y="579.4717">&#26174;&#31034;&#22833;&#36133;&#21407;&#22240;</text></g><line style="stroke:#000000;stroke-width:1;stroke-dasharray:2,2;" x1="10" x2="796.2446" y1="600.3281" y2="600.3281"/><text fill="#000000" font-family="sans-serif" font-size="11" font-weight="bold" lengthAdjust="spacing" textLength="52.7012" x="15" y="611.7471">[&#21517;&#39069;&#24050;&#28385;]</text><g class="message" data-participant-1="EnrollCtrl" data-participant-2="SelectForm"><polygon fill="#181818" points="227.8945,633.5156,217.8945,637.5156,227.8945,641.5156,223.8945,637.5156" style="stroke:#181818;stroke-width:1;"/><line style="stroke:#181818;stroke-width:1;stroke-dasharray:2,2;" x1="221.8945" x2="439.3379" y1="637.5156" y2="637.5156"/><text fill="#000000" font-family="sans-serif" font-size="13" lengthAdjust="spacing" textLength="143" x="233.8945" y="632.6592">&#25552;&#31034;&#21517;&#39069;&#24050;&#28385;&#65292;&#24314;&#35758;&#20505;&#34917;</text></g><g class="message" data-participant-1="SelectForm" data-participant-2="StudentActor"><polygon fill="#181818" points="58,663.8672,48,667.8672,58,671.8672,54,667.8672" style="stroke:#181818;stroke-width:1;"/><line style="stroke:#181818;stroke-width:1;" x1="52" x2="215.8945" y1="667.8672" y2="667.8672"/><text fill="#000000" font-family="sans-serif" font-size="13" lengthAdjust="spacing" textLength="145.8945" x="64" y="663.0107">&#35810;&#38382;&#26159;&#21542;&#21152;&#20837;&#20505;&#34917;(UC08)</text></g><!--SRC=[ZPJVQXD15CRlvoc6N6t0W3U2v48eeKBlfCK7sEuUS76wgpEpWdUr48obVtAXs593cj144KseIjH4uijazi-Lh-3PdKswsrHCBi8Ev_lEzvipioiToO0-hDs-KwNnxgjeEAKL6dV6QdoipgQ4c9RqE2sfp_tmTRj4JK6tf6-3AzUI0jdsVDSs-NDQqkRmpK7SwceTCB3aVO_l4Cjp9VVON1GSlLUDaJhzaEhMNIonckICO5j7Og-QvtC1QLK_BYfQl8FBJR0yRgSQ_RZGP81vsFMqH4YUdLRkvHXfbOPxFzNBYKOqh3HtmowJd0OTLxJeW7In2Kzz4D8Gklc6VOjUkNDwTElTeDDw1DRZjMUcmynjXo6RKIPPiN8znTGo1blCamAFX4cgceTnjwNgzMZqbL3y5NCAsvx7FU304TKHZWIHss1YBngM49wOGe2TAjE_126OT31SrHkptuEWrPbDHcbf6KOVJqB1mPIWbpTFQzuWionn2D-oG8X_12scQmD69PSacPXHlb5-_VIpgzbegltsmb0y-yBjgTBWk1bUZ7CEO9YkHp7xSHX-wgyKhDleEI91r7yHNEu5xpxg-Qw8SZ9DUbnSHjzwwgYjpiura8jlHGALNPVlNx0fMH4eP_dpwq1Dnj5We7PFeqwF_9Sd6dRZjuFWPAYQVRL_hkezxJJmGtEtZ6-g_HS0]--></g></svg>