<svg xmlns="http://www.w3.org/2000/svg" xmlns:xlink="http://www.w3.org/1999/xlink" contentStyleType="text/css" data-diagram-type="CLASS" height="490px" preserveAspectRatio="none" style="width:676px;height:490px;background:#FFFFFF;" version="1.1" viewBox="0 0 676 490" width="676px" zoomAndPan="magnify"><title>UC06: &#36864;&#35838; - &#21442;&#19982;&#31867;&#22270; (VOPC)</title><defs/><g><g class="title" data-source-line="1"><text fill="#000000" font-family="sans-serif" font-size="14" font-weight="bold" lengthAdjust="spacing" textLength="196.3008" x="233.1733" y="24.5332">UC06: &#36864;&#35838; - &#21442;&#19982;&#31867;&#22270; (VOPC)</text></g><!--class MyCoursesPage--><g class="entity" data-entity="MyCoursesPage" data-source-line="3" data-uid="ent0002" id="entity_MyCoursesPage"><rect fill="#F1F1F1" height="93.9219" rx="2.5" ry="2.5" style="stroke:#181818;stroke-width:0.5;" width="153.5996" x="256.5" y="45.6094"/><ellipse cx="279.6497" cy="66.9609" fill="#ADD1B2" rx="11" ry="11" style="stroke:#181818;stroke-width:1;"/><path d="M282.4153,62.8359 Q282.5715,62.6172 282.759,62.5078 Q282.9465,62.3984 283.1653,62.3984 Q283.5403,62.3984 283.7747,62.6641 Q284.009,62.9141 284.009,63.5234 L284.009,64.9766 Q284.009,65.5859 283.7747,65.8516 Q283.5403,66.1172 283.1653,66.1172 Q282.8215,66.1172 282.6184,65.9141 Q282.4153,65.7266 282.3059,65.2109 Q282.259,64.8516 282.0715,64.6641 Q281.7434,64.2891 281.134,64.0703 Q280.5247,63.8516 279.8997,63.8516 Q279.134,63.8516 278.4934,64.1797 Q277.8684,64.5078 277.3684,65.2578 Q276.884,66.0078 276.884,67.0391 L276.884,68.1328 Q276.884,69.3672 277.7747,70.1953 Q278.6653,71.0078 280.259,71.0078 Q281.1965,71.0078 281.8528,70.7578 Q282.2434,70.6016 282.6653,70.1641 Q282.9309,69.8984 283.0715,69.8203 Q283.2278,69.7422 283.4309,69.7422 Q283.759,69.7422 284.009,70.0078 Q284.2747,70.2578 284.2747,70.6016 Q284.2747,70.9453 283.9309,71.3516 Q283.4309,71.9297 282.634,72.2578 Q281.5559,72.7109 280.259,72.7109 Q278.7434,72.7109 277.5403,72.0859 Q276.5559,71.5859 275.8684,70.5234 Q275.1809,69.4453 275.1809,68.1641 L275.1809,67.0078 Q275.1809,65.6797 275.7903,64.5391 Q276.4153,63.3828 277.509,62.7734 Q278.6028,62.1484 279.8372,62.1484 Q280.5715,62.1484 281.2122,62.3203 Q281.8684,62.4766 282.4153,62.8359 Z " fill="#000000"/><text fill="#000000" font-family="sans-serif" font-size="12" font-style="italic" lengthAdjust="spacing" textLength="63.3867" x="315.512" y="63.0664">&#171;boundary&#187;</text><text fill="#000000" font-family="sans-serif" font-size="14" lengthAdjust="spacing" textLength="103.4893" x="295.4607" y="80.2363">MyCoursesPage</text><line style="stroke:#181818;stroke-width:0.5;" x1="257.5" x2="409.0996" y1="88.3125" y2="88.3125"/><line style="stroke:#181818;stroke-width:0.5;" x1="257.5" x2="409.0996" y1="96.3125" y2="96.3125"/><ellipse cx="267.5" cy="110.6172" fill="#84BE84" rx="3" ry="3" style="stroke:#038048;stroke-width:1;"/><text fill="#000000" font-family="sans-serif" font-size="14" lengthAdjust="spacing" textLength="105.8135" x="276.5" y="114.8457">displaySuccess()</text><ellipse cx="267.5" cy="128.2266" fill="#84BE84" rx="3" ry="3" style="stroke:#038048;stroke-width:1;"/><text fill="#000000" font-family="sans-serif" font-size="14" lengthAdjust="spacing" textLength="127.5996" x="276.5" y="132.4551">redirectToApproval()</text></g><!--class EnrollmentController--><g class="entity" data-entity="EnrollmentController" data-source-line="8" data-uid="ent0003" id="entity_EnrollmentController"><rect fill="#F1F1F1" height="93.9219" rx="2.5" ry="2.5" style="stroke:#181818;stroke-width:0.5;" width="183.1514" x="242" y="217.6094"/><ellipse cx="267.5952" cy="238.9609" fill="#ADD1B2" rx="11" ry="11" style="stroke:#181818;stroke-width:1;"/><path d="M270.3608,234.8359 Q270.5171,234.6172 270.7046,234.5078 Q270.8921,234.3984 271.1108,234.3984 Q271.4858,234.3984 271.7202,234.6641 Q271.9546,234.9141 271.9546,235.5234 L271.9546,236.9766 Q271.9546,237.5859 271.7202,237.8516 Q271.4858,238.1172 271.1108,238.1172 Q270.7671,238.1172 270.564,237.9141 Q270.3608,237.7266 270.2515,237.2109 Q270.2046,236.8516 270.0171,236.6641 Q269.689,236.2891 269.0796,236.0703 Q268.4702,235.8516 267.8452,235.8516 Q267.0796,235.8516 266.439,236.1797 Q265.814,236.5078 265.314,237.2578 Q264.8296,238.0078 264.8296,239.0391 L264.8296,240.1328 Q264.8296,241.3672 265.7202,242.1953 Q266.6108,243.0078 268.2046,243.0078 Q269.1421,243.0078 269.7983,242.7578 Q270.189,242.6016 270.6108,242.1641 Q270.8765,241.8984 271.0171,241.8203 Q271.1733,241.7422 271.3765,241.7422 Q271.7046,241.7422 271.9546,242.0078 Q272.2202,242.2578 272.2202,242.6016 Q272.2202,242.9453 271.8765,243.3516 Q271.3765,243.9297 270.5796,244.2578 Q269.5015,244.7109 268.2046,244.7109 Q266.689,244.7109 265.4858,244.0859 Q264.5015,243.5859 263.814,242.5234 Q263.1265,241.4453 263.1265,240.1641 L263.1265,239.0078 Q263.1265,237.6797 263.7358,236.5391 Q264.3608,235.3828 265.4546,234.7734 Q266.5483,234.1484 267.7827,234.1484 Q268.5171,234.1484 269.1577,234.3203 Q269.814,234.4766 270.3608,234.8359 Z " fill="#000000"/><text fill="#000000" font-family="sans-serif" font-size="12" font-style="italic" lengthAdjust="spacing" textLength="49.3652" x="323.0703" y="235.0664">&#171;control&#187;</text><text fill="#000000" font-family="sans-serif" font-size="14" lengthAdjust="spacing" textLength="127.6064" x="283.9497" y="252.2363">EnrollmentController</text><line style="stroke:#181818;stroke-width:0.5;" x1="243" x2="424.1514" y1="260.3125" y2="260.3125"/><line style="stroke:#181818;stroke-width:0.5;" x1="243" x2="424.1514" y1="268.3125" y2="268.3125"/><ellipse cx="253" cy="282.6172" fill="#84BE84" rx="3" ry="3" style="stroke:#038048;stroke-width:1;"/><text fill="#000000" font-family="sans-serif" font-size="14" lengthAdjust="spacing" textLength="156.4199" x="262" y="286.8457">drop(studentId, courseId)</text><ellipse cx="253" cy="300.2266" fill="#84BE84" rx="3" ry="3" style="stroke:#038048;stroke-width:1;"/><text fill="#000000" font-family="sans-serif" font-size="14" lengthAdjust="spacing" textLength="157.1514" x="262" y="304.4551">processWaitlist(courseId)</text></g><!--class EnrollmentRecord--><g class="entity" data-entity="EnrollmentRecord" data-source-line="13" data-uid="ent0004" id="entity_EnrollmentRecord"><rect fill="#F1F1F1" height="93.9219" rx="2.5" ry="2.5" style="stroke:#181818;stroke-width:0.5;" width="193.3096" x="7" y="389.6094"/><ellipse cx="44.1678" cy="410.9609" fill="#ADD1B2" rx="11" ry="11" style="stroke:#181818;stroke-width:1;"/><path d="M46.9334,406.8359 Q47.0896,406.6172 47.2771,406.5078 Q47.4646,406.3984 47.6834,406.3984 Q48.0584,406.3984 48.2928,406.6641 Q48.5271,406.9141 48.5271,407.5234 L48.5271,408.9766 Q48.5271,409.5859 48.2928,409.8516 Q48.0584,410.1172 47.6834,410.1172 Q47.3396,410.1172 47.1365,409.9141 Q46.9334,409.7266 46.824,409.2109 Q46.7771,408.8516 46.5896,408.6641 Q46.2615,408.2891 45.6521,408.0703 Q45.0428,407.8516 44.4178,407.8516 Q43.6521,407.8516 43.0115,408.1797 Q42.3865,408.5078 41.8865,409.2578 Q41.4021,410.0078 41.4021,411.0391 L41.4021,412.1328 Q41.4021,413.3672 42.2928,414.1953 Q43.1834,415.0078 44.7771,415.0078 Q45.7146,415.0078 46.3709,414.7578 Q46.7615,414.6016 47.1834,414.1641 Q47.449,413.8984 47.5896,413.8203 Q47.7459,413.7422 47.949,413.7422 Q48.2771,413.7422 48.5271,414.0078 Q48.7928,414.2578 48.7928,414.6016 Q48.7928,414.9453 48.449,415.3516 Q47.949,415.9297 47.1521,416.2578 Q46.074,416.7109 44.7771,416.7109 Q43.2615,416.7109 42.0584,416.0859 Q41.074,415.5859 40.3865,414.5234 Q39.699,413.4453 39.699,412.1641 L39.699,411.0078 Q39.699,409.6797 40.3084,408.5391 Q40.9334,407.3828 42.0271,406.7734 Q43.1209,406.1484 44.3553,406.1484 Q45.0896,406.1484 45.7303,406.3203 Q46.3865,406.4766 46.9334,406.8359 Z " fill="#000000"/><text fill="#000000" font-family="sans-serif" font-size="12" font-style="italic" lengthAdjust="spacing" textLength="42.0293" x="98.1032" y="407.0664">&#171;entity&#187;</text><text fill="#000000" font-family="sans-serif" font-size="14" lengthAdjust="spacing" textLength="112.0479" x="63.0939" y="424.2363">EnrollmentRecord</text><line style="stroke:#181818;stroke-width:0.5;" x1="8" x2="199.3096" y1="432.3125" y2="432.3125"/><line style="stroke:#181818;stroke-width:0.5;" x1="8" x2="199.3096" y1="440.3125" y2="440.3125"/><ellipse cx="18" cy="454.6172" fill="#84BE84" rx="3" ry="3" style="stroke:#038048;stroke-width:1;"/><text fill="#000000" font-family="sans-serif" font-size="14" lengthAdjust="spacing" textLength="166.5439" x="27" y="458.8457">delete(studentId, courseId)</text><ellipse cx="18" cy="472.2266" fill="#84BE84" rx="3" ry="3" style="stroke:#038048;stroke-width:1;"/><text fill="#000000" font-family="sans-serif" font-size="14" lengthAdjust="spacing" textLength="167.3096" x="27" y="476.4551">create(studentId, courseId)</text></g><!--class Course--><g class="entity" data-entity="Course" data-source-line="18" data-uid="ent0005" id="entity_Course"><rect fill="#F1F1F1" height="76.3125" rx="2.5" ry="2.5" style="stroke:#181818;stroke-width:0.5;" width="197.2266" x="235" y="398.6094"/><ellipse cx="306.7979" cy="419.9609" fill="#ADD1B2" rx="11" ry="11" style="stroke:#181818;stroke-width:1;"/><path d="M309.5635,415.8359 Q309.7197,415.6172 309.9072,415.5078 Q310.0947,415.3984 310.3135,415.3984 Q310.6885,415.3984 310.9229,415.6641 Q311.1572,415.9141 311.1572,416.5234 L311.1572,417.9766 Q311.1572,418.5859 310.9229,418.8516 Q310.6885,419.1172 310.3135,419.1172 Q309.9697,419.1172 309.7666,418.9141 Q309.5635,418.7266 309.4541,418.2109 Q309.4072,417.8516 309.2197,417.6641 Q308.8916,417.2891 308.2822,417.0703 Q307.6729,416.8516 307.0479,416.8516 Q306.2822,416.8516 305.6416,417.1797 Q305.0166,417.5078 304.5166,418.2578 Q304.0322,419.0078 304.0322,420.0391 L304.0322,421.1328 Q304.0322,422.3672 304.9229,423.1953 Q305.8135,424.0078 307.4072,424.0078 Q308.3447,424.0078 309.001,423.7578 Q309.3916,423.6016 309.8135,423.1641 Q310.0791,422.8984 310.2197,422.8203 Q310.376,422.7422 310.5791,422.7422 Q310.9072,422.7422 311.1572,423.0078 Q311.4229,423.2578 311.4229,423.6016 Q311.4229,423.9453 311.0791,424.3516 Q310.5791,424.9297 309.7822,425.2578 Q308.7041,425.7109 307.4072,425.7109 Q305.8916,425.7109 304.6885,425.0859 Q303.7041,424.5859 303.0166,423.5234 Q302.3291,422.4453 302.3291,421.1641 L302.3291,420.0078 Q302.3291,418.6797 302.9385,417.5391 Q303.5635,416.3828 304.6572,415.7734 Q305.751,415.1484 306.9854,415.1484 Q307.7197,415.1484 308.3604,415.3203 Q309.0166,415.4766 309.5635,415.8359 Z " fill="#000000"/><text fill="#000000" font-family="sans-serif" font-size="12" font-style="italic" lengthAdjust="spacing" textLength="42.0293" x="328.8486" y="416.0664">&#171;entity&#187;</text><text fill="#000000" font-family="sans-serif" font-size="14" lengthAdjust="spacing" textLength="45.1309" x="327.2979" y="433.2363">Course</text><line style="stroke:#181818;stroke-width:0.5;" x1="236" x2="431.2266" y1="441.3125" y2="441.3125"/><line style="stroke:#181818;stroke-width:0.5;" x1="236" x2="431.2266" y1="449.3125" y2="449.3125"/><ellipse cx="246" cy="463.6172" fill="#84BE84" rx="3" ry="3" style="stroke:#038048;stroke-width:1;"/><text fill="#000000" font-family="sans-serif" font-size="14" lengthAdjust="spacing" textLength="171.2266" x="255" y="467.8457">updateEnrolledCount(delta)</text></g><!--class Waitlist--><g class="entity" data-entity="Waitlist" data-source-line="22" data-uid="ent0006" id="entity_Waitlist"><rect fill="#F1F1F1" height="93.9219" rx="2.5" ry="2.5" style="stroke:#181818;stroke-width:0.5;" width="202.6475" x="467" y="389.6094"/><ellipse cx="541.5186" cy="410.9609" fill="#ADD1B2" rx="11" ry="11" style="stroke:#181818;stroke-width:1;"/><path d="M544.2842,406.8359 Q544.4404,406.6172 544.6279,406.5078 Q544.8154,406.3984 545.0342,406.3984 Q545.4092,406.3984 545.6436,406.6641 Q545.8779,406.9141 545.8779,407.5234 L545.8779,408.9766 Q545.8779,409.5859 545.6436,409.8516 Q545.4092,410.1172 545.0342,410.1172 Q544.6904,410.1172 544.4873,409.9141 Q544.2842,409.7266 544.1748,409.2109 Q544.1279,408.8516 543.9404,408.6641 Q543.6123,408.2891 543.0029,408.0703 Q542.3936,407.8516 541.7686,407.8516 Q541.0029,407.8516 540.3623,408.1797 Q539.7373,408.5078 539.2373,409.2578 Q538.7529,410.0078 538.7529,411.0391 L538.7529,412.1328 Q538.7529,413.3672 539.6436,414.1953 Q540.5342,415.0078 542.1279,415.0078 Q543.0654,415.0078 543.7217,414.7578 Q544.1123,414.6016 544.5342,414.1641 Q544.7998,413.8984 544.9404,413.8203 Q545.0967,413.7422 545.2998,413.7422 Q545.6279,413.7422 545.8779,414.0078 Q546.1436,414.2578 546.1436,414.6016 Q546.1436,414.9453 545.7998,415.3516 Q545.2998,415.9297 544.5029,416.2578 Q543.4248,416.7109 542.1279,416.7109 Q540.6123,416.7109 539.4092,416.0859 Q538.4248,415.5859 537.7373,414.5234 Q537.0498,413.4453 537.0498,412.1641 L537.0498,411.0078 Q537.0498,409.6797 537.6592,408.5391 Q538.2842,407.3828 539.3779,406.7734 Q540.4717,406.1484 541.7061,406.1484 Q542.4404,406.1484 543.0811,406.3203 Q543.7373,406.4766 544.2842,406.8359 Z " fill="#000000"/><text fill="#000000" font-family="sans-serif" font-size="12" font-style="italic" lengthAdjust="spacing" textLength="42.0293" x="563.5591" y="407.0664">&#171;entity&#187;</text><text fill="#000000" font-family="sans-serif" font-size="14" lengthAdjust="spacing" textLength="45.1104" x="562.0186" y="424.2363">Waitlist</text><line style="stroke:#181818;stroke-width:0.5;" x1="468" x2="668.6475" y1="432.3125" y2="432.3125"/><line style="stroke:#181818;stroke-width:0.5;" x1="468" x2="668.6475" y1="440.3125" y2="440.3125"/><ellipse cx="478" cy="454.6172" fill="#84BE84" rx="3" ry="3" style="stroke:#038048;stroke-width:1;"/><text fill="#000000" font-family="sans-serif" font-size="14" lengthAdjust="spacing" textLength="176.6475" x="487" y="458.8457">getNext(courseId): studentId</text><ellipse cx="478" cy="472.2266" fill="#84BE84" rx="3" ry="3" style="stroke:#038048;stroke-width:1;"/><text fill="#000000" font-family="sans-serif" font-size="14" lengthAdjust="spacing" textLength="175.082" x="487" y="476.4551">remove(studentId, courseId)</text></g><!--link MyCoursesPage to EnrollmentController--><g class="link" data-entity-1="MyCoursesPage" data-entity-2="EnrollmentController" data-source-line="27" data-uid="lnk7" id="link_MyCoursesPage_EnrollmentController"><path codeLine="27" d="M333.5,139.6094 C333.5,163.7994 333.5,187.3694 333.5,211.5694" fill="none" id="MyCoursesPage-to-EnrollmentController" style="stroke:#181818;stroke-width:1;stroke-dasharray:7,7;"/><polygon fill="#181818" points="333.5,217.5694,337.5,208.5694,333.5,212.5694,329.5,208.5694,333.5,217.5694" style="stroke:#181818;stroke-width:1;"/><text fill="#000000" font-family="sans-serif" font-size="13" lengthAdjust="spacing" textLength="27.46" x="334.5" y="184.1045">uses</text></g><!--link EnrollmentController to EnrollmentRecord--><g class="link" data-entity-1="EnrollmentController" data-entity-2="EnrollmentRecord" data-source-line="28" data-uid="lnk8" id="link_EnrollmentController_EnrollmentRecord"><path codeLine="28" d="M271.26,311.6094 C238.53,335.7994 203.355,361.8029 170.615,386.0029" fill="none" id="EnrollmentController-to-EnrollmentRecord" style="stroke:#181818;stroke-width:1;stroke-dasharray:7,7;"/><polygon fill="#181818" points="165.79,389.5694,175.4051,387.4364,169.8108,386.5974,170.6499,381.0031,165.79,389.5694" style="stroke:#181818;stroke-width:1;"/><text fill="#000000" font-family="sans-serif" font-size="13" lengthAdjust="spacing" textLength="88.1626" x="226.5" y="356.1045">deletes/creates</text></g><!--link EnrollmentController to Course--><g class="link" data-entity-1="EnrollmentController" data-entity-2="Course" data-source-line="29" data-uid="lnk9" id="link_EnrollmentController_Course"><path codeLine="29" d="M333.5,311.6094 C333.5,338.8494 333.5,366.9094 333.5,392.4394" fill="none" id="EnrollmentController-to-Course" style="stroke:#181818;stroke-width:1;stroke-dasharray:7,7;"/><polygon fill="#181818" points="333.5,398.4394,337.5,389.4394,333.5,393.4394,329.5,389.4394,333.5,398.4394" style="stroke:#181818;stroke-width:1;"/><text fill="#000000" font-family="sans-serif" font-size="13" lengthAdjust="spacing" textLength="46.2617" x="334.5" y="356.1045">updates</text></g><!--link EnrollmentController to Waitlist--><g class="link" data-entity-1="EnrollmentController" data-entity-2="Waitlist" data-source-line="30" data-uid="lnk10" id="link_EnrollmentController_Waitlist"><path codeLine="30" d="M397.09,311.6094 C430.53,335.7994 466.5493,361.8518 499.9893,386.0518" fill="none" id="EnrollmentController-to-Waitlist" style="stroke:#181818;stroke-width:1;stroke-dasharray:7,7;"/><polygon fill="#181818" points="504.85,389.5694,499.904,381.0525,500.7994,386.638,495.2139,387.5334,504.85,389.5694" style="stroke:#181818;stroke-width:1;"/><text fill="#000000" font-family="sans-serif" font-size="13" lengthAdjust="spacing" textLength="46.2617" x="458.5" y="356.1045">updates</text></g><!--SRC=[VL7DIiD04BxdAUQOebPF7a89IF3GWrhyFQ-xGmbiis5tjXX4A3w0Fe0F8Tu4eKzZKT_2gVanXJHxcjtvVcQ-fPGqmbLoS1Z1psBn_Rg4FLWzFtw-FtszVQnUbX1UdqsIGH18BPo3ao8ntZfq4p5568rkZS-Ki4KSmtq0V7P0fIxNehZmKg9puQ1wjgXIYv8kpL6UMpCNcbiFjUvnPetMCymeCHcjQxGiByjBMzsQF7Ja5KF7QXVatpXZLTkmzDhsHl1YgQFmlz_XTOxIMCK-NAUqiGHg9EmpaXR5DaHZLORLPU1pnVHo55ICooXaKn8jThr45t-AT8fthVqYQ4Pf4f-P-VO9DxzoE8oxFo42pvYWixT9gjACgl3SVXbH3xUA9whIw44sKJJONm00]--></g></svg>