<svg xmlns="http://www.w3.org/2000/svg" xmlns:xlink="http://www.w3.org/1999/xlink" contentStyleType="text/css" data-diagram-type="SEQUENCE" height="668px" preserveAspectRatio="none" style="width:845px;height:668px;background:#FFFFFF;" version="1.1" viewBox="0 0 845 668" width="845px" zoomAndPan="magnify"><title>UC06: &#36864;&#35838; - &#39034;&#24207;&#22270;</title><defs/><g><text fill="#000000" font-family="sans-serif" font-size="14" font-weight="bold" lengthAdjust="spacing" textLength="128.9736" x="359.2432" y="29.5332">UC06: &#36864;&#35838; - &#39034;&#24207;&#22270;</text><rect fill="none" height="370.0547" style="stroke:#000000;stroke-width:1.5;" width="828.46" x="10" y="198.9219"/><rect fill="none" height="79.0547" style="stroke:#000000;stroke-width:1.5;" width="487.2739" x="341.186" y="376.0313"/><g><title>..</title><rect fill="#000000" fill-opacity="0.00000" height="464.7578" width="8" x="33" y="121.2188"/><line style="stroke:#181818;stroke-width:0.5;stroke-dasharray:5,5;" x1="37" x2="37" y1="121.2188" y2="585.9766"/></g><g><title>......</title><rect fill="#000000" fill-opacity="0.00000" height="464.7578" width="8" x="167.519" y="121.2188"/><line style="stroke:#181818;stroke-width:0.5;stroke-dasharray:5,5;" x1="171.519" x2="171.519" y1="121.2188" y2="585.9766"/></g><g><title>.....</title><rect fill="#000000" fill-opacity="0.00000" height="464.7578" width="8" x="385.186" y="121.2188"/><line style="stroke:#181818;stroke-width:0.5;stroke-dasharray:5,5;" x1="389.186" x2="389.186" y1="121.2188" y2="585.9766"/></g><g><title>EnrollmentRecord</title><rect fill="#000000" fill-opacity="0.00000" height="464.7578" width="8" x="633.1948" y="121.2188"/><line style="stroke:#181818;stroke-width:0.5;stroke-dasharray:5,5;" x1="637.1709" x2="637.1709" y1="121.2188" y2="585.9766"/></g><g><title>Waitlist</title><rect fill="#000000" fill-opacity="0.00000" height="464.7578" width="8" x="727.7739" y="121.2188"/><line style="stroke:#181818;stroke-width:0.5;stroke-dasharray:5,5;" x1="731.2188" x2="731.2188" y1="121.2188" y2="585.9766"/></g><g><title>Course</title><rect fill="#000000" fill-opacity="0.00000" height="464.7578" width="8" x="788.8945" y="121.2188"/><line style="stroke:#181818;stroke-width:0.5;stroke-dasharray:5,5;" x1="792.3291" x2="792.3291" y1="121.2188" y2="585.9766"/></g><g class="participant participant-head" data-participant="StudentActor"><text fill="#000000" font-family="sans-serif" font-size="14" lengthAdjust="spacing" textLength="28" x="20" y="118.1426">&#23398;&#29983;</text><ellipse cx="37" cy="52.1094" fill="#E2E2F0" rx="8" ry="8" style="stroke:#181818;stroke-width:0.5;"/><path d="M37,60.1094 L37,87.1094 M24,68.1094 L50,68.1094 M37,87.1094 L24,102.1094 M37,87.1094 L50,102.1094" fill="none" style="stroke:#181818;stroke-width:0.5;"/></g><g class="participant participant-tail" data-participant="StudentActor"><text fill="#000000" font-family="sans-serif" font-size="14" lengthAdjust="spacing" textLength="28" x="20" y="599.5098">&#23398;&#29983;</text><ellipse cx="37" cy="611.0859" fill="#E2E2F0" rx="8" ry="8" style="stroke:#181818;stroke-width:0.5;"/><path d="M37,619.0859 L37,646.0859 M24,627.0859 L50,627.0859 M37,646.0859 L24,661.0859 M37,646.0859 L50,661.0859" fill="none" style="stroke:#181818;stroke-width:0.5;"/></g><g class="participant participant-head" data-participant="MyPage"><text fill="#000000" font-family="sans-serif" font-size="14" lengthAdjust="spacing" textLength="84" x="126.519" y="118.1426">&#25105;&#30340;&#35838;&#31243;&#39029;&#38754;</text><path d="M151.019,75.6094 L151.019,99.6094 M151.019,87.6094 L168.019,87.6094" fill="none" style="stroke:#181818;stroke-width:0.5;"/><ellipse cx="180.019" cy="87.6094" fill="#E2E2F0" rx="12" ry="12" style="stroke:#181818;stroke-width:0.5;"/></g><g class="participant participant-tail" data-participant="MyPage"><text fill="#000000" font-family="sans-serif" font-size="14" lengthAdjust="spacing" textLength="84" x="126.519" y="599.5098">&#25105;&#30340;&#35838;&#31243;&#39029;&#38754;</text><path d="M151.019,606.5859 L151.019,630.5859 M151.019,618.5859 L168.019,618.5859" fill="none" style="stroke:#181818;stroke-width:0.5;"/><ellipse cx="180.019" cy="618.5859" fill="#E2E2F0" rx="12" ry="12" style="stroke:#181818;stroke-width:0.5;"/></g><g class="participant participant-head" data-participant="EnrollCtrl"><text fill="#000000" font-family="sans-serif" font-size="14" lengthAdjust="spacing" textLength="70" x="351.186" y="118.1426">&#36873;&#35838;&#25511;&#21046;&#22120;</text><ellipse cx="389.186" cy="87.6094" fill="#E2E2F0" rx="12" ry="12" style="stroke:#181818;stroke-width:0.5;"/><polygon fill="#181818" points="385.186,75.6094,391.186,70.6094,389.186,75.6094,391.186,80.6094,385.186,75.6094" style="stroke:#181818;stroke-width:1;"/></g><g class="participant participant-tail" data-participant="EnrollCtrl"><text fill="#000000" font-family="sans-serif" font-size="14" lengthAdjust="spacing" textLength="70" x="351.186" y="599.5098">&#36873;&#35838;&#25511;&#21046;&#22120;</text><ellipse cx="389.186" cy="618.5859" fill="#E2E2F0" rx="12" ry="12" style="stroke:#181818;stroke-width:0.5;"/><polygon fill="#181818" points="385.186,606.5859,391.186,601.5859,389.186,606.5859,391.186,611.5859,385.186,606.5859" style="stroke:#181818;stroke-width:1;"/></g><g class="participant participant-head" data-participant="Record"><text fill="#000000" font-family="sans-serif" font-size="14" lengthAdjust="spacing" textLength="112.0479" x="578.1709" y="118.1426">EnrollmentRecord</text><ellipse cx="637.1948" cy="87.6094" fill="#E2E2F0" rx="12" ry="12" style="stroke:#181818;stroke-width:0.5;"/><line style="stroke:#181818;stroke-width:0.5;" x1="625.1948" x2="649.1948" y1="101.6094" y2="101.6094"/></g><g class="participant participant-tail" data-participant="Record"><text fill="#000000" font-family="sans-serif" font-size="14" lengthAdjust="spacing" textLength="112.0479" x="578.1709" y="599.5098">EnrollmentRecord</text><ellipse cx="637.1948" cy="618.5859" fill="#E2E2F0" rx="12" ry="12" style="stroke:#181818;stroke-width:0.5;"/><line style="stroke:#181818;stroke-width:0.5;" x1="625.1948" x2="649.1948" y1="632.5859" y2="632.5859"/></g><g class="participant participant-head" data-participant="WList"><text fill="#000000" font-family="sans-serif" font-size="14" lengthAdjust="spacing" textLength="45.1104" x="706.2188" y="118.1426">Waitlist</text><ellipse cx="731.7739" cy="87.6094" fill="#E2E2F0" rx="12" ry="12" style="stroke:#181818;stroke-width:0.5;"/><line style="stroke:#181818;stroke-width:0.5;" x1="719.7739" x2="743.7739" y1="101.6094" y2="101.6094"/></g><g class="participant participant-tail" data-participant="WList"><text fill="#000000" font-family="sans-serif" font-size="14" lengthAdjust="spacing" textLength="45.1104" x="706.2188" y="599.5098">Waitlist</text><ellipse cx="731.7739" cy="618.5859" fill="#E2E2F0" rx="12" ry="12" style="stroke:#181818;stroke-width:0.5;"/><line style="stroke:#181818;stroke-width:0.5;" x1="719.7739" x2="743.7739" y1="632.5859" y2="632.5859"/></g><g class="participant participant-head" data-participant="Course"><text fill="#000000" font-family="sans-serif" font-size="14" lengthAdjust="spacing" textLength="45.1309" x="767.3291" y="118.1426">Course</text><ellipse cx="792.8945" cy="87.6094" fill="#E2E2F0" rx="12" ry="12" style="stroke:#181818;stroke-width:0.5;"/><line style="stroke:#181818;stroke-width:0.5;" x1="780.8945" x2="804.8945" y1="101.6094" y2="101.6094"/></g><g class="participant participant-tail" data-participant="Course"><text fill="#000000" font-family="sans-serif" font-size="14" lengthAdjust="spacing" textLength="45.1309" x="767.3291" y="599.5098">Course</text><ellipse cx="792.8945" cy="618.5859" fill="#E2E2F0" rx="12" ry="12" style="stroke:#181818;stroke-width:0.5;"/><line style="stroke:#181818;stroke-width:0.5;" x1="780.8945" x2="804.8945" y1="632.5859" y2="632.5859"/></g><g class="message" data-participant-1="StudentActor" data-participant-2="MyPage"><polygon fill="#181818" points="159.519,149.5703,169.519,153.5703,159.519,157.5703,163.519,153.5703" style="stroke:#181818;stroke-width:1;"/><line style="stroke:#181818;stroke-width:1;" x1="37" x2="165.519" y1="153.5703" y2="153.5703"/><text fill="#000000" font-family="sans-serif" font-size="13" lengthAdjust="spacing" textLength="110.519" x="44" y="148.7139">&#28857;&#20987;&#36864;&#35838;(courseId)</text></g><g class="message" data-participant-1="MyPage" data-participant-2="EnrollCtrl"><polygon fill="#181818" points="377.186,179.9219,387.186,183.9219,377.186,187.9219,381.186,183.9219" style="stroke:#181818;stroke-width:1;"/><line style="stroke:#181818;stroke-width:1;" x1="171.519" x2="383.186" y1="183.9219" y2="183.9219"/><text fill="#000000" font-family="sans-serif" font-size="13" lengthAdjust="spacing" textLength="193.667" x="178.519" y="179.0654">dropRequest(studentId, courseId)</text></g><path d="M10,198.9219 L70.1709,198.9219 L70.1709,207.2734 L60.1709,217.2734 L10,217.2734 L10,198.9219" fill="#EEEEEE" style="stroke:#000000;stroke-width:1.5;"/><rect fill="none" height="370.0547" style="stroke:#000000;stroke-width:1.5;" width="828.46" x="10" y="198.9219"/><text fill="#000000" font-family="sans-serif" font-size="13" font-weight="bold" lengthAdjust="spacing" textLength="15.1709" x="25" y="213.417">alt</text><text fill="#000000" font-family="sans-serif" font-size="11" font-weight="bold" lengthAdjust="spacing" textLength="64.0449" x="85.1709" y="212.3408">[&#25130;&#27490;&#26085;&#26399;&#21069;]</text><g class="message" data-participant-1="EnrollCtrl" data-participant-2="Record"><polygon fill="#181818" points="625.1948,235.625,635.1948,239.625,625.1948,243.625,629.1948,239.625" style="stroke:#181818;stroke-width:1;"/><line style="stroke:#181818;stroke-width:1;" x1="389.186" x2="631.1948" y1="239.625" y2="239.625"/><text fill="#000000" font-family="sans-serif" font-size="13" lengthAdjust="spacing" textLength="196.5552" x="396.186" y="234.7686">deleteRecord(studentId, courseId)</text></g><g class="message" data-participant-1="Record" data-participant-2="EnrollCtrl"><polygon fill="#181818" points="400.186,265.9766,390.186,269.9766,400.186,273.9766,396.186,269.9766" style="stroke:#181818;stroke-width:1;"/><line style="stroke:#181818;stroke-width:1;stroke-dasharray:2,2;" x1="394.186" x2="636.1948" y1="269.9766" y2="269.9766"/><text fill="#000000" font-family="sans-serif" font-size="13" lengthAdjust="spacing" textLength="46.96" x="406.186" y="265.1201">success</text></g><g class="message" data-participant-1="EnrollCtrl" data-participant-2="Course"><polygon fill="#181818" points="780.8945,296.3281,790.8945,300.3281,780.8945,304.3281,784.8945,300.3281" style="stroke:#181818;stroke-width:1;"/><line style="stroke:#181818;stroke-width:1;" x1="389.186" x2="786.8945" y1="300.3281" y2="300.3281"/><text fill="#000000" font-family="sans-serif" font-size="13" lengthAdjust="spacing" textLength="88.1372" x="396.186" y="295.4717">incrementSlot()</text></g><g class="message" data-participant-1="EnrollCtrl" data-participant-2="WList"><polygon fill="#181818" points="719.7739,326.6797,729.7739,330.6797,719.7739,334.6797,723.7739,330.6797" style="stroke:#181818;stroke-width:1;"/><line style="stroke:#181818;stroke-width:1;" x1="389.186" x2="725.7739" y1="330.6797" y2="330.6797"/><text fill="#000000" font-family="sans-serif" font-size="13" lengthAdjust="spacing" textLength="151.7534" x="396.186" y="325.8232">popNextStudent(courseId)</text></g><g class="message" data-participant-1="WList" data-participant-2="EnrollCtrl"><polygon fill="#181818" points="400.186,357.0313,390.186,361.0313,400.186,365.0313,396.186,361.0313" style="stroke:#181818;stroke-width:1;"/><line style="stroke:#181818;stroke-width:1;stroke-dasharray:2,2;" x1="394.186" x2="730.7739" y1="361.0313" y2="361.0313"/><text fill="#000000" font-family="sans-serif" font-size="13" lengthAdjust="spacing" textLength="135.8398" x="406.186" y="356.1748">nextStudentId (if exists)</text></g><path d="M341.186,376.0313 L406.397,376.0313 L406.397,384.3828 L396.397,394.3828 L341.186,394.3828 L341.186,376.0313" fill="#EEEEEE" style="stroke:#000000;stroke-width:1.5;"/><rect fill="none" height="79.0547" style="stroke:#000000;stroke-width:1.5;" width="487.2739" x="341.186" y="376.0313"/><text fill="#000000" font-family="sans-serif" font-size="13" font-weight="bold" lengthAdjust="spacing" textLength="20.2109" x="356.186" y="390.5264">opt</text><text fill="#000000" font-family="sans-serif" font-size="11" font-weight="bold" lengthAdjust="spacing" textLength="75.3887" x="421.397" y="389.4502">[&#23384;&#22312;&#20505;&#34917;&#23398;&#29983;]</text><g class="message" data-participant-1="EnrollCtrl" data-participant-2="Record"><polygon fill="#181818" points="625.1948,412.7344,635.1948,416.7344,625.1948,420.7344,629.1948,416.7344" style="stroke:#181818;stroke-width:1;"/><line style="stroke:#181818;stroke-width:1;" x1="389.186" x2="631.1948" y1="416.7344" y2="416.7344"/><text fill="#000000" font-family="sans-serif" font-size="13" lengthAdjust="spacing" textLength="224.0088" x="396.186" y="411.8779">createRecord(nextStudentId, courseId)</text></g><g class="message" data-participant-1="EnrollCtrl" data-participant-2="Course"><polygon fill="#181818" points="780.8945,443.0859,790.8945,447.0859,780.8945,451.0859,784.8945,447.0859" style="stroke:#181818;stroke-width:1;"/><line style="stroke:#181818;stroke-width:1;" x1="389.186" x2="786.8945" y1="447.0859" y2="447.0859"/><text fill="#000000" font-family="sans-serif" font-size="13" lengthAdjust="spacing" textLength="92.479" x="396.186" y="442.2295">decrementSlot()</text></g><g class="message" data-participant-1="EnrollCtrl" data-participant-2="MyPage"><polygon fill="#181818" points="182.519,480.4375,172.519,484.4375,182.519,488.4375,178.519,484.4375" style="stroke:#181818;stroke-width:1;"/><line style="stroke:#181818;stroke-width:1;stroke-dasharray:2,2;" x1="176.519" x2="388.186" y1="484.4375" y2="484.4375"/><text fill="#000000" font-family="sans-serif" font-size="13" lengthAdjust="spacing" textLength="91" x="188.519" y="479.5811">&#36864;&#35838;&#21450;&#36882;&#34917;&#25104;&#21151;</text></g><g class="message" data-participant-1="MyPage" data-participant-2="StudentActor"><polygon fill="#181818" points="48,510.7891,38,514.7891,48,518.7891,44,514.7891" style="stroke:#181818;stroke-width:1;"/><line style="stroke:#181818;stroke-width:1;" x1="42" x2="170.519" y1="514.7891" y2="514.7891"/><text fill="#000000" font-family="sans-serif" font-size="13" lengthAdjust="spacing" textLength="78" x="54" y="509.9326">&#25552;&#31034;&#36864;&#35838;&#25104;&#21151;</text></g><line style="stroke:#000000;stroke-width:1;stroke-dasharray:2,2;" x1="10" x2="838.46" y1="523.7891" y2="523.7891"/><text fill="#000000" font-family="sans-serif" font-size="11" font-weight="bold" lengthAdjust="spacing" textLength="64.0449" x="15" y="535.208">[&#25130;&#27490;&#26085;&#26399;&#21518;]</text><g class="message" data-participant-1="EnrollCtrl" data-participant-2="MyPage"><polygon fill="#181818" points="182.519,556.9766,172.519,560.9766,182.519,564.9766,178.519,560.9766" style="stroke:#181818;stroke-width:1;"/><line style="stroke:#181818;stroke-width:1;stroke-dasharray:2,2;" x1="176.519" x2="388.186" y1="560.9766" y2="560.9766"/><text fill="#000000" font-family="sans-serif" font-size="13" lengthAdjust="spacing" textLength="145.8945" x="188.519" y="556.1201">&#37325;&#23450;&#21521;&#33267;&#23457;&#25209;&#27969;&#31243;(UC15)</text></g><!--SRC=[VPDDQzj048Rl-oi6dnIe8Jqq1nyAnVHWI4j923chscaHA5fNkuBafeI0xPJ4JYcqILE2GpvCmUcXf10NyczsPVsBZhN27ucnJYlDC- -y-p9IlWeGDghBAnN8acJu-m7Aa7K7Uj3MFnuOSpqb8YZf_dNwzRm4heHr5NCCrQjHWRqNSSZTQ0TAfdcSdkvJVzhxd7NlifyNEVrcvvtx4PadGXM904fPqYB67DtevbzzqikPro6LWggA0aR2lY8r-scBNjVG4n7FENiSCvikUVUbockRgtGQbweYZYJc1NjaRDesb5yMng02wTwzRlopTtUydAxn9LRKYPpO8vf7ehw6dsAKof5MiiQVmQIFkO42q_nb-XVcsvKvEzUjGmRqJCcGgBtBI103L6XVvokEcWky_DYEZ3qFfPmpmDwR43_q8XmbkHu8vLYvENmU8E5rKN-Bswg8ovcrOQ4dBi99Gus3uty0t2PGJWqJTGMw_rsVzNHoCknUsONAIml28UVkE9oPAOy3MX00nwS1OCZd1p6z6NOdTFiWIxwGPTFiw0DhUR8SCsjL0TFkf9S3srZm692BcONe72qUspZKjwUwSpni_D6tNTEwDtUxz5Sv6zNdBvPen_b_]--></g></svg>