<svg xmlns="http://www.w3.org/2000/svg" xmlns:xlink="http://www.w3.org/1999/xlink" contentStyleType="text/css" data-diagram-type="CLASS" height="714px" preserveAspectRatio="none" style="width:253px;height:714px;background:#FFFFFF;" version="1.1" viewBox="0 0 253 714" width="253px" zoomAndPan="magnify"><title>UC07: &#26597;&#30475;&#25104;&#32489; - &#21442;&#19982;&#31867;&#22270; (VOPC)</title><defs/><g><g class="title" data-source-line="1"><text fill="#000000" font-family="sans-serif" font-size="14" font-weight="bold" lengthAdjust="spacing" textLength="225.1758" x="10" y="24.5332">UC07: &#26597;&#30475;&#25104;&#32489; - &#21442;&#19982;&#31867;&#22270; (VOPC)</text></g><!--class GradeViewPage--><g class="entity" data-entity="GradeViewPage" data-source-line="3" data-uid="ent0002" id="entity_GradeViewPage"><rect fill="#F1F1F1" height="93.9219" rx="2.5" ry="2.5" style="stroke:#181818;stroke-width:0.5;" width="148.9512" x="54.9399" y="45.6094"/><ellipse cx="76.6899" cy="66.9609" fill="#ADD1B2" rx="11" ry="11" style="stroke:#181818;stroke-width:1;"/><path d="M79.4556,62.8359 Q79.6118,62.6172 79.7993,62.5078 Q79.9868,62.3984 80.2056,62.3984 Q80.5806,62.3984 80.8149,62.6641 Q81.0493,62.9141 81.0493,63.5234 L81.0493,64.9766 Q81.0493,65.5859 80.8149,65.8516 Q80.5806,66.1172 80.2056,66.1172 Q79.8618,66.1172 79.6587,65.9141 Q79.4556,65.7266 79.3462,65.2109 Q79.2993,64.8516 79.1118,64.6641 Q78.7837,64.2891 78.1743,64.0703 Q77.5649,63.8516 76.9399,63.8516 Q76.1743,63.8516 75.5337,64.1797 Q74.9087,64.5078 74.4087,65.2578 Q73.9243,66.0078 73.9243,67.0391 L73.9243,68.1328 Q73.9243,69.3672 74.8149,70.1953 Q75.7056,71.0078 77.2993,71.0078 Q78.2368,71.0078 78.8931,70.7578 Q79.2837,70.6016 79.7056,70.1641 Q79.9712,69.8984 80.1118,69.8203 Q80.2681,69.7422 80.4712,69.7422 Q80.7993,69.7422 81.0493,70.0078 Q81.3149,70.2578 81.3149,70.6016 Q81.3149,70.9453 80.9712,71.3516 Q80.4712,71.9297 79.6743,72.2578 Q78.5962,72.7109 77.2993,72.7109 Q75.7837,72.7109 74.5806,72.0859 Q73.5962,71.5859 72.9087,70.5234 Q72.2212,69.4453 72.2212,68.1641 L72.2212,67.0078 Q72.2212,65.6797 72.8306,64.5391 Q73.4556,63.3828 74.5493,62.7734 Q75.6431,62.1484 76.8774,62.1484 Q77.6118,62.1484 78.2524,62.3203 Q78.9087,62.4766 79.4556,62.8359 Z " fill="#000000"/><text fill="#000000" font-family="sans-serif" font-size="12" font-style="italic" lengthAdjust="spacing" textLength="63.3867" x="111.4722" y="63.0664">&#171;boundary&#187;</text><text fill="#000000" font-family="sans-serif" font-size="14" lengthAdjust="spacing" textLength="101.9512" x="92.1899" y="80.2363">GradeViewPage</text><line style="stroke:#181818;stroke-width:0.5;" x1="55.9399" x2="202.8911" y1="88.3125" y2="88.3125"/><line style="stroke:#181818;stroke-width:0.5;" x1="55.9399" x2="202.8911" y1="96.3125" y2="96.3125"/><ellipse cx="65.9399" cy="110.6172" fill="#84BE84" rx="3" ry="3" style="stroke:#038048;stroke-width:1;"/><text fill="#000000" font-family="sans-serif" font-size="14" lengthAdjust="spacing" textLength="122.9512" x="74.9399" y="114.8457">renderGrades(data)</text><ellipse cx="65.9399" cy="128.2266" fill="#84BE84" rx="3" ry="3" style="stroke:#038048;stroke-width:1;"/><text fill="#000000" font-family="sans-serif" font-size="14" lengthAdjust="spacing" textLength="120.5928" x="74.9399" y="132.4551">renderCharts(stats)</text></g><!--class GradeController--><g class="entity" data-entity="GradeController" data-source-line="8" data-uid="ent0003" id="entity_GradeController"><rect fill="#F1F1F1" height="93.9219" rx="2.5" ry="2.5" style="stroke:#181818;stroke-width:0.5;" width="158.2959" x="50.4399" y="217.6094"/><ellipse cx="77.4533" cy="238.9609" fill="#ADD1B2" rx="11" ry="11" style="stroke:#181818;stroke-width:1;"/><path d="M80.2189,234.8359 Q80.3751,234.6172 80.5626,234.5078 Q80.7501,234.3984 80.9689,234.3984 Q81.3439,234.3984 81.5783,234.6641 Q81.8126,234.9141 81.8126,235.5234 L81.8126,236.9766 Q81.8126,237.5859 81.5783,237.8516 Q81.3439,238.1172 80.9689,238.1172 Q80.6251,238.1172 80.422,237.9141 Q80.2189,237.7266 80.1095,237.2109 Q80.0626,236.8516 79.8751,236.6641 Q79.547,236.2891 78.9376,236.0703 Q78.3283,235.8516 77.7033,235.8516 Q76.9376,235.8516 76.297,236.1797 Q75.672,236.5078 75.172,237.2578 Q74.6876,238.0078 74.6876,239.0391 L74.6876,240.1328 Q74.6876,241.3672 75.5783,242.1953 Q76.4689,243.0078 78.0626,243.0078 Q79.0001,243.0078 79.6564,242.7578 Q80.047,242.6016 80.4689,242.1641 Q80.7345,241.8984 80.8751,241.8203 Q81.0314,241.7422 81.2345,241.7422 Q81.5626,241.7422 81.8126,242.0078 Q82.0783,242.2578 82.0783,242.6016 Q82.0783,242.9453 81.7345,243.3516 Q81.2345,243.9297 80.4376,244.2578 Q79.3595,244.7109 78.0626,244.7109 Q76.547,244.7109 75.3439,244.0859 Q74.3595,243.5859 73.672,242.5234 Q72.9845,241.4453 72.9845,240.1641 L72.9845,239.0078 Q72.9845,237.6797 73.5939,236.5391 Q74.2189,235.3828 75.3126,234.7734 Q76.4064,234.1484 77.6408,234.1484 Q78.3751,234.1484 79.0158,234.3203 Q79.672,234.4766 80.2189,234.8359 Z " fill="#000000"/><text fill="#000000" font-family="sans-serif" font-size="12" font-style="italic" lengthAdjust="spacing" textLength="49.3652" x="119.2401" y="235.0664">&#171;control&#187;</text><text fill="#000000" font-family="sans-serif" font-size="14" lengthAdjust="spacing" textLength="99.5996" x="94.1229" y="252.2363">GradeController</text><line style="stroke:#181818;stroke-width:0.5;" x1="51.4399" x2="207.7358" y1="260.3125" y2="260.3125"/><line style="stroke:#181818;stroke-width:0.5;" x1="51.4399" x2="207.7358" y1="268.3125" y2="268.3125"/><ellipse cx="61.4399" cy="282.6172" fill="#84BE84" rx="3" ry="3" style="stroke:#038048;stroke-width:1;"/><text fill="#000000" font-family="sans-serif" font-size="14" lengthAdjust="spacing" textLength="132.2959" x="70.4399" y="286.8457">getGrades(studentId)</text><rect fill="#F24D5C" height="6" style="stroke:#C82930;stroke-width:1;" width="6" x="58.4399" y="297.2266"/><text fill="#000000" font-family="sans-serif" font-size="14" lengthAdjust="spacing" textLength="120.5996" x="70.4399" y="304.4551">analyzeGrades(list)</text></g><!--class Grade--><g class="entity" data-entity="Grade" data-source-line="13" data-uid="ent0004" id="entity_Grade"><rect fill="#F1F1F1" height="164.3594" rx="2.5" ry="2.5" style="stroke:#181818;stroke-width:0.5;" width="140.3652" x="59.4399" y="389.6094"/><ellipse cx="105.9175" cy="410.9609" fill="#ADD1B2" rx="11" ry="11" style="stroke:#181818;stroke-width:1;"/><path d="M108.6831,406.8359 Q108.8394,406.6172 109.0269,406.5078 Q109.2144,406.3984 109.4331,406.3984 Q109.8081,406.3984 110.0425,406.6641 Q110.2769,406.9141 110.2769,407.5234 L110.2769,408.9766 Q110.2769,409.5859 110.0425,409.8516 Q109.8081,410.1172 109.4331,410.1172 Q109.0894,410.1172 108.8862,409.9141 Q108.6831,409.7266 108.5737,409.2109 Q108.5269,408.8516 108.3394,408.6641 Q108.0112,408.2891 107.4019,408.0703 Q106.7925,407.8516 106.1675,407.8516 Q105.4019,407.8516 104.7612,408.1797 Q104.1362,408.5078 103.6362,409.2578 Q103.1519,410.0078 103.1519,411.0391 L103.1519,412.1328 Q103.1519,413.3672 104.0425,414.1953 Q104.9331,415.0078 106.5269,415.0078 Q107.4644,415.0078 108.1206,414.7578 Q108.5112,414.6016 108.9331,414.1641 Q109.1987,413.8984 109.3394,413.8203 Q109.4956,413.7422 109.6987,413.7422 Q110.0269,413.7422 110.2769,414.0078 Q110.5425,414.2578 110.5425,414.6016 Q110.5425,414.9453 110.1987,415.3516 Q109.6987,415.9297 108.9019,416.2578 Q107.8237,416.7109 106.5269,416.7109 Q105.0112,416.7109 103.8081,416.0859 Q102.8237,415.5859 102.1362,414.5234 Q101.4487,413.4453 101.4487,412.1641 L101.4487,411.0078 Q101.4487,409.6797 102.0581,408.5391 Q102.6831,407.3828 103.7769,406.7734 Q104.8706,406.1484 106.105,406.1484 Q106.8394,406.1484 107.48,406.3203 Q108.1362,406.4766 108.6831,406.8359 Z " fill="#000000"/><text fill="#000000" font-family="sans-serif" font-size="12" font-style="italic" lengthAdjust="spacing" textLength="42.0293" x="124.8579" y="407.0664">&#171;entity&#187;</text><text fill="#000000" font-family="sans-serif" font-size="14" lengthAdjust="spacing" textLength="38.9102" x="126.4175" y="424.2363">Grade</text><line style="stroke:#181818;stroke-width:0.5;" x1="60.4399" x2="198.8052" y1="432.3125" y2="432.3125"/><rect fill="none" height="6" style="stroke:#C82930;stroke-width:1;" width="6" x="67.4399" y="443.6172"/><text fill="#000000" font-family="sans-serif" font-size="14" lengthAdjust="spacing" textLength="101.9512" x="79.4399" y="450.8457">studentId: String</text><rect fill="none" height="6" style="stroke:#C82930;stroke-width:1;" width="6" x="67.4399" y="461.2266"/><text fill="#000000" font-family="sans-serif" font-size="14" lengthAdjust="spacing" textLength="98.0479" x="79.4399" y="468.4551">courseId: String</text><rect fill="none" height="6" style="stroke:#C82930;stroke-width:1;" width="6" x="67.4399" y="478.8359"/><text fill="#000000" font-family="sans-serif" font-size="14" lengthAdjust="spacing" textLength="114.3652" x="79.4399" y="486.0645">scoreAtTerm: float</text><rect fill="none" height="6" style="stroke:#C82930;stroke-width:1;" width="6" x="67.4399" y="496.4453"/><text fill="#000000" font-family="sans-serif" font-size="14" lengthAdjust="spacing" textLength="98.8203" x="79.4399" y="503.6738">scoreFinal: float</text><rect fill="none" height="6" style="stroke:#C82930;stroke-width:1;" width="6" x="67.4399" y="514.0547"/><text fill="#000000" font-family="sans-serif" font-size="14" lengthAdjust="spacing" textLength="112.8203" x="79.4399" y="521.2832">scoreOverall: float</text><rect fill="none" height="6" style="stroke:#C82930;stroke-width:1;" width="6" x="67.4399" y="531.6641"/><text fill="#000000" font-family="sans-serif" font-size="14" lengthAdjust="spacing" textLength="49.7998" x="79.4399" y="538.8926">rank: int</text><line style="stroke:#181818;stroke-width:0.5;" x1="60.4399" x2="198.8052" y1="545.9688" y2="545.9688"/></g><!--class Course--><g class="entity" data-entity="Course" data-source-line="22" data-uid="ent0005" id="entity_Course"><rect fill="#F1F1F1" height="76.3125" rx="2.5" ry="2.5" style="stroke:#181818;stroke-width:0.5;" width="105.3721" x="76.9399" y="631.6094"/><ellipse cx="104.6485" cy="652.9609" fill="#ADD1B2" rx="11" ry="11" style="stroke:#181818;stroke-width:1;"/><path d="M107.4141,648.8359 Q107.5704,648.6172 107.7579,648.5078 Q107.9454,648.3984 108.1641,648.3984 Q108.5391,648.3984 108.7735,648.6641 Q109.0079,648.9141 109.0079,649.5234 L109.0079,650.9766 Q109.0079,651.5859 108.7735,651.8516 Q108.5391,652.1172 108.1641,652.1172 Q107.8204,652.1172 107.6172,651.9141 Q107.4141,651.7266 107.3047,651.2109 Q107.2579,650.8516 107.0704,650.6641 Q106.7422,650.2891 106.1329,650.0703 Q105.5235,649.8516 104.8985,649.8516 Q104.1329,649.8516 103.4922,650.1797 Q102.8672,650.5078 102.3672,651.2578 Q101.8829,652.0078 101.8829,653.0391 L101.8829,654.1328 Q101.8829,655.3672 102.7735,656.1953 Q103.6641,657.0078 105.2579,657.0078 Q106.1954,657.0078 106.8516,656.7578 Q107.2422,656.6016 107.6641,656.1641 Q107.9297,655.8984 108.0704,655.8203 Q108.2266,655.7422 108.4297,655.7422 Q108.7579,655.7422 109.0079,656.0078 Q109.2735,656.2578 109.2735,656.6016 Q109.2735,656.9453 108.9297,657.3516 Q108.4297,657.9297 107.6329,658.2578 Q106.5547,658.7109 105.2579,658.7109 Q103.7422,658.7109 102.5391,658.0859 Q101.5547,657.5859 100.8672,656.5234 Q100.1797,655.4453 100.1797,654.1641 L100.1797,653.0078 Q100.1797,651.6797 100.7891,650.5391 Q101.4141,649.3828 102.5079,648.7734 Q103.6016,648.1484 104.836,648.1484 Q105.5704,648.1484 106.211,648.3203 Q106.8672,648.4766 107.4141,648.8359 Z " fill="#000000"/><text fill="#000000" font-family="sans-serif" font-size="12" font-style="italic" lengthAdjust="spacing" textLength="42.0293" x="123.0234" y="649.0664">&#171;entity&#187;</text><text fill="#000000" font-family="sans-serif" font-size="14" lengthAdjust="spacing" textLength="45.1309" x="121.4726" y="666.2363">Course</text><line style="stroke:#181818;stroke-width:0.5;" x1="77.9399" x2="181.312" y1="674.3125" y2="674.3125"/><rect fill="none" height="6" style="stroke:#C82930;stroke-width:1;" width="6" x="84.9399" y="685.6172"/><text fill="#000000" font-family="sans-serif" font-size="14" lengthAdjust="spacing" textLength="79.3721" x="96.9399" y="692.8457">name: String</text><line style="stroke:#181818;stroke-width:0.5;" x1="77.9399" x2="181.312" y1="699.9219" y2="699.9219"/></g><!--link GradeViewPage to GradeController--><g class="link" data-entity-1="GradeViewPage" data-entity-2="GradeController" data-source-line="26" data-uid="lnk6" id="link_GradeViewPage_GradeController"><path codeLine="26" d="M129.4399,139.6094 C129.4399,163.7994 129.4399,187.3694 129.4399,211.5694" fill="none" id="GradeViewPage-to-GradeController" style="stroke:#181818;stroke-width:1;stroke-dasharray:7,7;"/><polygon fill="#181818" points="129.4399,217.5694,133.4399,208.5694,129.4399,212.5694,125.4399,208.5694,129.4399,217.5694" style="stroke:#181818;stroke-width:1;"/><text fill="#000000" font-family="sans-serif" font-size="13" lengthAdjust="spacing" textLength="27.46" x="130.4399" y="184.1045">uses</text></g><!--link GradeController to Grade--><g class="link" data-entity-1="GradeController" data-entity-2="Grade" data-source-line="27" data-uid="lnk7" id="link_GradeController_Grade"><path codeLine="27" d="M129.4399,311.6194 C129.4399,334.5194 129.4399,356.8894 129.4399,383.2994" fill="none" id="GradeController-to-Grade" style="stroke:#181818;stroke-width:1;stroke-dasharray:7,7;"/><polygon fill="#181818" points="129.4399,389.2994,133.4399,380.2994,129.4399,384.2994,125.4399,380.2994,129.4399,389.2994" style="stroke:#181818;stroke-width:1;"/><text fill="#000000" font-family="sans-serif" font-size="13" lengthAdjust="spacing" textLength="42.6372" x="130.4399" y="356.1045">queries</text></g><!--link Grade to Course--><g class="link" data-entity-1="Grade" data-entity-2="Course" data-source-line="28" data-uid="lnk8" id="link_Grade_Course"><path codeLine="28" d="M129.4399,553.7494 C129.4399,580.7094 129.4399,603.4194 129.4399,625.3994" fill="none" id="Grade-to-Course" style="stroke:#181818;stroke-width:1;stroke-dasharray:7,7;"/><polygon fill="#181818" points="129.4399,631.3994,133.4399,622.3994,129.4399,626.3994,125.4399,622.3994,129.4399,631.3994" style="stroke:#181818;stroke-width:1;"/><text fill="#000000" font-family="sans-serif" font-size="13" lengthAdjust="spacing" textLength="39.019" x="130.4399" y="598.1045">relates</text></g><!--SRC=[RP4_ImD14CNx-nHJ9iW5Es491tAWM2MWfX_lnhYusSEPEIMAZPKWgBs2bOMbdH3mq-JFrt19plpVRjzx-vl7Zbfr1AVfxfw1ySVdvFrf_FWw6Nn13AENX-7Fy-HxC7hxXLgdrKxhKPGv5853nfmwbcxQs2LeDi-AqkV8_II1kmZ2sG4cdnDFWrBBKR6-OgGNo2erKLIfH_ShuBJmoeLpn06TpIvBv2vfXHKjS_9wbC_OCQ17rx-bodPMT9qTYE65rKNL6EOO0yVArdShFIjA5jgG9IkOzlM4k6VWt1MeoyQ13HsswArhOdHh3gE_D62zBbgcqw7RQdhiqRnAoAykeT58DdxFG2aaqReyZuR0LKbi_pDJfofWmg8SAiaV]--></g></svg>