<svg xmlns="http://www.w3.org/2000/svg" xmlns:xlink="http://www.w3.org/1999/xlink" contentStyleType="text/css" data-diagram-type="SEQUENCE" height="448px" preserveAspectRatio="none" style="width:521px;height:448px;background:#FFFFFF;" version="1.1" viewBox="0 0 521 448" width="521px" zoomAndPan="magnify"><title>UC07: &#26597;&#30475;&#25104;&#32489; - &#39034;&#24207;&#22270;</title><defs/><g><text fill="#000000" font-family="sans-serif" font-size="14" font-weight="bold" lengthAdjust="spacing" textLength="157.8486" x="183.2622" y="29.5332">UC07: &#26597;&#30475;&#25104;&#32489; - &#39034;&#24207;&#22270;</text><g><title>..</title><rect fill="#000000" fill-opacity="0.00000" height="245.4609" width="8" x="18" y="121.2188"/><line style="stroke:#181818;stroke-width:0.5;stroke-dasharray:5,5;" x1="22" x2="22" y1="121.2188" y2="366.6797"/></g><g><title>......</title><rect fill="#000000" fill-opacity="0.00000" height="245.4609" width="8" x="94" y="121.2188"/><line style="stroke:#181818;stroke-width:0.5;stroke-dasharray:5,5;" x1="98" x2="98" y1="121.2188" y2="366.6797"/></g><g><title>.....</title><rect fill="#000000" fill-opacity="0.00000" height="245.4609" width="8" x="287" y="121.2188"/><line style="stroke:#181818;stroke-width:0.5;stroke-dasharray:5,5;" x1="291" x2="291" y1="121.2188" y2="366.6797"/></g><g><title>Grade</title><rect fill="#000000" fill-opacity="0.00000" height="245.4609" width="8" x="493.918" y="121.2188"/><line style="stroke:#181818;stroke-width:0.5;stroke-dasharray:5,5;" x1="497.4629" x2="497.4629" y1="121.2188" y2="366.6797"/></g><g class="participant participant-head" data-participant="Student"><text fill="#000000" font-family="sans-serif" font-size="14" lengthAdjust="spacing" textLength="28" x="5" y="118.1426">&#23398;&#29983;</text><ellipse cx="22" cy="52.1094" fill="#E2E2F0" rx="8" ry="8" style="stroke:#181818;stroke-width:0.5;"/><path d="M22,60.1094 L22,87.1094 M9,68.1094 L35,68.1094 M22,87.1094 L9,102.1094 M22,87.1094 L35,102.1094" fill="none" style="stroke:#181818;stroke-width:0.5;"/></g><g class="participant participant-tail" data-participant="Student"><text fill="#000000" font-family="sans-serif" font-size="14" lengthAdjust="spacing" textLength="28" x="5" y="380.2129">&#23398;&#29983;</text><ellipse cx="22" cy="391.7891" fill="#E2E2F0" rx="8" ry="8" style="stroke:#181818;stroke-width:0.5;"/><path d="M22,399.7891 L22,426.7891 M9,407.7891 L35,407.7891 M22,426.7891 L9,441.7891 M22,426.7891 L35,441.7891" fill="none" style="stroke:#181818;stroke-width:0.5;"/></g><g class="participant participant-head" data-participant="GradePage"><text fill="#000000" font-family="sans-serif" font-size="14" lengthAdjust="spacing" textLength="84" x="53" y="118.1426">&#25104;&#32489;&#26597;&#35810;&#39029;&#38754;</text><path d="M77.5,75.6094 L77.5,99.6094 M77.5,87.6094 L94.5,87.6094" fill="none" style="stroke:#181818;stroke-width:0.5;"/><ellipse cx="106.5" cy="87.6094" fill="#E2E2F0" rx="12" ry="12" style="stroke:#181818;stroke-width:0.5;"/></g><g class="participant participant-tail" data-participant="GradePage"><text fill="#000000" font-family="sans-serif" font-size="14" lengthAdjust="spacing" textLength="84" x="53" y="380.2129">&#25104;&#32489;&#26597;&#35810;&#39029;&#38754;</text><path d="M77.5,387.2891 L77.5,411.2891 M77.5,399.2891 L94.5,399.2891" fill="none" style="stroke:#181818;stroke-width:0.5;"/><ellipse cx="106.5" cy="399.2891" fill="#E2E2F0" rx="12" ry="12" style="stroke:#181818;stroke-width:0.5;"/></g><g class="participant participant-head" data-participant="GradeCtrl"><text fill="#000000" font-family="sans-serif" font-size="14" lengthAdjust="spacing" textLength="70" x="253" y="118.1426">&#25104;&#32489;&#25511;&#21046;&#31867;</text><ellipse cx="291" cy="87.6094" fill="#E2E2F0" rx="12" ry="12" style="stroke:#181818;stroke-width:0.5;"/><polygon fill="#181818" points="287,75.6094,293,70.6094,291,75.6094,293,80.6094,287,75.6094" style="stroke:#181818;stroke-width:1;"/></g><g class="participant participant-tail" data-participant="GradeCtrl"><text fill="#000000" font-family="sans-serif" font-size="14" lengthAdjust="spacing" textLength="70" x="253" y="380.2129">&#25104;&#32489;&#25511;&#21046;&#31867;</text><ellipse cx="291" cy="399.2891" fill="#E2E2F0" rx="12" ry="12" style="stroke:#181818;stroke-width:0.5;"/><polygon fill="#181818" points="287,387.2891,293,382.2891,291,387.2891,293,392.2891,287,387.2891" style="stroke:#181818;stroke-width:1;"/></g><g class="participant participant-head" data-participant="Grade"><text fill="#000000" font-family="sans-serif" font-size="14" lengthAdjust="spacing" textLength="38.9102" x="475.4629" y="118.1426">Grade</text><ellipse cx="497.918" cy="87.6094" fill="#E2E2F0" rx="12" ry="12" style="stroke:#181818;stroke-width:0.5;"/><line style="stroke:#181818;stroke-width:0.5;" x1="485.918" x2="509.918" y1="101.6094" y2="101.6094"/></g><g class="participant participant-tail" data-participant="Grade"><text fill="#000000" font-family="sans-serif" font-size="14" lengthAdjust="spacing" textLength="38.9102" x="475.4629" y="380.2129">Grade</text><ellipse cx="497.918" cy="399.2891" fill="#E2E2F0" rx="12" ry="12" style="stroke:#181818;stroke-width:0.5;"/><line style="stroke:#181818;stroke-width:0.5;" x1="485.918" x2="509.918" y1="413.2891" y2="413.2891"/></g><g class="message" data-participant-1="Student" data-participant-2="GradePage"><polygon fill="#181818" points="86,149.5703,96,153.5703,86,157.5703,90,153.5703" style="stroke:#181818;stroke-width:1;"/><line style="stroke:#181818;stroke-width:1;" x1="22" x2="92" y1="153.5703" y2="153.5703"/><text fill="#000000" font-family="sans-serif" font-size="13" lengthAdjust="spacing" textLength="52" x="29" y="148.7139">&#36827;&#20837;&#39029;&#38754;</text></g><g class="message" data-participant-1="GradePage" data-participant-2="GradeCtrl"><polygon fill="#181818" points="279,179.9219,289,183.9219,279,187.9219,283,183.9219" style="stroke:#181818;stroke-width:1;"/><line style="stroke:#181818;stroke-width:1;" x1="98" x2="285" y1="183.9219" y2="183.9219"/><text fill="#000000" font-family="sans-serif" font-size="13" lengthAdjust="spacing" textLength="122.8462" x="105" y="179.0654">getGrades(studentId)</text></g><g class="message" data-participant-1="GradeCtrl" data-participant-2="Grade"><polygon fill="#181818" points="485.918,210.2734,495.918,214.2734,485.918,218.2734,489.918,214.2734" style="stroke:#181818;stroke-width:1;"/><line style="stroke:#181818;stroke-width:1;" x1="291" x2="491.918" y1="214.2734" y2="214.2734"/><text fill="#000000" font-family="sans-serif" font-size="13" lengthAdjust="spacing" textLength="143.0889" x="298" y="209.417">findByStudent(studentId)</text></g><g class="message" data-participant-1="Grade" data-participant-2="GradeCtrl"><polygon fill="#181818" points="302,240.625,292,244.625,302,248.625,298,244.625" style="stroke:#181818;stroke-width:1;"/><line style="stroke:#181818;stroke-width:1;stroke-dasharray:2,2;" x1="296" x2="496.918" y1="244.625" y2="244.625"/><text fill="#000000" font-family="sans-serif" font-size="13" lengthAdjust="spacing" textLength="80.939" x="308" y="239.7686">gradeDataList</text></g><g class="message" data-participant-1="GradeCtrl" data-participant-2="GradeCtrl"><line style="stroke:#181818;stroke-width:1;" x1="291" x2="333" y1="274.9766" y2="274.9766"/><line style="stroke:#181818;stroke-width:1;" x1="333" x2="333" y1="274.9766" y2="287.9766"/><line style="stroke:#181818;stroke-width:1;" x1="292" x2="333" y1="287.9766" y2="287.9766"/><polygon fill="#181818" points="302,283.9766,292,287.9766,302,291.9766,298,287.9766" style="stroke:#181818;stroke-width:1;"/><text fill="#000000" font-family="sans-serif" font-size="13" lengthAdjust="spacing" textLength="192.918" x="298" y="270.1201">calculateStatistics(gradeDataList)</text></g><g class="message" data-participant-1="GradeCtrl" data-participant-2="GradePage"><polygon fill="#181818" points="109,314.3281,99,318.3281,109,322.3281,105,318.3281" style="stroke:#181818;stroke-width:1;"/><line style="stroke:#181818;stroke-width:1;stroke-dasharray:2,2;" x1="103" x2="290" y1="318.3281" y2="318.3281"/><text fill="#000000" font-family="sans-serif" font-size="13" lengthAdjust="spacing" textLength="169" x="115" y="313.4717">&#36820;&#22238;&#25104;&#32489;&#21015;&#34920;&#21450;&#32479;&#35745;&#20998;&#26512;&#22270;&#34920;</text></g><g class="message" data-participant-1="GradePage" data-participant-2="Student"><polygon fill="#181818" points="33,344.6797,23,348.6797,33,352.6797,29,348.6797" style="stroke:#181818;stroke-width:1;"/><line style="stroke:#181818;stroke-width:1;" x1="27" x2="97" y1="348.6797" y2="348.6797"/><text fill="#000000" font-family="sans-serif" font-size="13" lengthAdjust="spacing" textLength="52" x="39" y="343.8232">&#23637;&#31034;&#35814;&#24773;</text></g><!--SRC=[RP7DIiD0483l-nH3J_KGy2RauC4A8dWGYW-m9ci9X0IIoQ5dgGG5sqF5GxGXnLOzQEb13mdeqsmsUGkt-J74UjkT-UQRdLaqq6HmrjlTKo4D5-BX9lKd8da51V8evl6O1r-4K0rj1phyRIccOGUe2ttqT6OXERSzIwVE43fbdNHagtaUVUIFym8ySgZEJkc04SssqB7DN_BscVkVOfqqM0yTaqYhWT9NH9eS8LLBKFORAQYGVGTyj2WxaYPHKnkdf0OCYwlRTKlDiRv36g2c9NbXMFh1i6gsHOFoLxmv7rAa9uQBv1zbnMdKr3oJ8kiZHOaQcjjjrRQUipNZb0UpSc_Sly-Y5pw-5acOlKVSlqfd4_bBCjWUlzwN2dnz9vxYRBLCBqS_]--></g></svg>