<svg xmlns="http://www.w3.org/2000/svg" xmlns:xlink="http://www.w3.org/1999/xlink" contentStyleType="text/css" data-diagram-type="SEQUENCE" height="405px" preserveAspectRatio="none" style="width:580px;height:405px;background:#FFFFFF;" version="1.1" viewBox="0 0 580 405" width="580px" zoomAndPan="magnify"><title>UC08: &#21152;&#20837;&#20505;&#34917;&#21517;&#21333; - &#39034;&#24207;&#22270;</title><defs/><g><text fill="#000000" font-family="sans-serif" font-size="14" font-weight="bold" lengthAdjust="spacing" textLength="186.7236" x="198.5342" y="29.5332">UC08: &#21152;&#20837;&#20505;&#34917;&#21517;&#21333; - &#39034;&#24207;&#22270;</text><g><title>..</title><rect fill="#000000" fill-opacity="0.00000" height="202.1094" width="8" x="18" y="121.2188"/><line style="stroke:#181818;stroke-width:0.5;stroke-dasharray:5,5;" x1="22" x2="22" y1="121.2188" y2="323.3281"/></g><g><title>.......</title><rect fill="#000000" fill-opacity="0.00000" height="202.1094" width="8" x="133" y="121.2188"/><line style="stroke:#181818;stroke-width:0.5;stroke-dasharray:5,5;" x1="137" x2="137" y1="121.2188" y2="323.3281"/></g><g><title>.....</title><rect fill="#000000" fill-opacity="0.00000" height="202.1094" width="8" x="354.9771" y="121.2188"/><line style="stroke:#181818;stroke-width:0.5;stroke-dasharray:5,5;" x1="358.9771" x2="358.9771" y1="121.2188" y2="323.3281"/></g><g><title>Waitlist</title><rect fill="#000000" fill-opacity="0.00000" height="202.1094" width="8" x="550.2368" y="121.2188"/><line style="stroke:#181818;stroke-width:0.5;stroke-dasharray:5,5;" x1="553.6816" x2="553.6816" y1="121.2188" y2="323.3281"/></g><g class="participant participant-head" data-participant="StudentActor"><text fill="#000000" font-family="sans-serif" font-size="14" lengthAdjust="spacing" textLength="28" x="5" y="118.1426">&#23398;&#29983;</text><ellipse cx="22" cy="52.1094" fill="#E2E2F0" rx="8" ry="8" style="stroke:#181818;stroke-width:0.5;"/><path d="M22,60.1094 L22,87.1094 M9,68.1094 L35,68.1094 M22,87.1094 L9,102.1094 M22,87.1094 L35,102.1094" fill="none" style="stroke:#181818;stroke-width:0.5;"/></g><g class="participant participant-tail" data-participant="StudentActor"><text fill="#000000" font-family="sans-serif" font-size="14" lengthAdjust="spacing" textLength="28" x="5" y="336.8613">&#23398;&#29983;</text><ellipse cx="22" cy="348.4375" fill="#E2E2F0" rx="8" ry="8" style="stroke:#181818;stroke-width:0.5;"/><path d="M22,356.4375 L22,383.4375 M9,364.4375 L35,364.4375 M22,383.4375 L9,398.4375 M22,383.4375 L35,398.4375" fill="none" style="stroke:#181818;stroke-width:0.5;"/></g><g class="participant participant-head" data-participant="WaitForm"><text fill="#000000" font-family="sans-serif" font-size="14" lengthAdjust="spacing" textLength="98" x="85" y="118.1426">&#20505;&#34917;&#30830;&#35748;&#23545;&#35805;&#26694;</text><path d="M116.5,75.6094 L116.5,99.6094 M116.5,87.6094 L133.5,87.6094" fill="none" style="stroke:#181818;stroke-width:0.5;"/><ellipse cx="145.5" cy="87.6094" fill="#E2E2F0" rx="12" ry="12" style="stroke:#181818;stroke-width:0.5;"/></g><g class="participant participant-tail" data-participant="WaitForm"><text fill="#000000" font-family="sans-serif" font-size="14" lengthAdjust="spacing" textLength="98" x="85" y="336.8613">&#20505;&#34917;&#30830;&#35748;&#23545;&#35805;&#26694;</text><path d="M116.5,343.9375 L116.5,367.9375 M116.5,355.9375 L133.5,355.9375" fill="none" style="stroke:#181818;stroke-width:0.5;"/><ellipse cx="145.5" cy="355.9375" fill="#E2E2F0" rx="12" ry="12" style="stroke:#181818;stroke-width:0.5;"/></g><g class="participant participant-head" data-participant="EnrollCtrl"><text fill="#000000" font-family="sans-serif" font-size="14" lengthAdjust="spacing" textLength="70" x="320.9771" y="118.1426">&#36873;&#35838;&#25511;&#21046;&#31867;</text><ellipse cx="358.9771" cy="87.6094" fill="#E2E2F0" rx="12" ry="12" style="stroke:#181818;stroke-width:0.5;"/><polygon fill="#181818" points="354.9771,75.6094,360.9771,70.6094,358.9771,75.6094,360.9771,80.6094,354.9771,75.6094" style="stroke:#181818;stroke-width:1;"/></g><g class="participant participant-tail" data-participant="EnrollCtrl"><text fill="#000000" font-family="sans-serif" font-size="14" lengthAdjust="spacing" textLength="70" x="320.9771" y="336.8613">&#36873;&#35838;&#25511;&#21046;&#31867;</text><ellipse cx="358.9771" cy="355.9375" fill="#E2E2F0" rx="12" ry="12" style="stroke:#181818;stroke-width:0.5;"/><polygon fill="#181818" points="354.9771,343.9375,360.9771,338.9375,358.9771,343.9375,360.9771,348.9375,354.9771,343.9375" style="stroke:#181818;stroke-width:1;"/></g><g class="participant participant-head" data-participant="WList"><text fill="#000000" font-family="sans-serif" font-size="14" lengthAdjust="spacing" textLength="45.1104" x="528.6816" y="118.1426">Waitlist</text><ellipse cx="554.2368" cy="87.6094" fill="#E2E2F0" rx="12" ry="12" style="stroke:#181818;stroke-width:0.5;"/><line style="stroke:#181818;stroke-width:0.5;" x1="542.2368" x2="566.2368" y1="101.6094" y2="101.6094"/></g><g class="participant participant-tail" data-participant="WList"><text fill="#000000" font-family="sans-serif" font-size="14" lengthAdjust="spacing" textLength="45.1104" x="528.6816" y="336.8613">Waitlist</text><ellipse cx="554.2368" cy="355.9375" fill="#E2E2F0" rx="12" ry="12" style="stroke:#181818;stroke-width:0.5;"/><line style="stroke:#181818;stroke-width:0.5;" x1="542.2368" x2="566.2368" y1="369.9375" y2="369.9375"/></g><g class="message" data-participant-1="StudentActor" data-participant-2="WaitForm"><polygon fill="#181818" points="125,149.5703,135,153.5703,125,157.5703,129,153.5703" style="stroke:#181818;stroke-width:1;"/><line style="stroke:#181818;stroke-width:1;" x1="22" x2="131" y1="153.5703" y2="153.5703"/><text fill="#000000" font-family="sans-serif" font-size="13" lengthAdjust="spacing" textLength="78" x="29" y="148.7139">&#30830;&#35748;&#21152;&#20837;&#20505;&#34917;</text></g><g class="message" data-participant-1="WaitForm" data-participant-2="EnrollCtrl"><polygon fill="#181818" points="346.9771,179.9219,356.9771,183.9219,346.9771,187.9219,350.9771,183.9219" style="stroke:#181818;stroke-width:1;"/><line style="stroke:#181818;stroke-width:1;" x1="137" x2="352.9771" y1="183.9219" y2="183.9219"/><text fill="#000000" font-family="sans-serif" font-size="13" lengthAdjust="spacing" textLength="197.9771" x="144" y="179.0654">addToWaitlist(studentId, courseId)</text></g><g class="message" data-participant-1="EnrollCtrl" data-participant-2="WList"><polygon fill="#181818" points="542.2368,210.2734,552.2368,214.2734,542.2368,218.2734,546.2368,214.2734" style="stroke:#181818;stroke-width:1;"/><line style="stroke:#181818;stroke-width:1;" x1="358.9771" x2="548.2368" y1="214.2734" y2="214.2734"/><text fill="#000000" font-family="sans-serif" font-size="13" lengthAdjust="spacing" textLength="171.2598" x="365.9771" y="209.417">addEntry(studentId, courseId)</text></g><g class="message" data-participant-1="WList" data-participant-2="EnrollCtrl"><polygon fill="#181818" points="369.9771,240.625,359.9771,244.625,369.9771,248.625,365.9771,244.625" style="stroke:#181818;stroke-width:1;"/><line style="stroke:#181818;stroke-width:1;stroke-dasharray:2,2;" x1="363.9771" x2="553.2368" y1="244.625" y2="244.625"/><text fill="#000000" font-family="sans-serif" font-size="13" lengthAdjust="spacing" textLength="44.8081" x="375.9771" y="239.7686">position</text></g><g class="message" data-participant-1="EnrollCtrl" data-participant-2="WaitForm"><polygon fill="#181818" points="148,270.9766,138,274.9766,148,278.9766,144,274.9766" style="stroke:#181818;stroke-width:1;"/><line style="stroke:#181818;stroke-width:1;stroke-dasharray:2,2;" x1="142" x2="357.9771" y1="274.9766" y2="274.9766"/><text fill="#000000" font-family="sans-serif" font-size="13" lengthAdjust="spacing" textLength="91" x="154" y="270.1201">&#25104;&#21151;&#21450;&#25490;&#38431;&#20301;&#32622;</text></g><g class="message" data-participant-1="WaitForm" data-participant-2="StudentActor"><polygon fill="#181818" points="33,301.3281,23,305.3281,33,309.3281,29,305.3281" style="stroke:#181818;stroke-width:1;"/><line style="stroke:#181818;stroke-width:1;" x1="27" x2="136" y1="305.3281" y2="305.3281"/><text fill="#000000" font-family="sans-serif" font-size="13" lengthAdjust="spacing" textLength="91" x="39" y="300.4717">&#25552;&#31034;&#24050;&#22312;&#20505;&#34917;&#20013;</text></g><!--SRC=[RO_DIiD058NtynH3LWe6N4eNWfGA1NSghcCcYq3Co6IowAuRfGRI155GL6AWLJTjq8K_aVPfUlFp5auIhOcukt3E-SuzNEU6XlVRwnij3Cuzd8oXVvs5O_1TS2-nZFCmXjY3cpb2Yiefmn9C7jABGCAAXNUvJJIJRnK2EgIsIHJM4uuIaORJR3g2w2EBxfBmj0mSA3hVfkm8gTJaZ1fOoljdMJHFXeymU4sVFqjNnnIIqURCG8AkSu4iWePkyOgo8ow4wkrOtbp2SGj_TzS6eQKgdBy5mgiGiaT_-2jM1UsIDQnIcrbQbwoYch_eAUghO4UiwFsVgLpotxPZQkbSfsQ3sNm-6VZW1E0voV0ylmeMCpUTJHl_DvQBWEUdenZUNk3sgLgxU9zy0G00]--></g></svg>