<svg xmlns="http://www.w3.org/2000/svg" xmlns:xlink="http://www.w3.org/1999/xlink" contentStyleType="text/css" data-diagram-type="CLASS" height="507px" preserveAspectRatio="none" style="width:282px;height:507px;background:#FFFFFF;" version="1.1" viewBox="0 0 282 507" width="282px" zoomAndPan="magnify"><title>UC08: &#21152;&#20837;&#20505;&#34917;&#21517;&#21333; - &#21442;&#19982;&#31867;&#22270; (VOPC)</title><defs/><g><g class="title" data-source-line="1"><text fill="#000000" font-family="sans-serif" font-size="14" font-weight="bold" lengthAdjust="spacing" textLength="254.0508" x="10" y="24.5332">UC08: &#21152;&#20837;&#20505;&#34917;&#21517;&#21333; - &#21442;&#19982;&#31867;&#22270; (VOPC)</text></g><!--class WaitlistConfirmDialog--><g class="entity" data-entity="WaitlistConfirmDialog" data-source-line="3" data-uid="ent0002" id="entity_WaitlistConfirmDialog"><rect fill="#F1F1F1" height="76.3125" rx="2.5" ry="2.5" style="stroke:#181818;stroke-width:0.5;" width="165.8066" x="60.9224" y="45.6094"/><ellipse cx="75.9224" cy="66.9609" fill="#ADD1B2" rx="11" ry="11" style="stroke:#181818;stroke-width:1;"/><path d="M78.688,62.8359 Q78.8442,62.6172 79.0317,62.5078 Q79.2192,62.3984 79.438,62.3984 Q79.813,62.3984 80.0474,62.6641 Q80.2817,62.9141 80.2817,63.5234 L80.2817,64.9766 Q80.2817,65.5859 80.0474,65.8516 Q79.813,66.1172 79.438,66.1172 Q79.0942,66.1172 78.8911,65.9141 Q78.688,65.7266 78.5786,65.2109 Q78.5317,64.8516 78.3442,64.6641 Q78.0161,64.2891 77.4067,64.0703 Q76.7974,63.8516 76.1724,63.8516 Q75.4067,63.8516 74.7661,64.1797 Q74.1411,64.5078 73.6411,65.2578 Q73.1567,66.0078 73.1567,67.0391 L73.1567,68.1328 Q73.1567,69.3672 74.0474,70.1953 Q74.938,71.0078 76.5317,71.0078 Q77.4692,71.0078 78.1255,70.7578 Q78.5161,70.6016 78.938,70.1641 Q79.2036,69.8984 79.3442,69.8203 Q79.5005,69.7422 79.7036,69.7422 Q80.0317,69.7422 80.2817,70.0078 Q80.5474,70.2578 80.5474,70.6016 Q80.5474,70.9453 80.2036,71.3516 Q79.7036,71.9297 78.9067,72.2578 Q77.8286,72.7109 76.5317,72.7109 Q75.0161,72.7109 73.813,72.0859 Q72.8286,71.5859 72.1411,70.5234 Q71.4536,69.4453 71.4536,68.1641 L71.4536,67.0078 Q71.4536,65.6797 72.063,64.5391 Q72.688,63.3828 73.7817,62.7734 Q74.8755,62.1484 76.1099,62.1484 Q76.8442,62.1484 77.4849,62.3203 Q78.1411,62.4766 78.688,62.8359 Z " fill="#000000"/><text fill="#000000" font-family="sans-serif" font-size="12" font-style="italic" lengthAdjust="spacing" textLength="63.3867" x="125.1323" y="63.0664">&#171;boundary&#187;</text><text fill="#000000" font-family="sans-serif" font-size="14" lengthAdjust="spacing" textLength="133.8066" x="89.9224" y="80.2363">WaitlistConfirmDialog</text><line style="stroke:#181818;stroke-width:0.5;" x1="61.9224" x2="225.729" y1="88.3125" y2="88.3125"/><line style="stroke:#181818;stroke-width:0.5;" x1="61.9224" x2="225.729" y1="96.3125" y2="96.3125"/><ellipse cx="71.9224" cy="110.6172" fill="#84BE84" rx="3" ry="3" style="stroke:#038048;stroke-width:1;"/><text fill="#000000" font-family="sans-serif" font-size="14" lengthAdjust="spacing" textLength="114.3857" x="80.9224" y="114.8457">showPosition(pos)</text></g><!--class EnrollmentController--><g class="entity" data-entity="EnrollmentController" data-source-line="7" data-uid="ent0003" id="entity_EnrollmentController"><rect fill="#F1F1F1" height="76.3125" rx="2.5" ry="2.5" style="stroke:#181818;stroke-width:0.5;" width="239.2061" x="24.4224" y="199.6094"/><ellipse cx="75.9722" cy="220.9609" fill="#ADD1B2" rx="11" ry="11" style="stroke:#181818;stroke-width:1;"/><path d="M78.7378,216.8359 Q78.894,216.6172 79.0815,216.5078 Q79.269,216.3984 79.4878,216.3984 Q79.8628,216.3984 80.0972,216.6641 Q80.3315,216.9141 80.3315,217.5234 L80.3315,218.9766 Q80.3315,219.5859 80.0972,219.8516 Q79.8628,220.1172 79.4878,220.1172 Q79.144,220.1172 78.9409,219.9141 Q78.7378,219.7266 78.6284,219.2109 Q78.5815,218.8516 78.394,218.6641 Q78.0659,218.2891 77.4565,218.0703 Q76.8472,217.8516 76.2222,217.8516 Q75.4565,217.8516 74.8159,218.1797 Q74.1909,218.5078 73.6909,219.2578 Q73.2065,220.0078 73.2065,221.0391 L73.2065,222.1328 Q73.2065,223.3672 74.0972,224.1953 Q74.9878,225.0078 76.5815,225.0078 Q77.519,225.0078 78.1753,224.7578 Q78.5659,224.6016 78.9878,224.1641 Q79.2534,223.8984 79.394,223.8203 Q79.5503,223.7422 79.7534,223.7422 Q80.0815,223.7422 80.3315,224.0078 Q80.5972,224.2578 80.5972,224.6016 Q80.5972,224.9453 80.2534,225.3516 Q79.7534,225.9297 78.9565,226.2578 Q77.8784,226.7109 76.5815,226.7109 Q75.0659,226.7109 73.8628,226.0859 Q72.8784,225.5859 72.1909,224.5234 Q71.5034,223.4453 71.5034,222.1641 L71.5034,221.0078 Q71.5034,219.6797 72.1128,218.5391 Q72.7378,217.3828 73.8315,216.7734 Q74.9253,216.1484 76.1597,216.1484 Q76.894,216.1484 77.5347,216.3203 Q78.1909,216.4766 78.7378,216.8359 Z " fill="#000000"/><text fill="#000000" font-family="sans-serif" font-size="12" font-style="italic" lengthAdjust="spacing" textLength="49.3652" x="135.5928" y="217.0664">&#171;control&#187;</text><text fill="#000000" font-family="sans-serif" font-size="14" lengthAdjust="spacing" textLength="127.6064" x="96.4722" y="234.2363">EnrollmentController</text><line style="stroke:#181818;stroke-width:0.5;" x1="25.4224" x2="262.6284" y1="242.3125" y2="242.3125"/><line style="stroke:#181818;stroke-width:0.5;" x1="25.4224" x2="262.6284" y1="250.3125" y2="250.3125"/><ellipse cx="35.4224" cy="264.6172" fill="#84BE84" rx="3" ry="3" style="stroke:#038048;stroke-width:1;"/><text fill="#000000" font-family="sans-serif" font-size="14" lengthAdjust="spacing" textLength="213.2061" x="44.4224" y="268.8457">addToWaitlist(studentId, courseId)</text></g><!--class Waitlist--><g class="entity" data-entity="Waitlist" data-source-line="11" data-uid="ent0004" id="entity_Waitlist"><rect fill="#F1F1F1" height="146.75" rx="2.5" ry="2.5" style="stroke:#181818;stroke-width:0.5;" width="172.2686" x="57.9224" y="353.6094"/><ellipse cx="117.2515" cy="374.9609" fill="#ADD1B2" rx="11" ry="11" style="stroke:#181818;stroke-width:1;"/><path d="M120.0171,370.8359 Q120.1733,370.6172 120.3608,370.5078 Q120.5483,370.3984 120.7671,370.3984 Q121.1421,370.3984 121.3765,370.6641 Q121.6108,370.9141 121.6108,371.5234 L121.6108,372.9766 Q121.6108,373.5859 121.3765,373.8516 Q121.1421,374.1172 120.7671,374.1172 Q120.4233,374.1172 120.2202,373.9141 Q120.0171,373.7266 119.9077,373.2109 Q119.8608,372.8516 119.6733,372.6641 Q119.3452,372.2891 118.7358,372.0703 Q118.1265,371.8516 117.5015,371.8516 Q116.7358,371.8516 116.0952,372.1797 Q115.4702,372.5078 114.9702,373.2578 Q114.4858,374.0078 114.4858,375.0391 L114.4858,376.1328 Q114.4858,377.3672 115.3765,378.1953 Q116.2671,379.0078 117.8608,379.0078 Q118.7983,379.0078 119.4546,378.7578 Q119.8452,378.6016 120.2671,378.1641 Q120.5327,377.8984 120.6733,377.8203 Q120.8296,377.7422 121.0327,377.7422 Q121.3608,377.7422 121.6108,378.0078 Q121.8765,378.2578 121.8765,378.6016 Q121.8765,378.9453 121.5327,379.3516 Q121.0327,379.9297 120.2358,380.2578 Q119.1577,380.7109 117.8608,380.7109 Q116.3452,380.7109 115.1421,380.0859 Q114.1577,379.5859 113.4702,378.5234 Q112.7827,377.4453 112.7827,376.1641 L112.7827,375.0078 Q112.7827,373.6797 113.3921,372.5391 Q114.0171,371.3828 115.1108,370.7734 Q116.2046,370.1484 117.439,370.1484 Q118.1733,370.1484 118.814,370.3203 Q119.4702,370.4766 120.0171,370.8359 Z " fill="#000000"/><text fill="#000000" font-family="sans-serif" font-size="12" font-style="italic" lengthAdjust="spacing" textLength="42.0293" x="139.292" y="371.0664">&#171;entity&#187;</text><text fill="#000000" font-family="sans-serif" font-size="14" lengthAdjust="spacing" textLength="45.1104" x="137.7515" y="388.2363">Waitlist</text><line style="stroke:#181818;stroke-width:0.5;" x1="58.9224" x2="229.1909" y1="396.3125" y2="396.3125"/><rect fill="none" height="6" style="stroke:#C82930;stroke-width:1;" width="6" x="65.9224" y="407.6172"/><text fill="#000000" font-family="sans-serif" font-size="14" lengthAdjust="spacing" textLength="101.9512" x="77.9224" y="414.8457">studentId: String</text><rect fill="none" height="6" style="stroke:#C82930;stroke-width:1;" width="6" x="65.9224" y="425.2266"/><text fill="#000000" font-family="sans-serif" font-size="14" lengthAdjust="spacing" textLength="98.0479" x="77.9224" y="432.4551">courseId: String</text><rect fill="none" height="6" style="stroke:#C82930;stroke-width:1;" width="6" x="65.9224" y="442.8359"/><text fill="#000000" font-family="sans-serif" font-size="14" lengthAdjust="spacing" textLength="70.8203" x="77.9224" y="450.0645">position: int</text><rect fill="none" height="6" style="stroke:#C82930;stroke-width:1;" width="6" x="65.9224" y="460.4453"/><text fill="#000000" font-family="sans-serif" font-size="14" lengthAdjust="spacing" textLength="146.2686" x="77.9224" y="467.6738">requestTime: DateTime</text><line style="stroke:#181818;stroke-width:0.5;" x1="58.9224" x2="229.1909" y1="474.75" y2="474.75"/><ellipse cx="68.9224" cy="489.0547" fill="#84BE84" rx="3" ry="3" style="stroke:#038048;stroke-width:1;"/><text fill="#000000" font-family="sans-serif" font-size="14" lengthAdjust="spacing" textLength="139.2822" x="77.9224" y="493.2832">addEntry(sid, cid): pos</text></g><!--link WaitlistConfirmDialog to EnrollmentController--><g class="link" data-entity-1="WaitlistConfirmDialog" data-entity-2="EnrollmentController" data-source-line="19" data-uid="lnk5" id="link_WaitlistConfirmDialog_EnrollmentController"><path codeLine="19" d="M143.9224,121.7894 C143.9224,145.4394 143.9224,169.9294 143.9224,193.5494" fill="none" id="WaitlistConfirmDialog-to-EnrollmentController" style="stroke:#181818;stroke-width:1;stroke-dasharray:7,7;"/><polygon fill="#181818" points="143.9224,199.5494,147.9224,190.5494,143.9224,194.5494,139.9224,190.5494,143.9224,199.5494" style="stroke:#181818;stroke-width:1;"/><text fill="#000000" font-family="sans-serif" font-size="13" lengthAdjust="spacing" textLength="27.46" x="144.9224" y="166.1045">uses</text></g><!--link EnrollmentController to Waitlist--><g class="link" data-entity-1="EnrollmentController" data-entity-2="Waitlist" data-source-line="20" data-uid="lnk6" id="link_EnrollmentController_Waitlist"><path codeLine="20" d="M143.9224,275.6494 C143.9224,297.8494 143.9224,320.8494 143.9224,347.4494" fill="none" id="EnrollmentController-to-Waitlist" style="stroke:#181818;stroke-width:1;stroke-dasharray:7,7;"/><polygon fill="#181818" points="143.9224,353.4494,147.9224,344.4494,143.9224,348.4494,139.9224,344.4494,143.9224,353.4494" style="stroke:#181818;stroke-width:1;"/><text fill="#000000" font-family="sans-serif" font-size="13" lengthAdjust="spacing" textLength="42.6309" x="144.9224" y="320.1045">creates</text></g><!--SRC=[RP0nImCn5CVt-nHll4DR72MKMwuTEbcmwXmliJwuIsfU3YaYYE0YL5qSn4M7VW0tGUYdCUZ7CA5tRP7BzFBo_h_y4eksa72KxUqpSFTlxcxXRbv-tnVkQUxcpz01ztZx_Vdmy_7bNfSG7n-CiYIAye8JmGdtOIIRQNM6fkmZB_G4UhrJNId1pInDuIe2ltQ0plNbI1DQr2gUQagYwuOoK4ONHIbLuDXGI-CX-MgpnU12Z7LpPqos4Zup5BkGwygG78ejQ3FcGNu8xSQb0-iaWqDhK4tgVeFvrvxMsWnGsRfdv4KboOwnb0pwtCfGRJG7NdqM4mOt50aBZE3M_c7TRjh-2GmgaXIrdeNG-f4CSYEz1Vq1]--></g></svg>