<svg xmlns="http://www.w3.org/2000/svg" xmlns:xlink="http://www.w3.org/1999/xlink" contentStyleType="text/css" data-diagram-type="SEQUENCE" height="437px" preserveAspectRatio="none" style="width:657px;height:437px;background:#FFFFFF;" version="1.1" viewBox="0 0 657 437" width="657px" zoomAndPan="magnify"><title>UC09: &#24405;&#20837;&#25104;&#32489; - &#39034;&#24207;&#22270;</title><defs/><g><text fill="#000000" font-family="sans-serif" font-size="14" font-weight="bold" lengthAdjust="spacing" textLength="157.8486" x="251.3645" y="29.5332">UC09: &#24405;&#20837;&#25104;&#32489; - &#39034;&#24207;&#22270;</text><rect fill="none" height="79.0547" style="stroke:#000000;stroke-width:1.5;" width="291.5776" x="360" y="198.9219"/><g><title>..</title><rect fill="#000000" fill-opacity="0.00000" height="234.4609" width="8" x="18" y="121.2188"/><line style="stroke:#181818;stroke-width:0.5;stroke-dasharray:5,5;" x1="22" x2="22" y1="121.2188" y2="355.6797"/></g><g><title>......</title><rect fill="#000000" fill-opacity="0.00000" height="234.4609" width="8" x="185" y="121.2188"/><line style="stroke:#181818;stroke-width:0.5;stroke-dasharray:5,5;" x1="189" x2="189" y1="121.2188" y2="355.6797"/></g><g><title>.....</title><rect fill="#000000" fill-opacity="0.00000" height="234.4609" width="8" x="404" y="121.2188"/><line style="stroke:#181818;stroke-width:0.5;stroke-dasharray:5,5;" x1="408" x2="408" y1="121.2188" y2="355.6797"/></g><g><title>Grade</title><rect fill="#000000" fill-opacity="0.00000" height="234.4609" width="8" x="615.1226" y="121.2188"/><line style="stroke:#181818;stroke-width:0.5;stroke-dasharray:5,5;" x1="618.6675" x2="618.6675" y1="121.2188" y2="355.6797"/></g><g class="participant participant-head" data-participant="Teacher"><text fill="#000000" font-family="sans-serif" font-size="14" lengthAdjust="spacing" textLength="28" x="5" y="118.1426">&#25945;&#24072;</text><ellipse cx="22" cy="52.1094" fill="#E2E2F0" rx="8" ry="8" style="stroke:#181818;stroke-width:0.5;"/><path d="M22,60.1094 L22,87.1094 M9,68.1094 L35,68.1094 M22,87.1094 L9,102.1094 M22,87.1094 L35,102.1094" fill="none" style="stroke:#181818;stroke-width:0.5;"/></g><g class="participant participant-tail" data-participant="Teacher"><text fill="#000000" font-family="sans-serif" font-size="14" lengthAdjust="spacing" textLength="28" x="5" y="369.2129">&#25945;&#24072;</text><ellipse cx="22" cy="380.7891" fill="#E2E2F0" rx="8" ry="8" style="stroke:#181818;stroke-width:0.5;"/><path d="M22,388.7891 L22,415.7891 M9,396.7891 L35,396.7891 M22,415.7891 L9,430.7891 M22,415.7891 L35,430.7891" fill="none" style="stroke:#181818;stroke-width:0.5;"/></g><g class="participant participant-head" data-participant="EntryForm"><text fill="#000000" font-family="sans-serif" font-size="14" lengthAdjust="spacing" textLength="84" x="144" y="118.1426">&#25104;&#32489;&#24405;&#20837;&#30028;&#38754;</text><path d="M168.5,75.6094 L168.5,99.6094 M168.5,87.6094 L185.5,87.6094" fill="none" style="stroke:#181818;stroke-width:0.5;"/><ellipse cx="197.5" cy="87.6094" fill="#E2E2F0" rx="12" ry="12" style="stroke:#181818;stroke-width:0.5;"/></g><g class="participant participant-tail" data-participant="EntryForm"><text fill="#000000" font-family="sans-serif" font-size="14" lengthAdjust="spacing" textLength="84" x="144" y="369.2129">&#25104;&#32489;&#24405;&#20837;&#30028;&#38754;</text><path d="M168.5,376.2891 L168.5,400.2891 M168.5,388.2891 L185.5,388.2891" fill="none" style="stroke:#181818;stroke-width:0.5;"/><ellipse cx="197.5" cy="388.2891" fill="#E2E2F0" rx="12" ry="12" style="stroke:#181818;stroke-width:0.5;"/></g><g class="participant participant-head" data-participant="GradeCtrl"><text fill="#000000" font-family="sans-serif" font-size="14" lengthAdjust="spacing" textLength="70" x="370" y="118.1426">&#25104;&#32489;&#25511;&#21046;&#31867;</text><ellipse cx="408" cy="87.6094" fill="#E2E2F0" rx="12" ry="12" style="stroke:#181818;stroke-width:0.5;"/><polygon fill="#181818" points="404,75.6094,410,70.6094,408,75.6094,410,80.6094,404,75.6094" style="stroke:#181818;stroke-width:1;"/></g><g class="participant participant-tail" data-participant="GradeCtrl"><text fill="#000000" font-family="sans-serif" font-size="14" lengthAdjust="spacing" textLength="70" x="370" y="369.2129">&#25104;&#32489;&#25511;&#21046;&#31867;</text><ellipse cx="408" cy="388.2891" fill="#E2E2F0" rx="12" ry="12" style="stroke:#181818;stroke-width:0.5;"/><polygon fill="#181818" points="404,376.2891,410,371.2891,408,376.2891,410,381.2891,404,376.2891" style="stroke:#181818;stroke-width:1;"/></g><g class="participant participant-head" data-participant="Grade"><text fill="#000000" font-family="sans-serif" font-size="14" lengthAdjust="spacing" textLength="38.9102" x="596.6675" y="118.1426">Grade</text><ellipse cx="619.1226" cy="87.6094" fill="#E2E2F0" rx="12" ry="12" style="stroke:#181818;stroke-width:0.5;"/><line style="stroke:#181818;stroke-width:0.5;" x1="607.1226" x2="631.1226" y1="101.6094" y2="101.6094"/></g><g class="participant participant-tail" data-participant="Grade"><text fill="#000000" font-family="sans-serif" font-size="14" lengthAdjust="spacing" textLength="38.9102" x="596.6675" y="369.2129">Grade</text><ellipse cx="619.1226" cy="388.2891" fill="#E2E2F0" rx="12" ry="12" style="stroke:#181818;stroke-width:0.5;"/><line style="stroke:#181818;stroke-width:0.5;" x1="607.1226" x2="631.1226" y1="402.2891" y2="402.2891"/></g><g class="message" data-participant-1="Teacher" data-participant-2="EntryForm"><polygon fill="#181818" points="177,149.5703,187,153.5703,177,157.5703,181,153.5703" style="stroke:#181818;stroke-width:1;"/><line style="stroke:#181818;stroke-width:1;" x1="22" x2="183" y1="153.5703" y2="153.5703"/><text fill="#000000" font-family="sans-serif" font-size="13" lengthAdjust="spacing" textLength="143" x="29" y="148.7139">&#36873;&#25321;&#35838;&#31243;&#24182;&#24405;&#20837;&#23398;&#29983;&#20998;&#25968;</text></g><g class="message" data-participant-1="EntryForm" data-participant-2="GradeCtrl"><polygon fill="#181818" points="396,179.9219,406,183.9219,396,187.9219,400,183.9219" style="stroke:#181818;stroke-width:1;"/><line style="stroke:#181818;stroke-width:1;" x1="189" x2="402" y1="183.9219" y2="183.9219"/><text fill="#000000" font-family="sans-serif" font-size="13" lengthAdjust="spacing" textLength="161.8525" x="196" y="179.0654">saveGrades(studentScores)</text></g><path d="M360,198.9219 L432.4346,198.9219 L432.4346,207.2734 L422.4346,217.2734 L360,217.2734 L360,198.9219" fill="#EEEEEE" style="stroke:#000000;stroke-width:1.5;"/><rect fill="none" height="79.0547" style="stroke:#000000;stroke-width:1.5;" width="291.5776" x="360" y="198.9219"/><text fill="#000000" font-family="sans-serif" font-size="13" font-weight="bold" lengthAdjust="spacing" textLength="27.4346" x="375" y="213.417">loop</text><text fill="#000000" font-family="sans-serif" font-size="11" font-weight="bold" lengthAdjust="spacing" textLength="64.0449" x="447.4346" y="212.3408">[&#20026;&#27599;&#20010;&#23398;&#29983;]</text><g class="message" data-participant-1="GradeCtrl" data-participant-2="Grade"><polygon fill="#181818" points="607.1226,235.625,617.1226,239.625,607.1226,243.625,611.1226,239.625" style="stroke:#181818;stroke-width:1;"/><line style="stroke:#181818;stroke-width:1;" x1="408" x2="613.1226" y1="239.625" y2="239.625"/><text fill="#000000" font-family="sans-serif" font-size="13" lengthAdjust="spacing" textLength="187.1226" x="415" y="234.7686">createOrUpdate(sid, cid, scores)</text></g><g class="message" data-participant-1="Grade" data-participant-2="GradeCtrl"><polygon fill="#181818" points="419,265.9766,409,269.9766,419,273.9766,415,269.9766" style="stroke:#181818;stroke-width:1;"/><line style="stroke:#181818;stroke-width:1;stroke-dasharray:2,2;" x1="413" x2="618.1226" y1="269.9766" y2="269.9766"/><text fill="#000000" font-family="sans-serif" font-size="13" lengthAdjust="spacing" textLength="46.96" x="425" y="265.1201">success</text></g><g class="message" data-participant-1="GradeCtrl" data-participant-2="EntryForm"><polygon fill="#181818" points="200,303.3281,190,307.3281,200,311.3281,196,307.3281" style="stroke:#181818;stroke-width:1;"/><line style="stroke:#181818;stroke-width:1;stroke-dasharray:2,2;" x1="194" x2="407" y1="307.3281" y2="307.3281"/><text fill="#000000" font-family="sans-serif" font-size="13" lengthAdjust="spacing" textLength="195" x="206" y="302.4717">&#36820;&#22238;&#35745;&#31639;&#21518;&#30340;&#24635;&#35780;&#21450;&#20445;&#23384;&#25104;&#21151;&#25552;&#31034;</text></g><g class="message" data-participant-1="EntryForm" data-participant-2="Teacher"><polygon fill="#181818" points="33,333.6797,23,337.6797,33,341.6797,29,337.6797" style="stroke:#181818;stroke-width:1;"/><line style="stroke:#181818;stroke-width:1;" x1="27" x2="188" y1="337.6797" y2="337.6797"/><text fill="#000000" font-family="sans-serif" font-size="13" lengthAdjust="spacing" textLength="78" x="39" y="332.8232">&#26174;&#31034;&#24405;&#20837;&#25104;&#21151;</text></g><!--SRC=[NP7BJW8n58RtVOg65IQIk9M56w8kNIWFK3jD91afQOi9EnPeHZ0C2oQY10d66oQ0RWWE4Lw6jiDRM8VBA5tqTlx_E-Uq8YDi0jEfdTqabD-Ul7nMJasFkp01vnrV-gviJW10M506OygxaoCd1X679mJXCyB0ASrdBSGA9XZw5WpjtSnRZw5mFojOuO2oSu2fsL9xfLJLL-aCzUSub1qoP96KO3OWMP4HXXVUH340bYbXOY-2mYIS5wzLfHiC9lgj8h-6Ym9axqNNszAvKju7YDJ6kavah1nTaF3CurpaBPFv65D6-1QmASt1sSXN0tSsUb_G03GZigzOXeCPGO8SiNJECckSPwnjY7ydliIjdJ2nMK8UOyAvwTe2VzWRFGRJkcm-1FsExj_AMbNVbrHn70nAqYtFfYtPQvWdbUMsSclwoV_Vx-hLab0r9YQw_cIZ_m40]--></g></svg>