<svg xmlns="http://www.w3.org/2000/svg" xmlns:xlink="http://www.w3.org/1999/xlink" contentStyleType="text/css" data-diagram-type="CLASS" height="525px" preserveAspectRatio="none" style="width:253px;height:525px;background:#FFFFFF;" version="1.1" viewBox="0 0 253 525" width="253px" zoomAndPan="magnify"><title>UC09: &#24405;&#20837;&#25104;&#32489; - &#21442;&#19982;&#31867;&#22270; (VOPC)</title><defs/><g><g class="title" data-source-line="1"><text fill="#000000" font-family="sans-serif" font-size="14" font-weight="bold" lengthAdjust="spacing" textLength="225.1758" x="10" y="24.5332">UC09: &#24405;&#20837;&#25104;&#32489; - &#21442;&#19982;&#31867;&#22270; (VOPC)</text></g><!--class GradeEntryForm--><g class="entity" data-entity="GradeEntryForm" data-source-line="3" data-uid="ent0002" id="entity_GradeEntryForm"><rect fill="#F1F1F1" height="93.9219" rx="2.5" ry="2.5" style="stroke:#181818;stroke-width:0.5;" width="164.5166" x="47.3228" y="45.6094"/><ellipse cx="75.0436" cy="66.9609" fill="#ADD1B2" rx="11" ry="11" style="stroke:#181818;stroke-width:1;"/><path d="M77.8092,62.8359 Q77.9655,62.6172 78.153,62.5078 Q78.3405,62.3984 78.5592,62.3984 Q78.9342,62.3984 79.1686,62.6641 Q79.403,62.9141 79.403,63.5234 L79.403,64.9766 Q79.403,65.5859 79.1686,65.8516 Q78.9342,66.1172 78.5592,66.1172 Q78.2155,66.1172 78.0124,65.9141 Q77.8092,65.7266 77.6999,65.2109 Q77.653,64.8516 77.4655,64.6641 Q77.1374,64.2891 76.528,64.0703 Q75.9186,63.8516 75.2936,63.8516 Q74.528,63.8516 73.8874,64.1797 Q73.2624,64.5078 72.7624,65.2578 Q72.278,66.0078 72.278,67.0391 L72.278,68.1328 Q72.278,69.3672 73.1686,70.1953 Q74.0592,71.0078 75.653,71.0078 Q76.5905,71.0078 77.2467,70.7578 Q77.6374,70.6016 78.0592,70.1641 Q78.3249,69.8984 78.4655,69.8203 Q78.6217,69.7422 78.8249,69.7422 Q79.153,69.7422 79.403,70.0078 Q79.6686,70.2578 79.6686,70.6016 Q79.6686,70.9453 79.3249,71.3516 Q78.8249,71.9297 78.028,72.2578 Q76.9499,72.7109 75.653,72.7109 Q74.1374,72.7109 72.9342,72.0859 Q71.9499,71.5859 71.2624,70.5234 Q70.5749,69.4453 70.5749,68.1641 L70.5749,67.0078 Q70.5749,65.6797 71.1842,64.5391 Q71.8092,63.3828 72.903,62.7734 Q73.9967,62.1484 75.2311,62.1484 Q75.9655,62.1484 76.6061,62.3203 Q77.2624,62.4766 77.8092,62.8359 Z " fill="#000000"/><text fill="#000000" font-family="sans-serif" font-size="12" font-style="italic" lengthAdjust="spacing" textLength="63.3867" x="112.3011" y="63.0664">&#171;boundary&#187;</text><text fill="#000000" font-family="sans-serif" font-size="14" lengthAdjust="spacing" textLength="104.248" x="91.8705" y="80.2363">GradeEntryForm</text><line style="stroke:#181818;stroke-width:0.5;" x1="48.3228" x2="210.8394" y1="88.3125" y2="88.3125"/><line style="stroke:#181818;stroke-width:0.5;" x1="48.3228" x2="210.8394" y1="96.3125" y2="96.3125"/><ellipse cx="58.3228" cy="110.6172" fill="#84BE84" rx="3" ry="3" style="stroke:#038048;stroke-width:1;"/><text fill="#000000" font-family="sans-serif" font-size="14" lengthAdjust="spacing" textLength="120.6201" x="67.3228" y="114.8457">getStudentScores()</text><ellipse cx="58.3228" cy="128.2266" fill="#84BE84" rx="3" ry="3" style="stroke:#038048;stroke-width:1;"/><text fill="#000000" font-family="sans-serif" font-size="14" lengthAdjust="spacing" textLength="138.5166" x="67.3228" y="132.4551">showCalculation(data)</text></g><!--class GradeController--><g class="entity" data-entity="GradeController" data-source-line="8" data-uid="ent0003" id="entity_GradeController"><rect fill="#F1F1F1" height="93.9219" rx="2.5" ry="2.5" style="stroke:#181818;stroke-width:0.5;" width="176.1582" x="41.8228" y="217.6094"/><ellipse cx="76.8741" cy="238.9609" fill="#ADD1B2" rx="11" ry="11" style="stroke:#181818;stroke-width:1;"/><path d="M79.6397,234.8359 Q79.796,234.6172 79.9835,234.5078 Q80.171,234.3984 80.3897,234.3984 Q80.7647,234.3984 80.9991,234.6641 Q81.2335,234.9141 81.2335,235.5234 L81.2335,236.9766 Q81.2335,237.5859 80.9991,237.8516 Q80.7647,238.1172 80.3897,238.1172 Q80.046,238.1172 79.8429,237.9141 Q79.6397,237.7266 79.5304,237.2109 Q79.4835,236.8516 79.296,236.6641 Q78.9679,236.2891 78.3585,236.0703 Q77.7491,235.8516 77.1241,235.8516 Q76.3585,235.8516 75.7179,236.1797 Q75.0929,236.5078 74.5929,237.2578 Q74.1085,238.0078 74.1085,239.0391 L74.1085,240.1328 Q74.1085,241.3672 74.9991,242.1953 Q75.8897,243.0078 77.4835,243.0078 Q78.421,243.0078 79.0772,242.7578 Q79.4679,242.6016 79.8897,242.1641 Q80.1554,241.8984 80.296,241.8203 Q80.4522,241.7422 80.6554,241.7422 Q80.9835,241.7422 81.2335,242.0078 Q81.4991,242.2578 81.4991,242.6016 Q81.4991,242.9453 81.1554,243.3516 Q80.6554,243.9297 79.8585,244.2578 Q78.7804,244.7109 77.4835,244.7109 Q75.9679,244.7109 74.7647,244.0859 Q73.7804,243.5859 73.0929,242.5234 Q72.4054,241.4453 72.4054,240.1641 L72.4054,239.0078 Q72.4054,237.6797 73.0147,236.5391 Q73.6397,235.3828 74.7335,234.7734 Q75.8272,234.1484 77.0616,234.1484 Q77.796,234.1484 78.4366,234.3203 Q79.0929,234.4766 79.6397,234.8359 Z " fill="#000000"/><text fill="#000000" font-family="sans-serif" font-size="12" font-style="italic" lengthAdjust="spacing" textLength="49.3652" x="120.4472" y="235.0664">&#171;control&#187;</text><text fill="#000000" font-family="sans-serif" font-size="14" lengthAdjust="spacing" textLength="99.5996" x="95.33" y="252.2363">GradeController</text><line style="stroke:#181818;stroke-width:0.5;" x1="42.8228" x2="216.981" y1="260.3125" y2="260.3125"/><line style="stroke:#181818;stroke-width:0.5;" x1="42.8228" x2="216.981" y1="268.3125" y2="268.3125"/><ellipse cx="52.8228" cy="282.6172" fill="#84BE84" rx="3" ry="3" style="stroke:#038048;stroke-width:1;"/><text fill="#000000" font-family="sans-serif" font-size="14" lengthAdjust="spacing" textLength="101.917" x="61.8228" y="286.8457">saveGrades(list)</text><rect fill="#F24D5C" height="6" style="stroke:#C82930;stroke-width:1;" width="6" x="49.8228" y="297.2266"/><text fill="#000000" font-family="sans-serif" font-size="14" lengthAdjust="spacing" textLength="150.1582" x="61.8228" y="304.4551">calculateOverall(scores)</text></g><!--class Grade--><g class="entity" data-entity="Grade" data-source-line="13" data-uid="ent0004" id="entity_Grade"><rect fill="#F1F1F1" height="129.1406" rx="2.5" ry="2.5" style="stroke:#181818;stroke-width:0.5;" width="213.5303" x="22.8228" y="389.6094"/><ellipse cx="105.8828" cy="410.9609" fill="#ADD1B2" rx="11" ry="11" style="stroke:#181818;stroke-width:1;"/><path d="M108.6484,406.8359 Q108.8047,406.6172 108.9922,406.5078 Q109.1797,406.3984 109.3984,406.3984 Q109.7734,406.3984 110.0078,406.6641 Q110.2422,406.9141 110.2422,407.5234 L110.2422,408.9766 Q110.2422,409.5859 110.0078,409.8516 Q109.7734,410.1172 109.3984,410.1172 Q109.0547,410.1172 108.8516,409.9141 Q108.6484,409.7266 108.5391,409.2109 Q108.4922,408.8516 108.3047,408.6641 Q107.9766,408.2891 107.3672,408.0703 Q106.7578,407.8516 106.1328,407.8516 Q105.3672,407.8516 104.7266,408.1797 Q104.1016,408.5078 103.6016,409.2578 Q103.1172,410.0078 103.1172,411.0391 L103.1172,412.1328 Q103.1172,413.3672 104.0078,414.1953 Q104.8984,415.0078 106.4922,415.0078 Q107.4297,415.0078 108.0859,414.7578 Q108.4766,414.6016 108.8984,414.1641 Q109.1641,413.8984 109.3047,413.8203 Q109.4609,413.7422 109.6641,413.7422 Q109.9922,413.7422 110.2422,414.0078 Q110.5078,414.2578 110.5078,414.6016 Q110.5078,414.9453 110.1641,415.3516 Q109.6641,415.9297 108.8672,416.2578 Q107.7891,416.7109 106.4922,416.7109 Q104.9766,416.7109 103.7734,416.0859 Q102.7891,415.5859 102.1016,414.5234 Q101.4141,413.4453 101.4141,412.1641 L101.4141,411.0078 Q101.4141,409.6797 102.0234,408.5391 Q102.6484,407.3828 103.7422,406.7734 Q104.8359,406.1484 106.0703,406.1484 Q106.8047,406.1484 107.4453,406.3203 Q108.1016,406.4766 108.6484,406.8359 Z " fill="#000000"/><text fill="#000000" font-family="sans-serif" font-size="12" font-style="italic" lengthAdjust="spacing" textLength="42.0293" x="124.8232" y="407.0664">&#171;entity&#187;</text><text fill="#000000" font-family="sans-serif" font-size="14" lengthAdjust="spacing" textLength="38.9102" x="126.3828" y="424.2363">Grade</text><line style="stroke:#181818;stroke-width:0.5;" x1="23.8228" x2="235.353" y1="432.3125" y2="432.3125"/><rect fill="none" height="6" style="stroke:#C82930;stroke-width:1;" width="6" x="30.8228" y="443.6172"/><text fill="#000000" font-family="sans-serif" font-size="14" lengthAdjust="spacing" textLength="114.3926" x="42.8228" y="450.8457">regularScore: float</text><rect fill="none" height="6" style="stroke:#C82930;stroke-width:1;" width="6" x="30.8228" y="461.2266"/><text fill="#000000" font-family="sans-serif" font-size="14" lengthAdjust="spacing" textLength="105.0479" x="42.8228" y="468.4551">examScore: float</text><rect fill="none" height="6" style="stroke:#C82930;stroke-width:1;" width="6" x="30.8228" y="478.8359"/><text fill="#000000" font-family="sans-serif" font-size="14" lengthAdjust="spacing" textLength="112.0547" x="42.8228" y="486.0645">overallScore: float</text><line style="stroke:#181818;stroke-width:0.5;" x1="23.8228" x2="235.353" y1="493.1406" y2="493.1406"/><ellipse cx="33.8228" cy="507.4453" fill="#84BE84" rx="3" ry="3" style="stroke:#038048;stroke-width:1;"/><text fill="#000000" font-family="sans-serif" font-size="14" lengthAdjust="spacing" textLength="187.5303" x="42.8228" y="511.6738">createOrUpdate(sid, cid, data)</text></g><!--link GradeEntryForm to GradeController--><g class="link" data-entity-1="GradeEntryForm" data-entity-2="GradeController" data-source-line="20" data-uid="lnk5" id="link_GradeEntryForm_GradeController"><path codeLine="20" d="M129.8228,139.6094 C129.8228,163.7994 129.8228,187.3694 129.8228,211.5694" fill="none" id="GradeEntryForm-to-GradeController" style="stroke:#181818;stroke-width:1;stroke-dasharray:7,7;"/><polygon fill="#181818" points="129.8228,217.5694,133.8228,208.5694,129.8228,212.5694,125.8228,208.5694,129.8228,217.5694" style="stroke:#181818;stroke-width:1;"/><text fill="#000000" font-family="sans-serif" font-size="13" lengthAdjust="spacing" textLength="27.46" x="130.8228" y="184.1045">uses</text></g><!--link GradeController to Grade--><g class="link" data-entity-1="GradeController" data-entity-2="Grade" data-source-line="21" data-uid="lnk6" id="link_GradeController_Grade"><path codeLine="21" d="M129.8228,311.9594 C129.8228,335.2694 129.8228,357.8994 129.8228,383.2594" fill="none" id="GradeController-to-Grade" style="stroke:#181818;stroke-width:1;stroke-dasharray:7,7;"/><polygon fill="#181818" points="129.8228,389.2594,133.8228,380.2594,129.8228,384.2594,125.8228,380.2594,129.8228,389.2594" style="stroke:#181818;stroke-width:1;"/><text fill="#000000" font-family="sans-serif" font-size="13" lengthAdjust="spacing" textLength="55.6372" x="130.8228" y="356.1045">maintains</text></g><!--SRC=[RP2nJiCm48RtFCMDYKehLg8gImICHQhAVZX7iUJ4o7SfL8W52Oa9M9YO6HZPa2fu6jA-1cuI5KYnP4k-__pT_rkq6899khiNG_NnLDs-BEyULujNw4FrSFFrVhzwMrJFdn0UZuxIA0YKGMOuT9ZHVY5kVc1T3iFXYIsB3DqyIU0g0BzwC2KPIvbH8MDb7N4OjGAVsOiKZIeDYhP5cA5W55p_OQVMmwqnv3nSDPTVRCOPrNqS6itIaFkWMYgDPkJGc93hoLsuHtfNMdxSzi7HrBzqjTKOJer5QHMwnFoVicr6R2azK8xM5jpat2UZa7Ms0sfzR89slcymIBPInr0oST0jRrfzGuww4B_v6m00]--></g></svg>