<svg xmlns="http://www.w3.org/2000/svg" xmlns:xlink="http://www.w3.org/1999/xlink" contentStyleType="text/css" data-diagram-type="SEQUENCE" height="466px" preserveAspectRatio="none" style="width:556px;height:466px;background:#FFFFFF;" version="1.1" viewBox="0 0 556 466" width="556px" zoomAndPan="magnify"><title>UC10: &#20462;&#25913;&#25104;&#32489; - &#39034;&#24207;&#22270;</title><defs/><g><text fill="#000000" font-family="sans-serif" font-size="14" font-weight="bold" lengthAdjust="spacing" textLength="157.8486" x="200.9512" y="29.5332">UC10: &#20462;&#25913;&#25104;&#32489; - &#39034;&#24207;&#22270;</text><g><title>..</title><rect fill="#000000" fill-opacity="0.00000" height="262.8125" width="8" x="18" y="121.2188"/><line style="stroke:#181818;stroke-width:0.5;stroke-dasharray:5,5;" x1="22" x2="22" y1="121.2188" y2="384.0313"/></g><g><title>......</title><rect fill="#000000" fill-opacity="0.00000" height="262.8125" width="8" x="159" y="121.2188"/><line style="stroke:#181818;stroke-width:0.5;stroke-dasharray:5,5;" x1="163" x2="163" y1="121.2188" y2="384.0313"/></g><g><title>.....</title><rect fill="#000000" fill-opacity="0.00000" height="262.8125" width="8" x="392.5679" y="121.2188"/><line style="stroke:#181818;stroke-width:0.5;stroke-dasharray:5,5;" x1="396.5679" x2="396.5679" y1="121.2188" y2="384.0313"/></g><g><title>Grade</title><rect fill="#000000" fill-opacity="0.00000" height="262.8125" width="8" x="529.2959" y="121.2188"/><line style="stroke:#181818;stroke-width:0.5;stroke-dasharray:5,5;" x1="532.8408" x2="532.8408" y1="121.2188" y2="384.0313"/></g><g class="participant participant-head" data-participant="Teacher"><text fill="#000000" font-family="sans-serif" font-size="14" lengthAdjust="spacing" textLength="28" x="5" y="118.1426">&#25945;&#24072;</text><ellipse cx="22" cy="52.1094" fill="#E2E2F0" rx="8" ry="8" style="stroke:#181818;stroke-width:0.5;"/><path d="M22,60.1094 L22,87.1094 M9,68.1094 L35,68.1094 M22,87.1094 L9,102.1094 M22,87.1094 L35,102.1094" fill="none" style="stroke:#181818;stroke-width:0.5;"/></g><g class="participant participant-tail" data-participant="Teacher"><text fill="#000000" font-family="sans-serif" font-size="14" lengthAdjust="spacing" textLength="28" x="5" y="397.5645">&#25945;&#24072;</text><ellipse cx="22" cy="409.1406" fill="#E2E2F0" rx="8" ry="8" style="stroke:#181818;stroke-width:0.5;"/><path d="M22,417.1406 L22,444.1406 M9,425.1406 L35,425.1406 M22,444.1406 L9,459.1406 M22,444.1406 L35,459.1406" fill="none" style="stroke:#181818;stroke-width:0.5;"/></g><g class="participant participant-head" data-participant="EditForm"><text fill="#000000" font-family="sans-serif" font-size="14" lengthAdjust="spacing" textLength="84" x="118" y="118.1426">&#25104;&#32489;&#20462;&#25913;&#30028;&#38754;</text><path d="M142.5,75.6094 L142.5,99.6094 M142.5,87.6094 L159.5,87.6094" fill="none" style="stroke:#181818;stroke-width:0.5;"/><ellipse cx="171.5" cy="87.6094" fill="#E2E2F0" rx="12" ry="12" style="stroke:#181818;stroke-width:0.5;"/></g><g class="participant participant-tail" data-participant="EditForm"><text fill="#000000" font-family="sans-serif" font-size="14" lengthAdjust="spacing" textLength="84" x="118" y="397.5645">&#25104;&#32489;&#20462;&#25913;&#30028;&#38754;</text><path d="M142.5,404.6406 L142.5,428.6406 M142.5,416.6406 L159.5,416.6406" fill="none" style="stroke:#181818;stroke-width:0.5;"/><ellipse cx="171.5" cy="416.6406" fill="#E2E2F0" rx="12" ry="12" style="stroke:#181818;stroke-width:0.5;"/></g><g class="participant participant-head" data-participant="GradeCtrl"><text fill="#000000" font-family="sans-serif" font-size="14" lengthAdjust="spacing" textLength="70" x="358.5679" y="118.1426">&#25104;&#32489;&#25511;&#21046;&#31867;</text><ellipse cx="396.5679" cy="87.6094" fill="#E2E2F0" rx="12" ry="12" style="stroke:#181818;stroke-width:0.5;"/><polygon fill="#181818" points="392.5679,75.6094,398.5679,70.6094,396.5679,75.6094,398.5679,80.6094,392.5679,75.6094" style="stroke:#181818;stroke-width:1;"/></g><g class="participant participant-tail" data-participant="GradeCtrl"><text fill="#000000" font-family="sans-serif" font-size="14" lengthAdjust="spacing" textLength="70" x="358.5679" y="397.5645">&#25104;&#32489;&#25511;&#21046;&#31867;</text><ellipse cx="396.5679" cy="416.6406" fill="#E2E2F0" rx="12" ry="12" style="stroke:#181818;stroke-width:0.5;"/><polygon fill="#181818" points="392.5679,404.6406,398.5679,399.6406,396.5679,404.6406,398.5679,409.6406,392.5679,404.6406" style="stroke:#181818;stroke-width:1;"/></g><g class="participant participant-head" data-participant="Grade"><text fill="#000000" font-family="sans-serif" font-size="14" lengthAdjust="spacing" textLength="38.9102" x="510.8408" y="118.1426">Grade</text><ellipse cx="533.2959" cy="87.6094" fill="#E2E2F0" rx="12" ry="12" style="stroke:#181818;stroke-width:0.5;"/><line style="stroke:#181818;stroke-width:0.5;" x1="521.2959" x2="545.2959" y1="101.6094" y2="101.6094"/></g><g class="participant participant-tail" data-participant="Grade"><text fill="#000000" font-family="sans-serif" font-size="14" lengthAdjust="spacing" textLength="38.9102" x="510.8408" y="397.5645">Grade</text><ellipse cx="533.2959" cy="416.6406" fill="#E2E2F0" rx="12" ry="12" style="stroke:#181818;stroke-width:0.5;"/><line style="stroke:#181818;stroke-width:0.5;" x1="521.2959" x2="545.2959" y1="430.6406" y2="430.6406"/></g><g class="message" data-participant-1="Teacher" data-participant-2="EditForm"><polygon fill="#181818" points="151,149.5703,161,153.5703,151,157.5703,155,153.5703" style="stroke:#181818;stroke-width:1;"/><line style="stroke:#181818;stroke-width:1;" x1="22" x2="157" y1="153.5703" y2="153.5703"/><text fill="#000000" font-family="sans-serif" font-size="13" lengthAdjust="spacing" textLength="117" x="29" y="148.7139">&#20462;&#25913;&#29305;&#23450;&#23398;&#29983;&#30340;&#20998;&#25968;</text></g><g class="message" data-participant-1="EditForm" data-participant-2="GradeCtrl"><polygon fill="#181818" points="384.5679,179.9219,394.5679,183.9219,384.5679,187.9219,388.5679,183.9219" style="stroke:#181818;stroke-width:1;"/><line style="stroke:#181818;stroke-width:1;" x1="163" x2="390.5679" y1="183.9219" y2="183.9219"/><text fill="#000000" font-family="sans-serif" font-size="13" lengthAdjust="spacing" textLength="209.5679" x="170" y="179.0654">updateGrade(studentId, newScores)</text></g><g class="message" data-participant-1="GradeCtrl" data-participant-2="Grade"><polygon fill="#181818" points="521.2959,210.2734,531.2959,214.2734,521.2959,218.2734,525.2959,214.2734" style="stroke:#181818;stroke-width:1;"/><line style="stroke:#181818;stroke-width:1;" x1="396.5679" x2="527.2959" y1="214.2734" y2="214.2734"/><text fill="#000000" font-family="sans-serif" font-size="13" lengthAdjust="spacing" textLength="109.1035" x="403.5679" y="209.417">checkAuditStatus()</text></g><g class="message" data-participant-1="Grade" data-participant-2="GradeCtrl"><polygon fill="#181818" points="407.5679,240.625,397.5679,244.625,407.5679,248.625,403.5679,244.625" style="stroke:#181818;stroke-width:1;"/><line style="stroke:#181818;stroke-width:1;stroke-dasharray:2,2;" x1="401.5679" x2="532.2959" y1="244.625" y2="244.625"/><text fill="#000000" font-family="sans-serif" font-size="13" lengthAdjust="spacing" textLength="67.2153" x="413.5679" y="239.7686">notAuditYet</text></g><g class="message" data-participant-1="GradeCtrl" data-participant-2="Grade"><polygon fill="#181818" points="521.2959,270.9766,531.2959,274.9766,521.2959,278.9766,525.2959,274.9766" style="stroke:#181818;stroke-width:1;"/><line style="stroke:#181818;stroke-width:1;" x1="396.5679" x2="527.2959" y1="274.9766" y2="274.9766"/><text fill="#000000" font-family="sans-serif" font-size="13" lengthAdjust="spacing" textLength="112.728" x="403.5679" y="270.1201">update(newScores)</text></g><g class="message" data-participant-1="Grade" data-participant-2="GradeCtrl"><polygon fill="#181818" points="407.5679,301.3281,397.5679,305.3281,407.5679,309.3281,403.5679,305.3281" style="stroke:#181818;stroke-width:1;"/><line style="stroke:#181818;stroke-width:1;stroke-dasharray:2,2;" x1="401.5679" x2="532.2959" y1="305.3281" y2="305.3281"/><text fill="#000000" font-family="sans-serif" font-size="13" lengthAdjust="spacing" textLength="88.1689" x="413.5679" y="300.4717">updatedOverall</text></g><g class="message" data-participant-1="GradeCtrl" data-participant-2="EditForm"><polygon fill="#181818" points="174,331.6797,164,335.6797,174,339.6797,170,335.6797" style="stroke:#181818;stroke-width:1;"/><line style="stroke:#181818;stroke-width:1;stroke-dasharray:2,2;" x1="168" x2="395.5679" y1="335.6797" y2="335.6797"/><text fill="#000000" font-family="sans-serif" font-size="13" lengthAdjust="spacing" textLength="78" x="180" y="330.8232">&#25552;&#31034;&#20462;&#25913;&#25104;&#21151;</text></g><g class="message" data-participant-1="EditForm" data-participant-2="Teacher"><polygon fill="#181818" points="33,362.0313,23,366.0313,33,370.0313,29,366.0313" style="stroke:#181818;stroke-width:1;"/><line style="stroke:#181818;stroke-width:1;" x1="27" x2="162" y1="366.0313" y2="366.0313"/><text fill="#000000" font-family="sans-serif" font-size="13" lengthAdjust="spacing" textLength="52" x="39" y="361.1748">&#26174;&#31034;&#32467;&#26524;</text></g><!--SRC=[RP5FIyCm68Vl-HHXfmeMzEf1aA7YoSFqu34s0OkraVIjubsaYhY1A-ZyCnoYU73eHTmAyykOX7qBGxfsRdfDdj_pU_C6V0WOtgpEpotWxw-kQlPKqj3P2tRnyA4l-tLvCq28UC05hgZqMduc5KmYlC68jyC4skPnI8auCfSsbpjqUZwywrXmcVgmmiKUydW8WWS5g2wUPVAXtpDBhGf2MHL4W5W8FXYTFHdV8JHgnEvYwSJ5pFgq9xij-VgacstTEfR9YKhVK8cPI5bWCl4-9S3iYHD1J4tb6ft58JkiULomQ0QDwI9gOgRTsrsAZRG61EB86N7OdVA772osnG3zhyedSAOR_vXoZguVC462uBThSWkgtj2F_VB_v5bxul75wWnuDJ2WpYxL_UqF]--></g></svg>