<svg xmlns="http://www.w3.org/2000/svg" xmlns:xlink="http://www.w3.org/1999/xlink" contentStyleType="text/css" data-diagram-type="CLASS" height="490px" preserveAspectRatio="none" style="width:253px;height:490px;background:#FFFFFF;" version="1.1" viewBox="0 0 253 490" width="253px" zoomAndPan="magnify"><title>UC10: &#20462;&#25913;&#25104;&#32489; - &#21442;&#19982;&#31867;&#22270; (VOPC)</title><defs/><g><g class="title" data-source-line="1"><text fill="#000000" font-family="sans-serif" font-size="14" font-weight="bold" lengthAdjust="spacing" textLength="225.1758" x="10" y="24.5332">UC10: &#20462;&#25913;&#25104;&#32489; - &#21442;&#19982;&#31867;&#22270; (VOPC)</text></g><!--class GradeEditForm--><g class="entity" data-entity="GradeEditForm" data-source-line="3" data-uid="ent0002" id="entity_GradeEditForm"><rect fill="#F1F1F1" height="93.9219" rx="2.5" ry="2.5" style="stroke:#181818;stroke-width:0.5;" width="134.165" x="62.5366" y="45.6094"/><ellipse cx="80.4476" cy="66.9609" fill="#ADD1B2" rx="11" ry="11" style="stroke:#181818;stroke-width:1;"/><path d="M83.2132,62.8359 Q83.3694,62.6172 83.5569,62.5078 Q83.7444,62.3984 83.9632,62.3984 Q84.3382,62.3984 84.5726,62.6641 Q84.8069,62.9141 84.8069,63.5234 L84.8069,64.9766 Q84.8069,65.5859 84.5726,65.8516 Q84.3382,66.1172 83.9632,66.1172 Q83.6194,66.1172 83.4163,65.9141 Q83.2132,65.7266 83.1038,65.2109 Q83.0569,64.8516 82.8694,64.6641 Q82.5413,64.2891 81.9319,64.0703 Q81.3226,63.8516 80.6976,63.8516 Q79.9319,63.8516 79.2913,64.1797 Q78.6663,64.5078 78.1663,65.2578 Q77.6819,66.0078 77.6819,67.0391 L77.6819,68.1328 Q77.6819,69.3672 78.5726,70.1953 Q79.4632,71.0078 81.0569,71.0078 Q81.9944,71.0078 82.6507,70.7578 Q83.0413,70.6016 83.4632,70.1641 Q83.7288,69.8984 83.8694,69.8203 Q84.0257,69.7422 84.2288,69.7422 Q84.5569,69.7422 84.8069,70.0078 Q85.0726,70.2578 85.0726,70.6016 Q85.0726,70.9453 84.7288,71.3516 Q84.2288,71.9297 83.4319,72.2578 Q82.3538,72.7109 81.0569,72.7109 Q79.5413,72.7109 78.3382,72.0859 Q77.3538,71.5859 76.6663,70.5234 Q75.9788,69.4453 75.9788,68.1641 L75.9788,67.0078 Q75.9788,65.6797 76.5882,64.5391 Q77.2132,63.3828 78.3069,62.7734 Q79.4007,62.1484 80.6351,62.1484 Q81.3694,62.1484 82.0101,62.3203 Q82.6663,62.4766 83.2132,62.8359 Z " fill="#000000"/><text fill="#000000" font-family="sans-serif" font-size="12" font-style="italic" lengthAdjust="spacing" textLength="63.3867" x="111.2492" y="63.0664">&#171;boundary&#187;</text><text fill="#000000" font-family="sans-serif" font-size="14" lengthAdjust="spacing" textLength="95.6963" x="95.0944" y="80.2363">GradeEditForm</text><line style="stroke:#181818;stroke-width:0.5;" x1="63.5366" x2="195.7017" y1="88.3125" y2="88.3125"/><line style="stroke:#181818;stroke-width:0.5;" x1="63.5366" x2="195.7017" y1="96.3125" y2="96.3125"/><ellipse cx="73.5366" cy="110.6172" fill="#84BE84" rx="3" ry="3" style="stroke:#038048;stroke-width:1;"/><text fill="#000000" font-family="sans-serif" font-size="14" lengthAdjust="spacing" textLength="108.165" x="82.5366" y="114.8457">showGrade(data)</text><ellipse cx="73.5366" cy="128.2266" fill="#84BE84" rx="3" ry="3" style="stroke:#038048;stroke-width:1;"/><text fill="#000000" font-family="sans-serif" font-size="14" lengthAdjust="spacing" textLength="94.917" x="82.5366" y="132.4551">showSuccess()</text></g><!--class GradeController--><g class="entity" data-entity="GradeController" data-source-line="8" data-uid="ent0003" id="entity_GradeController"><rect fill="#F1F1F1" height="76.3125" rx="2.5" ry="2.5" style="stroke:#181818;stroke-width:0.5;" width="169.9785" x="44.5366" y="217.6094"/><ellipse cx="76.8071" cy="238.9609" fill="#ADD1B2" rx="11" ry="11" style="stroke:#181818;stroke-width:1;"/><path d="M79.5728,234.8359 Q79.729,234.6172 79.9165,234.5078 Q80.104,234.3984 80.3228,234.3984 Q80.6978,234.3984 80.9321,234.6641 Q81.1665,234.9141 81.1665,235.5234 L81.1665,236.9766 Q81.1665,237.5859 80.9321,237.8516 Q80.6978,238.1172 80.3228,238.1172 Q79.979,238.1172 79.7759,237.9141 Q79.5728,237.7266 79.4634,237.2109 Q79.4165,236.8516 79.229,236.6641 Q78.9009,236.2891 78.2915,236.0703 Q77.6821,235.8516 77.0571,235.8516 Q76.2915,235.8516 75.6509,236.1797 Q75.0259,236.5078 74.5259,237.2578 Q74.0415,238.0078 74.0415,239.0391 L74.0415,240.1328 Q74.0415,241.3672 74.9321,242.1953 Q75.8228,243.0078 77.4165,243.0078 Q78.354,243.0078 79.0103,242.7578 Q79.4009,242.6016 79.8228,242.1641 Q80.0884,241.8984 80.229,241.8203 Q80.3853,241.7422 80.5884,241.7422 Q80.9165,241.7422 81.1665,242.0078 Q81.4321,242.2578 81.4321,242.6016 Q81.4321,242.9453 81.0884,243.3516 Q80.5884,243.9297 79.7915,244.2578 Q78.7134,244.7109 77.4165,244.7109 Q75.9009,244.7109 74.6978,244.0859 Q73.7134,243.5859 73.0259,242.5234 Q72.3384,241.4453 72.3384,240.1641 L72.3384,239.0078 Q72.3384,237.6797 72.9478,236.5391 Q73.5728,235.3828 74.6665,234.7734 Q75.7603,234.1484 76.9946,234.1484 Q77.729,234.1484 78.3696,234.3203 Q79.0259,234.4766 79.5728,234.8359 Z " fill="#000000"/><text fill="#000000" font-family="sans-serif" font-size="12" font-style="italic" lengthAdjust="spacing" textLength="49.3652" x="119.7622" y="235.0664">&#171;control&#187;</text><text fill="#000000" font-family="sans-serif" font-size="14" lengthAdjust="spacing" textLength="99.5996" x="94.645" y="252.2363">GradeController</text><line style="stroke:#181818;stroke-width:0.5;" x1="45.5366" x2="213.5151" y1="260.3125" y2="260.3125"/><line style="stroke:#181818;stroke-width:0.5;" x1="45.5366" x2="213.5151" y1="268.3125" y2="268.3125"/><ellipse cx="55.5366" cy="282.6172" fill="#84BE84" rx="3" ry="3" style="stroke:#038048;stroke-width:1;"/><text fill="#000000" font-family="sans-serif" font-size="14" lengthAdjust="spacing" textLength="143.9785" x="64.5366" y="286.8457">updateGrade(sid, data)</text></g><!--class Grade--><g class="entity" data-entity="Grade" data-source-line="12" data-uid="ent0004" id="entity_Grade"><rect fill="#F1F1F1" height="111.5313" rx="2.5" ry="2.5" style="stroke:#181818;stroke-width:0.5;" width="201.1025" x="29.0366" y="371.6094"/><ellipse cx="105.8828" cy="392.9609" fill="#ADD1B2" rx="11" ry="11" style="stroke:#181818;stroke-width:1;"/><path d="M108.6484,388.8359 Q108.8047,388.6172 108.9922,388.5078 Q109.1797,388.3984 109.3984,388.3984 Q109.7734,388.3984 110.0078,388.6641 Q110.2422,388.9141 110.2422,389.5234 L110.2422,390.9766 Q110.2422,391.5859 110.0078,391.8516 Q109.7734,392.1172 109.3984,392.1172 Q109.0547,392.1172 108.8516,391.9141 Q108.6484,391.7266 108.5391,391.2109 Q108.4922,390.8516 108.3047,390.6641 Q107.9766,390.2891 107.3672,390.0703 Q106.7578,389.8516 106.1328,389.8516 Q105.3672,389.8516 104.7266,390.1797 Q104.1016,390.5078 103.6016,391.2578 Q103.1172,392.0078 103.1172,393.0391 L103.1172,394.1328 Q103.1172,395.3672 104.0078,396.1953 Q104.8984,397.0078 106.4922,397.0078 Q107.4297,397.0078 108.0859,396.7578 Q108.4766,396.6016 108.8984,396.1641 Q109.1641,395.8984 109.3047,395.8203 Q109.4609,395.7422 109.6641,395.7422 Q109.9922,395.7422 110.2422,396.0078 Q110.5078,396.2578 110.5078,396.6016 Q110.5078,396.9453 110.1641,397.3516 Q109.6641,397.9297 108.8672,398.2578 Q107.7891,398.7109 106.4922,398.7109 Q104.9766,398.7109 103.7734,398.0859 Q102.7891,397.5859 102.1016,396.5234 Q101.4141,395.4453 101.4141,394.1641 L101.4141,393.0078 Q101.4141,391.6797 102.0234,390.5391 Q102.6484,389.3828 103.7422,388.7734 Q104.8359,388.1484 106.0703,388.1484 Q106.8047,388.1484 107.4453,388.3203 Q108.1016,388.4766 108.6484,388.8359 Z " fill="#000000"/><text fill="#000000" font-family="sans-serif" font-size="12" font-style="italic" lengthAdjust="spacing" textLength="42.0293" x="124.8232" y="389.0664">&#171;entity&#187;</text><text fill="#000000" font-family="sans-serif" font-size="14" lengthAdjust="spacing" textLength="38.9102" x="126.3828" y="406.2363">Grade</text><line style="stroke:#181818;stroke-width:0.5;" x1="30.0366" x2="229.1392" y1="414.3125" y2="414.3125"/><rect fill="none" height="6" style="stroke:#C82930;stroke-width:1;" width="6" x="37.0366" y="425.6172"/><text fill="#000000" font-family="sans-serif" font-size="14" lengthAdjust="spacing" textLength="115.1992" x="49.0366" y="432.8457">isAudited: boolean</text><line style="stroke:#181818;stroke-width:0.5;" x1="30.0366" x2="229.1392" y1="439.9219" y2="439.9219"/><ellipse cx="40.0366" cy="454.2266" fill="#84BE84" rx="3" ry="3" style="stroke:#038048;stroke-width:1;"/><text fill="#000000" font-family="sans-serif" font-size="14" lengthAdjust="spacing" textLength="79.3926" x="49.0366" y="458.4551">update(data)</text><ellipse cx="40.0366" cy="471.8359" fill="#84BE84" rx="3" ry="3" style="stroke:#038048;stroke-width:1;"/><text fill="#000000" font-family="sans-serif" font-size="14" lengthAdjust="spacing" textLength="175.1025" x="49.0366" y="476.0645">checkAuditStatus(): boolean</text></g><!--link GradeEditForm to GradeController--><g class="link" data-entity-1="GradeEditForm" data-entity-2="GradeController" data-source-line="18" data-uid="lnk5" id="link_GradeEditForm_GradeController"><path codeLine="18" d="M129.5366,139.7494 C129.5366,164.3694 129.5366,188.2694 129.5366,211.3994" fill="none" id="GradeEditForm-to-GradeController" style="stroke:#181818;stroke-width:1;stroke-dasharray:7,7;"/><polygon fill="#181818" points="129.5366,217.3994,133.5366,208.3994,129.5366,212.3994,125.5366,208.3994,129.5366,217.3994" style="stroke:#181818;stroke-width:1;"/><text fill="#000000" font-family="sans-serif" font-size="13" lengthAdjust="spacing" textLength="27.46" x="130.5366" y="184.1045">uses</text></g><!--link GradeController to Grade--><g class="link" data-entity-1="GradeController" data-entity-2="Grade" data-source-line="19" data-uid="lnk6" id="link_GradeController_Grade"><path codeLine="19" d="M129.5366,293.9194 C129.5366,316.5894 129.5366,339.9594 129.5366,365.3094" fill="none" id="GradeController-to-Grade" style="stroke:#181818;stroke-width:1;stroke-dasharray:7,7;"/><polygon fill="#181818" points="129.5366,371.3094,133.5366,362.3094,129.5366,366.3094,125.5366,362.3094,129.5366,371.3094" style="stroke:#181818;stroke-width:1;"/><text fill="#000000" font-family="sans-serif" font-size="13" lengthAdjust="spacing" textLength="46.2617" x="130.5366" y="338.1045">updates</text></g><!--SRC=[AyaioKbL27KsDB1IUB9_tRCfEvzrJ7Y-UwM2hiBJ_gOdE_gURzpzTFO-1Oqm_m1dJIwkv9p4uc85zwB4b5JNbCmIj_oYN0KRcwJyqhoKnA9AEpk5QYu58D1MACx8BmShqqX9B4dKH18DBarEJYqkrj3agaKnppa_hwGeFoSdjGXeOZA4WsHWQG7Ge5I8aSMPAJeA47DHpG3gJCqhoIn1k4HN8RFOiHJerDGKAuMa_FoSrCGy51DHt9USaPgS3LOUN99OKWfq948Jq2PKV-lfsM6ut4gXj3Yrc0jT6AuKf01iRJ40]--></g></svg>