<svg xmlns="http://www.w3.org/2000/svg" xmlns:xlink="http://www.w3.org/1999/xlink" contentStyleType="text/css" data-diagram-type="CLASS" height="608px" preserveAspectRatio="none" style="width:282px;height:608px;background:#FFFFFF;" version="1.1" viewBox="0 0 282 608" width="282px" zoomAndPan="magnify"><title>UC11: &#25104;&#32489;&#32479;&#35745;&#20998;&#26512; - &#21442;&#19982;&#31867;&#22270; (VOPC)</title><defs/><g><g class="title" data-source-line="1"><text fill="#000000" font-family="sans-serif" font-size="14" font-weight="bold" lengthAdjust="spacing" textLength="254.0508" x="10" y="24.5332">UC11: &#25104;&#32489;&#32479;&#35745;&#20998;&#26512; - &#21442;&#19982;&#31867;&#22270; (VOPC)</text></g><!--class TeacherStatsPage--><g class="entity" data-entity="TeacherStatsPage" data-source-line="3" data-uid="ent0002" id="entity_TeacherStatsPage"><rect fill="#F1F1F1" height="76.3125" rx="2.5" ry="2.5" style="stroke:#181818;stroke-width:0.5;" width="148.9307" x="69.3774" y="45.6094"/><ellipse cx="84.8151" cy="66.9609" fill="#ADD1B2" rx="11" ry="11" style="stroke:#181818;stroke-width:1;"/><path d="M87.5808,62.8359 Q87.737,62.6172 87.9245,62.5078 Q88.112,62.3984 88.3308,62.3984 Q88.7058,62.3984 88.9401,62.6641 Q89.1745,62.9141 89.1745,63.5234 L89.1745,64.9766 Q89.1745,65.5859 88.9401,65.8516 Q88.7058,66.1172 88.3308,66.1172 Q87.987,66.1172 87.7839,65.9141 Q87.5808,65.7266 87.4714,65.2109 Q87.4245,64.8516 87.237,64.6641 Q86.9089,64.2891 86.2995,64.0703 Q85.6901,63.8516 85.0651,63.8516 Q84.2995,63.8516 83.6589,64.1797 Q83.0339,64.5078 82.5339,65.2578 Q82.0495,66.0078 82.0495,67.0391 L82.0495,68.1328 Q82.0495,69.3672 82.9401,70.1953 Q83.8308,71.0078 85.4245,71.0078 Q86.362,71.0078 87.0183,70.7578 Q87.4089,70.6016 87.8308,70.1641 Q88.0964,69.8984 88.237,69.8203 Q88.3933,69.7422 88.5964,69.7422 Q88.9245,69.7422 89.1745,70.0078 Q89.4401,70.2578 89.4401,70.6016 Q89.4401,70.9453 89.0964,71.3516 Q88.5964,71.9297 87.7995,72.2578 Q86.7214,72.7109 85.4245,72.7109 Q83.9089,72.7109 82.7058,72.0859 Q81.7214,71.5859 81.0339,70.5234 Q80.3464,69.4453 80.3464,68.1641 L80.3464,67.0078 Q80.3464,65.6797 80.9558,64.5391 Q81.5808,63.3828 82.6745,62.7734 Q83.7683,62.1484 85.0026,62.1484 Q85.737,62.1484 86.3776,62.3203 Q87.0339,62.4766 87.5808,62.8359 Z " fill="#000000"/><text fill="#000000" font-family="sans-serif" font-size="12" font-style="italic" lengthAdjust="spacing" textLength="63.3867" x="125.198" y="63.0664">&#171;boundary&#187;</text><text fill="#000000" font-family="sans-serif" font-size="14" lengthAdjust="spacing" textLength="115.958" x="98.9124" y="80.2363">TeacherStatsPage</text><line style="stroke:#181818;stroke-width:0.5;" x1="70.3774" x2="217.3081" y1="88.3125" y2="88.3125"/><line style="stroke:#181818;stroke-width:0.5;" x1="70.3774" x2="217.3081" y1="96.3125" y2="96.3125"/><ellipse cx="80.3774" cy="110.6172" fill="#84BE84" rx="3" ry="3" style="stroke:#038048;stroke-width:1;"/><text fill="#000000" font-family="sans-serif" font-size="14" lengthAdjust="spacing" textLength="122.9307" x="89.3774" y="114.8457">displayStats(charts)</text></g><!--class GradeController--><g class="entity" data-entity="GradeController" data-source-line="7" data-uid="ent0003" id="entity_GradeController"><rect fill="#F1F1F1" height="93.9219" rx="2.5" ry="2.5" style="stroke:#181818;stroke-width:0.5;" width="179.2959" x="54.3774" y="199.6094"/><ellipse cx="90.8408" cy="220.9609" fill="#ADD1B2" rx="11" ry="11" style="stroke:#181818;stroke-width:1;"/><path d="M93.6064,216.8359 Q93.7626,216.6172 93.9501,216.5078 Q94.1376,216.3984 94.3564,216.3984 Q94.7314,216.3984 94.9658,216.6641 Q95.2001,216.9141 95.2001,217.5234 L95.2001,218.9766 Q95.2001,219.5859 94.9658,219.8516 Q94.7314,220.1172 94.3564,220.1172 Q94.0126,220.1172 93.8095,219.9141 Q93.6064,219.7266 93.497,219.2109 Q93.4501,218.8516 93.2626,218.6641 Q92.9345,218.2891 92.3251,218.0703 Q91.7158,217.8516 91.0908,217.8516 Q90.3251,217.8516 89.6845,218.1797 Q89.0595,218.5078 88.5595,219.2578 Q88.0751,220.0078 88.0751,221.0391 L88.0751,222.1328 Q88.0751,223.3672 88.9658,224.1953 Q89.8564,225.0078 91.4501,225.0078 Q92.3876,225.0078 93.0439,224.7578 Q93.4345,224.6016 93.8564,224.1641 Q94.122,223.8984 94.2626,223.8203 Q94.4189,223.7422 94.622,223.7422 Q94.9501,223.7422 95.2001,224.0078 Q95.4658,224.2578 95.4658,224.6016 Q95.4658,224.9453 95.122,225.3516 Q94.622,225.9297 93.8251,226.2578 Q92.747,226.7109 91.4501,226.7109 Q89.9345,226.7109 88.7314,226.0859 Q87.747,225.5859 87.0595,224.5234 Q86.372,223.4453 86.372,222.1641 L86.372,221.0078 Q86.372,219.6797 86.9814,218.5391 Q87.6064,217.3828 88.7001,216.7734 Q89.7939,216.1484 91.0283,216.1484 Q91.7626,216.1484 92.4033,216.3203 Q93.0595,216.4766 93.6064,216.8359 Z " fill="#000000"/><text fill="#000000" font-family="sans-serif" font-size="12" font-style="italic" lengthAdjust="spacing" textLength="49.3652" x="134.7276" y="217.0664">&#171;control&#187;</text><text fill="#000000" font-family="sans-serif" font-size="14" lengthAdjust="spacing" textLength="99.5996" x="109.6104" y="234.2363">GradeController</text><line style="stroke:#181818;stroke-width:0.5;" x1="55.3774" x2="232.6733" y1="242.3125" y2="242.3125"/><line style="stroke:#181818;stroke-width:0.5;" x1="55.3774" x2="232.6733" y1="250.3125" y2="250.3125"/><ellipse cx="65.3774" cy="264.6172" fill="#84BE84" rx="3" ry="3" style="stroke:#038048;stroke-width:1;"/><text fill="#000000" font-family="sans-serif" font-size="14" lengthAdjust="spacing" textLength="153.2959" x="74.3774" y="268.8457">getGradeStats(courseId)</text><rect fill="#F24D5C" height="6" style="stroke:#C82930;stroke-width:1;" width="6" x="62.3774" y="279.2266"/><text fill="#000000" font-family="sans-serif" font-size="14" lengthAdjust="spacing" textLength="151.7305" x="74.3774" y="286.4551">generateDistribution(list)</text></g><!--class Grade--><g class="entity" data-entity="Grade" data-source-line="12" data-uid="ent0004" id="entity_Grade"><rect fill="#F1F1F1" height="76.3125" rx="2.5" ry="2.5" style="stroke:#181818;stroke-width:0.5;" width="138.8203" x="74.3774" y="371.6094"/><ellipse cx="120.0825" cy="392.9609" fill="#ADD1B2" rx="11" ry="11" style="stroke:#181818;stroke-width:1;"/><path d="M122.8481,388.8359 Q123.0044,388.6172 123.1919,388.5078 Q123.3794,388.3984 123.5981,388.3984 Q123.9731,388.3984 124.2075,388.6641 Q124.4419,388.9141 124.4419,389.5234 L124.4419,390.9766 Q124.4419,391.5859 124.2075,391.8516 Q123.9731,392.1172 123.5981,392.1172 Q123.2544,392.1172 123.0513,391.9141 Q122.8481,391.7266 122.7388,391.2109 Q122.6919,390.8516 122.5044,390.6641 Q122.1763,390.2891 121.5669,390.0703 Q120.9575,389.8516 120.3325,389.8516 Q119.5669,389.8516 118.9263,390.1797 Q118.3013,390.5078 117.8013,391.2578 Q117.3169,392.0078 117.3169,393.0391 L117.3169,394.1328 Q117.3169,395.3672 118.2075,396.1953 Q119.0981,397.0078 120.6919,397.0078 Q121.6294,397.0078 122.2856,396.7578 Q122.6763,396.6016 123.0981,396.1641 Q123.3638,395.8984 123.5044,395.8203 Q123.6606,395.7422 123.8638,395.7422 Q124.1919,395.7422 124.4419,396.0078 Q124.7075,396.2578 124.7075,396.6016 Q124.7075,396.9453 124.3638,397.3516 Q123.8638,397.9297 123.0669,398.2578 Q121.9888,398.7109 120.6919,398.7109 Q119.1763,398.7109 117.9731,398.0859 Q116.9888,397.5859 116.3013,396.5234 Q115.6138,395.4453 115.6138,394.1641 L115.6138,393.0078 Q115.6138,391.6797 116.2231,390.5391 Q116.8481,389.3828 117.9419,388.7734 Q119.0356,388.1484 120.27,388.1484 Q121.0044,388.1484 121.645,388.3203 Q122.3013,388.4766 122.8481,388.8359 Z " fill="#000000"/><text fill="#000000" font-family="sans-serif" font-size="12" font-style="italic" lengthAdjust="spacing" textLength="42.0293" x="139.0229" y="389.0664">&#171;entity&#187;</text><text fill="#000000" font-family="sans-serif" font-size="14" lengthAdjust="spacing" textLength="38.9102" x="140.5825" y="406.2363">Grade</text><line style="stroke:#181818;stroke-width:0.5;" x1="75.3774" x2="212.1978" y1="414.3125" y2="414.3125"/><rect fill="none" height="6" style="stroke:#C82930;stroke-width:1;" width="6" x="82.3774" y="425.6172"/><text fill="#000000" font-family="sans-serif" font-size="14" lengthAdjust="spacing" textLength="112.8203" x="94.3774" y="432.8457">scoreOverall: float</text><line style="stroke:#181818;stroke-width:0.5;" x1="75.3774" x2="212.1978" y1="439.9219" y2="439.9219"/></g><!--class Course--><g class="entity" data-entity="Course" data-source-line="16" data-uid="ent0005" id="entity_Course"><rect fill="#F1F1F1" height="76.3125" rx="2.5" ry="2.5" style="stroke:#181818;stroke-width:0.5;" width="124.0479" x="81.8774" y="525.6094"/><ellipse cx="117.9901" cy="546.9609" fill="#ADD1B2" rx="11" ry="11" style="stroke:#181818;stroke-width:1;"/><path d="M120.7557,542.8359 Q120.912,542.6172 121.0995,542.5078 Q121.287,542.3984 121.5057,542.3984 Q121.8807,542.3984 122.1151,542.6641 Q122.3495,542.9141 122.3495,543.5234 L122.3495,544.9766 Q122.3495,545.5859 122.1151,545.8516 Q121.8807,546.1172 121.5057,546.1172 Q121.162,546.1172 120.9588,545.9141 Q120.7557,545.7266 120.6463,545.2109 Q120.5995,544.8516 120.412,544.6641 Q120.0838,544.2891 119.4745,544.0703 Q118.8651,543.8516 118.2401,543.8516 Q117.4745,543.8516 116.8338,544.1797 Q116.2088,544.5078 115.7088,545.2578 Q115.2245,546.0078 115.2245,547.0391 L115.2245,548.1328 Q115.2245,549.3672 116.1151,550.1953 Q117.0057,551.0078 118.5995,551.0078 Q119.537,551.0078 120.1932,550.7578 Q120.5838,550.6016 121.0057,550.1641 Q121.2713,549.8984 121.412,549.8203 Q121.5682,549.7422 121.7713,549.7422 Q122.0995,549.7422 122.3495,550.0078 Q122.6151,550.2578 122.6151,550.6016 Q122.6151,550.9453 122.2713,551.3516 Q121.7713,551.9297 120.9745,552.2578 Q119.8963,552.7109 118.5995,552.7109 Q117.0838,552.7109 115.8807,552.0859 Q114.8963,551.5859 114.2088,550.5234 Q113.5213,549.4453 113.5213,548.1641 L113.5213,547.0078 Q113.5213,545.6797 114.1307,544.5391 Q114.7557,543.3828 115.8495,542.7734 Q116.9432,542.1484 118.1776,542.1484 Q118.912,542.1484 119.5526,542.3203 Q120.2088,542.4766 120.7557,542.8359 Z " fill="#000000"/><text fill="#000000" font-family="sans-serif" font-size="12" font-style="italic" lengthAdjust="spacing" textLength="42.0293" x="138.2326" y="543.0664">&#171;entity&#187;</text><text fill="#000000" font-family="sans-serif" font-size="14" lengthAdjust="spacing" textLength="45.1309" x="136.6818" y="560.2363">Course</text><line style="stroke:#181818;stroke-width:0.5;" x1="82.8774" x2="204.9253" y1="568.3125" y2="568.3125"/><rect fill="none" height="6" style="stroke:#C82930;stroke-width:1;" width="6" x="89.8774" y="579.6172"/><text fill="#000000" font-family="sans-serif" font-size="14" lengthAdjust="spacing" textLength="98.0479" x="101.8774" y="586.8457">courseId: String</text><line style="stroke:#181818;stroke-width:0.5;" x1="82.8774" x2="204.9253" y1="593.9219" y2="593.9219"/></g><!--link TeacherStatsPage to GradeController--><g class="link" data-entity-1="TeacherStatsPage" data-entity-2="GradeController" data-source-line="20" data-uid="lnk6" id="link_TeacherStatsPage_GradeController"><path codeLine="20" d="M143.8774,121.9494 C143.8774,145.0794 143.8774,168.9594 143.8774,193.5494" fill="none" id="TeacherStatsPage-to-GradeController" style="stroke:#181818;stroke-width:1;stroke-dasharray:7,7;"/><polygon fill="#181818" points="143.8774,199.5494,147.8774,190.5494,143.8774,194.5494,139.8774,190.5494,143.8774,199.5494" style="stroke:#181818;stroke-width:1;"/><text fill="#000000" font-family="sans-serif" font-size="13" lengthAdjust="spacing" textLength="27.46" x="144.8774" y="166.1045">uses</text></g><!--link GradeController to Grade--><g class="link" data-entity-1="GradeController" data-entity-2="Grade" data-source-line="21" data-uid="lnk7" id="link_GradeController_Grade"><path codeLine="21" d="M143.8774,293.7494 C143.8774,318.3694 143.8774,342.2694 143.8774,365.3994" fill="none" id="GradeController-to-Grade" style="stroke:#181818;stroke-width:1;stroke-dasharray:7,7;"/><polygon fill="#181818" points="143.8774,371.3994,147.8774,362.3994,143.8774,366.3994,139.8774,362.3994,143.8774,371.3994" style="stroke:#181818;stroke-width:1;"/><text fill="#000000" font-family="sans-serif" font-size="13" lengthAdjust="spacing" textLength="65.0508" x="144.8774" y="338.1045">aggregates</text></g><!--link Grade to Course--><g class="link" data-entity-1="Grade" data-entity-2="Course" data-source-line="22" data-uid="lnk8" id="link_Grade_Course"><path codeLine="22" d="M143.8774,447.7894 C143.8774,471.4394 143.8774,495.9294 143.8774,519.5494" fill="none" id="Grade-to-Course" style="stroke:#181818;stroke-width:1;stroke-dasharray:7,7;"/><polygon fill="#181818" points="143.8774,525.5494,147.8774,516.5494,143.8774,520.5494,139.8774,516.5494,143.8774,525.5494" style="stroke:#181818;stroke-width:1;"/><text fill="#000000" font-family="sans-serif" font-size="13" lengthAdjust="spacing" textLength="39.019" x="144.8774" y="492.1045">relates</text></g><!--SRC=[RL0_IyD05D_pATwO82bq3ILB175geUf-JPxNW-DEthq8HLmSf9Ds5nH75y5D2FXfJEF7y1fJMzhUzkxtzprMh17Eitu_WULyqLHlJVNoy_vQp- -Npmk8eNwy-_vyQ3wg-kaBmelXA8k28DV2EJX3aK-HnYpOZOH460mcjZI5e5cQmaq0_Xr1eToL5hEM5UPJGUoYu7RjSKAYmCmQ9girahV8_uOj1udSqZeBMvB3qo9gqTYZ1aam7Yl7f2ObAsj2xOVT5E-DXXLloiNWSaiulFO6MYTmgQtWZIfhamx9rXqI6FjC8rUQlMlqUkdUUWcK3bsm-_rFzGGX9Q7q2tMq5kog942eLz0l]--></g></svg>