<svg xmlns="http://www.w3.org/2000/svg" xmlns:xlink="http://www.w3.org/1999/xlink" contentStyleType="text/css" data-diagram-type="SEQUENCE" height="448px" preserveAspectRatio="none" style="width:519px;height:448px;background:#FFFFFF;" version="1.1" viewBox="0 0 519 448" width="519px" zoomAndPan="magnify"><title>UC11: &#25104;&#32489;&#32479;&#35745;&#20998;&#26512; - &#39034;&#24207;&#22270;</title><defs/><g><text fill="#000000" font-family="sans-serif" font-size="14" font-weight="bold" lengthAdjust="spacing" textLength="186.7236" x="168.1042" y="29.5332">UC11: &#25104;&#32489;&#32479;&#35745;&#20998;&#26512; - &#39034;&#24207;&#22270;</text><g><title>..</title><rect fill="#000000" fill-opacity="0.00000" height="245.4609" width="8" x="18" y="121.2188"/><line style="stroke:#181818;stroke-width:0.5;stroke-dasharray:5,5;" x1="22" x2="22" y1="121.2188" y2="366.6797"/></g><g><title>........</title><rect fill="#000000" fill-opacity="0.00000" height="245.4609" width="8" x="146" y="121.2188"/><line style="stroke:#181818;stroke-width:0.5;stroke-dasharray:5,5;" x1="150" x2="150" y1="121.2188" y2="366.6797"/></g><g><title>.....</title><rect fill="#000000" fill-opacity="0.00000" height="245.4609" width="8" x="326" y="121.2188"/><line style="stroke:#181818;stroke-width:0.5;stroke-dasharray:5,5;" x1="330" x2="330" y1="121.2188" y2="366.6797"/></g><g><title>Grade</title><rect fill="#000000" fill-opacity="0.00000" height="245.4609" width="8" x="492.4771" y="121.2188"/><line style="stroke:#181818;stroke-width:0.5;stroke-dasharray:5,5;" x1="496.022" x2="496.022" y1="121.2188" y2="366.6797"/></g><g class="participant participant-head" data-participant="Teacher"><text fill="#000000" font-family="sans-serif" font-size="14" lengthAdjust="spacing" textLength="28" x="5" y="118.1426">&#25945;&#24072;</text><ellipse cx="22" cy="52.1094" fill="#E2E2F0" rx="8" ry="8" style="stroke:#181818;stroke-width:0.5;"/><path d="M22,60.1094 L22,87.1094 M9,68.1094 L35,68.1094 M22,87.1094 L9,102.1094 M22,87.1094 L35,102.1094" fill="none" style="stroke:#181818;stroke-width:0.5;"/></g><g class="participant participant-tail" data-participant="Teacher"><text fill="#000000" font-family="sans-serif" font-size="14" lengthAdjust="spacing" textLength="28" x="5" y="380.2129">&#25945;&#24072;</text><ellipse cx="22" cy="391.7891" fill="#E2E2F0" rx="8" ry="8" style="stroke:#181818;stroke-width:0.5;"/><path d="M22,399.7891 L22,426.7891 M9,407.7891 L35,407.7891 M22,426.7891 L9,441.7891 M22,426.7891 L35,441.7891" fill="none" style="stroke:#181818;stroke-width:0.5;"/></g><g class="participant participant-head" data-participant="StatsPage"><text fill="#000000" font-family="sans-serif" font-size="14" lengthAdjust="spacing" textLength="112" x="91" y="118.1426">&#25945;&#24072;&#25104;&#32489;&#20998;&#26512;&#39029;&#38754;</text><path d="M129.5,75.6094 L129.5,99.6094 M129.5,87.6094 L146.5,87.6094" fill="none" style="stroke:#181818;stroke-width:0.5;"/><ellipse cx="158.5" cy="87.6094" fill="#E2E2F0" rx="12" ry="12" style="stroke:#181818;stroke-width:0.5;"/></g><g class="participant participant-tail" data-participant="StatsPage"><text fill="#000000" font-family="sans-serif" font-size="14" lengthAdjust="spacing" textLength="112" x="91" y="380.2129">&#25945;&#24072;&#25104;&#32489;&#20998;&#26512;&#39029;&#38754;</text><path d="M129.5,387.2891 L129.5,411.2891 M129.5,399.2891 L146.5,399.2891" fill="none" style="stroke:#181818;stroke-width:0.5;"/><ellipse cx="158.5" cy="399.2891" fill="#E2E2F0" rx="12" ry="12" style="stroke:#181818;stroke-width:0.5;"/></g><g class="participant participant-head" data-participant="GradeCtrl"><text fill="#000000" font-family="sans-serif" font-size="14" lengthAdjust="spacing" textLength="70" x="292" y="118.1426">&#25104;&#32489;&#25511;&#21046;&#31867;</text><ellipse cx="330" cy="87.6094" fill="#E2E2F0" rx="12" ry="12" style="stroke:#181818;stroke-width:0.5;"/><polygon fill="#181818" points="326,75.6094,332,70.6094,330,75.6094,332,80.6094,326,75.6094" style="stroke:#181818;stroke-width:1;"/></g><g class="participant participant-tail" data-participant="GradeCtrl"><text fill="#000000" font-family="sans-serif" font-size="14" lengthAdjust="spacing" textLength="70" x="292" y="380.2129">&#25104;&#32489;&#25511;&#21046;&#31867;</text><ellipse cx="330" cy="399.2891" fill="#E2E2F0" rx="12" ry="12" style="stroke:#181818;stroke-width:0.5;"/><polygon fill="#181818" points="326,387.2891,332,382.2891,330,387.2891,332,392.2891,326,387.2891" style="stroke:#181818;stroke-width:1;"/></g><g class="participant participant-head" data-participant="Grade"><text fill="#000000" font-family="sans-serif" font-size="14" lengthAdjust="spacing" textLength="38.9102" x="474.022" y="118.1426">Grade</text><ellipse cx="496.4771" cy="87.6094" fill="#E2E2F0" rx="12" ry="12" style="stroke:#181818;stroke-width:0.5;"/><line style="stroke:#181818;stroke-width:0.5;" x1="484.4771" x2="508.4771" y1="101.6094" y2="101.6094"/></g><g class="participant participant-tail" data-participant="Grade"><text fill="#000000" font-family="sans-serif" font-size="14" lengthAdjust="spacing" textLength="38.9102" x="474.022" y="380.2129">Grade</text><ellipse cx="496.4771" cy="399.2891" fill="#E2E2F0" rx="12" ry="12" style="stroke:#181818;stroke-width:0.5;"/><line style="stroke:#181818;stroke-width:0.5;" x1="484.4771" x2="508.4771" y1="413.2891" y2="413.2891"/></g><g class="message" data-participant-1="Teacher" data-participant-2="StatsPage"><polygon fill="#181818" points="138,149.5703,148,153.5703,138,157.5703,142,153.5703" style="stroke:#181818;stroke-width:1;"/><line style="stroke:#181818;stroke-width:1;" x1="22" x2="144" y1="153.5703" y2="153.5703"/><text fill="#000000" font-family="sans-serif" font-size="13" lengthAdjust="spacing" textLength="104" x="29" y="148.7139">&#36873;&#25321;&#35838;&#31243;&#26597;&#30475;&#32479;&#35745;</text></g><g class="message" data-participant-1="StatsPage" data-participant-2="GradeCtrl"><polygon fill="#181818" points="318,179.9219,328,183.9219,318,187.9219,322,183.9219" style="stroke:#181818;stroke-width:1;"/><line style="stroke:#181818;stroke-width:1;" x1="150" x2="324" y1="183.9219" y2="183.9219"/><text fill="#000000" font-family="sans-serif" font-size="13" lengthAdjust="spacing" textLength="142.3462" x="157" y="179.0654">getGradeStats(courseId)</text></g><g class="message" data-participant-1="GradeCtrl" data-participant-2="Grade"><polygon fill="#181818" points="484.4771,210.2734,494.4771,214.2734,484.4771,218.2734,488.4771,214.2734" style="stroke:#181818;stroke-width:1;"/><line style="stroke:#181818;stroke-width:1;" x1="330" x2="490.4771" y1="214.2734" y2="214.2734"/><text fill="#000000" font-family="sans-serif" font-size="13" lengthAdjust="spacing" textLength="136.5571" x="337" y="209.417">findByCourse(courseId)</text></g><g class="message" data-participant-1="Grade" data-participant-2="GradeCtrl"><polygon fill="#181818" points="341,240.625,331,244.625,341,248.625,337,244.625" style="stroke:#181818;stroke-width:1;"/><line style="stroke:#181818;stroke-width:1;stroke-dasharray:2,2;" x1="335" x2="495.4771" y1="244.625" y2="244.625"/><text fill="#000000" font-family="sans-serif" font-size="13" lengthAdjust="spacing" textLength="53.479" x="347" y="239.7686">gradeList</text></g><g class="message" data-participant-1="GradeCtrl" data-participant-2="GradeCtrl"><line style="stroke:#181818;stroke-width:1;" x1="330" x2="372" y1="274.9766" y2="274.9766"/><line style="stroke:#181818;stroke-width:1;" x1="372" x2="372" y1="274.9766" y2="287.9766"/><line style="stroke:#181818;stroke-width:1;" x1="331" x2="372" y1="287.9766" y2="287.9766"/><polygon fill="#181818" points="341,283.9766,331,287.9766,341,291.9766,337,287.9766" style="stroke:#181818;stroke-width:1;"/><text fill="#000000" font-family="sans-serif" font-size="13" lengthAdjust="spacing" textLength="152.4771" x="337" y="270.1201">generateReport(gradeList)</text></g><g class="message" data-participant-1="GradeCtrl" data-participant-2="StatsPage"><polygon fill="#181818" points="161,314.3281,151,318.3281,161,322.3281,157,318.3281" style="stroke:#181818;stroke-width:1;"/><line style="stroke:#181818;stroke-width:1;stroke-dasharray:2,2;" x1="155" x2="329" y1="318.3281" y2="318.3281"/><text fill="#000000" font-family="sans-serif" font-size="13" lengthAdjust="spacing" textLength="156" x="167" y="313.4717">&#36820;&#22238;&#20998;&#24067;&#21450;&#26684;&#29575;&#31561;&#22270;&#34920;&#25968;&#25454;</text></g><g class="message" data-participant-1="StatsPage" data-participant-2="Teacher"><polygon fill="#181818" points="33,344.6797,23,348.6797,33,352.6797,29,348.6797" style="stroke:#181818;stroke-width:1;"/><line style="stroke:#181818;stroke-width:1;" x1="27" x2="149" y1="348.6797" y2="348.6797"/><text fill="#000000" font-family="sans-serif" font-size="13" lengthAdjust="spacing" textLength="78" x="39" y="343.8232">&#23637;&#31034;&#20998;&#26512;&#22270;&#34920;</text></g><!--SRC=[RP6_Jy905CVt-oikJ3Wmi38usC6OE1X__05dUsAJfYNNny1cOgB5Hc2GmQ1WZKOOH1aq10p-DNVN_XUULw6XSRkxz_b-NjuxiC6X-CWebojO11qv7ydv81v7FBWG_GukuIIQyLcRznO84HCyXWkYUykdGG4J7nzIOfvIXewzkciHrbWMKrFgIAAFvFvHumT0mDyZLOfCpmNcEOhNf6YzyE1JJkOQssR4eWOm1r4NR51M_PBL4FfhZ4kRcHHNS7BM5E4eVbl8OIW6p_8kJAT16QGIAxzAL2degmQAfbTdFjsnDb36B0CAFh5TQwjXQ2ZFubBU_7lUjNtunxLgxb96WExJciUWk4gijS-D67_Vy5vVhPPFptdxIZnyoTQbV6sg7ugZeUY-Y-ln-hZBNLKmdtJbqopzbfJ_0G00]--></g></svg>