<svg xmlns="http://www.w3.org/2000/svg" xmlns:xlink="http://www.w3.org/1999/xlink" contentStyleType="text/css" data-diagram-type="SEQUENCE" height="375px" preserveAspectRatio="none" style="width:630px;height:375px;background:#FFFFFF;" version="1.1" viewBox="0 0 630 375" width="630px" zoomAndPan="magnify"><title>UC12: &#21457;&#24067;&#35838;&#31243;&#20449;&#24687; - &#39034;&#24207;&#22270;</title><defs/><g><text fill="#000000" font-family="sans-serif" font-size="14" font-weight="bold" lengthAdjust="spacing" textLength="186.7236" x="223.342" y="29.5332">UC12: &#21457;&#24067;&#35838;&#31243;&#20449;&#24687; - &#39034;&#24207;&#22270;</text><g><title>...</title><rect fill="#000000" fill-opacity="0.00000" height="171.7578" width="8" x="25" y="121.2188"/><line style="stroke:#181818;stroke-width:0.5;stroke-dasharray:5,5;" x1="29" x2="29" y1="121.2188" y2="292.9766"/></g><g><title>........</title><rect fill="#000000" fill-opacity="0.00000" height="171.7578" width="8" x="218" y="121.2188"/><line style="stroke:#181818;stroke-width:0.5;stroke-dasharray:5,5;" x1="222" x2="222" y1="121.2188" y2="292.9766"/></g><g><title>.....</title><rect fill="#000000" fill-opacity="0.00000" height="171.7578" width="8" x="450.1079" y="121.2188"/><line style="stroke:#181818;stroke-width:0.5;stroke-dasharray:5,5;" x1="454.1079" x2="454.1079" y1="121.2188" y2="292.9766"/></g><g><title>Course</title><rect fill="#000000" fill-opacity="0.00000" height="171.7578" width="8" x="599.8423" y="121.2188"/><line style="stroke:#181818;stroke-width:0.5;stroke-dasharray:5,5;" x1="603.2769" x2="603.2769" y1="121.2188" y2="292.9766"/></g><g class="participant participant-head" data-participant="AA"><text fill="#000000" font-family="sans-serif" font-size="14" lengthAdjust="spacing" textLength="42" x="5" y="118.1426">&#25945;&#21153;&#22788;</text><ellipse cx="29" cy="52.1094" fill="#E2E2F0" rx="8" ry="8" style="stroke:#181818;stroke-width:0.5;"/><path d="M29,60.1094 L29,87.1094 M16,68.1094 L42,68.1094 M29,87.1094 L16,102.1094 M29,87.1094 L42,102.1094" fill="none" style="stroke:#181818;stroke-width:0.5;"/></g><g class="participant participant-tail" data-participant="AA"><text fill="#000000" font-family="sans-serif" font-size="14" lengthAdjust="spacing" textLength="42" x="5" y="306.5098">&#25945;&#21153;&#22788;</text><ellipse cx="29" cy="318.0859" fill="#E2E2F0" rx="8" ry="8" style="stroke:#181818;stroke-width:0.5;"/><path d="M29,326.0859 L29,353.0859 M16,334.0859 L42,334.0859 M29,353.0859 L16,368.0859 M29,353.0859 L42,368.0859" fill="none" style="stroke:#181818;stroke-width:0.5;"/></g><g class="participant participant-head" data-participant="EditForm"><text fill="#000000" font-family="sans-serif" font-size="14" lengthAdjust="spacing" textLength="112" x="163" y="118.1426">&#35838;&#31243;&#35814;&#24773;&#32534;&#36753;&#30028;&#38754;</text><path d="M201.5,75.6094 L201.5,99.6094 M201.5,87.6094 L218.5,87.6094" fill="none" style="stroke:#181818;stroke-width:0.5;"/><ellipse cx="230.5" cy="87.6094" fill="#E2E2F0" rx="12" ry="12" style="stroke:#181818;stroke-width:0.5;"/></g><g class="participant participant-tail" data-participant="EditForm"><text fill="#000000" font-family="sans-serif" font-size="14" lengthAdjust="spacing" textLength="112" x="163" y="306.5098">&#35838;&#31243;&#35814;&#24773;&#32534;&#36753;&#30028;&#38754;</text><path d="M201.5,313.5859 L201.5,337.5859 M201.5,325.5859 L218.5,325.5859" fill="none" style="stroke:#181818;stroke-width:0.5;"/><ellipse cx="230.5" cy="325.5859" fill="#E2E2F0" rx="12" ry="12" style="stroke:#181818;stroke-width:0.5;"/></g><g class="participant participant-head" data-participant="CourseCtrl"><text fill="#000000" font-family="sans-serif" font-size="14" lengthAdjust="spacing" textLength="70" x="416.1079" y="118.1426">&#35838;&#31243;&#25511;&#21046;&#22120;</text><ellipse cx="454.1079" cy="87.6094" fill="#E2E2F0" rx="12" ry="12" style="stroke:#181818;stroke-width:0.5;"/><polygon fill="#181818" points="450.1079,75.6094,456.1079,70.6094,454.1079,75.6094,456.1079,80.6094,450.1079,75.6094" style="stroke:#181818;stroke-width:1;"/></g><g class="participant participant-tail" data-participant="CourseCtrl"><text fill="#000000" font-family="sans-serif" font-size="14" lengthAdjust="spacing" textLength="70" x="416.1079" y="306.5098">&#35838;&#31243;&#25511;&#21046;&#22120;</text><ellipse cx="454.1079" cy="325.5859" fill="#E2E2F0" rx="12" ry="12" style="stroke:#181818;stroke-width:0.5;"/><polygon fill="#181818" points="450.1079,313.5859,456.1079,308.5859,454.1079,313.5859,456.1079,318.5859,450.1079,313.5859" style="stroke:#181818;stroke-width:1;"/></g><g class="participant participant-head" data-participant="Course"><text fill="#000000" font-family="sans-serif" font-size="14" lengthAdjust="spacing" textLength="45.1309" x="578.2769" y="118.1426">Course</text><ellipse cx="603.8423" cy="87.6094" fill="#E2E2F0" rx="12" ry="12" style="stroke:#181818;stroke-width:0.5;"/><line style="stroke:#181818;stroke-width:0.5;" x1="591.8423" x2="615.8423" y1="101.6094" y2="101.6094"/></g><g class="participant participant-tail" data-participant="Course"><text fill="#000000" font-family="sans-serif" font-size="14" lengthAdjust="spacing" textLength="45.1309" x="578.2769" y="306.5098">Course</text><ellipse cx="603.8423" cy="325.5859" fill="#E2E2F0" rx="12" ry="12" style="stroke:#181818;stroke-width:0.5;"/><line style="stroke:#181818;stroke-width:0.5;" x1="591.8423" x2="615.8423" y1="339.5859" y2="339.5859"/></g><g class="message" data-participant-1="AA" data-participant-2="EditForm"><polygon fill="#181818" points="210,149.5703,220,153.5703,210,157.5703,214,153.5703" style="stroke:#181818;stroke-width:1;"/><line style="stroke:#181818;stroke-width:1;" x1="29" x2="216" y1="153.5703" y2="153.5703"/><text fill="#000000" font-family="sans-serif" font-size="13" lengthAdjust="spacing" textLength="169" x="36" y="148.7139">&#34917;&#20805;&#22823;&#32434;&#12289;&#35745;&#21010;&#12289;&#25945;&#26448;&#31561;&#20869;&#23481;</text></g><g class="message" data-participant-1="EditForm" data-participant-2="CourseCtrl"><polygon fill="#181818" points="442.1079,179.9219,452.1079,183.9219,442.1079,187.9219,446.1079,183.9219" style="stroke:#181818;stroke-width:1;"/><line style="stroke:#181818;stroke-width:1;" x1="222" x2="448.1079" y1="183.9219" y2="183.9219"/><text fill="#000000" font-family="sans-serif" font-size="13" lengthAdjust="spacing" textLength="208.1079" x="229" y="179.0654">publishCourseInfo(courseId, details)</text></g><g class="message" data-participant-1="CourseCtrl" data-participant-2="Course"><polygon fill="#181818" points="591.8423,210.2734,601.8423,214.2734,591.8423,218.2734,595.8423,214.2734" style="stroke:#181818;stroke-width:1;"/><line style="stroke:#181818;stroke-width:1;" x1="454.1079" x2="597.8423" y1="214.2734" y2="214.2734"/><text fill="#000000" font-family="sans-serif" font-size="13" lengthAdjust="spacing" textLength="125.7344" x="461.1079" y="209.417">updateDetails(details)</text></g><g class="message" data-participant-1="Course" data-participant-2="CourseCtrl"><polygon fill="#181818" points="465.1079,240.625,455.1079,244.625,465.1079,248.625,461.1079,244.625" style="stroke:#181818;stroke-width:1;"/><line style="stroke:#181818;stroke-width:1;stroke-dasharray:2,2;" x1="459.1079" x2="602.8423" y1="244.625" y2="244.625"/><text fill="#000000" font-family="sans-serif" font-size="13" lengthAdjust="spacing" textLength="46.96" x="471.1079" y="239.7686">success</text></g><g class="message" data-participant-1="CourseCtrl" data-participant-2="AA"><polygon fill="#181818" points="40,270.9766,30,274.9766,40,278.9766,36,274.9766" style="stroke:#181818;stroke-width:1;"/><line style="stroke:#181818;stroke-width:1;stroke-dasharray:2,2;" x1="34" x2="453.1079" y1="274.9766" y2="274.9766"/><text fill="#000000" font-family="sans-serif" font-size="13" lengthAdjust="spacing" textLength="78" x="46" y="270.1201">&#25552;&#31034;&#21457;&#24067;&#25104;&#21151;</text></g><!--SRC=[NP71IiD048Rl-nH3JXNCGOyz224g-00-G9f43CHioMuEtYmrKgkOLAXGf4YasbxQW0VH8FLXT3RfMxWq66jlmypt_RFBS8UxDXpgMzjrmAY7R-qYdUUJg-_FHBHIK66HP9X5U3ydn30vzK4H_G5s4noTAs0mq3JIe85d6VufAALRfC-Y7UOVTyMyb_Ul5yF79RbdENoV-YV4f1xtgVkBYvinTbvnC5bIEWryPklSTudjSOVBrBArCYL4qq3TgHAX3aNoX668et6UlNoTjOfPWfrRMSZ7Yc6SJo_n8iJPEwaKgV-jaW7DeE4wxBZi7NX7j6QMfRK9biqDnsKRPCMeVEa6JSlWzcv9rTPeKDTNiS0qRSR-fKb6_gaE8ehpKLPUGdHYx3xy0000]--></g></svg>