<svg xmlns="http://www.w3.org/2000/svg" xmlns:xlink="http://www.w3.org/1999/xlink" contentStyleType="text/css" data-diagram-type="CLASS" height="489px" preserveAspectRatio="none" style="width:282px;height:489px;background:#FFFFFF;" version="1.1" viewBox="0 0 282 489" width="282px" zoomAndPan="magnify"><title>UC12: &#21457;&#24067;&#35838;&#31243;&#20449;&#24687; - &#21442;&#19982;&#31867;&#22270; (VOPC)</title><defs/><g><g class="title" data-source-line="1"><text fill="#000000" font-family="sans-serif" font-size="14" font-weight="bold" lengthAdjust="spacing" textLength="254.0508" x="10" y="24.5332">UC12: &#21457;&#24067;&#35838;&#31243;&#20449;&#24687; - &#21442;&#19982;&#31867;&#22270; (VOPC)</text></g><!--class CourseDetailForm--><g class="entity" data-entity="CourseDetailForm" data-source-line="3" data-uid="ent0002" id="entity_CourseDetailForm"><rect fill="#F1F1F1" height="76.3125" rx="2.5" ry="2.5" style="stroke:#181818;stroke-width:0.5;" width="145.5859" x="70.9775" y="45.6094"/><ellipse cx="85.9775" cy="66.9609" fill="#ADD1B2" rx="11" ry="11" style="stroke:#181818;stroke-width:1;"/><path d="M88.7432,62.8359 Q88.8994,62.6172 89.0869,62.5078 Q89.2744,62.3984 89.4932,62.3984 Q89.8682,62.3984 90.1025,62.6641 Q90.3369,62.9141 90.3369,63.5234 L90.3369,64.9766 Q90.3369,65.5859 90.1025,65.8516 Q89.8682,66.1172 89.4932,66.1172 Q89.1494,66.1172 88.9463,65.9141 Q88.7432,65.7266 88.6338,65.2109 Q88.5869,64.8516 88.3994,64.6641 Q88.0713,64.2891 87.4619,64.0703 Q86.8525,63.8516 86.2275,63.8516 Q85.4619,63.8516 84.8213,64.1797 Q84.1963,64.5078 83.6963,65.2578 Q83.2119,66.0078 83.2119,67.0391 L83.2119,68.1328 Q83.2119,69.3672 84.1025,70.1953 Q84.9932,71.0078 86.5869,71.0078 Q87.5244,71.0078 88.1807,70.7578 Q88.5713,70.6016 88.9932,70.1641 Q89.2588,69.8984 89.3994,69.8203 Q89.5557,69.7422 89.7588,69.7422 Q90.0869,69.7422 90.3369,70.0078 Q90.6025,70.2578 90.6025,70.6016 Q90.6025,70.9453 90.2588,71.3516 Q89.7588,71.9297 88.9619,72.2578 Q87.8838,72.7109 86.5869,72.7109 Q85.0713,72.7109 83.8682,72.0859 Q82.8838,71.5859 82.1963,70.5234 Q81.5088,69.4453 81.5088,68.1641 L81.5088,67.0078 Q81.5088,65.6797 82.1182,64.5391 Q82.7432,63.3828 83.8369,62.7734 Q84.9307,62.1484 86.165,62.1484 Q86.8994,62.1484 87.54,62.3203 Q88.1963,62.4766 88.7432,62.8359 Z " fill="#000000"/><text fill="#000000" font-family="sans-serif" font-size="12" font-style="italic" lengthAdjust="spacing" textLength="63.3867" x="125.0771" y="63.0664">&#171;boundary&#187;</text><text fill="#000000" font-family="sans-serif" font-size="14" lengthAdjust="spacing" textLength="113.5859" x="99.9775" y="80.2363">CourseDetailForm</text><line style="stroke:#181818;stroke-width:0.5;" x1="71.9775" x2="215.5635" y1="88.3125" y2="88.3125"/><line style="stroke:#181818;stroke-width:0.5;" x1="71.9775" x2="215.5635" y1="96.3125" y2="96.3125"/><ellipse cx="81.9775" cy="110.6172" fill="#84BE84" rx="3" ry="3" style="stroke:#038048;stroke-width:1;"/><text fill="#000000" font-family="sans-serif" font-size="14" lengthAdjust="spacing" textLength="89.4961" x="90.9775" y="114.8457">getInputData()</text></g><!--class CourseController--><g class="entity" data-entity="CourseController" data-source-line="7" data-uid="ent0003" id="entity_CourseController"><rect fill="#F1F1F1" height="76.3125" rx="2.5" ry="2.5" style="stroke:#181818;stroke-width:0.5;" width="194.0957" x="46.9775" y="199.6094"/><ellipse cx="87.3015" cy="220.9609" fill="#ADD1B2" rx="11" ry="11" style="stroke:#181818;stroke-width:1;"/><path d="M90.0671,216.8359 Q90.2233,216.6172 90.4108,216.5078 Q90.5983,216.3984 90.8171,216.3984 Q91.1921,216.3984 91.4265,216.6641 Q91.6608,216.9141 91.6608,217.5234 L91.6608,218.9766 Q91.6608,219.5859 91.4265,219.8516 Q91.1921,220.1172 90.8171,220.1172 Q90.4733,220.1172 90.2702,219.9141 Q90.0671,219.7266 89.9577,219.2109 Q89.9108,218.8516 89.7233,218.6641 Q89.3952,218.2891 88.7858,218.0703 Q88.1765,217.8516 87.5515,217.8516 Q86.7858,217.8516 86.1452,218.1797 Q85.5202,218.5078 85.0202,219.2578 Q84.5358,220.0078 84.5358,221.0391 L84.5358,222.1328 Q84.5358,223.3672 85.4265,224.1953 Q86.3171,225.0078 87.9108,225.0078 Q88.8483,225.0078 89.5046,224.7578 Q89.8952,224.6016 90.3171,224.1641 Q90.5827,223.8984 90.7233,223.8203 Q90.8796,223.7422 91.0827,223.7422 Q91.4108,223.7422 91.6608,224.0078 Q91.9265,224.2578 91.9265,224.6016 Q91.9265,224.9453 91.5827,225.3516 Q91.0827,225.9297 90.2858,226.2578 Q89.2077,226.7109 87.9108,226.7109 Q86.3952,226.7109 85.1921,226.0859 Q84.2077,225.5859 83.5202,224.5234 Q82.8327,223.4453 82.8327,222.1641 L82.8327,221.0078 Q82.8327,219.6797 83.4421,218.5391 Q84.0671,217.3828 85.1608,216.7734 Q86.2546,216.1484 87.489,216.1484 Q88.2233,216.1484 88.864,216.3203 Q89.5202,216.4766 90.0671,216.8359 Z " fill="#000000"/><text fill="#000000" font-family="sans-serif" font-size="12" font-style="italic" lengthAdjust="spacing" textLength="49.3652" x="135.1565" y="217.0664">&#171;control&#187;</text><text fill="#000000" font-family="sans-serif" font-size="14" lengthAdjust="spacing" textLength="105.8203" x="106.929" y="234.2363">CourseController</text><line style="stroke:#181818;stroke-width:0.5;" x1="47.9775" x2="240.0732" y1="242.3125" y2="242.3125"/><line style="stroke:#181818;stroke-width:0.5;" x1="47.9775" x2="240.0732" y1="250.3125" y2="250.3125"/><ellipse cx="57.9775" cy="264.6172" fill="#84BE84" rx="3" ry="3" style="stroke:#038048;stroke-width:1;"/><text fill="#000000" font-family="sans-serif" font-size="14" lengthAdjust="spacing" textLength="168.0957" x="66.9775" y="268.8457">publishCourseInfo(id, data)</text></g><!--class Course--><g class="entity" data-entity="Course" data-source-line="11" data-uid="ent0004" id="entity_Course"><rect fill="#F1F1F1" height="129.1406" rx="2.5" ry="2.5" style="stroke:#181818;stroke-width:0.5;" width="148.1855" x="69.9775" y="353.6094"/><ellipse cx="117.2549" cy="374.9609" fill="#ADD1B2" rx="11" ry="11" style="stroke:#181818;stroke-width:1;"/><path d="M120.0205,370.8359 Q120.1768,370.6172 120.3643,370.5078 Q120.5518,370.3984 120.7705,370.3984 Q121.1455,370.3984 121.3799,370.6641 Q121.6143,370.9141 121.6143,371.5234 L121.6143,372.9766 Q121.6143,373.5859 121.3799,373.8516 Q121.1455,374.1172 120.7705,374.1172 Q120.4268,374.1172 120.2236,373.9141 Q120.0205,373.7266 119.9111,373.2109 Q119.8643,372.8516 119.6768,372.6641 Q119.3486,372.2891 118.7393,372.0703 Q118.1299,371.8516 117.5049,371.8516 Q116.7393,371.8516 116.0986,372.1797 Q115.4736,372.5078 114.9736,373.2578 Q114.4893,374.0078 114.4893,375.0391 L114.4893,376.1328 Q114.4893,377.3672 115.3799,378.1953 Q116.2705,379.0078 117.8643,379.0078 Q118.8018,379.0078 119.458,378.7578 Q119.8486,378.6016 120.2705,378.1641 Q120.5361,377.8984 120.6768,377.8203 Q120.833,377.7422 121.0361,377.7422 Q121.3643,377.7422 121.6143,378.0078 Q121.8799,378.2578 121.8799,378.6016 Q121.8799,378.9453 121.5361,379.3516 Q121.0361,379.9297 120.2393,380.2578 Q119.1611,380.7109 117.8643,380.7109 Q116.3486,380.7109 115.1455,380.0859 Q114.1611,379.5859 113.4736,378.5234 Q112.7861,377.4453 112.7861,376.1641 L112.7861,375.0078 Q112.7861,373.6797 113.3955,372.5391 Q114.0205,371.3828 115.1143,370.7734 Q116.208,370.1484 117.4424,370.1484 Q118.1768,370.1484 118.8174,370.3203 Q119.4736,370.4766 120.0205,370.8359 Z " fill="#000000"/><text fill="#000000" font-family="sans-serif" font-size="12" font-style="italic" lengthAdjust="spacing" textLength="42.0293" x="139.3057" y="371.0664">&#171;entity&#187;</text><text fill="#000000" font-family="sans-serif" font-size="14" lengthAdjust="spacing" textLength="45.1309" x="137.7549" y="388.2363">Course</text><line style="stroke:#181818;stroke-width:0.5;" x1="70.9775" x2="217.1631" y1="396.3125" y2="396.3125"/><rect fill="none" height="6" style="stroke:#C82930;stroke-width:1;" width="6" x="77.9775" y="407.6172"/><text fill="#000000" font-family="sans-serif" font-size="14" lengthAdjust="spacing" textLength="94.9307" x="89.9775" y="414.8457">syllabus: String</text><rect fill="none" height="6" style="stroke:#C82930;stroke-width:1;" width="6" x="77.9775" y="425.2266"/><text fill="#000000" font-family="sans-serif" font-size="14" lengthAdjust="spacing" textLength="104.2754" x="89.9775" y="432.4551">textbooks: String</text><rect fill="none" height="6" style="stroke:#C82930;stroke-width:1;" width="6" x="77.9775" y="442.8359"/><text fill="#000000" font-family="sans-serif" font-size="14" lengthAdjust="spacing" textLength="70.8203" x="89.9775" y="450.0645">plan: String</text><line style="stroke:#181818;stroke-width:0.5;" x1="70.9775" x2="217.1631" y1="457.1406" y2="457.1406"/><ellipse cx="80.9775" cy="471.4453" fill="#84BE84" rx="3" ry="3" style="stroke:#038048;stroke-width:1;"/><text fill="#000000" font-family="sans-serif" font-size="14" lengthAdjust="spacing" textLength="122.1855" x="89.9775" y="475.6738">updateDetails(data)</text></g><!--link CourseDetailForm to CourseController--><g class="link" data-entity-1="CourseDetailForm" data-entity-2="CourseController" data-source-line="18" data-uid="lnk5" id="link_CourseDetailForm_CourseController"><path codeLine="18" d="M143.9775,121.7894 C143.9775,145.4394 143.9775,169.9294 143.9775,193.5494" fill="none" id="CourseDetailForm-to-CourseController" style="stroke:#181818;stroke-width:1;stroke-dasharray:7,7;"/><polygon fill="#181818" points="143.9775,199.5494,147.9775,190.5494,143.9775,194.5494,139.9775,190.5494,143.9775,199.5494" style="stroke:#181818;stroke-width:1;"/><text fill="#000000" font-family="sans-serif" font-size="13" lengthAdjust="spacing" textLength="27.46" x="144.9775" y="166.1045">uses</text></g><!--link CourseController to Course--><g class="link" data-entity-1="CourseController" data-entity-2="Course" data-source-line="19" data-uid="lnk6" id="link_CourseController_Course"><path codeLine="19" d="M143.9775,276.0294 C143.9775,298.4194 143.9775,321.4694 143.9775,347.3794" fill="none" id="CourseController-to-Course" style="stroke:#181818;stroke-width:1;stroke-dasharray:7,7;"/><polygon fill="#181818" points="143.9775,353.3794,147.9775,344.3794,143.9775,348.3794,139.9775,344.3794,143.9775,353.3794" style="stroke:#181818;stroke-width:1;"/><text fill="#000000" font-family="sans-serif" font-size="13" lengthAdjust="spacing" textLength="46.2617" x="144.9775" y="320.1045">updates</text></g><!--SRC=[PO_FIm915CVlyrUyuuefr76HlQm8dWgYxhFkP8ElcMNU6qYYWtOC2i-Ul7cJRa9W_uoR_HbEAPdjkxqFtnzyMJCgk4fFps8eNoVbykbhiThCdzSViy_H0Xe1ZjVBbytRUpbTGNHzVf7MXEYX98BKUaUghLXgx5Xt1wrMPht9fHic2Jm825U7lkAkAJot9Ske9XwFtQarx2oYSi7Tspr_p8NFKDFjJjirDpRI-Gda8QgI5FpAiEP3TmDeY2WpJp5SijEclyUixZcpTl2V5oZD4Qg3BqBPVYD5lyMLwSrcKbqKWoT5ei8Fuc_9JmDj0G00]--></g></svg>