<svg xmlns="http://www.w3.org/2000/svg" xmlns:xlink="http://www.w3.org/1999/xlink" contentStyleType="text/css" data-diagram-type="SEQUENCE" height="466px" preserveAspectRatio="none" style="width:680px;height:466px;background:#FFFFFF;" version="1.1" viewBox="0 0 680 466" width="680px" zoomAndPan="magnify"><title>UC13: &#31649;&#29702;&#35838;&#31243;&#35745;&#21010; - &#39034;&#24207;&#22270;</title><defs/><g><text fill="#000000" font-family="sans-serif" font-size="14" font-weight="bold" lengthAdjust="spacing" textLength="186.7236" x="248.6296" y="29.5332">UC13: &#31649;&#29702;&#35838;&#31243;&#35745;&#21010; - &#39034;&#24207;&#22270;</text><g><title>...</title><rect fill="#000000" fill-opacity="0.00000" height="262.8125" width="8" x="25" y="121.2188"/><line style="stroke:#181818;stroke-width:0.5;stroke-dasharray:5,5;" x1="29" x2="29" y1="121.2188" y2="384.0313"/></g><g><title>........</title><rect fill="#000000" fill-opacity="0.00000" height="262.8125" width="8" x="218" y="121.2188"/><line style="stroke:#181818;stroke-width:0.5;stroke-dasharray:5,5;" x1="222" x2="222" y1="121.2188" y2="384.0313"/></g><g><title>.....</title><rect fill="#000000" fill-opacity="0.00000" height="262.8125" width="8" x="425.5615" y="121.2188"/><line style="stroke:#181818;stroke-width:0.5;stroke-dasharray:5,5;" x1="429.5615" x2="429.5615" y1="121.2188" y2="384.0313"/></g><g><title>Course</title><rect fill="#000000" fill-opacity="0.00000" height="262.8125" width="8" x="576.0386" y="121.2188"/><line style="stroke:#181818;stroke-width:0.5;stroke-dasharray:5,5;" x1="579.4731" x2="579.4731" y1="121.2188" y2="384.0313"/></g><g><title>Schedule</title><rect fill="#000000" fill-opacity="0.00000" height="262.8125" width="8" x="643.7935" y="121.2188"/><line style="stroke:#181818;stroke-width:0.5;stroke-dasharray:5,5;" x1="647.604" x2="647.604" y1="121.2188" y2="384.0313"/></g><g class="participant participant-head" data-participant="AA"><text fill="#000000" font-family="sans-serif" font-size="14" lengthAdjust="spacing" textLength="42" x="5" y="118.1426">&#25945;&#21153;&#22788;</text><ellipse cx="29" cy="52.1094" fill="#E2E2F0" rx="8" ry="8" style="stroke:#181818;stroke-width:0.5;"/><path d="M29,60.1094 L29,87.1094 M16,68.1094 L42,68.1094 M29,87.1094 L16,102.1094 M29,87.1094 L42,102.1094" fill="none" style="stroke:#181818;stroke-width:0.5;"/></g><g class="participant participant-tail" data-participant="AA"><text fill="#000000" font-family="sans-serif" font-size="14" lengthAdjust="spacing" textLength="42" x="5" y="397.5645">&#25945;&#21153;&#22788;</text><ellipse cx="29" cy="409.1406" fill="#E2E2F0" rx="8" ry="8" style="stroke:#181818;stroke-width:0.5;"/><path d="M29,417.1406 L29,444.1406 M16,425.1406 L42,425.1406 M29,444.1406 L16,459.1406 M29,444.1406 L42,459.1406" fill="none" style="stroke:#181818;stroke-width:0.5;"/></g><g class="participant participant-head" data-participant="PlanForm"><text fill="#000000" font-family="sans-serif" font-size="14" lengthAdjust="spacing" textLength="112" x="163" y="118.1426">&#35838;&#31243;&#35745;&#21010;&#31649;&#29702;&#30028;&#38754;</text><path d="M201.5,75.6094 L201.5,99.6094 M201.5,87.6094 L218.5,87.6094" fill="none" style="stroke:#181818;stroke-width:0.5;"/><ellipse cx="230.5" cy="87.6094" fill="#E2E2F0" rx="12" ry="12" style="stroke:#181818;stroke-width:0.5;"/></g><g class="participant participant-tail" data-participant="PlanForm"><text fill="#000000" font-family="sans-serif" font-size="14" lengthAdjust="spacing" textLength="112" x="163" y="397.5645">&#35838;&#31243;&#35745;&#21010;&#31649;&#29702;&#30028;&#38754;</text><path d="M201.5,404.6406 L201.5,428.6406 M201.5,416.6406 L218.5,416.6406" fill="none" style="stroke:#181818;stroke-width:0.5;"/><ellipse cx="230.5" cy="416.6406" fill="#E2E2F0" rx="12" ry="12" style="stroke:#181818;stroke-width:0.5;"/></g><g class="participant participant-head" data-participant="CourseCtrl"><text fill="#000000" font-family="sans-serif" font-size="14" lengthAdjust="spacing" textLength="70" x="391.5615" y="118.1426">&#35838;&#31243;&#25511;&#21046;&#22120;</text><ellipse cx="429.5615" cy="87.6094" fill="#E2E2F0" rx="12" ry="12" style="stroke:#181818;stroke-width:0.5;"/><polygon fill="#181818" points="425.5615,75.6094,431.5615,70.6094,429.5615,75.6094,431.5615,80.6094,425.5615,75.6094" style="stroke:#181818;stroke-width:1;"/></g><g class="participant participant-tail" data-participant="CourseCtrl"><text fill="#000000" font-family="sans-serif" font-size="14" lengthAdjust="spacing" textLength="70" x="391.5615" y="397.5645">&#35838;&#31243;&#25511;&#21046;&#22120;</text><ellipse cx="429.5615" cy="416.6406" fill="#E2E2F0" rx="12" ry="12" style="stroke:#181818;stroke-width:0.5;"/><polygon fill="#181818" points="425.5615,404.6406,431.5615,399.6406,429.5615,404.6406,431.5615,409.6406,425.5615,404.6406" style="stroke:#181818;stroke-width:1;"/></g><g class="participant participant-head" data-participant="Course"><text fill="#000000" font-family="sans-serif" font-size="14" lengthAdjust="spacing" textLength="45.1309" x="554.4731" y="118.1426">Course</text><ellipse cx="580.0386" cy="87.6094" fill="#E2E2F0" rx="12" ry="12" style="stroke:#181818;stroke-width:0.5;"/><line style="stroke:#181818;stroke-width:0.5;" x1="568.0386" x2="592.0386" y1="101.6094" y2="101.6094"/></g><g class="participant participant-tail" data-participant="Course"><text fill="#000000" font-family="sans-serif" font-size="14" lengthAdjust="spacing" textLength="45.1309" x="554.4731" y="397.5645">Course</text><ellipse cx="580.0386" cy="416.6406" fill="#E2E2F0" rx="12" ry="12" style="stroke:#181818;stroke-width:0.5;"/><line style="stroke:#181818;stroke-width:0.5;" x1="568.0386" x2="592.0386" y1="430.6406" y2="430.6406"/></g><g class="participant participant-head" data-participant="Schedule"><text fill="#000000" font-family="sans-serif" font-size="14" lengthAdjust="spacing" textLength="58.3789" x="615.604" y="118.1426">Schedule</text><ellipse cx="647.7935" cy="87.6094" fill="#E2E2F0" rx="12" ry="12" style="stroke:#181818;stroke-width:0.5;"/><line style="stroke:#181818;stroke-width:0.5;" x1="635.7935" x2="659.7935" y1="101.6094" y2="101.6094"/></g><g class="participant participant-tail" data-participant="Schedule"><text fill="#000000" font-family="sans-serif" font-size="14" lengthAdjust="spacing" textLength="58.3789" x="615.604" y="397.5645">Schedule</text><ellipse cx="647.7935" cy="416.6406" fill="#E2E2F0" rx="12" ry="12" style="stroke:#181818;stroke-width:0.5;"/><line style="stroke:#181818;stroke-width:0.5;" x1="635.7935" x2="659.7935" y1="430.6406" y2="430.6406"/></g><g class="message" data-participant-1="AA" data-participant-2="PlanForm"><polygon fill="#181818" points="210,149.5703,220,153.5703,210,157.5703,214,153.5703" style="stroke:#181818;stroke-width:1;"/><line style="stroke:#181818;stroke-width:1;" x1="29" x2="216" y1="153.5703" y2="153.5703"/><text fill="#000000" font-family="sans-serif" font-size="13" lengthAdjust="spacing" textLength="169" x="36" y="148.7139">&#35843;&#25972;&#23398;&#20998;&#12289;&#25945;&#24072;&#12289;&#26102;&#38388;&#31561;&#38754;&#26495;</text></g><g class="message" data-participant-1="PlanForm" data-participant-2="CourseCtrl"><polygon fill="#181818" points="417.5615,179.9219,427.5615,183.9219,417.5615,187.9219,421.5615,183.9219" style="stroke:#181818;stroke-width:1;"/><line style="stroke:#181818;stroke-width:1;" x1="222" x2="423.5615" y1="183.9219" y2="183.9219"/><text fill="#000000" font-family="sans-serif" font-size="13" lengthAdjust="spacing" textLength="183.5615" x="229" y="179.0654">updatePlan(courseId, planData)</text></g><g class="message" data-participant-1="CourseCtrl" data-participant-2="Schedule"><polygon fill="#181818" points="635.7935,210.2734,645.7935,214.2734,635.7935,218.2734,639.7935,214.2734" style="stroke:#181818;stroke-width:1;"/><line style="stroke:#181818;stroke-width:1;" x1="429.5615" x2="641.7935" y1="214.2734" y2="214.2734"/><text fill="#000000" font-family="sans-serif" font-size="13" lengthAdjust="spacing" textLength="175.5825" x="436.5615" y="209.417">checkGlobalConflict(planData)</text></g><g class="message" data-participant-1="Schedule" data-participant-2="CourseCtrl"><polygon fill="#181818" points="440.5615,240.625,430.5615,244.625,440.5615,248.625,436.5615,244.625" style="stroke:#181818;stroke-width:1;"/><line style="stroke:#181818;stroke-width:1;stroke-dasharray:2,2;" x1="434.5615" x2="646.7935" y1="244.625" y2="244.625"/><text fill="#000000" font-family="sans-serif" font-size="13" lengthAdjust="spacing" textLength="57.8081" x="446.5615" y="239.7686">noConflict</text></g><g class="message" data-participant-1="CourseCtrl" data-participant-2="Course"><polygon fill="#181818" points="568.0386,270.9766,578.0386,274.9766,568.0386,278.9766,572.0386,274.9766" style="stroke:#181818;stroke-width:1;"/><line style="stroke:#181818;stroke-width:1;" x1="429.5615" x2="574.0386" y1="274.9766" y2="274.9766"/><text fill="#000000" font-family="sans-serif" font-size="13" lengthAdjust="spacing" textLength="126.4771" x="436.5615" y="270.1201">updatePlan(planData)</text></g><g class="message" data-participant-1="Course" data-participant-2="CourseCtrl"><polygon fill="#181818" points="440.5615,301.3281,430.5615,305.3281,440.5615,309.3281,436.5615,305.3281" style="stroke:#181818;stroke-width:1;"/><line style="stroke:#181818;stroke-width:1;stroke-dasharray:2,2;" x1="434.5615" x2="579.0386" y1="305.3281" y2="305.3281"/><text fill="#000000" font-family="sans-serif" font-size="13" lengthAdjust="spacing" textLength="46.96" x="446.5615" y="300.4717">success</text></g><g class="message" data-participant-1="CourseCtrl" data-participant-2="PlanForm"><polygon fill="#181818" points="233,331.6797,223,335.6797,233,339.6797,229,335.6797" style="stroke:#181818;stroke-width:1;"/><line style="stroke:#181818;stroke-width:1;stroke-dasharray:2,2;" x1="227" x2="428.5615" y1="335.6797" y2="335.6797"/><text fill="#000000" font-family="sans-serif" font-size="13" lengthAdjust="spacing" textLength="78" x="239" y="330.8232">&#26356;&#26032;&#25104;&#21151;&#25552;&#31034;</text></g><g class="message" data-participant-1="PlanForm" data-participant-2="AA"><polygon fill="#181818" points="40,362.0313,30,366.0313,40,370.0313,36,366.0313" style="stroke:#181818;stroke-width:1;"/><line style="stroke:#181818;stroke-width:1;" x1="34" x2="221" y1="366.0313" y2="366.0313"/><text fill="#000000" font-family="sans-serif" font-size="13" lengthAdjust="spacing" textLength="52" x="46" y="361.1748">&#26174;&#31034;&#32467;&#26524;</text></g><!--SRC=[PL3DIiD04BxlKomzLR07yTQ342AADq5yWEqcOd7DbcHpyAOe9LQnHQcrr2gHehsqzb2AL8WF8xkRleMRXgHDlStCzpFV32ipOi93VMEp2ENGburg-1d8_aquzBbt3mjmva_vjCux0G08Csh3d6YsUStdlQiSH0xKD52YhcKW-mpcbhMncspUphflS-O-GTOEjKy1fXQpAKdeukw3UnFUxizPEdLjnzIPJO1fiJ9Jhl5e2KsH0tni6Yw9iQG1GDDWOIlT1uim75sAvfWFthbN_Js_Y2xuygAYDPcrnd9mhJAAxWz89Kg-2A8Ct8g1c1d1UJoVxndhiABQRSJG6bZYAcKIHEbKXKzs2IqXebFhY9GnoozaAR6mki-Y2HsicCTTDj9gaFz-ZeknwJWPh-oBH6Si7aV2Q_3QgwWtP6-Q-OPwgU8y1Mekln_4o_CV]--></g></svg>