<svg xmlns="http://www.w3.org/2000/svg" xmlns:xlink="http://www.w3.org/1999/xlink" contentStyleType="text/css" data-diagram-type="CLASS" height="472px" preserveAspectRatio="none" style="width:426px;height:472px;background:#FFFFFF;" version="1.1" viewBox="0 0 426 472" width="426px" zoomAndPan="magnify"><title>UC13: &#31649;&#29702;&#35838;&#31243;&#35745;&#21010; - &#21442;&#19982;&#31867;&#22270; (VOPC)</title><defs/><g><g class="title" data-source-line="1"><text fill="#000000" font-family="sans-serif" font-size="14" font-weight="bold" lengthAdjust="spacing" textLength="254.0508" x="79.1758" y="24.5332">UC13: &#31649;&#29702;&#35838;&#31243;&#35745;&#21010; - &#21442;&#19982;&#31867;&#22270; (VOPC)</text></g><!--class CoursePlanForm--><g class="entity" data-entity="CoursePlanForm" data-source-line="3" data-uid="ent0002" id="entity_CoursePlanForm"><rect fill="#F1F1F1" height="76.3125" rx="2.5" ry="2.5" style="stroke:#181818;stroke-width:0.5;" width="137.8135" x="116.5" y="45.6094"/><ellipse cx="131.5" cy="66.9609" fill="#ADD1B2" rx="11" ry="11" style="stroke:#181818;stroke-width:1;"/><path d="M134.2656,62.8359 Q134.4219,62.6172 134.6094,62.5078 Q134.7969,62.3984 135.0156,62.3984 Q135.3906,62.3984 135.625,62.6641 Q135.8594,62.9141 135.8594,63.5234 L135.8594,64.9766 Q135.8594,65.5859 135.625,65.8516 Q135.3906,66.1172 135.0156,66.1172 Q134.6719,66.1172 134.4688,65.9141 Q134.2656,65.7266 134.1563,65.2109 Q134.1094,64.8516 133.9219,64.6641 Q133.5938,64.2891 132.9844,64.0703 Q132.375,63.8516 131.75,63.8516 Q130.9844,63.8516 130.3438,64.1797 Q129.7188,64.5078 129.2188,65.2578 Q128.7344,66.0078 128.7344,67.0391 L128.7344,68.1328 Q128.7344,69.3672 129.625,70.1953 Q130.5156,71.0078 132.1094,71.0078 Q133.0469,71.0078 133.7031,70.7578 Q134.0938,70.6016 134.5156,70.1641 Q134.7813,69.8984 134.9219,69.8203 Q135.0781,69.7422 135.2813,69.7422 Q135.6094,69.7422 135.8594,70.0078 Q136.125,70.2578 136.125,70.6016 Q136.125,70.9453 135.7813,71.3516 Q135.2813,71.9297 134.4844,72.2578 Q133.4063,72.7109 132.1094,72.7109 Q130.5938,72.7109 129.3906,72.0859 Q128.4063,71.5859 127.7188,70.5234 Q127.0313,69.4453 127.0313,68.1641 L127.0313,67.0078 Q127.0313,65.6797 127.6406,64.5391 Q128.2656,63.3828 129.3594,62.7734 Q130.4531,62.1484 131.6875,62.1484 Q132.4219,62.1484 133.0625,62.3203 Q133.7188,62.4766 134.2656,62.8359 Z " fill="#000000"/><text fill="#000000" font-family="sans-serif" font-size="12" font-style="italic" lengthAdjust="spacing" textLength="63.3867" x="166.7134" y="63.0664">&#171;boundary&#187;</text><text fill="#000000" font-family="sans-serif" font-size="14" lengthAdjust="spacing" textLength="105.8135" x="145.5" y="80.2363">CoursePlanForm</text><line style="stroke:#181818;stroke-width:0.5;" x1="117.5" x2="253.3135" y1="88.3125" y2="88.3125"/><line style="stroke:#181818;stroke-width:0.5;" x1="117.5" x2="253.3135" y1="96.3125" y2="96.3125"/><ellipse cx="127.5" cy="110.6172" fill="#84BE84" rx="3" ry="3" style="stroke:#038048;stroke-width:1;"/><text fill="#000000" font-family="sans-serif" font-size="14" lengthAdjust="spacing" textLength="109.7373" x="136.5" y="114.8457">getUpdatedPlan()</text></g><!--class CourseController--><g class="entity" data-entity="CourseController" data-source-line="7" data-uid="ent0003" id="entity_CourseController"><rect fill="#F1F1F1" height="76.3125" rx="2.5" ry="2.5" style="stroke:#181818;stroke-width:0.5;" width="152.0889" x="109.5" y="199.6094"/><ellipse cx="130.9208" cy="220.9609" fill="#ADD1B2" rx="11" ry="11" style="stroke:#181818;stroke-width:1;"/><path d="M133.6865,216.8359 Q133.8427,216.6172 134.0302,216.5078 Q134.2177,216.3984 134.4365,216.3984 Q134.8115,216.3984 135.0458,216.6641 Q135.2802,216.9141 135.2802,217.5234 L135.2802,218.9766 Q135.2802,219.5859 135.0458,219.8516 Q134.8115,220.1172 134.4365,220.1172 Q134.0927,220.1172 133.8896,219.9141 Q133.6865,219.7266 133.5771,219.2109 Q133.5302,218.8516 133.3427,218.6641 Q133.0146,218.2891 132.4052,218.0703 Q131.7958,217.8516 131.1708,217.8516 Q130.4052,217.8516 129.7646,218.1797 Q129.1396,218.5078 128.6396,219.2578 Q128.1552,220.0078 128.1552,221.0391 L128.1552,222.1328 Q128.1552,223.3672 129.0458,224.1953 Q129.9365,225.0078 131.5302,225.0078 Q132.4677,225.0078 133.124,224.7578 Q133.5146,224.6016 133.9365,224.1641 Q134.2021,223.8984 134.3427,223.8203 Q134.499,223.7422 134.7021,223.7422 Q135.0302,223.7422 135.2802,224.0078 Q135.5458,224.2578 135.5458,224.6016 Q135.5458,224.9453 135.2021,225.3516 Q134.7021,225.9297 133.9052,226.2578 Q132.8271,226.7109 131.5302,226.7109 Q130.0146,226.7109 128.8115,226.0859 Q127.8271,225.5859 127.1396,224.5234 Q126.4521,223.4453 126.4521,222.1641 L126.4521,221.0078 Q126.4521,219.6797 127.0615,218.5391 Q127.6865,217.3828 128.7802,216.7734 Q129.874,216.1484 131.1083,216.1484 Q131.8427,216.1484 132.4833,216.3203 Q133.1396,216.4766 133.6865,216.8359 Z " fill="#000000"/><text fill="#000000" font-family="sans-serif" font-size="12" font-style="italic" lengthAdjust="spacing" textLength="49.3652" x="174.5752" y="217.0664">&#171;control&#187;</text><text fill="#000000" font-family="sans-serif" font-size="14" lengthAdjust="spacing" textLength="105.8203" x="146.3477" y="234.2363">CourseController</text><line style="stroke:#181818;stroke-width:0.5;" x1="110.5" x2="260.5889" y1="242.3125" y2="242.3125"/><line style="stroke:#181818;stroke-width:0.5;" x1="110.5" x2="260.5889" y1="250.3125" y2="250.3125"/><ellipse cx="120.5" cy="264.6172" fill="#84BE84" rx="3" ry="3" style="stroke:#038048;stroke-width:1;"/><text fill="#000000" font-family="sans-serif" font-size="14" lengthAdjust="spacing" textLength="126.0889" x="129.5" y="268.8457">updatePlan(id, data)</text></g><!--class Course--><g class="entity" data-entity="Course" data-source-line="11" data-uid="ent0004" id="entity_Course"><rect fill="#F1F1F1" height="111.5313" rx="2.5" ry="2.5" style="stroke:#181818;stroke-width:0.5;" width="133.4131" x="7" y="353.6094"/><ellipse cx="47.327" cy="374.9609" fill="#ADD1B2" rx="11" ry="11" style="stroke:#181818;stroke-width:1;"/><path d="M50.0926,370.8359 Q50.2489,370.6172 50.4364,370.5078 Q50.6239,370.3984 50.8426,370.3984 Q51.2176,370.3984 51.452,370.6641 Q51.6864,370.9141 51.6864,371.5234 L51.6864,372.9766 Q51.6864,373.5859 51.452,373.8516 Q51.2176,374.1172 50.8426,374.1172 Q50.4989,374.1172 50.2958,373.9141 Q50.0926,373.7266 49.9833,373.2109 Q49.9364,372.8516 49.7489,372.6641 Q49.4208,372.2891 48.8114,372.0703 Q48.202,371.8516 47.577,371.8516 Q46.8114,371.8516 46.1708,372.1797 Q45.5458,372.5078 45.0458,373.2578 Q44.5614,374.0078 44.5614,375.0391 L44.5614,376.1328 Q44.5614,377.3672 45.452,378.1953 Q46.3426,379.0078 47.9364,379.0078 Q48.8739,379.0078 49.5301,378.7578 Q49.9208,378.6016 50.3426,378.1641 Q50.6083,377.8984 50.7489,377.8203 Q50.9051,377.7422 51.1083,377.7422 Q51.4364,377.7422 51.6864,378.0078 Q51.952,378.2578 51.952,378.6016 Q51.952,378.9453 51.6083,379.3516 Q51.1083,379.9297 50.3114,380.2578 Q49.2333,380.7109 47.9364,380.7109 Q46.4208,380.7109 45.2176,380.0859 Q44.2333,379.5859 43.5458,378.5234 Q42.8583,377.4453 42.8583,376.1641 L42.8583,375.0078 Q42.8583,373.6797 43.4676,372.5391 Q44.0926,371.3828 45.1864,370.7734 Q46.2801,370.1484 47.5145,370.1484 Q48.2489,370.1484 48.8895,370.3203 Q49.5458,370.4766 50.0926,370.8359 Z " fill="#000000"/><text fill="#000000" font-family="sans-serif" font-size="12" font-style="italic" lengthAdjust="spacing" textLength="42.0293" x="68.506" y="371.0664">&#171;entity&#187;</text><text fill="#000000" font-family="sans-serif" font-size="14" lengthAdjust="spacing" textLength="45.1309" x="66.9552" y="388.2363">Course</text><line style="stroke:#181818;stroke-width:0.5;" x1="8" x2="139.4131" y1="396.3125" y2="396.3125"/><rect fill="none" height="6" style="stroke:#C82930;stroke-width:1;" width="6" x="15" y="407.6172"/><text fill="#000000" font-family="sans-serif" font-size="14" lengthAdjust="spacing" textLength="75.4756" x="27" y="414.8457">credits: float</text><rect fill="none" height="6" style="stroke:#C82930;stroke-width:1;" width="6" x="15" y="425.2266"/><text fill="#000000" font-family="sans-serif" font-size="14" lengthAdjust="spacing" textLength="102.7236" x="27" y="432.4551">teacherId: String</text><line style="stroke:#181818;stroke-width:0.5;" x1="8" x2="139.4131" y1="439.5313" y2="439.5313"/><ellipse cx="18" cy="453.8359" fill="#84BE84" rx="3" ry="3" style="stroke:#038048;stroke-width:1;"/><text fill="#000000" font-family="sans-serif" font-size="14" lengthAdjust="spacing" textLength="107.4131" x="27" y="458.0645">updatePlan(data)</text></g><!--class Schedule--><g class="entity" data-entity="Schedule" data-source-line="17" data-uid="ent0005" id="entity_Schedule"><rect fill="#F1F1F1" height="111.5313" rx="2.5" ry="2.5" style="stroke:#181818;stroke-width:0.5;" width="243.9023" x="175.5" y="353.6094"/><ellipse cx="264.0117" cy="374.9609" fill="#ADD1B2" rx="11" ry="11" style="stroke:#181818;stroke-width:1;"/><path d="M266.7773,370.8359 Q266.9336,370.6172 267.1211,370.5078 Q267.3086,370.3984 267.5273,370.3984 Q267.9023,370.3984 268.1367,370.6641 Q268.3711,370.9141 268.3711,371.5234 L268.3711,372.9766 Q268.3711,373.5859 268.1367,373.8516 Q267.9023,374.1172 267.5273,374.1172 Q267.1836,374.1172 266.9805,373.9141 Q266.7773,373.7266 266.668,373.2109 Q266.6211,372.8516 266.4336,372.6641 Q266.1055,372.2891 265.4961,372.0703 Q264.8867,371.8516 264.2617,371.8516 Q263.4961,371.8516 262.8555,372.1797 Q262.2305,372.5078 261.7305,373.2578 Q261.2461,374.0078 261.2461,375.0391 L261.2461,376.1328 Q261.2461,377.3672 262.1367,378.1953 Q263.0273,379.0078 264.6211,379.0078 Q265.5586,379.0078 266.2148,378.7578 Q266.6055,378.6016 267.0273,378.1641 Q267.293,377.8984 267.4336,377.8203 Q267.5898,377.7422 267.793,377.7422 Q268.1211,377.7422 268.3711,378.0078 Q268.6367,378.2578 268.6367,378.6016 Q268.6367,378.9453 268.293,379.3516 Q267.793,379.9297 266.9961,380.2578 Q265.918,380.7109 264.6211,380.7109 Q263.1055,380.7109 261.9023,380.0859 Q260.918,379.5859 260.2305,378.5234 Q259.543,377.4453 259.543,376.1641 L259.543,375.0078 Q259.543,373.6797 260.1523,372.5391 Q260.7773,371.3828 261.8711,370.7734 Q262.9648,370.1484 264.1992,370.1484 Q264.9336,370.1484 265.5742,370.3203 Q266.2305,370.4766 266.7773,370.8359 Z " fill="#000000"/><text fill="#000000" font-family="sans-serif" font-size="12" font-style="italic" lengthAdjust="spacing" textLength="42.0293" x="292.6865" y="371.0664">&#171;entity&#187;</text><text fill="#000000" font-family="sans-serif" font-size="14" lengthAdjust="spacing" textLength="58.3789" x="284.5117" y="388.2363">Schedule</text><line style="stroke:#181818;stroke-width:0.5;" x1="176.5" x2="418.4023" y1="396.3125" y2="396.3125"/><rect fill="none" height="6" style="stroke:#C82930;stroke-width:1;" width="6" x="183.5" y="407.6172"/><text fill="#000000" font-family="sans-serif" font-size="14" lengthAdjust="spacing" textLength="94.9238" x="195.5" y="414.8457">timeSlot: String</text><rect fill="none" height="6" style="stroke:#C82930;stroke-width:1;" width="6" x="183.5" y="425.2266"/><text fill="#000000" font-family="sans-serif" font-size="14" lengthAdjust="spacing" textLength="108.1445" x="195.5" y="432.4551">classroom: String</text><line style="stroke:#181818;stroke-width:0.5;" x1="176.5" x2="418.4023" y1="439.5313" y2="439.5313"/><ellipse cx="186.5" cy="453.8359" fill="#84BE84" rx="3" ry="3" style="stroke:#038048;stroke-width:1;"/><text fill="#000000" font-family="sans-serif" font-size="14" lengthAdjust="spacing" textLength="217.9023" x="195.5" y="458.0645">checkGlobalConflict(data): boolean</text></g><!--link CoursePlanForm to CourseController--><g class="link" data-entity-1="CoursePlanForm" data-entity-2="CourseController" data-source-line="23" data-uid="lnk6" id="link_CoursePlanForm_CourseController"><path codeLine="23" d="M185.5,121.7894 C185.5,145.4394 185.5,169.9294 185.5,193.5494" fill="none" id="CoursePlanForm-to-CourseController" style="stroke:#181818;stroke-width:1;stroke-dasharray:7,7;"/><polygon fill="#181818" points="185.5,199.5494,189.5,190.5494,185.5,194.5494,181.5,190.5494,185.5,199.5494" style="stroke:#181818;stroke-width:1;"/><text fill="#000000" font-family="sans-serif" font-size="13" lengthAdjust="spacing" textLength="27.46" x="186.5" y="166.1045">uses</text></g><!--link CourseController to Course--><g class="link" data-entity-1="CourseController" data-entity-2="Course" data-source-line="24" data-uid="lnk7" id="link_CourseController_Course"><path codeLine="24" d="M160.92,275.9194 C145.98,298.5894 129.9294,322.948 113.2394,348.298" fill="none" id="CourseController-to-Course" style="stroke:#181818;stroke-width:1;stroke-dasharray:7,7;"/><polygon fill="#181818" points="109.94,353.3094,118.23,347.9919,112.6895,349.1332,111.5482,343.5927,109.94,353.3094" style="stroke:#181818;stroke-width:1;"/><text fill="#000000" font-family="sans-serif" font-size="13" lengthAdjust="spacing" textLength="46.2617" x="141.5" y="320.1045">updates</text></g><!--link CourseController to Schedule--><g class="link" data-entity-1="CourseController" data-entity-2="Schedule" data-source-line="25" data-uid="lnk8" id="link_CourseController_Schedule"><path codeLine="25" d="M210.08,275.9194 C225.02,298.5894 241.0706,322.948 257.7606,348.298" fill="none" id="CourseController-to-Schedule" style="stroke:#181818;stroke-width:1;stroke-dasharray:7,7;"/><polygon fill="#181818" points="261.06,353.3094,259.4518,343.5927,258.3105,349.1332,252.77,347.9919,261.06,353.3094" style="stroke:#181818;stroke-width:1;"/><text fill="#000000" font-family="sans-serif" font-size="13" lengthAdjust="spacing" textLength="40.46" x="242.5" y="320.1045">checks</text></g><!--SRC=[TP2nIWD148RxUuef4pG1iLl2DGUAbO4ZzdkxcxWujokxSuM8ZOK8WegjLJghY9qWv6aCbyTmxqwCkTFjPlY_-NQ6DA62IRAtpw1SpCl7c_NhidovMo_cgzid6C3guVhp_Rvy-rWzBw5tSZnE-b4aa7iFYIsSLsFavi2w74QZp1P6SdSHnt0PGNWxC5CqEPUSbAnolNvqjKqdrf2pYCe5NZJ5BxoesHhLSXT2mJiZ0gWCQTfe1o2SafeyWobQJjzDKboSAdSa6QJaj9br9Ir16lAom3yLf7ELegMjOS5SWSxQl2K9ayJP8TgCOzXvYbfGOsEGMOkAcqhREkbm67VlnA3moaUT_YPSHUgT_adzhCMQR_al]--></g></svg>