<svg xmlns="http://www.w3.org/2000/svg" xmlns:xlink="http://www.w3.org/1999/xlink" contentStyleType="text/css" data-diagram-type="SEQUENCE" height="496px" preserveAspectRatio="none" style="width:782px;height:496px;background:#FFFFFF;" version="1.1" viewBox="0 0 782 496" width="782px" zoomAndPan="magnify"><title>UC14: &#22788;&#29702;&#29305;&#27530;&#36873;&#35838;&#35831;&#27714; - &#39034;&#24207;&#22270;</title><defs/><g><text fill="#000000" font-family="sans-serif" font-size="14" font-weight="bold" lengthAdjust="spacing" textLength="215.5986" x="285.0938" y="29.5332">UC14: &#22788;&#29702;&#29305;&#27530;&#36873;&#35838;&#35831;&#27714; - &#39034;&#24207;&#22270;</text><g><title>...</title><rect fill="#000000" fill-opacity="0.00000" height="293.1641" width="8" x="25" y="121.2188"/><line style="stroke:#181818;stroke-width:0.5;stroke-dasharray:5,5;" x1="29" x2="29" y1="121.2188" y2="414.3828"/></g><g><title>.........</title><rect fill="#000000" fill-opacity="0.00000" height="293.1641" width="8" x="231" y="121.2188"/><line style="stroke:#181818;stroke-width:0.5;stroke-dasharray:5,5;" x1="235" x2="235" y1="121.2188" y2="414.3828"/></g><g><title>.....</title><rect fill="#000000" fill-opacity="0.00000" height="293.1641" width="8" x="436.3652" y="121.2188"/><line style="stroke:#181818;stroke-width:0.5;stroke-dasharray:5,5;" x1="440.3652" x2="440.3652" y1="121.2188" y2="414.3828"/></g><g><title>EnrollmentRecord</title><rect fill="#000000" fill-opacity="0.00000" height="293.1641" width="8" x="657.6313" y="121.2188"/><line style="stroke:#181818;stroke-width:0.5;stroke-dasharray:5,5;" x1="661.6074" x2="661.6074" y1="121.2188" y2="414.3828"/></g><g><title>Course</title><rect fill="#000000" fill-opacity="0.00000" height="293.1641" width="8" x="752.2207" y="121.2188"/><line style="stroke:#181818;stroke-width:0.5;stroke-dasharray:5,5;" x1="755.6553" x2="755.6553" y1="121.2188" y2="414.3828"/></g><g class="participant participant-head" data-participant="AA"><text fill="#000000" font-family="sans-serif" font-size="14" lengthAdjust="spacing" textLength="42" x="5" y="118.1426">&#25945;&#21153;&#22788;</text><ellipse cx="29" cy="52.1094" fill="#E2E2F0" rx="8" ry="8" style="stroke:#181818;stroke-width:0.5;"/><path d="M29,60.1094 L29,87.1094 M16,68.1094 L42,68.1094 M29,87.1094 L16,102.1094 M29,87.1094 L42,102.1094" fill="none" style="stroke:#181818;stroke-width:0.5;"/></g><g class="participant participant-tail" data-participant="AA"><text fill="#000000" font-family="sans-serif" font-size="14" lengthAdjust="spacing" textLength="42" x="5" y="427.916">&#25945;&#21153;&#22788;</text><ellipse cx="29" cy="439.4922" fill="#E2E2F0" rx="8" ry="8" style="stroke:#181818;stroke-width:0.5;"/><path d="M29,447.4922 L29,474.4922 M16,455.4922 L42,455.4922 M29,474.4922 L16,489.4922 M29,474.4922 L42,489.4922" fill="none" style="stroke:#181818;stroke-width:0.5;"/></g><g class="participant participant-head" data-participant="AdminForm"><text fill="#000000" font-family="sans-serif" font-size="14" lengthAdjust="spacing" textLength="126" x="169" y="118.1426">&#31649;&#29702;&#21592;&#36873;&#35838;&#22788;&#29702;&#30028;&#38754;</text><path d="M214.5,75.6094 L214.5,99.6094 M214.5,87.6094 L231.5,87.6094" fill="none" style="stroke:#181818;stroke-width:0.5;"/><ellipse cx="243.5" cy="87.6094" fill="#E2E2F0" rx="12" ry="12" style="stroke:#181818;stroke-width:0.5;"/></g><g class="participant participant-tail" data-participant="AdminForm"><text fill="#000000" font-family="sans-serif" font-size="14" lengthAdjust="spacing" textLength="126" x="169" y="427.916">&#31649;&#29702;&#21592;&#36873;&#35838;&#22788;&#29702;&#30028;&#38754;</text><path d="M214.5,434.9922 L214.5,458.9922 M214.5,446.9922 L231.5,446.9922" fill="none" style="stroke:#181818;stroke-width:0.5;"/><ellipse cx="243.5" cy="446.9922" fill="#E2E2F0" rx="12" ry="12" style="stroke:#181818;stroke-width:0.5;"/></g><g class="participant participant-head" data-participant="EnrollCtrl"><text fill="#000000" font-family="sans-serif" font-size="14" lengthAdjust="spacing" textLength="70" x="402.3652" y="118.1426">&#36873;&#35838;&#25511;&#21046;&#31867;</text><ellipse cx="440.3652" cy="87.6094" fill="#E2E2F0" rx="12" ry="12" style="stroke:#181818;stroke-width:0.5;"/><polygon fill="#181818" points="436.3652,75.6094,442.3652,70.6094,440.3652,75.6094,442.3652,80.6094,436.3652,75.6094" style="stroke:#181818;stroke-width:1;"/></g><g class="participant participant-tail" data-participant="EnrollCtrl"><text fill="#000000" font-family="sans-serif" font-size="14" lengthAdjust="spacing" textLength="70" x="402.3652" y="427.916">&#36873;&#35838;&#25511;&#21046;&#31867;</text><ellipse cx="440.3652" cy="446.9922" fill="#E2E2F0" rx="12" ry="12" style="stroke:#181818;stroke-width:0.5;"/><polygon fill="#181818" points="436.3652,434.9922,442.3652,429.9922,440.3652,434.9922,442.3652,439.9922,436.3652,434.9922" style="stroke:#181818;stroke-width:1;"/></g><g class="participant participant-head" data-participant="Record"><text fill="#000000" font-family="sans-serif" font-size="14" lengthAdjust="spacing" textLength="112.0479" x="602.6074" y="118.1426">EnrollmentRecord</text><ellipse cx="661.6313" cy="87.6094" fill="#E2E2F0" rx="12" ry="12" style="stroke:#181818;stroke-width:0.5;"/><line style="stroke:#181818;stroke-width:0.5;" x1="649.6313" x2="673.6313" y1="101.6094" y2="101.6094"/></g><g class="participant participant-tail" data-participant="Record"><text fill="#000000" font-family="sans-serif" font-size="14" lengthAdjust="spacing" textLength="112.0479" x="602.6074" y="427.916">EnrollmentRecord</text><ellipse cx="661.6313" cy="446.9922" fill="#E2E2F0" rx="12" ry="12" style="stroke:#181818;stroke-width:0.5;"/><line style="stroke:#181818;stroke-width:0.5;" x1="649.6313" x2="673.6313" y1="460.9922" y2="460.9922"/></g><g class="participant participant-head" data-participant="Course"><text fill="#000000" font-family="sans-serif" font-size="14" lengthAdjust="spacing" textLength="45.1309" x="730.6553" y="118.1426">Course</text><ellipse cx="756.2207" cy="87.6094" fill="#E2E2F0" rx="12" ry="12" style="stroke:#181818;stroke-width:0.5;"/><line style="stroke:#181818;stroke-width:0.5;" x1="744.2207" x2="768.2207" y1="101.6094" y2="101.6094"/></g><g class="participant participant-tail" data-participant="Course"><text fill="#000000" font-family="sans-serif" font-size="14" lengthAdjust="spacing" textLength="45.1309" x="730.6553" y="427.916">Course</text><ellipse cx="756.2207" cy="446.9922" fill="#E2E2F0" rx="12" ry="12" style="stroke:#181818;stroke-width:0.5;"/><line style="stroke:#181818;stroke-width:0.5;" x1="744.2207" x2="768.2207" y1="460.9922" y2="460.9922"/></g><g class="message" data-participant-1="AA" data-participant-2="AdminForm"><polygon fill="#181818" points="223,149.5703,233,153.5703,223,157.5703,227,153.5703" style="stroke:#181818;stroke-width:1;"/><line style="stroke:#181818;stroke-width:1;" x1="29" x2="229" y1="153.5703" y2="153.5703"/><text fill="#000000" font-family="sans-serif" font-size="13" lengthAdjust="spacing" textLength="182" x="36" y="148.7139">&#36755;&#20837;&#23398;&#21495;&#21450;&#35838;&#31243;&#20195;&#30721;&#65292;&#24378;&#21046;&#21152;&#20837;</text></g><g class="message" data-participant-1="AdminForm" data-participant-2="EnrollCtrl"><polygon fill="#181818" points="428.3652,179.9219,438.3652,183.9219,428.3652,187.9219,432.3652,183.9219" style="stroke:#181818;stroke-width:1;"/><line style="stroke:#181818;stroke-width:1;" x1="235" x2="434.3652" y1="183.9219" y2="183.9219"/><text fill="#000000" font-family="sans-serif" font-size="13" lengthAdjust="spacing" textLength="181.3652" x="242" y="179.0654">forceEnroll(studentId, courseId)</text></g><g class="message" data-participant-1="EnrollCtrl" data-participant-2="Course"><polygon fill="#181818" points="744.2207,210.2734,754.2207,214.2734,744.2207,218.2734,748.2207,214.2734" style="stroke:#181818;stroke-width:1;"/><line style="stroke:#181818;stroke-width:1;" x1="440.3652" x2="750.2207" y1="214.2734" y2="214.2734"/><text fill="#000000" font-family="sans-serif" font-size="13" lengthAdjust="spacing" textLength="119.1963" x="447.3652" y="209.417">checkCourseExists()</text></g><g class="message" data-participant-1="Course" data-participant-2="EnrollCtrl"><polygon fill="#181818" points="451.3652,240.625,441.3652,244.625,451.3652,248.625,447.3652,244.625" style="stroke:#181818;stroke-width:1;"/><line style="stroke:#181818;stroke-width:1;stroke-dasharray:2,2;" x1="445.3652" x2="755.2207" y1="244.625" y2="244.625"/><text fill="#000000" font-family="sans-serif" font-size="13" lengthAdjust="spacing" textLength="33.23" x="457.3652" y="239.7686">exists</text></g><g class="message" data-participant-1="EnrollCtrl" data-participant-2="Record"><polygon fill="#181818" points="649.6313,270.9766,659.6313,274.9766,649.6313,278.9766,653.6313,274.9766" style="stroke:#181818;stroke-width:1;"/><line style="stroke:#181818;stroke-width:1;" x1="440.3652" x2="655.6313" y1="274.9766" y2="274.9766"/><text fill="#000000" font-family="sans-serif" font-size="13" lengthAdjust="spacing" textLength="197.2661" x="447.3652" y="270.1201">createRecord(studentId, courseId)</text></g><g class="message" data-participant-1="Record" data-participant-2="EnrollCtrl"><polygon fill="#181818" points="451.3652,301.3281,441.3652,305.3281,451.3652,309.3281,447.3652,305.3281" style="stroke:#181818;stroke-width:1;"/><line style="stroke:#181818;stroke-width:1;stroke-dasharray:2,2;" x1="445.3652" x2="660.6313" y1="305.3281" y2="305.3281"/><text fill="#000000" font-family="sans-serif" font-size="13" lengthAdjust="spacing" textLength="46.96" x="457.3652" y="300.4717">success</text></g><g class="message" data-participant-1="EnrollCtrl" data-participant-2="Course"><polygon fill="#181818" points="744.2207,331.6797,754.2207,335.6797,744.2207,339.6797,748.2207,335.6797" style="stroke:#181818;stroke-width:1;"/><line style="stroke:#181818;stroke-width:1;" x1="440.3652" x2="750.2207" y1="335.6797" y2="335.6797"/><text fill="#000000" font-family="sans-serif" font-size="13" lengthAdjust="spacing" textLength="92.479" x="447.3652" y="330.8232">decrementSlot()</text></g><g class="message" data-participant-1="EnrollCtrl" data-participant-2="AdminForm"><polygon fill="#181818" points="246,362.0313,236,366.0313,246,370.0313,242,366.0313" style="stroke:#181818;stroke-width:1;"/><line style="stroke:#181818;stroke-width:1;stroke-dasharray:2,2;" x1="240" x2="439.3652" y1="366.0313" y2="366.0313"/><text fill="#000000" font-family="sans-serif" font-size="13" lengthAdjust="spacing" textLength="78" x="252" y="361.1748">&#25805;&#20316;&#25104;&#21151;&#25552;&#31034;</text></g><g class="message" data-participant-1="AdminForm" data-participant-2="AA"><polygon fill="#181818" points="40,392.3828,30,396.3828,40,400.3828,36,396.3828" style="stroke:#181818;stroke-width:1;"/><line style="stroke:#181818;stroke-width:1;" x1="34" x2="234" y1="396.3828" y2="396.3828"/><text fill="#000000" font-family="sans-serif" font-size="13" lengthAdjust="spacing" textLength="52" x="46" y="391.5264">&#26174;&#31034;&#25104;&#21151;</text></g><!--SRC=[TP3FIm915CVlyrSCdXJo47Jo48WOU2tw0snsegLr1sPceMuL5RfP6Y8O5MdPZqkAbwJL_6kSNJtrB_JSaKohsyoyp_kyxpnfIelYpTJoIWAhvd5GFWqAxtxB7HyKHkt1gDtrEqSuZiSDJtabTJr0A4iaupZYLw-Ksu2M2CuAd4oYBUROHfRluqZGQe17NTQqPAgj5iUtznesSgQzndWE4MPBpYmSqQH_yQpoRq6d5s9f6qfMId8BKLkQ4ipwAGVNTKeODq9E7x-P57Eue6557n5A9d5yTJOM9_1eK54dZ-hrIPMwgkJ2xE3bRDXx2Eg7d_sYwdkGGxbrOD2i3HopJ23PPfnG_H8LqZ4WGSPOmYIScZ5Yw0SDlJeDz94TIdRrBRrd2YcYCJGjnXTdq1102ohzvOcAqwoa-lftXYdwIomSGgWG_sKqAAWdYzwmc8pEVsLXbtxbVFXnu-VBohtpI-MWwStl3BOFK6q01Grz0G00]--></g></svg>