<svg xmlns="http://www.w3.org/2000/svg" xmlns:xlink="http://www.w3.org/1999/xlink" contentStyleType="text/css" data-diagram-type="CLASS" height="454px" preserveAspectRatio="none" style="width:318px;height:454px;background:#FFFFFF;" version="1.1" viewBox="0 0 318 454" width="318px" zoomAndPan="magnify"><title>UC14: &#22788;&#29702;&#29305;&#27530;&#36873;&#35838;&#35831;&#27714; - &#21442;&#19982;&#31867;&#22270; (VOPC)</title><defs/><g><g class="title" data-source-line="1"><text fill="#000000" font-family="sans-serif" font-size="14" font-weight="bold" lengthAdjust="spacing" textLength="282.9258" x="10.8335" y="24.5332">UC14: &#22788;&#29702;&#29305;&#27530;&#36873;&#35838;&#35831;&#27714; - &#21442;&#19982;&#31867;&#22270; (VOPC)</text></g><!--class AdminEnrollForm--><g class="entity" data-entity="AdminEnrollForm" data-source-line="3" data-uid="ent0002" id="entity_AdminEnrollForm"><rect fill="#F1F1F1" height="93.9219" rx="2.5" ry="2.5" style="stroke:#181818;stroke-width:0.5;" width="140.1377" x="94" y="45.6094"/><ellipse cx="109" cy="66.9609" fill="#ADD1B2" rx="11" ry="11" style="stroke:#181818;stroke-width:1;"/><path d="M111.7656,62.8359 Q111.9219,62.6172 112.1094,62.5078 Q112.2969,62.3984 112.5156,62.3984 Q112.8906,62.3984 113.125,62.6641 Q113.3594,62.9141 113.3594,63.5234 L113.3594,64.9766 Q113.3594,65.5859 113.125,65.8516 Q112.8906,66.1172 112.5156,66.1172 Q112.1719,66.1172 111.9688,65.9141 Q111.7656,65.7266 111.6563,65.2109 Q111.6094,64.8516 111.4219,64.6641 Q111.0938,64.2891 110.4844,64.0703 Q109.875,63.8516 109.25,63.8516 Q108.4844,63.8516 107.8438,64.1797 Q107.2188,64.5078 106.7188,65.2578 Q106.2344,66.0078 106.2344,67.0391 L106.2344,68.1328 Q106.2344,69.3672 107.125,70.1953 Q108.0156,71.0078 109.6094,71.0078 Q110.5469,71.0078 111.2031,70.7578 Q111.5938,70.6016 112.0156,70.1641 Q112.2813,69.8984 112.4219,69.8203 Q112.5781,69.7422 112.7813,69.7422 Q113.1094,69.7422 113.3594,70.0078 Q113.625,70.2578 113.625,70.6016 Q113.625,70.9453 113.2813,71.3516 Q112.7813,71.9297 111.9844,72.2578 Q110.9063,72.7109 109.6094,72.7109 Q108.0938,72.7109 106.8906,72.0859 Q105.9063,71.5859 105.2188,70.5234 Q104.5313,69.4453 104.5313,68.1641 L104.5313,67.0078 Q104.5313,65.6797 105.1406,64.5391 Q105.7656,63.3828 106.8594,62.7734 Q107.9531,62.1484 109.1875,62.1484 Q109.9219,62.1484 110.5625,62.3203 Q111.2188,62.4766 111.7656,62.8359 Z " fill="#000000"/><text fill="#000000" font-family="sans-serif" font-size="12" font-style="italic" lengthAdjust="spacing" textLength="63.3867" x="145.3755" y="63.0664">&#171;boundary&#187;</text><text fill="#000000" font-family="sans-serif" font-size="14" lengthAdjust="spacing" textLength="108.1377" x="123" y="80.2363">AdminEnrollForm</text><line style="stroke:#181818;stroke-width:0.5;" x1="95" x2="233.1377" y1="88.3125" y2="88.3125"/><line style="stroke:#181818;stroke-width:0.5;" x1="95" x2="233.1377" y1="96.3125" y2="96.3125"/><ellipse cx="105" cy="110.6172" fill="#84BE84" rx="3" ry="3" style="stroke:#038048;stroke-width:1;"/><text fill="#000000" font-family="sans-serif" font-size="14" lengthAdjust="spacing" textLength="88.7236" x="114" y="114.8457">getStudentId()</text><ellipse cx="105" cy="128.2266" fill="#84BE84" rx="3" ry="3" style="stroke:#038048;stroke-width:1;"/><text fill="#000000" font-family="sans-serif" font-size="14" lengthAdjust="spacing" textLength="85.5928" x="114" y="132.4551">getCourseId()</text></g><!--class EnrollmentController--><g class="entity" data-entity="EnrollmentController" data-source-line="8" data-uid="ent0003" id="entity_EnrollmentController"><rect fill="#F1F1F1" height="76.3125" rx="2.5" ry="2.5" style="stroke:#181818;stroke-width:0.5;" width="159.6064" x="84" y="217.6094"/><ellipse cx="99" cy="238.9609" fill="#ADD1B2" rx="11" ry="11" style="stroke:#181818;stroke-width:1;"/><path d="M101.7656,234.8359 Q101.9219,234.6172 102.1094,234.5078 Q102.2969,234.3984 102.5156,234.3984 Q102.8906,234.3984 103.125,234.6641 Q103.3594,234.9141 103.3594,235.5234 L103.3594,236.9766 Q103.3594,237.5859 103.125,237.8516 Q102.8906,238.1172 102.5156,238.1172 Q102.1719,238.1172 101.9688,237.9141 Q101.7656,237.7266 101.6563,237.2109 Q101.6094,236.8516 101.4219,236.6641 Q101.0938,236.2891 100.4844,236.0703 Q99.875,235.8516 99.25,235.8516 Q98.4844,235.8516 97.8438,236.1797 Q97.2188,236.5078 96.7188,237.2578 Q96.2344,238.0078 96.2344,239.0391 L96.2344,240.1328 Q96.2344,241.3672 97.125,242.1953 Q98.0156,243.0078 99.6094,243.0078 Q100.5469,243.0078 101.2031,242.7578 Q101.5938,242.6016 102.0156,242.1641 Q102.2813,241.8984 102.4219,241.8203 Q102.5781,241.7422 102.7813,241.7422 Q103.1094,241.7422 103.3594,242.0078 Q103.625,242.2578 103.625,242.6016 Q103.625,242.9453 103.2813,243.3516 Q102.7813,243.9297 101.9844,244.2578 Q100.9063,244.7109 99.6094,244.7109 Q98.0938,244.7109 96.8906,244.0859 Q95.9063,243.5859 95.2188,242.5234 Q94.5313,241.4453 94.5313,240.1641 L94.5313,239.0078 Q94.5313,237.6797 95.1406,236.5391 Q95.7656,235.3828 96.8594,234.7734 Q97.9531,234.1484 99.1875,234.1484 Q99.9219,234.1484 100.5625,234.3203 Q101.2188,234.4766 101.7656,234.8359 Z " fill="#000000"/><text fill="#000000" font-family="sans-serif" font-size="12" font-style="italic" lengthAdjust="spacing" textLength="49.3652" x="152.1206" y="235.0664">&#171;control&#187;</text><text fill="#000000" font-family="sans-serif" font-size="14" lengthAdjust="spacing" textLength="127.6064" x="113" y="252.2363">EnrollmentController</text><line style="stroke:#181818;stroke-width:0.5;" x1="85" x2="242.6064" y1="260.3125" y2="260.3125"/><line style="stroke:#181818;stroke-width:0.5;" x1="85" x2="242.6064" y1="268.3125" y2="268.3125"/><ellipse cx="95" cy="282.6172" fill="#84BE84" rx="3" ry="3" style="stroke:#038048;stroke-width:1;"/><text fill="#000000" font-family="sans-serif" font-size="14" lengthAdjust="spacing" textLength="119.8135" x="104" y="286.8457">forceEnroll(sid, cid)</text></g><!--class EnrollmentRecord--><g class="entity" data-entity="EnrollmentRecord" data-source-line="12" data-uid="ent0004" id="entity_EnrollmentRecord"><rect fill="#F1F1F1" height="76.3125" rx="2.5" ry="2.5" style="stroke:#181818;stroke-width:0.5;" width="144.0479" x="7" y="371.6094"/><ellipse cx="22" cy="392.9609" fill="#ADD1B2" rx="11" ry="11" style="stroke:#181818;stroke-width:1;"/><path d="M24.7656,388.8359 Q24.9219,388.6172 25.1094,388.5078 Q25.2969,388.3984 25.5156,388.3984 Q25.8906,388.3984 26.125,388.6641 Q26.3594,388.9141 26.3594,389.5234 L26.3594,390.9766 Q26.3594,391.5859 26.125,391.8516 Q25.8906,392.1172 25.5156,392.1172 Q25.1719,392.1172 24.9688,391.9141 Q24.7656,391.7266 24.6563,391.2109 Q24.6094,390.8516 24.4219,390.6641 Q24.0938,390.2891 23.4844,390.0703 Q22.875,389.8516 22.25,389.8516 Q21.4844,389.8516 20.8438,390.1797 Q20.2188,390.5078 19.7188,391.2578 Q19.2344,392.0078 19.2344,393.0391 L19.2344,394.1328 Q19.2344,395.3672 20.125,396.1953 Q21.0156,397.0078 22.6094,397.0078 Q23.5469,397.0078 24.2031,396.7578 Q24.5938,396.6016 25.0156,396.1641 Q25.2813,395.8984 25.4219,395.8203 Q25.5781,395.7422 25.7813,395.7422 Q26.1094,395.7422 26.3594,396.0078 Q26.625,396.2578 26.625,396.6016 Q26.625,396.9453 26.2813,397.3516 Q25.7813,397.9297 24.9844,398.2578 Q23.9063,398.7109 22.6094,398.7109 Q21.0938,398.7109 19.8906,398.0859 Q18.9063,397.5859 18.2188,396.5234 Q17.5313,395.4453 17.5313,394.1641 L17.5313,393.0078 Q17.5313,391.6797 18.1406,390.5391 Q18.7656,389.3828 19.8594,388.7734 Q20.9531,388.1484 22.1875,388.1484 Q22.9219,388.1484 23.5625,388.3203 Q24.2188,388.4766 24.7656,388.8359 Z " fill="#000000"/><text fill="#000000" font-family="sans-serif" font-size="12" font-style="italic" lengthAdjust="spacing" textLength="42.0293" x="71.0093" y="389.0664">&#171;entity&#187;</text><text fill="#000000" font-family="sans-serif" font-size="14" lengthAdjust="spacing" textLength="112.0479" x="36" y="406.2363">EnrollmentRecord</text><line style="stroke:#181818;stroke-width:0.5;" x1="8" x2="150.0479" y1="414.3125" y2="414.3125"/><line style="stroke:#181818;stroke-width:0.5;" x1="8" x2="150.0479" y1="422.3125" y2="422.3125"/><ellipse cx="18" cy="436.6172" fill="#84BE84" rx="3" ry="3" style="stroke:#038048;stroke-width:1;"/><text fill="#000000" font-family="sans-serif" font-size="14" lengthAdjust="spacing" textLength="91.8066" x="27" y="440.8457">create(sid, cid)</text></g><!--class Course--><g class="entity" data-entity="Course" data-source-line="16" data-uid="ent0005" id="entity_Course"><rect fill="#F1F1F1" height="76.3125" rx="2.5" ry="2.5" style="stroke:#181818;stroke-width:0.5;" width="125.5928" x="186" y="371.6094"/><ellipse cx="222.8079" cy="392.9609" fill="#ADD1B2" rx="11" ry="11" style="stroke:#181818;stroke-width:1;"/><path d="M225.5735,388.8359 Q225.7297,388.6172 225.9172,388.5078 Q226.1047,388.3984 226.3235,388.3984 Q226.6985,388.3984 226.9329,388.6641 Q227.1672,388.9141 227.1672,389.5234 L227.1672,390.9766 Q227.1672,391.5859 226.9329,391.8516 Q226.6985,392.1172 226.3235,392.1172 Q225.9797,392.1172 225.7766,391.9141 Q225.5735,391.7266 225.4641,391.2109 Q225.4172,390.8516 225.2297,390.6641 Q224.9016,390.2891 224.2922,390.0703 Q223.6829,389.8516 223.0579,389.8516 Q222.2922,389.8516 221.6516,390.1797 Q221.0266,390.5078 220.5266,391.2578 Q220.0422,392.0078 220.0422,393.0391 L220.0422,394.1328 Q220.0422,395.3672 220.9329,396.1953 Q221.8235,397.0078 223.4172,397.0078 Q224.3547,397.0078 225.011,396.7578 Q225.4016,396.6016 225.8235,396.1641 Q226.0891,395.8984 226.2297,395.8203 Q226.386,395.7422 226.5891,395.7422 Q226.9172,395.7422 227.1672,396.0078 Q227.4329,396.2578 227.4329,396.6016 Q227.4329,396.9453 227.0891,397.3516 Q226.5891,397.9297 225.7922,398.2578 Q224.7141,398.7109 223.4172,398.7109 Q221.9016,398.7109 220.6985,398.0859 Q219.7141,397.5859 219.0266,396.5234 Q218.3391,395.4453 218.3391,394.1641 L218.3391,393.0078 Q218.3391,391.6797 218.9485,390.5391 Q219.5735,389.3828 220.6672,388.7734 Q221.761,388.1484 222.9954,388.1484 Q223.7297,388.1484 224.3704,388.3203 Q225.0266,388.4766 225.5735,388.8359 Z " fill="#000000"/><text fill="#000000" font-family="sans-serif" font-size="12" font-style="italic" lengthAdjust="spacing" textLength="42.0293" x="243.2048" y="389.0664">&#171;entity&#187;</text><text fill="#000000" font-family="sans-serif" font-size="14" lengthAdjust="spacing" textLength="45.1309" x="241.6541" y="406.2363">Course</text><line style="stroke:#181818;stroke-width:0.5;" x1="187" x2="310.5928" y1="414.3125" y2="414.3125"/><line style="stroke:#181818;stroke-width:0.5;" x1="187" x2="310.5928" y1="422.3125" y2="422.3125"/><ellipse cx="197" cy="436.6172" fill="#84BE84" rx="3" ry="3" style="stroke:#038048;stroke-width:1;"/><text fill="#000000" font-family="sans-serif" font-size="14" lengthAdjust="spacing" textLength="99.5928" x="206" y="440.8457">decrementSlot()</text></g><!--link AdminEnrollForm to EnrollmentController--><g class="link" data-entity-1="AdminEnrollForm" data-entity-2="EnrollmentController" data-source-line="20" data-uid="lnk6" id="link_AdminEnrollForm_EnrollmentController"><path codeLine="20" d="M164,139.7494 C164,164.3694 164,188.2694 164,211.3994" fill="none" id="AdminEnrollForm-to-EnrollmentController" style="stroke:#181818;stroke-width:1;stroke-dasharray:7,7;"/><polygon fill="#181818" points="164,217.3994,168,208.3994,164,212.3994,160,208.3994,164,217.3994" style="stroke:#181818;stroke-width:1;"/><text fill="#000000" font-family="sans-serif" font-size="13" lengthAdjust="spacing" textLength="27.46" x="165" y="184.1045">uses</text></g><!--link EnrollmentController to EnrollmentRecord--><g class="link" data-entity-1="EnrollmentController" data-entity-2="EnrollmentRecord" data-source-line="21" data-uid="lnk7" id="link_EnrollmentController_EnrollmentRecord"><path codeLine="21" d="M143.21,293.7894 C129.99,317.4394 115.857,342.6918 102.657,366.3118" fill="none" id="EnrollmentController-to-EnrollmentRecord" style="stroke:#181818;stroke-width:1;stroke-dasharray:7,7;"/><polygon fill="#181818" points="99.73,371.5494,107.6123,365.6443,102.1692,367.1847,100.6288,361.7416,99.73,371.5494" style="stroke:#181818;stroke-width:1;"/><text fill="#000000" font-family="sans-serif" font-size="13" lengthAdjust="spacing" textLength="42.6309" x="126" y="338.1045">creates</text></g><!--link EnrollmentController to Course--><g class="link" data-entity-1="EnrollmentController" data-entity-2="Course" data-source-line="22" data-uid="lnk8" id="link_EnrollmentController_Course"><path codeLine="22" d="M184.79,293.7894 C198.01,317.4394 212.143,342.6918 225.343,366.3118" fill="none" id="EnrollmentController-to-Course" style="stroke:#181818;stroke-width:1;stroke-dasharray:7,7;"/><polygon fill="#181818" points="228.27,371.5494,227.3712,361.7416,225.8308,367.1847,220.3877,365.6443,228.27,371.5494" style="stroke:#181818;stroke-width:1;"/><text fill="#000000" font-family="sans-serif" font-size="13" lengthAdjust="spacing" textLength="46.2617" x="210" y="338.1045">updates</text></g><!--SRC=[AyaioKbL27KsDB5IUBgavVc4jkUTEv-jwthPqFbY_RuNwxS_szYaeAlmjB_foOw-vnjtFvszJq4Zp3_0MPEBApadiRXOmJ4bDpFFDQyeFoV7BRyeLy769Yc_D2ybiQZIpawXcai12BGLqbDBWajAKrBpIZnJD3GHWixvfKN5gM2nMfY14BDoWMgTy_DAGEpK8g2foH0Eag5f-KN9gH3L6iMPAJeAoPafMCq9IatEBqe1cW5aPvOWkokvA3Mn91MRReZBiEb9IGNg0XaRd9DV0d4uUXZewTbXzuQLGcbnQZ4NLZbKJL0tMq6TY4SFrAL0emjIG2e1]--></g></svg>