<svg xmlns="http://www.w3.org/2000/svg" xmlns:xlink="http://www.w3.org/1999/xlink" contentStyleType="text/css" data-diagram-type="CLASS" height="525px" preserveAspectRatio="none" style="width:472px;height:525px;background:#FFFFFF;" version="1.1" viewBox="0 0 472 525" width="472px" zoomAndPan="magnify"><title>UC15: &#23457;&#25209;&#24310;&#26399;&#36864;&#35838;&#30003;&#35831; - &#21442;&#19982;&#31867;&#22270; (VOPC)</title><defs/><g><g class="title" data-source-line="1"><text fill="#000000" font-family="sans-serif" font-size="14" font-weight="bold" lengthAdjust="spacing" textLength="282.9258" x="87.561" y="24.5332">UC15: &#23457;&#25209;&#24310;&#26399;&#36864;&#35838;&#30003;&#35831; - &#21442;&#19982;&#31867;&#22270; (VOPC)</text></g><!--class ApprovalCenterPage--><g class="entity" data-entity="ApprovalCenterPage" data-source-line="3" data-uid="ent0002" id="entity_ApprovalCenterPage"><rect fill="#F1F1F1" height="93.9219" rx="2.5" ry="2.5" style="stroke:#181818;stroke-width:0.5;" width="162.1719" x="151" y="45.6094"/><ellipse cx="166.0901" cy="66.9609" fill="#ADD1B2" rx="11" ry="11" style="stroke:#181818;stroke-width:1;"/><path d="M168.8557,62.8359 Q169.012,62.6172 169.1995,62.5078 Q169.387,62.3984 169.6057,62.3984 Q169.9807,62.3984 170.2151,62.6641 Q170.4495,62.9141 170.4495,63.5234 L170.4495,64.9766 Q170.4495,65.5859 170.2151,65.8516 Q169.9807,66.1172 169.6057,66.1172 Q169.262,66.1172 169.0588,65.9141 Q168.8557,65.7266 168.7463,65.2109 Q168.6995,64.8516 168.512,64.6641 Q168.1838,64.2891 167.5745,64.0703 Q166.9651,63.8516 166.3401,63.8516 Q165.5745,63.8516 164.9338,64.1797 Q164.3088,64.5078 163.8088,65.2578 Q163.3245,66.0078 163.3245,67.0391 L163.3245,68.1328 Q163.3245,69.3672 164.2151,70.1953 Q165.1057,71.0078 166.6995,71.0078 Q167.637,71.0078 168.2932,70.7578 Q168.6838,70.6016 169.1057,70.1641 Q169.3713,69.8984 169.512,69.8203 Q169.6682,69.7422 169.8713,69.7422 Q170.1995,69.7422 170.4495,70.0078 Q170.7151,70.2578 170.7151,70.6016 Q170.7151,70.9453 170.3713,71.3516 Q169.8713,71.9297 169.0745,72.2578 Q167.9963,72.7109 166.6995,72.7109 Q165.1838,72.7109 163.9807,72.0859 Q162.9963,71.5859 162.3088,70.5234 Q161.6213,69.4453 161.6213,68.1641 L161.6213,67.0078 Q161.6213,65.6797 162.2307,64.5391 Q162.8557,63.3828 163.9495,62.7734 Q165.0432,62.1484 166.2776,62.1484 Q167.012,62.1484 167.6526,62.3203 Q168.3088,62.4766 168.8557,62.8359 Z " fill="#000000"/><text fill="#000000" font-family="sans-serif" font-size="12" font-style="italic" lengthAdjust="spacing" textLength="63.3867" x="213.4026" y="63.0664">&#171;boundary&#187;</text><text fill="#000000" font-family="sans-serif" font-size="14" lengthAdjust="spacing" textLength="129.9717" x="180.1101" y="80.2363">ApprovalCenterPage</text><line style="stroke:#181818;stroke-width:0.5;" x1="152" x2="312.1719" y1="88.3125" y2="88.3125"/><line style="stroke:#181818;stroke-width:0.5;" x1="152" x2="312.1719" y1="96.3125" y2="96.3125"/><ellipse cx="162" cy="110.6172" fill="#84BE84" rx="3" ry="3" style="stroke:#038048;stroke-width:1;"/><text fill="#000000" font-family="sans-serif" font-size="14" lengthAdjust="spacing" textLength="136.1719" x="171" y="114.8457">showDetail(requestId)</text><ellipse cx="162" cy="128.2266" fill="#84BE84" rx="3" ry="3" style="stroke:#038048;stroke-width:1;"/><text fill="#000000" font-family="sans-serif" font-size="14" lengthAdjust="spacing" textLength="67.6963" x="171" y="132.4551">getAction()</text></g><!--class ApprovalController--><g class="entity" data-entity="ApprovalController" data-source-line="8" data-uid="ent0003" id="entity_ApprovalController"><rect fill="#F1F1F1" height="76.3125" rx="2.5" ry="2.5" style="stroke:#181818;stroke-width:0.5;" width="200.2959" x="132" y="217.6094"/><ellipse cx="170.5582" cy="238.9609" fill="#ADD1B2" rx="11" ry="11" style="stroke:#181818;stroke-width:1;"/><path d="M173.3238,234.8359 Q173.4801,234.6172 173.6676,234.5078 Q173.8551,234.3984 174.0738,234.3984 Q174.4488,234.3984 174.6832,234.6641 Q174.9176,234.9141 174.9176,235.5234 L174.9176,236.9766 Q174.9176,237.5859 174.6832,237.8516 Q174.4488,238.1172 174.0738,238.1172 Q173.7301,238.1172 173.527,237.9141 Q173.3238,237.7266 173.2145,237.2109 Q173.1676,236.8516 172.9801,236.6641 Q172.652,236.2891 172.0426,236.0703 Q171.4332,235.8516 170.8082,235.8516 Q170.0426,235.8516 169.402,236.1797 Q168.777,236.5078 168.277,237.2578 Q167.7926,238.0078 167.7926,239.0391 L167.7926,240.1328 Q167.7926,241.3672 168.6832,242.1953 Q169.5738,243.0078 171.1676,243.0078 Q172.1051,243.0078 172.7613,242.7578 Q173.152,242.6016 173.5738,242.1641 Q173.8395,241.8984 173.9801,241.8203 Q174.1363,241.7422 174.3395,241.7422 Q174.6676,241.7422 174.9176,242.0078 Q175.1832,242.2578 175.1832,242.6016 Q175.1832,242.9453 174.8395,243.3516 Q174.3395,243.9297 173.5426,244.2578 Q172.4645,244.7109 171.1676,244.7109 Q169.652,244.7109 168.4488,244.0859 Q167.4645,243.5859 166.777,242.5234 Q166.0895,241.4453 166.0895,240.1641 L166.0895,239.0078 Q166.0895,237.6797 166.6988,236.5391 Q167.3238,235.3828 168.4176,234.7734 Q169.5113,234.1484 170.7457,234.1484 Q171.4801,234.1484 172.1207,234.3203 Q172.777,234.4766 173.3238,234.8359 Z " fill="#000000"/><text fill="#000000" font-family="sans-serif" font-size="12" font-style="italic" lengthAdjust="spacing" textLength="49.3652" x="223.0829" y="235.0664">&#171;control&#187;</text><text fill="#000000" font-family="sans-serif" font-size="14" lengthAdjust="spacing" textLength="115.9443" x="189.7934" y="252.2363">ApprovalController</text><line style="stroke:#181818;stroke-width:0.5;" x1="133" x2="331.2959" y1="260.3125" y2="260.3125"/><line style="stroke:#181818;stroke-width:0.5;" x1="133" x2="331.2959" y1="268.3125" y2="268.3125"/><ellipse cx="143" cy="282.6172" fill="#84BE84" rx="3" ry="3" style="stroke:#038048;stroke-width:1;"/><text fill="#000000" font-family="sans-serif" font-size="14" lengthAdjust="spacing" textLength="174.2959" x="152" y="286.8457">processApproval(rid, action)</text></g><!--class DropRequest--><g class="entity" data-entity="DropRequest" data-source-line="12" data-uid="ent0004" id="entity_DropRequest"><rect fill="#F1F1F1" height="146.75" rx="2.5" ry="2.5" style="stroke:#181818;stroke-width:0.5;" width="135.7305" x="7" y="371.6094"/><ellipse cx="31.5585" cy="392.9609" fill="#ADD1B2" rx="11" ry="11" style="stroke:#181818;stroke-width:1;"/><path d="M34.3242,388.8359 Q34.4804,388.6172 34.6679,388.5078 Q34.8554,388.3984 35.0742,388.3984 Q35.4492,388.3984 35.6835,388.6641 Q35.9179,388.9141 35.9179,389.5234 L35.9179,390.9766 Q35.9179,391.5859 35.6835,391.8516 Q35.4492,392.1172 35.0742,392.1172 Q34.7304,392.1172 34.5273,391.9141 Q34.3242,391.7266 34.2148,391.2109 Q34.1679,390.8516 33.9804,390.6641 Q33.6523,390.2891 33.0429,390.0703 Q32.4335,389.8516 31.8085,389.8516 Q31.0429,389.8516 30.4023,390.1797 Q29.7773,390.5078 29.2773,391.2578 Q28.7929,392.0078 28.7929,393.0391 L28.7929,394.1328 Q28.7929,395.3672 29.6835,396.1953 Q30.5742,397.0078 32.1679,397.0078 Q33.1054,397.0078 33.7617,396.7578 Q34.1523,396.6016 34.5742,396.1641 Q34.8398,395.8984 34.9804,395.8203 Q35.1367,395.7422 35.3398,395.7422 Q35.6679,395.7422 35.9179,396.0078 Q36.1835,396.2578 36.1835,396.6016 Q36.1835,396.9453 35.8398,397.3516 Q35.3398,397.9297 34.5429,398.2578 Q33.4648,398.7109 32.1679,398.7109 Q30.6523,398.7109 29.4492,398.0859 Q28.4648,397.5859 27.7773,396.5234 Q27.0898,395.4453 27.0898,394.1641 L27.0898,393.0078 Q27.0898,391.6797 27.6992,390.5391 Q28.3242,389.3828 29.4179,388.7734 Q30.5117,388.1484 31.746,388.1484 Q32.4804,388.1484 33.121,388.3203 Q33.7773,388.4766 34.3242,388.8359 Z " fill="#000000"/><text fill="#000000" font-family="sans-serif" font-size="12" font-style="italic" lengthAdjust="spacing" textLength="42.0293" x="67.9126" y="389.0664">&#171;entity&#187;</text><text fill="#000000" font-family="sans-serif" font-size="14" lengthAdjust="spacing" textLength="82.4893" x="47.6827" y="406.2363">DropRequest</text><line style="stroke:#181818;stroke-width:0.5;" x1="8" x2="141.7305" y1="414.3125" y2="414.3125"/><rect fill="none" height="6" style="stroke:#C82930;stroke-width:1;" width="6" x="15" y="425.6172"/><text fill="#000000" font-family="sans-serif" font-size="14" lengthAdjust="spacing" textLength="102.7236" x="27" y="432.8457">requestId: String</text><rect fill="none" height="6" style="stroke:#C82930;stroke-width:1;" width="6" x="15" y="443.2266"/><text fill="#000000" font-family="sans-serif" font-size="14" lengthAdjust="spacing" textLength="101.9512" x="27" y="450.4551">studentId: String</text><rect fill="none" height="6" style="stroke:#C82930;stroke-width:1;" width="6" x="15" y="460.8359"/><text fill="#000000" font-family="sans-serif" font-size="14" lengthAdjust="spacing" textLength="98.0479" x="27" y="468.0645">courseId: String</text><rect fill="none" height="6" style="stroke:#C82930;stroke-width:1;" width="6" x="15" y="478.4453"/><text fill="#000000" font-family="sans-serif" font-size="14" lengthAdjust="spacing" textLength="81.7031" x="27" y="485.6738">status: Enum</text><line style="stroke:#181818;stroke-width:0.5;" x1="8" x2="141.7305" y1="492.75" y2="492.75"/><ellipse cx="18" cy="507.0547" fill="#84BE84" rx="3" ry="3" style="stroke:#038048;stroke-width:1;"/><text fill="#000000" font-family="sans-serif" font-size="14" lengthAdjust="spacing" textLength="109.7305" x="27" y="511.2832">updateStatus(val)</text></g><!--class Course--><g class="entity" data-entity="Course" data-source-line="20" data-uid="ent0005" id="entity_Course"><rect fill="#F1F1F1" height="76.3125" rx="2.5" ry="2.5" style="stroke:#181818;stroke-width:0.5;" width="107.71" x="178" y="407.1094"/><ellipse cx="206.7606" cy="428.4609" fill="#ADD1B2" rx="11" ry="11" style="stroke:#181818;stroke-width:1;"/><path d="M209.5262,424.3359 Q209.6825,424.1172 209.87,424.0078 Q210.0575,423.8984 210.2762,423.8984 Q210.6512,423.8984 210.8856,424.1641 Q211.12,424.4141 211.12,425.0234 L211.12,426.4766 Q211.12,427.0859 210.8856,427.3516 Q210.6512,427.6172 210.2762,427.6172 Q209.9325,427.6172 209.7293,427.4141 Q209.5262,427.2266 209.4168,426.7109 Q209.37,426.3516 209.1825,426.1641 Q208.8543,425.7891 208.245,425.5703 Q207.6356,425.3516 207.0106,425.3516 Q206.245,425.3516 205.6043,425.6797 Q204.9793,426.0078 204.4793,426.7578 Q203.995,427.5078 203.995,428.5391 L203.995,429.6328 Q203.995,430.8672 204.8856,431.6953 Q205.7762,432.5078 207.37,432.5078 Q208.3075,432.5078 208.9637,432.2578 Q209.3543,432.1016 209.7762,431.6641 Q210.0418,431.3984 210.1825,431.3203 Q210.3387,431.2422 210.5418,431.2422 Q210.87,431.2422 211.12,431.5078 Q211.3856,431.7578 211.3856,432.1016 Q211.3856,432.4453 211.0418,432.8516 Q210.5418,433.4297 209.745,433.7578 Q208.6668,434.2109 207.37,434.2109 Q205.8543,434.2109 204.6512,433.5859 Q203.6668,433.0859 202.9793,432.0234 Q202.2918,430.9453 202.2918,429.6641 L202.2918,428.5078 Q202.2918,427.1797 202.9012,426.0391 Q203.5262,424.8828 204.62,424.2734 Q205.7137,423.6484 206.9481,423.6484 Q207.6825,423.6484 208.3231,423.8203 Q208.9793,423.9766 209.5262,424.3359 Z " fill="#000000"/><text fill="#000000" font-family="sans-serif" font-size="12" font-style="italic" lengthAdjust="spacing" textLength="42.0293" x="225.3693" y="424.5664">&#171;entity&#187;</text><text fill="#000000" font-family="sans-serif" font-size="14" lengthAdjust="spacing" textLength="45.1309" x="223.8185" y="441.7363">Course</text><line style="stroke:#181818;stroke-width:0.5;" x1="179" x2="284.71" y1="449.8125" y2="449.8125"/><line style="stroke:#181818;stroke-width:0.5;" x1="179" x2="284.71" y1="457.8125" y2="457.8125"/><ellipse cx="189" cy="472.1172" fill="#84BE84" rx="3" ry="3" style="stroke:#038048;stroke-width:1;"/><text fill="#000000" font-family="sans-serif" font-size="14" lengthAdjust="spacing" textLength="81.71" x="198" y="476.3457">handleDrop()</text></g><!--class EnrollmentRecord--><g class="entity" data-entity="EnrollmentRecord" data-source-line="24" data-uid="ent0006" id="entity_EnrollmentRecord"><rect fill="#F1F1F1" height="76.3125" rx="2.5" ry="2.5" style="stroke:#181818;stroke-width:0.5;" width="144.0479" x="321" y="407.1094"/><ellipse cx="336" cy="428.4609" fill="#ADD1B2" rx="11" ry="11" style="stroke:#181818;stroke-width:1;"/><path d="M338.7656,424.3359 Q338.9219,424.1172 339.1094,424.0078 Q339.2969,423.8984 339.5156,423.8984 Q339.8906,423.8984 340.125,424.1641 Q340.3594,424.4141 340.3594,425.0234 L340.3594,426.4766 Q340.3594,427.0859 340.125,427.3516 Q339.8906,427.6172 339.5156,427.6172 Q339.1719,427.6172 338.9688,427.4141 Q338.7656,427.2266 338.6563,426.7109 Q338.6094,426.3516 338.4219,426.1641 Q338.0938,425.7891 337.4844,425.5703 Q336.875,425.3516 336.25,425.3516 Q335.4844,425.3516 334.8438,425.6797 Q334.2188,426.0078 333.7188,426.7578 Q333.2344,427.5078 333.2344,428.5391 L333.2344,429.6328 Q333.2344,430.8672 334.125,431.6953 Q335.0156,432.5078 336.6094,432.5078 Q337.5469,432.5078 338.2031,432.2578 Q338.5938,432.1016 339.0156,431.6641 Q339.2813,431.3984 339.4219,431.3203 Q339.5781,431.2422 339.7813,431.2422 Q340.1094,431.2422 340.3594,431.5078 Q340.625,431.7578 340.625,432.1016 Q340.625,432.4453 340.2813,432.8516 Q339.7813,433.4297 338.9844,433.7578 Q337.9063,434.2109 336.6094,434.2109 Q335.0938,434.2109 333.8906,433.5859 Q332.9063,433.0859 332.2188,432.0234 Q331.5313,430.9453 331.5313,429.6641 L331.5313,428.5078 Q331.5313,427.1797 332.1406,426.0391 Q332.7656,424.8828 333.8594,424.2734 Q334.9531,423.6484 336.1875,423.6484 Q336.9219,423.6484 337.5625,423.8203 Q338.2188,423.9766 338.7656,424.3359 Z " fill="#000000"/><text fill="#000000" font-family="sans-serif" font-size="12" font-style="italic" lengthAdjust="spacing" textLength="42.0293" x="385.0093" y="424.5664">&#171;entity&#187;</text><text fill="#000000" font-family="sans-serif" font-size="14" lengthAdjust="spacing" textLength="112.0479" x="350" y="441.7363">EnrollmentRecord</text><line style="stroke:#181818;stroke-width:0.5;" x1="322" x2="464.0479" y1="449.8125" y2="449.8125"/><line style="stroke:#181818;stroke-width:0.5;" x1="322" x2="464.0479" y1="457.8125" y2="457.8125"/><ellipse cx="332" cy="472.1172" fill="#84BE84" rx="3" ry="3" style="stroke:#038048;stroke-width:1;"/><text fill="#000000" font-family="sans-serif" font-size="14" lengthAdjust="spacing" textLength="91.041" x="341" y="476.3457">delete(sid, cid)</text></g><!--link ApprovalCenterPage to ApprovalController--><g class="link" data-entity-1="ApprovalCenterPage" data-entity-2="ApprovalController" data-source-line="28" data-uid="lnk7" id="link_ApprovalCenterPage_ApprovalController"><path codeLine="28" d="M232,139.7494 C232,164.3694 232,188.2694 232,211.3994" fill="none" id="ApprovalCenterPage-to-ApprovalController" style="stroke:#181818;stroke-width:1;stroke-dasharray:7,7;"/><polygon fill="#181818" points="232,217.3994,236,208.3994,232,212.3994,228,208.3994,232,217.3994" style="stroke:#181818;stroke-width:1;"/><text fill="#000000" font-family="sans-serif" font-size="13" lengthAdjust="spacing" textLength="27.46" x="233" y="184.1045">uses</text></g><!--link ApprovalController to DropRequest--><g class="link" data-entity-1="ApprovalController" data-entity-2="DropRequest" data-source-line="29" data-uid="lnk8" id="link_ApprovalController_DropRequest"><path codeLine="29" d="M200.98,293.6494 C182.39,315.8494 161.9727,340.2497 139.6927,366.8497" fill="none" id="ApprovalController-to-DropRequest" style="stroke:#181818;stroke-width:1;stroke-dasharray:7,7;"/><polygon fill="#181818" points="135.84,371.4494,144.6854,367.1183,139.0506,367.6163,138.5525,361.9814,135.84,371.4494" style="stroke:#181818;stroke-width:1;"/><text fill="#000000" font-family="sans-serif" font-size="13" lengthAdjust="spacing" textLength="46.2617" x="174" y="338.1045">updates</text></g><!--link ApprovalController to Course--><g class="link" data-entity-1="ApprovalController" data-entity-2="Course" data-source-line="30" data-uid="lnk9" id="link_ApprovalController_Course"><path codeLine="30" d="M232,293.6494 C232,326.4194 232,367.9794 232,400.8194" fill="none" id="ApprovalController-to-Course" style="stroke:#181818;stroke-width:1;stroke-dasharray:7,7;"/><polygon fill="#181818" points="232,406.8194,236,397.8194,232,401.8194,228,397.8194,232,406.8194" style="stroke:#181818;stroke-width:1;"/><text fill="#000000" font-family="sans-serif" font-size="13" lengthAdjust="spacing" textLength="73.6963" x="233" y="338.1045">triggers logic</text></g><!--link ApprovalController to EnrollmentRecord--><g class="link" data-entity-1="ApprovalController" data-entity-2="EnrollmentRecord" data-source-line="31" data-uid="lnk10" id="link_ApprovalController_EnrollmentRecord"><path codeLine="31" d="M283.43,293.8894 C294.44,302.9994 305.58,313.1494 315,323.6094 C337.93,349.0694 355.742,376.7463 370.082,401.7163" fill="none" id="ApprovalController-to-EnrollmentRecord" style="stroke:#181818;stroke-width:1;stroke-dasharray:7,7;"/><polygon fill="#181818" points="373.07,406.9194,372.0566,397.1228,370.58,402.5835,365.1192,401.1069,373.07,406.9194" style="stroke:#181818;stroke-width:1;"/><text fill="#000000" font-family="sans-serif" font-size="13" lengthAdjust="spacing" textLength="41.9199" x="328" y="338.1045">deletes</text></g><!--SRC=[TP7DIiD058NtUOgxJAajk70JIg6qNRYojEX-dBcaWUbCd1z5H2ZktEZ6dOBu0XOH_A7Gfp5jVGidQTH0qjdDlUUU-UuP4ncESDZTtGiWUNvQNdycyxVbm-FtTBgUBLPth-lPEpGWkRtw-hXPlSoJ-mNuHmU3RitpA2TQGoUEbJmbl8l2e1gG4A7LEfPMCABEsssuyC2TEkYnFEkX8H7t5PvOr6QVrV9UYAP3JII5N_CkIyPI62KvH-MCwUPIy7KYYbh_gdqLiHqWcLl1hATaFDmywrmSQcJ-uHhmHnJ0oAX8X7bT6ykSk5IdqYgD5N9Yh0wWB-manxCn8mP7MSDtV0McRcPIngd3c0Z6CMKk1j8NQGmJfnuYbOfLJJBaQD3NQGWqOjbqnGyrc-sgV0Em6hLNqKa7YXa6-M9RnVbo0RXymX2L1Yx3Y6wJbtOBybNq3m00]--></g></svg>