<svg xmlns="http://www.w3.org/2000/svg" xmlns:xlink="http://www.w3.org/1999/xlink" contentStyleType="text/css" data-diagram-type="SEQUENCE" height="544px" preserveAspectRatio="none" style="width:875px;height:544px;background:#FFFFFF;" version="1.1" viewBox="0 0 875 544" width="875px" zoomAndPan="magnify"><title>UC15: &#23457;&#25209;&#24310;&#26399;&#36864;&#35838;&#30003;&#35831; - &#39034;&#24207;&#22270;</title><defs/><g><text fill="#000000" font-family="sans-serif" font-size="14" font-weight="bold" lengthAdjust="spacing" textLength="215.5986" x="331.0864" y="29.5332">UC15: &#23457;&#25209;&#24310;&#26399;&#36864;&#35838;&#30003;&#35831; - &#39034;&#24207;&#22270;</text><rect fill="none" height="216.2969" style="stroke:#000000;stroke-width:1.5;" width="714.7715" x="154" y="198.9219"/><g><title>...</title><rect fill="#000000" fill-opacity="0.00000" height="341.3516" width="8" x="25" y="121.2188"/><line style="stroke:#181818;stroke-width:0.5;stroke-dasharray:5,5;" x1="29" x2="29" y1="121.2188" y2="462.5703"/></g><g><title>......</title><rect fill="#000000" fill-opacity="0.00000" height="341.3516" width="8" x="205" y="121.2188"/><line style="stroke:#181818;stroke-width:0.5;stroke-dasharray:5,5;" x1="209" x2="209" y1="121.2188" y2="462.5703"/></g><g><title>.....</title><rect fill="#000000" fill-opacity="0.00000" height="341.3516" width="8" x="430.6016" y="121.2188"/><line style="stroke:#181818;stroke-width:0.5;stroke-dasharray:5,5;" x1="434.6016" x2="434.6016" y1="121.2188" y2="462.5703"/></g><g><title>DropRequest</title><rect fill="#000000" fill-opacity="0.00000" height="341.3516" width="8" x="621.3481" y="121.2188"/><line style="stroke:#181818;stroke-width:0.5;stroke-dasharray:5,5;" x1="625.1035" x2="625.1035" y1="121.2188" y2="462.5703"/></g><g><title>EnrollmentRecord</title><rect fill="#000000" fill-opacity="0.00000" height="341.3516" width="8" x="734.6167" y="121.2188"/><line style="stroke:#181818;stroke-width:0.5;stroke-dasharray:5,5;" x1="738.5928" x2="738.5928" y1="121.2188" y2="462.5703"/></g><g><title>Course</title><rect fill="#000000" fill-opacity="0.00000" height="341.3516" width="8" x="829.2061" y="121.2188"/><line style="stroke:#181818;stroke-width:0.5;stroke-dasharray:5,5;" x1="832.6406" x2="832.6406" y1="121.2188" y2="462.5703"/></g><g class="participant participant-head" data-participant="AA"><text fill="#000000" font-family="sans-serif" font-size="14" lengthAdjust="spacing" textLength="42" x="5" y="118.1426">&#25945;&#21153;&#22788;</text><ellipse cx="29" cy="52.1094" fill="#E2E2F0" rx="8" ry="8" style="stroke:#181818;stroke-width:0.5;"/><path d="M29,60.1094 L29,87.1094 M16,68.1094 L42,68.1094 M29,87.1094 L16,102.1094 M29,87.1094 L42,102.1094" fill="none" style="stroke:#181818;stroke-width:0.5;"/></g><g class="participant participant-tail" data-participant="AA"><text fill="#000000" font-family="sans-serif" font-size="14" lengthAdjust="spacing" textLength="42" x="5" y="476.1035">&#25945;&#21153;&#22788;</text><ellipse cx="29" cy="487.6797" fill="#E2E2F0" rx="8" ry="8" style="stroke:#181818;stroke-width:0.5;"/><path d="M29,495.6797 L29,522.6797 M16,503.6797 L42,503.6797 M29,522.6797 L16,537.6797 M29,522.6797 L42,537.6797" fill="none" style="stroke:#181818;stroke-width:0.5;"/></g><g class="participant participant-head" data-participant="ApprPage"><text fill="#000000" font-family="sans-serif" font-size="14" lengthAdjust="spacing" textLength="84" x="164" y="118.1426">&#23457;&#25209;&#20013;&#24515;&#39029;&#38754;</text><path d="M188.5,75.6094 L188.5,99.6094 M188.5,87.6094 L205.5,87.6094" fill="none" style="stroke:#181818;stroke-width:0.5;"/><ellipse cx="217.5" cy="87.6094" fill="#E2E2F0" rx="12" ry="12" style="stroke:#181818;stroke-width:0.5;"/></g><g class="participant participant-tail" data-participant="ApprPage"><text fill="#000000" font-family="sans-serif" font-size="14" lengthAdjust="spacing" textLength="84" x="164" y="476.1035">&#23457;&#25209;&#20013;&#24515;&#39029;&#38754;</text><path d="M188.5,483.1797 L188.5,507.1797 M188.5,495.1797 L205.5,495.1797" fill="none" style="stroke:#181818;stroke-width:0.5;"/><ellipse cx="217.5" cy="495.1797" fill="#E2E2F0" rx="12" ry="12" style="stroke:#181818;stroke-width:0.5;"/></g><g class="participant participant-head" data-participant="ApprCtrl"><text fill="#000000" font-family="sans-serif" font-size="14" lengthAdjust="spacing" textLength="70" x="396.6016" y="118.1426">&#23457;&#25209;&#25511;&#21046;&#22120;</text><ellipse cx="434.6016" cy="87.6094" fill="#E2E2F0" rx="12" ry="12" style="stroke:#181818;stroke-width:0.5;"/><polygon fill="#181818" points="430.6016,75.6094,436.6016,70.6094,434.6016,75.6094,436.6016,80.6094,430.6016,75.6094" style="stroke:#181818;stroke-width:1;"/></g><g class="participant participant-tail" data-participant="ApprCtrl"><text fill="#000000" font-family="sans-serif" font-size="14" lengthAdjust="spacing" textLength="70" x="396.6016" y="476.1035">&#23457;&#25209;&#25511;&#21046;&#22120;</text><ellipse cx="434.6016" cy="495.1797" fill="#E2E2F0" rx="12" ry="12" style="stroke:#181818;stroke-width:0.5;"/><polygon fill="#181818" points="430.6016,483.1797,436.6016,478.1797,434.6016,483.1797,436.6016,488.1797,430.6016,483.1797" style="stroke:#181818;stroke-width:1;"/></g><g class="participant participant-head" data-participant="DropReq"><text fill="#000000" font-family="sans-serif" font-size="14" lengthAdjust="spacing" textLength="82.4893" x="581.1035" y="118.1426">DropRequest</text><ellipse cx="625.3481" cy="87.6094" fill="#E2E2F0" rx="12" ry="12" style="stroke:#181818;stroke-width:0.5;"/><line style="stroke:#181818;stroke-width:0.5;" x1="613.3481" x2="637.3481" y1="101.6094" y2="101.6094"/></g><g class="participant participant-tail" data-participant="DropReq"><text fill="#000000" font-family="sans-serif" font-size="14" lengthAdjust="spacing" textLength="82.4893" x="581.1035" y="476.1035">DropRequest</text><ellipse cx="625.3481" cy="495.1797" fill="#E2E2F0" rx="12" ry="12" style="stroke:#181818;stroke-width:0.5;"/><line style="stroke:#181818;stroke-width:0.5;" x1="613.3481" x2="637.3481" y1="509.1797" y2="509.1797"/></g><g class="participant participant-head" data-participant="Record"><text fill="#000000" font-family="sans-serif" font-size="14" lengthAdjust="spacing" textLength="112.0479" x="679.5928" y="118.1426">EnrollmentRecord</text><ellipse cx="738.6167" cy="87.6094" fill="#E2E2F0" rx="12" ry="12" style="stroke:#181818;stroke-width:0.5;"/><line style="stroke:#181818;stroke-width:0.5;" x1="726.6167" x2="750.6167" y1="101.6094" y2="101.6094"/></g><g class="participant participant-tail" data-participant="Record"><text fill="#000000" font-family="sans-serif" font-size="14" lengthAdjust="spacing" textLength="112.0479" x="679.5928" y="476.1035">EnrollmentRecord</text><ellipse cx="738.6167" cy="495.1797" fill="#E2E2F0" rx="12" ry="12" style="stroke:#181818;stroke-width:0.5;"/><line style="stroke:#181818;stroke-width:0.5;" x1="726.6167" x2="750.6167" y1="509.1797" y2="509.1797"/></g><g class="participant participant-head" data-participant="Course"><text fill="#000000" font-family="sans-serif" font-size="14" lengthAdjust="spacing" textLength="45.1309" x="807.6406" y="118.1426">Course</text><ellipse cx="833.2061" cy="87.6094" fill="#E2E2F0" rx="12" ry="12" style="stroke:#181818;stroke-width:0.5;"/><line style="stroke:#181818;stroke-width:0.5;" x1="821.2061" x2="845.2061" y1="101.6094" y2="101.6094"/></g><g class="participant participant-tail" data-participant="Course"><text fill="#000000" font-family="sans-serif" font-size="14" lengthAdjust="spacing" textLength="45.1309" x="807.6406" y="476.1035">Course</text><ellipse cx="833.2061" cy="495.1797" fill="#E2E2F0" rx="12" ry="12" style="stroke:#181818;stroke-width:0.5;"/><line style="stroke:#181818;stroke-width:0.5;" x1="821.2061" x2="845.2061" y1="509.1797" y2="509.1797"/></g><g class="message" data-participant-1="AA" data-participant-2="ApprPage"><polygon fill="#181818" points="197,149.5703,207,153.5703,197,157.5703,201,153.5703" style="stroke:#181818;stroke-width:1;"/><line style="stroke:#181818;stroke-width:1;" x1="29" x2="203" y1="153.5703" y2="153.5703"/><text fill="#000000" font-family="sans-serif" font-size="13" lengthAdjust="spacing" textLength="156" x="36" y="148.7139">&#27983;&#35272;&#24453;&#22788;&#29702;&#30003;&#35831;&#24182;&#28857;&#20987;&#23457;&#25209;</text></g><g class="message" data-participant-1="ApprPage" data-participant-2="ApprCtrl"><polygon fill="#181818" points="422.6016,179.9219,432.6016,183.9219,422.6016,187.9219,426.6016,183.9219" style="stroke:#181818;stroke-width:1;"/><line style="stroke:#181818;stroke-width:1;" x1="209" x2="428.6016" y1="183.9219" y2="183.9219"/><text fill="#000000" font-family="sans-serif" font-size="13" lengthAdjust="spacing" textLength="201.6016" x="216" y="179.0654">processApproval(requestId, action)</text></g><path d="M154,198.9219 L214.1709,198.9219 L214.1709,207.2734 L204.1709,217.2734 L154,217.2734 L154,198.9219" fill="#EEEEEE" style="stroke:#000000;stroke-width:1.5;"/><rect fill="none" height="216.2969" style="stroke:#000000;stroke-width:1.5;" width="714.7715" x="154" y="198.9219"/><text fill="#000000" font-family="sans-serif" font-size="13" font-weight="bold" lengthAdjust="spacing" textLength="15.1709" x="169" y="213.417">alt</text><text fill="#000000" font-family="sans-serif" font-size="11" font-weight="bold" lengthAdjust="spacing" textLength="30.0137" x="229.1709" y="212.3408">[&#25209;&#20934;]</text><g class="message" data-participant-1="ApprCtrl" data-participant-2="DropReq"><polygon fill="#181818" points="613.3481,235.625,623.3481,239.625,613.3481,243.625,617.3481,239.625" style="stroke:#181818;stroke-width:1;"/><line style="stroke:#181818;stroke-width:1;" x1="434.6016" x2="619.3481" y1="239.625" y2="239.625"/><text fill="#000000" font-family="sans-serif" font-size="13" lengthAdjust="spacing" textLength="166.7466" x="441.6016" y="234.7686">updateStatus("APPROVED")</text></g><g class="message" data-participant-1="ApprCtrl" data-participant-2="Record"><polygon fill="#181818" points="726.6167,265.9766,736.6167,269.9766,726.6167,273.9766,730.6167,269.9766" style="stroke:#181818;stroke-width:1;"/><line style="stroke:#181818;stroke-width:1;" x1="434.6016" x2="732.6167" y1="269.9766" y2="269.9766"/><text fill="#000000" font-family="sans-serif" font-size="13" lengthAdjust="spacing" textLength="196.5552" x="441.6016" y="265.1201">deleteRecord(studentId, courseId)</text></g><g class="message" data-participant-1="ApprCtrl" data-participant-2="Course"><polygon fill="#181818" points="821.2061,296.3281,831.2061,300.3281,821.2061,304.3281,825.2061,300.3281" style="stroke:#181818;stroke-width:1;"/><line style="stroke:#181818;stroke-width:1;" x1="434.6016" x2="827.2061" y1="300.3281" y2="300.3281"/><text fill="#000000" font-family="sans-serif" font-size="13" lengthAdjust="spacing" textLength="194.3525" x="441.6016" y="295.4717">incrementSlotAndHandleWaitlist()</text></g><g class="message" data-participant-1="ApprCtrl" data-participant-2="ApprPage"><polygon fill="#181818" points="220,326.6797,210,330.6797,220,334.6797,216,330.6797" style="stroke:#181818;stroke-width:1;"/><line style="stroke:#181818;stroke-width:1;stroke-dasharray:2,2;" x1="214" x2="433.6016" y1="330.6797" y2="330.6797"/><text fill="#000000" font-family="sans-serif" font-size="13" lengthAdjust="spacing" textLength="52" x="226" y="325.8232">&#23457;&#25209;&#36890;&#36807;</text></g><line style="stroke:#000000;stroke-width:1;stroke-dasharray:2,2;" x1="154" x2="868.7715" y1="339.6797" y2="339.6797"/><text fill="#000000" font-family="sans-serif" font-size="11" font-weight="bold" lengthAdjust="spacing" textLength="30.0137" x="159" y="351.0986">[&#39539;&#22238;]</text><g class="message" data-participant-1="ApprCtrl" data-participant-2="DropReq"><polygon fill="#181818" points="613.3481,372.8672,623.3481,376.8672,613.3481,380.8672,617.3481,376.8672" style="stroke:#181818;stroke-width:1;"/><line style="stroke:#181818;stroke-width:1;" x1="434.6016" x2="619.3481" y1="376.8672" y2="376.8672"/><text fill="#000000" font-family="sans-serif" font-size="13" lengthAdjust="spacing" textLength="163.1221" x="441.6016" y="372.0107">updateStatus("REJECTED")</text></g><g class="message" data-participant-1="ApprCtrl" data-participant-2="ApprPage"><polygon fill="#181818" points="220,403.2188,210,407.2188,220,411.2188,216,407.2188" style="stroke:#181818;stroke-width:1;"/><line style="stroke:#181818;stroke-width:1;stroke-dasharray:2,2;" x1="214" x2="433.6016" y1="407.2188" y2="407.2188"/><text fill="#000000" font-family="sans-serif" font-size="13" lengthAdjust="spacing" textLength="52" x="226" y="402.3623">&#23457;&#25209;&#39539;&#22238;</text></g><g class="message" data-participant-1="ApprPage" data-participant-2="AA"><polygon fill="#181818" points="40,440.5703,30,444.5703,40,448.5703,36,444.5703" style="stroke:#181818;stroke-width:1;"/><line style="stroke:#181818;stroke-width:1;" x1="34" x2="208" y1="444.5703" y2="444.5703"/><text fill="#000000" font-family="sans-serif" font-size="13" lengthAdjust="spacing" textLength="78" x="46" y="439.7139">&#23637;&#31034;&#23457;&#25209;&#32467;&#26524;</text></g><!--SRC=[ZL8zImCn6DxpAy9D5NHmS74GZbfG5qlzckCbo45CpbnES2j-LHrKK0TjLIg5wg0YOhKjr3zZxdh_mbnJ3seTp9GtUPxdVPydaQwa12vbnoSceNggXeTDrMw4bTkuMEm-TwBpr-xpEno3SRMbMYUgt040EP8BQ8KNb-gegcgx5aG-j6smoWE6aTY2bj7v-dXKdpjnzIs-lZCOpnDvj4Q0mvaKdFu0m-EwEcYeo_iKbPM20iAaAxNQjE1UWMm4n9SzGBzExtDCQz5rNHQ8mmNkWSmsnMHv87pIkp5R06mRZasbCy596BwTTEi7ghEdFKMd-yQwQZQYxQOgjSse8CNtkScacki9xX3VJqxu9g8POUQTnQDGn-LoDg9pen8cyPRs0TGhPMkblYKj57WOIR8WaGpyZ6NdyuNvvToqDJ94CGOr0nDA935bnfS1rfwJlaxFvomUffe4DDLbZY19S0kKIvlX6SGm9Ij8VmdNbvdVpC6uJ21nyQhxMGA4Qi7uuLMLR_vjhf2RosKN_p3tPn-ZJHW6WszW9v2NYwZMCi2eVHRULBu1]--></g></svg>