<svg xmlns="http://www.w3.org/2000/svg" xmlns:xlink="http://www.w3.org/1999/xlink" contentStyleType="text/css" data-diagram-type="CLASS" height="507px" preserveAspectRatio="none" style="width:303px;height:507px;background:#FFFFFF;" version="1.1" viewBox="0 0 303 507" width="303px" zoomAndPan="magnify"><title>UC16: &#35774;&#32622;&#36873;&#35838;&#35268;&#21017; - &#21442;&#19982;&#31867;&#22270; (VOPC)</title><defs/><g><g class="title" data-source-line="1"><text fill="#000000" font-family="sans-serif" font-size="14" font-weight="bold" lengthAdjust="spacing" textLength="254.0508" x="17.5469" y="24.5332">UC16: &#35774;&#32622;&#36873;&#35838;&#35268;&#21017; - &#21442;&#19982;&#31867;&#22270; (VOPC)</text></g><!--class RuleConfigForm--><g class="entity" data-entity="RuleConfigForm" data-source-line="3" data-uid="ent0002" id="entity_RuleConfigForm"><rect fill="#F1F1F1" height="76.3125" rx="2.5" ry="2.5" style="stroke:#181818;stroke-width:0.5;" width="134.165" x="95" y="45.6094"/><ellipse cx="110.1085" cy="66.9609" fill="#ADD1B2" rx="11" ry="11" style="stroke:#181818;stroke-width:1;"/><path d="M112.8742,62.8359 Q113.0304,62.6172 113.2179,62.5078 Q113.4054,62.3984 113.6242,62.3984 Q113.9992,62.3984 114.2335,62.6641 Q114.4679,62.9141 114.4679,63.5234 L114.4679,64.9766 Q114.4679,65.5859 114.2335,65.8516 Q113.9992,66.1172 113.6242,66.1172 Q113.2804,66.1172 113.0773,65.9141 Q112.8742,65.7266 112.7648,65.2109 Q112.7179,64.8516 112.5304,64.6641 Q112.2023,64.2891 111.5929,64.0703 Q110.9835,63.8516 110.3585,63.8516 Q109.5929,63.8516 108.9523,64.1797 Q108.3273,64.5078 107.8273,65.2578 Q107.3429,66.0078 107.3429,67.0391 L107.3429,68.1328 Q107.3429,69.3672 108.2335,70.1953 Q109.1242,71.0078 110.7179,71.0078 Q111.6554,71.0078 112.3117,70.7578 Q112.7023,70.6016 113.1242,70.1641 Q113.3898,69.8984 113.5304,69.8203 Q113.6867,69.7422 113.8898,69.7422 Q114.2179,69.7422 114.4679,70.0078 Q114.7335,70.2578 114.7335,70.6016 Q114.7335,70.9453 114.3898,71.3516 Q113.8898,71.9297 113.0929,72.2578 Q112.0148,72.7109 110.7179,72.7109 Q109.2023,72.7109 107.9992,72.0859 Q107.0148,71.5859 106.3273,70.5234 Q105.6398,69.4453 105.6398,68.1641 L105.6398,67.0078 Q105.6398,65.6797 106.2492,64.5391 Q106.8742,63.3828 107.9679,62.7734 Q109.0617,62.1484 110.296,62.1484 Q111.0304,62.1484 111.671,62.3203 Q112.3273,62.4766 112.8742,62.8359 Z " fill="#000000"/><text fill="#000000" font-family="sans-serif" font-size="12" font-style="italic" lengthAdjust="spacing" textLength="63.3867" x="143.4012" y="63.0664">&#171;boundary&#187;</text><text fill="#000000" font-family="sans-serif" font-size="14" lengthAdjust="spacing" textLength="101.9238" x="124.1327" y="80.2363">RuleConfigForm</text><line style="stroke:#181818;stroke-width:0.5;" x1="96" x2="228.165" y1="88.3125" y2="88.3125"/><line style="stroke:#181818;stroke-width:0.5;" x1="96" x2="228.165" y1="96.3125" y2="96.3125"/><ellipse cx="106" cy="110.6172" fill="#84BE84" rx="3" ry="3" style="stroke:#038048;stroke-width:1;"/><text fill="#000000" font-family="sans-serif" font-size="14" lengthAdjust="spacing" textLength="108.165" x="115" y="114.8457">getRuleSettings()</text></g><!--class EnrollmentController--><g class="entity" data-entity="EnrollmentController" data-source-line="7" data-uid="ent0003" id="entity_EnrollmentController"><rect fill="#F1F1F1" height="76.3125" rx="2.5" ry="2.5" style="stroke:#181818;stroke-width:0.5;" width="159.6064" x="82" y="199.6094"/><ellipse cx="97" cy="220.9609" fill="#ADD1B2" rx="11" ry="11" style="stroke:#181818;stroke-width:1;"/><path d="M99.7656,216.8359 Q99.9219,216.6172 100.1094,216.5078 Q100.2969,216.3984 100.5156,216.3984 Q100.8906,216.3984 101.125,216.6641 Q101.3594,216.9141 101.3594,217.5234 L101.3594,218.9766 Q101.3594,219.5859 101.125,219.8516 Q100.8906,220.1172 100.5156,220.1172 Q100.1719,220.1172 99.9688,219.9141 Q99.7656,219.7266 99.6563,219.2109 Q99.6094,218.8516 99.4219,218.6641 Q99.0938,218.2891 98.4844,218.0703 Q97.875,217.8516 97.25,217.8516 Q96.4844,217.8516 95.8438,218.1797 Q95.2188,218.5078 94.7188,219.2578 Q94.2344,220.0078 94.2344,221.0391 L94.2344,222.1328 Q94.2344,223.3672 95.125,224.1953 Q96.0156,225.0078 97.6094,225.0078 Q98.5469,225.0078 99.2031,224.7578 Q99.5938,224.6016 100.0156,224.1641 Q100.2813,223.8984 100.4219,223.8203 Q100.5781,223.7422 100.7813,223.7422 Q101.1094,223.7422 101.3594,224.0078 Q101.625,224.2578 101.625,224.6016 Q101.625,224.9453 101.2813,225.3516 Q100.7813,225.9297 99.9844,226.2578 Q98.9063,226.7109 97.6094,226.7109 Q96.0938,226.7109 94.8906,226.0859 Q93.9063,225.5859 93.2188,224.5234 Q92.5313,223.4453 92.5313,222.1641 L92.5313,221.0078 Q92.5313,219.6797 93.1406,218.5391 Q93.7656,217.3828 94.8594,216.7734 Q95.9531,216.1484 97.1875,216.1484 Q97.9219,216.1484 98.5625,216.3203 Q99.2188,216.4766 99.7656,216.8359 Z " fill="#000000"/><text fill="#000000" font-family="sans-serif" font-size="12" font-style="italic" lengthAdjust="spacing" textLength="49.3652" x="150.1206" y="217.0664">&#171;control&#187;</text><text fill="#000000" font-family="sans-serif" font-size="14" lengthAdjust="spacing" textLength="127.6064" x="111" y="234.2363">EnrollmentController</text><line style="stroke:#181818;stroke-width:0.5;" x1="83" x2="240.6064" y1="242.3125" y2="242.3125"/><line style="stroke:#181818;stroke-width:0.5;" x1="83" x2="240.6064" y1="250.3125" y2="250.3125"/><ellipse cx="93" cy="264.6172" fill="#84BE84" rx="3" ry="3" style="stroke:#038048;stroke-width:1;"/><text fill="#000000" font-family="sans-serif" font-size="14" lengthAdjust="spacing" textLength="127.6133" x="102" y="268.8457">saveRules(cid, data)</text></g><!--class CourseRule--><g class="entity" data-entity="CourseRule" data-source-line="11" data-uid="ent0004" id="entity_CourseRule"><rect fill="#F1F1F1" height="146.75" rx="2.5" ry="2.5" style="stroke:#181818;stroke-width:0.5;" width="148.165" x="7" y="353.6094"/><ellipse cx="41.0085" cy="374.9609" fill="#ADD1B2" rx="11" ry="11" style="stroke:#181818;stroke-width:1;"/><path d="M43.7742,370.8359 Q43.9304,370.6172 44.1179,370.5078 Q44.3054,370.3984 44.5242,370.3984 Q44.8992,370.3984 45.1335,370.6641 Q45.3679,370.9141 45.3679,371.5234 L45.3679,372.9766 Q45.3679,373.5859 45.1335,373.8516 Q44.8992,374.1172 44.5242,374.1172 Q44.1804,374.1172 43.9773,373.9141 Q43.7742,373.7266 43.6648,373.2109 Q43.6179,372.8516 43.4304,372.6641 Q43.1023,372.2891 42.4929,372.0703 Q41.8835,371.8516 41.2585,371.8516 Q40.4929,371.8516 39.8523,372.1797 Q39.2273,372.5078 38.7273,373.2578 Q38.2429,374.0078 38.2429,375.0391 L38.2429,376.1328 Q38.2429,377.3672 39.1335,378.1953 Q40.0242,379.0078 41.6179,379.0078 Q42.5554,379.0078 43.2117,378.7578 Q43.6023,378.6016 44.0242,378.1641 Q44.2898,377.8984 44.4304,377.8203 Q44.5867,377.7422 44.7898,377.7422 Q45.1179,377.7422 45.3679,378.0078 Q45.6335,378.2578 45.6335,378.6016 Q45.6335,378.9453 45.2898,379.3516 Q44.7898,379.9297 43.9929,380.2578 Q42.9148,380.7109 41.6179,380.7109 Q40.1023,380.7109 38.8992,380.0859 Q37.9148,379.5859 37.2273,378.5234 Q36.5398,377.4453 36.5398,376.1641 L36.5398,375.0078 Q36.5398,373.6797 37.1492,372.5391 Q37.7742,371.3828 38.8679,370.7734 Q39.9617,370.1484 41.196,370.1484 Q41.9304,370.1484 42.571,370.3203 Q43.2273,370.4766 43.7742,370.8359 Z " fill="#000000"/><text fill="#000000" font-family="sans-serif" font-size="12" font-style="italic" lengthAdjust="spacing" textLength="42.0293" x="75.1799" y="371.0664">&#171;entity&#187;</text><text fill="#000000" font-family="sans-serif" font-size="14" lengthAdjust="spacing" textLength="73.9238" x="59.2327" y="388.2363">CourseRule</text><line style="stroke:#181818;stroke-width:0.5;" x1="8" x2="154.165" y1="396.3125" y2="396.3125"/><rect fill="none" height="6" style="stroke:#C82930;stroke-width:1;" width="6" x="15" y="407.6172"/><text fill="#000000" font-family="sans-serif" font-size="14" lengthAdjust="spacing" textLength="79.3721" x="27" y="414.8457">ruleId: String</text><rect fill="none" height="6" style="stroke:#C82930;stroke-width:1;" width="6" x="15" y="425.2266"/><text fill="#000000" font-family="sans-serif" font-size="14" lengthAdjust="spacing" textLength="95.71" x="27" y="432.4551">minGrade: float</text><rect fill="none" height="6" style="stroke:#C82930;stroke-width:1;" width="6" x="15" y="442.8359"/><text fill="#000000" font-family="sans-serif" font-size="14" lengthAdjust="spacing" textLength="122.165" x="27" y="450.0645">prereqCourses: List</text><rect fill="none" height="6" style="stroke:#C82930;stroke-width:1;" width="6" x="15" y="460.4453"/><text fill="#000000" font-family="sans-serif" font-size="14" lengthAdjust="spacing" textLength="73.9102" x="27" y="467.6738">slotLimit: int</text><line style="stroke:#181818;stroke-width:0.5;" x1="8" x2="154.165" y1="474.75" y2="474.75"/><ellipse cx="18" cy="489.0547" fill="#84BE84" rx="3" ry="3" style="stroke:#038048;stroke-width:1;"/><text fill="#000000" font-family="sans-serif" font-size="14" lengthAdjust="spacing" textLength="38.8965" x="27" y="493.2832">save()</text></g><!--class Course--><g class="entity" data-entity="Course" data-source-line="19" data-uid="ent0005" id="entity_Course"><rect fill="#F1F1F1" height="76.3125" rx="2.5" ry="2.5" style="stroke:#181818;stroke-width:0.5;" width="106.1445" x="190" y="389.1094"/><ellipse cx="218.0562" cy="410.4609" fill="#ADD1B2" rx="11" ry="11" style="stroke:#181818;stroke-width:1;"/><path d="M220.8218,406.3359 Q220.978,406.1172 221.1655,406.0078 Q221.353,405.8984 221.5718,405.8984 Q221.9468,405.8984 222.1812,406.1641 Q222.4155,406.4141 222.4155,407.0234 L222.4155,408.4766 Q222.4155,409.0859 222.1812,409.3516 Q221.9468,409.6172 221.5718,409.6172 Q221.228,409.6172 221.0249,409.4141 Q220.8218,409.2266 220.7124,408.7109 Q220.6655,408.3516 220.478,408.1641 Q220.1499,407.7891 219.5405,407.5703 Q218.9312,407.3516 218.3062,407.3516 Q217.5405,407.3516 216.8999,407.6797 Q216.2749,408.0078 215.7749,408.7578 Q215.2905,409.5078 215.2905,410.5391 L215.2905,411.6328 Q215.2905,412.8672 216.1812,413.6953 Q217.0718,414.5078 218.6655,414.5078 Q219.603,414.5078 220.2593,414.2578 Q220.6499,414.1016 221.0718,413.6641 Q221.3374,413.3984 221.478,413.3203 Q221.6343,413.2422 221.8374,413.2422 Q222.1655,413.2422 222.4155,413.5078 Q222.6812,413.7578 222.6812,414.1016 Q222.6812,414.4453 222.3374,414.8516 Q221.8374,415.4297 221.0405,415.7578 Q219.9624,416.2109 218.6655,416.2109 Q217.1499,416.2109 215.9468,415.5859 Q214.9624,415.0859 214.2749,414.0234 Q213.5874,412.9453 213.5874,411.6641 L213.5874,410.5078 Q213.5874,409.1797 214.1968,408.0391 Q214.8218,406.8828 215.9155,406.2734 Q217.0093,405.6484 218.2437,405.6484 Q218.978,405.6484 219.6187,405.8203 Q220.2749,405.9766 220.8218,406.3359 Z " fill="#000000"/><text fill="#000000" font-family="sans-serif" font-size="12" font-style="italic" lengthAdjust="spacing" textLength="42.0293" x="236.5083" y="406.5664">&#171;entity&#187;</text><text fill="#000000" font-family="sans-serif" font-size="14" lengthAdjust="spacing" textLength="45.1309" x="234.9575" y="423.7363">Course</text><line style="stroke:#181818;stroke-width:0.5;" x1="191" x2="295.1445" y1="431.8125" y2="431.8125"/><line style="stroke:#181818;stroke-width:0.5;" x1="191" x2="295.1445" y1="439.8125" y2="439.8125"/><ellipse cx="201" cy="454.1172" fill="#84BE84" rx="3" ry="3" style="stroke:#038048;stroke-width:1;"/><text fill="#000000" font-family="sans-serif" font-size="14" lengthAdjust="spacing" textLength="80.1445" x="210" y="458.3457">bindRule(rid)</text></g><!--link RuleConfigForm to EnrollmentController--><g class="link" data-entity-1="RuleConfigForm" data-entity-2="EnrollmentController" data-source-line="23" data-uid="lnk6" id="link_RuleConfigForm_EnrollmentController"><path codeLine="23" d="M162,121.7894 C162,145.4394 162,169.9294 162,193.5494" fill="none" id="RuleConfigForm-to-EnrollmentController" style="stroke:#181818;stroke-width:1;stroke-dasharray:7,7;"/><polygon fill="#181818" points="162,199.5494,166,190.5494,162,194.5494,158,190.5494,162,199.5494" style="stroke:#181818;stroke-width:1;"/><text fill="#000000" font-family="sans-serif" font-size="13" lengthAdjust="spacing" textLength="27.46" x="163" y="166.1045">uses</text></g><!--link EnrollmentController to CourseRule--><g class="link" data-entity-1="EnrollmentController" data-entity-2="CourseRule" data-source-line="24" data-uid="lnk7" id="link_EnrollmentController_CourseRule"><path codeLine="24" d="M146,275.6494 C136.41,297.8494 126.2593,321.3413 114.7693,347.9413" fill="none" id="EnrollmentController-to-CourseRule" style="stroke:#181818;stroke-width:1;stroke-dasharray:7,7;"/><polygon fill="#181818" points="112.39,353.4494,119.6309,346.7734,114.3727,348.8593,112.2868,343.6011,112.39,353.4494" style="stroke:#181818;stroke-width:1;"/><text fill="#000000" font-family="sans-serif" font-size="13" lengthAdjust="spacing" textLength="55.6372" x="133" y="320.1045">maintains</text></g><!--link EnrollmentController to Course--><g class="link" data-entity-1="EnrollmentController" data-entity-2="Course" data-source-line="25" data-uid="lnk8" id="link_EnrollmentController_Course"><path codeLine="25" d="M182.4,275.7894 C187.4,285.3994 192.58,295.7994 197,305.6094 C209.36,333.0694 219.3939,359.2954 228.0739,383.3554" fill="none" id="EnrollmentController-to-Course" style="stroke:#181818;stroke-width:1;stroke-dasharray:7,7;"/><polygon fill="#181818" points="230.11,388.9994,230.8184,379.176,228.4132,384.2961,223.2932,381.8909,230.11,388.9994" style="stroke:#181818;stroke-width:1;"/><text fill="#000000" font-family="sans-serif" font-size="13" lengthAdjust="spacing" textLength="26.0063" x="205" y="320.1045">links</text></g><!--SRC=[XP3DIWCn4CVl-nHpt59RyE8XbBqiMWe5nQBtT9CkWzb4arb1H13ne1SzYm_WhU9D4FTfNBg-XTb-u68B1WAPZ_zl_Xb2KXAEukqT1jMqc7rElw_lgzUYUhajxvwW0-NZpTVxm-pjetmk83pUFuXRGP0exXmSvah6HaymtJCsWrvlR78jkBs88hWCm9ysf9Bgjf4aGfswi1LShUIxsXgbCgd9GwX-I-iXoI9eC1m_bpN4XGcABH2SU0CJczowUTsBFGpfTtu7hCyF18CHMJz_cSnGzoqNai546KxBxAcLLfujS8x14DsgufIX8MP8351JmrMuvcFTGnl6g4NjBxGeve8_Y-jseytBO91xAy76MYrgV9r1nhqtV__jzxqAzOdx0G00]--></g></svg>