<svg xmlns="http://www.w3.org/2000/svg" xmlns:xlink="http://www.w3.org/1999/xlink" contentStyleType="text/css" data-diagram-type="SEQUENCE" height="405px" preserveAspectRatio="none" style="width:711px;height:405px;background:#FFFFFF;" version="1.1" viewBox="0 0 711 405" width="711px" zoomAndPan="magnify"><title>UC16: &#35774;&#32622;&#36873;&#35838;&#35268;&#21017; - &#39034;&#24207;&#22270;</title><defs/><g><text fill="#000000" font-family="sans-serif" font-size="14" font-weight="bold" lengthAdjust="spacing" textLength="186.7236" x="263.9844" y="29.5332">UC16: &#35774;&#32622;&#36873;&#35838;&#35268;&#21017; - &#39034;&#24207;&#22270;</text><g><title>...</title><rect fill="#000000" fill-opacity="0.00000" height="202.1094" width="8" x="25" y="121.2188"/><line style="stroke:#181818;stroke-width:0.5;stroke-dasharray:5,5;" x1="29" x2="29" y1="121.2188" y2="323.3281"/></g><g><title>......</title><rect fill="#000000" fill-opacity="0.00000" height="202.1094" width="8" x="192" y="121.2188"/><line style="stroke:#181818;stroke-width:0.5;stroke-dasharray:5,5;" x1="196" x2="196" y1="121.2188" y2="323.3281"/></g><g><title>.....</title><rect fill="#000000" fill-opacity="0.00000" height="202.1094" width="8" x="398.0762" y="121.2188"/><line style="stroke:#181818;stroke-width:0.5;stroke-dasharray:5,5;" x1="402.0762" x2="402.0762" y1="121.2188" y2="323.3281"/></g><g><title>CourseRule</title><rect fill="#000000" fill-opacity="0.00000" height="202.1094" width="8" x="605.5996" y="121.2188"/><line style="stroke:#181818;stroke-width:0.5;stroke-dasharray:5,5;" x1="608.6377" x2="608.6377" y1="121.2188" y2="323.3281"/></g><g><title>Course</title><rect fill="#000000" fill-opacity="0.00000" height="202.1094" width="8" x="681.127" y="121.2188"/><line style="stroke:#181818;stroke-width:0.5;stroke-dasharray:5,5;" x1="684.5615" x2="684.5615" y1="121.2188" y2="323.3281"/></g><g class="participant participant-head" data-participant="AA"><text fill="#000000" font-family="sans-serif" font-size="14" lengthAdjust="spacing" textLength="42" x="5" y="118.1426">&#25945;&#21153;&#22788;</text><ellipse cx="29" cy="52.1094" fill="#E2E2F0" rx="8" ry="8" style="stroke:#181818;stroke-width:0.5;"/><path d="M29,60.1094 L29,87.1094 M16,68.1094 L42,68.1094 M29,87.1094 L16,102.1094 M29,87.1094 L42,102.1094" fill="none" style="stroke:#181818;stroke-width:0.5;"/></g><g class="participant participant-tail" data-participant="AA"><text fill="#000000" font-family="sans-serif" font-size="14" lengthAdjust="spacing" textLength="42" x="5" y="336.8613">&#25945;&#21153;&#22788;</text><ellipse cx="29" cy="348.4375" fill="#E2E2F0" rx="8" ry="8" style="stroke:#181818;stroke-width:0.5;"/><path d="M29,356.4375 L29,383.4375 M16,364.4375 L42,364.4375 M29,383.4375 L16,398.4375 M29,383.4375 L42,398.4375" fill="none" style="stroke:#181818;stroke-width:0.5;"/></g><g class="participant participant-head" data-participant="RuleForm"><text fill="#000000" font-family="sans-serif" font-size="14" lengthAdjust="spacing" textLength="84" x="151" y="118.1426">&#35268;&#21017;&#37197;&#32622;&#30028;&#38754;</text><path d="M175.5,75.6094 L175.5,99.6094 M175.5,87.6094 L192.5,87.6094" fill="none" style="stroke:#181818;stroke-width:0.5;"/><ellipse cx="204.5" cy="87.6094" fill="#E2E2F0" rx="12" ry="12" style="stroke:#181818;stroke-width:0.5;"/></g><g class="participant participant-tail" data-participant="RuleForm"><text fill="#000000" font-family="sans-serif" font-size="14" lengthAdjust="spacing" textLength="84" x="151" y="336.8613">&#35268;&#21017;&#37197;&#32622;&#30028;&#38754;</text><path d="M175.5,343.9375 L175.5,367.9375 M175.5,355.9375 L192.5,355.9375" fill="none" style="stroke:#181818;stroke-width:0.5;"/><ellipse cx="204.5" cy="355.9375" fill="#E2E2F0" rx="12" ry="12" style="stroke:#181818;stroke-width:0.5;"/></g><g class="participant participant-head" data-participant="EnrollCtrl"><text fill="#000000" font-family="sans-serif" font-size="14" lengthAdjust="spacing" textLength="70" x="364.0762" y="118.1426">&#36873;&#35838;&#25511;&#21046;&#31867;</text><ellipse cx="402.0762" cy="87.6094" fill="#E2E2F0" rx="12" ry="12" style="stroke:#181818;stroke-width:0.5;"/><polygon fill="#181818" points="398.0762,75.6094,404.0762,70.6094,402.0762,75.6094,404.0762,80.6094,398.0762,75.6094" style="stroke:#181818;stroke-width:1;"/></g><g class="participant participant-tail" data-participant="EnrollCtrl"><text fill="#000000" font-family="sans-serif" font-size="14" lengthAdjust="spacing" textLength="70" x="364.0762" y="336.8613">&#36873;&#35838;&#25511;&#21046;&#31867;</text><ellipse cx="402.0762" cy="355.9375" fill="#E2E2F0" rx="12" ry="12" style="stroke:#181818;stroke-width:0.5;"/><polygon fill="#181818" points="398.0762,343.9375,404.0762,338.9375,402.0762,343.9375,404.0762,348.9375,398.0762,343.9375" style="stroke:#181818;stroke-width:1;"/></g><g class="participant participant-head" data-participant="Rule"><text fill="#000000" font-family="sans-serif" font-size="14" lengthAdjust="spacing" textLength="73.9238" x="569.6377" y="118.1426">CourseRule</text><ellipse cx="609.5996" cy="87.6094" fill="#E2E2F0" rx="12" ry="12" style="stroke:#181818;stroke-width:0.5;"/><line style="stroke:#181818;stroke-width:0.5;" x1="597.5996" x2="621.5996" y1="101.6094" y2="101.6094"/></g><g class="participant participant-tail" data-participant="Rule"><text fill="#000000" font-family="sans-serif" font-size="14" lengthAdjust="spacing" textLength="73.9238" x="569.6377" y="336.8613">CourseRule</text><ellipse cx="609.5996" cy="355.9375" fill="#E2E2F0" rx="12" ry="12" style="stroke:#181818;stroke-width:0.5;"/><line style="stroke:#181818;stroke-width:0.5;" x1="597.5996" x2="621.5996" y1="369.9375" y2="369.9375"/></g><g class="participant participant-head" data-participant="Course"><text fill="#000000" font-family="sans-serif" font-size="14" lengthAdjust="spacing" textLength="45.1309" x="659.5615" y="118.1426">Course</text><ellipse cx="685.127" cy="87.6094" fill="#E2E2F0" rx="12" ry="12" style="stroke:#181818;stroke-width:0.5;"/><line style="stroke:#181818;stroke-width:0.5;" x1="673.127" x2="697.127" y1="101.6094" y2="101.6094"/></g><g class="participant participant-tail" data-participant="Course"><text fill="#000000" font-family="sans-serif" font-size="14" lengthAdjust="spacing" textLength="45.1309" x="659.5615" y="336.8613">Course</text><ellipse cx="685.127" cy="355.9375" fill="#E2E2F0" rx="12" ry="12" style="stroke:#181818;stroke-width:0.5;"/><line style="stroke:#181818;stroke-width:0.5;" x1="673.127" x2="697.127" y1="369.9375" y2="369.9375"/></g><g class="message" data-participant-1="AA" data-participant-2="RuleForm"><polygon fill="#181818" points="184,149.5703,194,153.5703,184,157.5703,188,153.5703" style="stroke:#181818;stroke-width:1;"/><line style="stroke:#181818;stroke-width:1;" x1="29" x2="190" y1="153.5703" y2="153.5703"/><text fill="#000000" font-family="sans-serif" font-size="13" lengthAdjust="spacing" textLength="143" x="36" y="148.7139">&#37197;&#32622;&#21517;&#39069;&#12289;&#20808;&#20462;&#35838;&#31561;&#36923;&#36753;</text></g><g class="message" data-participant-1="RuleForm" data-participant-2="EnrollCtrl"><polygon fill="#181818" points="390.0762,179.9219,400.0762,183.9219,390.0762,187.9219,394.0762,183.9219" style="stroke:#181818;stroke-width:1;"/><line style="stroke:#181818;stroke-width:1;" x1="196" x2="396.0762" y1="183.9219" y2="183.9219"/><text fill="#000000" font-family="sans-serif" font-size="13" lengthAdjust="spacing" textLength="182.0762" x="203" y="179.0654">saveRules(courseId, rulesData)</text></g><g class="message" data-participant-1="EnrollCtrl" data-participant-2="Rule"><polygon fill="#181818" points="597.5996,210.2734,607.5996,214.2734,597.5996,218.2734,601.5996,214.2734" style="stroke:#181818;stroke-width:1;"/><line style="stroke:#181818;stroke-width:1;" x1="402.0762" x2="603.5996" y1="214.2734" y2="214.2734"/><text fill="#000000" font-family="sans-serif" font-size="13" lengthAdjust="spacing" textLength="183.5234" x="409.0762" y="209.417">createOrUpdateRule(rulesData)</text></g><g class="message" data-participant-1="Rule" data-participant-2="EnrollCtrl"><polygon fill="#181818" points="413.0762,240.625,403.0762,244.625,413.0762,248.625,409.0762,244.625" style="stroke:#181818;stroke-width:1;"/><line style="stroke:#181818;stroke-width:1;stroke-dasharray:2,2;" x1="407.0762" x2="608.5996" y1="244.625" y2="244.625"/><text fill="#000000" font-family="sans-serif" font-size="13" lengthAdjust="spacing" textLength="46.96" x="419.0762" y="239.7686">success</text></g><g class="message" data-participant-1="EnrollCtrl" data-participant-2="Course"><polygon fill="#181818" points="673.127,270.9766,683.127,274.9766,673.127,278.9766,677.127,274.9766" style="stroke:#181818;stroke-width:1;"/><line style="stroke:#181818;stroke-width:1;" x1="402.0762" x2="679.127" y1="274.9766" y2="274.9766"/><text fill="#000000" font-family="sans-serif" font-size="13" lengthAdjust="spacing" textLength="92.4917" x="409.0762" y="270.1201">bindRule(ruleId)</text></g><g class="message" data-participant-1="EnrollCtrl" data-participant-2="RuleForm"><polygon fill="#181818" points="207,301.3281,197,305.3281,207,309.3281,203,305.3281" style="stroke:#181818;stroke-width:1;"/><line style="stroke:#181818;stroke-width:1;stroke-dasharray:2,2;" x1="201" x2="401.0762" y1="305.3281" y2="305.3281"/><text fill="#000000" font-family="sans-serif" font-size="13" lengthAdjust="spacing" textLength="78" x="213" y="300.4717">&#35774;&#32622;&#29983;&#25928;&#25552;&#31034;</text></g><!--SRC=[PP4nIyD05CVt-nIFJ1NCuEBGGGXHePCWz0DSani2CP7BHN2Bq48grbOmGv4YBOLEHbmSKemVHY-NV0ilYSIsJdVttl___xt7COlP1BhwmM4RyZWL7t4H3FFND5_rUJW55OfvmfCnVqeHmWPpAIXPDEMtSxxiAu0zq3JKStt7nFGQbDfL34OoHqHtnMnHQSvzcvowz08PhiEeQuDIGxBx5G_VnTkwKfquicNhZDg8ECnYCaztVUgHqjxaxFIgUdr5IDD0FMfeq8Pw4ZuP5OlPLt331-7tPop1ucLO1EiyVK2DM1h_1f1M3rzLOAzbLEaTSnze-Jx63E-X3UqlKdeCIZ0ZPxHxQSgpBBOsB9L8_SVn3ODutavWlP5izop7R88wvZPuUzdw-yJZSnQ5sNWYbiaF]--></g></svg>