<svg xmlns="http://www.w3.org/2000/svg" xmlns:xlink="http://www.w3.org/1999/xlink" contentStyleType="text/css" data-diagram-type="CLASS" height="578px" preserveAspectRatio="none" style="width:282px;height:578px;background:#FFFFFF;" version="1.1" viewBox="0 0 282 578" width="282px" zoomAndPan="magnify"><title>UC17: &#31649;&#29702;&#23398;&#29983;&#20449;&#24687; - &#21442;&#19982;&#31867;&#22270; (VOPC)</title><defs/><g><g class="title" data-source-line="1"><text fill="#000000" font-family="sans-serif" font-size="14" font-weight="bold" lengthAdjust="spacing" textLength="254.0508" x="10" y="24.5332">UC17: &#31649;&#29702;&#23398;&#29983;&#20449;&#24687; - &#21442;&#19982;&#31867;&#22270; (VOPC)</text></g><!--class StudentAdminPage--><g class="entity" data-entity="StudentAdminPage" data-source-line="3" data-uid="ent0002" id="entity_StudentAdminPage"><rect fill="#F1F1F1" height="93.9219" rx="2.5" ry="2.5" style="stroke:#181818;stroke-width:0.5;" width="152.6406" x="67.7432" y="45.6094"/><ellipse cx="82.7432" cy="66.9609" fill="#ADD1B2" rx="11" ry="11" style="stroke:#181818;stroke-width:1;"/><path d="M85.5088,62.8359 Q85.665,62.6172 85.8525,62.5078 Q86.04,62.3984 86.2588,62.3984 Q86.6338,62.3984 86.8682,62.6641 Q87.1025,62.9141 87.1025,63.5234 L87.1025,64.9766 Q87.1025,65.5859 86.8682,65.8516 Q86.6338,66.1172 86.2588,66.1172 Q85.915,66.1172 85.7119,65.9141 Q85.5088,65.7266 85.3994,65.2109 Q85.3525,64.8516 85.165,64.6641 Q84.8369,64.2891 84.2275,64.0703 Q83.6182,63.8516 82.9932,63.8516 Q82.2275,63.8516 81.5869,64.1797 Q80.9619,64.5078 80.4619,65.2578 Q79.9775,66.0078 79.9775,67.0391 L79.9775,68.1328 Q79.9775,69.3672 80.8682,70.1953 Q81.7588,71.0078 83.3525,71.0078 Q84.29,71.0078 84.9463,70.7578 Q85.3369,70.6016 85.7588,70.1641 Q86.0244,69.8984 86.165,69.8203 Q86.3213,69.7422 86.5244,69.7422 Q86.8525,69.7422 87.1025,70.0078 Q87.3682,70.2578 87.3682,70.6016 Q87.3682,70.9453 87.0244,71.3516 Q86.5244,71.9297 85.7275,72.2578 Q84.6494,72.7109 83.3525,72.7109 Q81.8369,72.7109 80.6338,72.0859 Q79.6494,71.5859 78.9619,70.5234 Q78.2744,69.4453 78.2744,68.1641 L78.2744,67.0078 Q78.2744,65.6797 78.8838,64.5391 Q79.5088,63.3828 80.6025,62.7734 Q81.6963,62.1484 82.9307,62.1484 Q83.665,62.1484 84.3057,62.3203 Q84.9619,62.4766 85.5088,62.8359 Z " fill="#000000"/><text fill="#000000" font-family="sans-serif" font-size="12" font-style="italic" lengthAdjust="spacing" textLength="63.3867" x="125.3701" y="63.0664">&#171;boundary&#187;</text><text fill="#000000" font-family="sans-serif" font-size="14" lengthAdjust="spacing" textLength="120.6406" x="96.7432" y="80.2363">StudentAdminPage</text><line style="stroke:#181818;stroke-width:0.5;" x1="68.7432" x2="219.3838" y1="88.3125" y2="88.3125"/><line style="stroke:#181818;stroke-width:0.5;" x1="68.7432" x2="219.3838" y1="96.3125" y2="96.3125"/><ellipse cx="78.7432" cy="110.6172" fill="#84BE84" rx="3" ry="3" style="stroke:#038048;stroke-width:1;"/><text fill="#000000" font-family="sans-serif" font-size="14" lengthAdjust="spacing" textLength="90.2686" x="87.7432" y="114.8457">getOperation()</text><ellipse cx="78.7432" cy="128.2266" fill="#84BE84" rx="3" ry="3" style="stroke:#038048;stroke-width:1;"/><text fill="#000000" font-family="sans-serif" font-size="14" lengthAdjust="spacing" textLength="106.6201" x="87.7432" y="132.4551">getStudentData()</text></g><!--class AccountManager--><g class="entity" data-entity="AccountManager" data-source-line="8" data-uid="ent0003" id="entity_AccountManager"><rect fill="#F1F1F1" height="93.9219" rx="2.5" ry="2.5" style="stroke:#181818;stroke-width:0.5;" width="206.5645" x="40.7432" y="217.6094"/><ellipse cx="86.855" cy="238.9609" fill="#ADD1B2" rx="11" ry="11" style="stroke:#181818;stroke-width:1;"/><path d="M89.6206,234.8359 Q89.7769,234.6172 89.9644,234.5078 Q90.1519,234.3984 90.3706,234.3984 Q90.7456,234.3984 90.98,234.6641 Q91.2144,234.9141 91.2144,235.5234 L91.2144,236.9766 Q91.2144,237.5859 90.98,237.8516 Q90.7456,238.1172 90.3706,238.1172 Q90.0269,238.1172 89.8237,237.9141 Q89.6206,237.7266 89.5112,237.2109 Q89.4644,236.8516 89.2769,236.6641 Q88.9487,236.2891 88.3394,236.0703 Q87.73,235.8516 87.105,235.8516 Q86.3394,235.8516 85.6987,236.1797 Q85.0737,236.5078 84.5737,237.2578 Q84.0894,238.0078 84.0894,239.0391 L84.0894,240.1328 Q84.0894,241.3672 84.98,242.1953 Q85.8706,243.0078 87.4644,243.0078 Q88.4019,243.0078 89.0581,242.7578 Q89.4487,242.6016 89.8706,242.1641 Q90.1362,241.8984 90.2769,241.8203 Q90.4331,241.7422 90.6362,241.7422 Q90.9644,241.7422 91.2144,242.0078 Q91.48,242.2578 91.48,242.6016 Q91.48,242.9453 91.1362,243.3516 Q90.6362,243.9297 89.8394,244.2578 Q88.7612,244.7109 87.4644,244.7109 Q85.9487,244.7109 84.7456,244.0859 Q83.7612,243.5859 83.0737,242.5234 Q82.3862,241.4453 82.3862,240.1641 L82.3862,239.0078 Q82.3862,237.6797 82.9956,236.5391 Q83.6206,235.3828 84.7144,234.7734 Q85.8081,234.1484 87.0425,234.1484 Q87.7769,234.1484 88.4175,234.3203 Q89.0737,234.4766 89.6206,234.8359 Z " fill="#000000"/><text fill="#000000" font-family="sans-serif" font-size="12" font-style="italic" lengthAdjust="spacing" textLength="49.3652" x="135.5928" y="235.0664">&#171;control&#187;</text><text fill="#000000" font-family="sans-serif" font-size="14" lengthAdjust="spacing" textLength="105.8408" x="107.355" y="252.2363">AccountManager</text><line style="stroke:#181818;stroke-width:0.5;" x1="41.7432" x2="246.3076" y1="260.3125" y2="260.3125"/><line style="stroke:#181818;stroke-width:0.5;" x1="41.7432" x2="246.3076" y1="268.3125" y2="268.3125"/><ellipse cx="51.7432" cy="282.6172" fill="#84BE84" rx="3" ry="3" style="stroke:#038048;stroke-width:1;"/><text fill="#000000" font-family="sans-serif" font-size="14" lengthAdjust="spacing" textLength="180.5645" x="60.7432" y="286.8457">manageStudent(action, data)</text><ellipse cx="51.7432" cy="300.2266" fill="#84BE84" rx="3" ry="3" style="stroke:#038048;stroke-width:1;"/><text fill="#000000" font-family="sans-serif" font-size="14" lengthAdjust="spacing" textLength="101.1445" x="60.7432" y="304.4551">batchImport(file)</text></g><!--class Student--><g class="entity" data-entity="Student" data-source-line="13" data-uid="ent0004" id="entity_Student"><rect fill="#F1F1F1" height="181.9688" rx="2.5" ry="2.5" style="stroke:#181818;stroke-width:0.5;" width="127.9512" x="80.2432" y="389.6094"/><ellipse cx="116.7034" cy="410.9609" fill="#ADD1B2" rx="11" ry="11" style="stroke:#181818;stroke-width:1;"/><path d="M119.469,406.8359 Q119.6253,406.6172 119.8128,406.5078 Q120.0003,406.3984 120.219,406.3984 Q120.594,406.3984 120.8284,406.6641 Q121.0628,406.9141 121.0628,407.5234 L121.0628,408.9766 Q121.0628,409.5859 120.8284,409.8516 Q120.594,410.1172 120.219,410.1172 Q119.8753,410.1172 119.6722,409.9141 Q119.469,409.7266 119.3597,409.2109 Q119.3128,408.8516 119.1253,408.6641 Q118.7972,408.2891 118.1878,408.0703 Q117.5784,407.8516 116.9534,407.8516 Q116.1878,407.8516 115.5472,408.1797 Q114.9222,408.5078 114.4222,409.2578 Q113.9378,410.0078 113.9378,411.0391 L113.9378,412.1328 Q113.9378,413.3672 114.8284,414.1953 Q115.719,415.0078 117.3128,415.0078 Q118.2503,415.0078 118.9065,414.7578 Q119.2972,414.6016 119.719,414.1641 Q119.9847,413.8984 120.1253,413.8203 Q120.2815,413.7422 120.4847,413.7422 Q120.8128,413.7422 121.0628,414.0078 Q121.3284,414.2578 121.3284,414.6016 Q121.3284,414.9453 120.9847,415.3516 Q120.4847,415.9297 119.6878,416.2578 Q118.6097,416.7109 117.3128,416.7109 Q115.7972,416.7109 114.594,416.0859 Q113.6097,415.5859 112.9222,414.5234 Q112.2347,413.4453 112.2347,412.1641 L112.2347,411.0078 Q112.2347,409.6797 112.844,408.5391 Q113.469,407.3828 114.5628,406.7734 Q115.6565,406.1484 116.8909,406.1484 Q117.6253,406.1484 118.2659,406.3203 Q118.9222,406.4766 119.469,406.8359 Z " fill="#000000"/><text fill="#000000" font-family="sans-serif" font-size="12" font-style="italic" lengthAdjust="spacing" textLength="42.0293" x="138.5886" y="407.0664">&#171;entity&#187;</text><text fill="#000000" font-family="sans-serif" font-size="14" lengthAdjust="spacing" textLength="48.2617" x="135.4724" y="424.2363">Student</text><line style="stroke:#181818;stroke-width:0.5;" x1="81.2432" x2="207.1943" y1="432.3125" y2="432.3125"/><rect fill="none" height="6" style="stroke:#C82930;stroke-width:1;" width="6" x="88.2432" y="443.6172"/><text fill="#000000" font-family="sans-serif" font-size="14" lengthAdjust="spacing" textLength="101.9512" x="100.2432" y="450.8457">studentId: String</text><rect fill="none" height="6" style="stroke:#C82930;stroke-width:1;" width="6" x="88.2432" y="461.2266"/><text fill="#000000" font-family="sans-serif" font-size="14" lengthAdjust="spacing" textLength="79.3721" x="100.2432" y="468.4551">name: String</text><rect fill="none" height="6" style="stroke:#C82930;stroke-width:1;" width="6" x="88.2432" y="478.8359"/><text fill="#000000" font-family="sans-serif" font-size="14" lengthAdjust="spacing" textLength="79.3584" x="100.2432" y="486.0645">major: String</text><rect fill="none" height="6" style="stroke:#C82930;stroke-width:1;" width="6" x="88.2432" y="496.4453"/><text fill="#000000" font-family="sans-serif" font-size="14" lengthAdjust="spacing" textLength="76.248" x="100.2432" y="503.6738">class: String</text><line style="stroke:#181818;stroke-width:0.5;" x1="81.2432" x2="207.1943" y1="510.75" y2="510.75"/><ellipse cx="91.2432" cy="525.0547" fill="#84BE84" rx="3" ry="3" style="stroke:#038048;stroke-width:1;"/><text fill="#000000" font-family="sans-serif" font-size="14" lengthAdjust="spacing" textLength="48.2344" x="100.2432" y="529.2832">create()</text><ellipse cx="91.2432" cy="542.6641" fill="#84BE84" rx="3" ry="3" style="stroke:#038048;stroke-width:1;"/><text fill="#000000" font-family="sans-serif" font-size="14" lengthAdjust="spacing" textLength="52.1445" x="100.2432" y="546.8926">update()</text><ellipse cx="91.2432" cy="560.2734" fill="#84BE84" rx="3" ry="3" style="stroke:#038048;stroke-width:1;"/><text fill="#000000" font-family="sans-serif" font-size="14" lengthAdjust="spacing" textLength="47.4688" x="100.2432" y="564.502">delete()</text></g><!--link StudentAdminPage to AccountManager--><g class="link" data-entity-1="StudentAdminPage" data-entity-2="AccountManager" data-source-line="23" data-uid="lnk5" id="link_StudentAdminPage_AccountManager"><path codeLine="23" d="M144.2432,139.6094 C144.2432,163.7994 144.2432,187.3694 144.2432,211.5694" fill="none" id="StudentAdminPage-to-AccountManager" style="stroke:#181818;stroke-width:1;stroke-dasharray:7,7;"/><polygon fill="#181818" points="144.2432,217.5694,148.2432,208.5694,144.2432,212.5694,140.2432,208.5694,144.2432,217.5694" style="stroke:#181818;stroke-width:1;"/><text fill="#000000" font-family="sans-serif" font-size="13" lengthAdjust="spacing" textLength="27.46" x="145.2432" y="184.1045">uses</text></g><!--link AccountManager to Student--><g class="link" data-entity-1="AccountManager" data-entity-2="Student" data-source-line="24" data-uid="lnk6" id="link_AccountManager_Student"><path codeLine="24" d="M144.2432,311.7794 C144.2432,334.5094 144.2432,356.7294 144.2432,383.4994" fill="none" id="AccountManager-to-Student" style="stroke:#181818;stroke-width:1;stroke-dasharray:7,7;"/><polygon fill="#181818" points="144.2432,389.4994,148.2432,380.4994,144.2432,384.4994,140.2432,380.4994,144.2432,389.4994" style="stroke:#181818;stroke-width:1;"/><text fill="#000000" font-family="sans-serif" font-size="13" lengthAdjust="spacing" textLength="55.6372" x="145.2432" y="356.1045">maintains</text></g><!--SRC=[PP2nIiH0443xVCMKESuxi1B24JZEvWgv0z5-RtUCAybks4mA4GijBDN2paAkiLEn4mJzcOlv3UTYuiMui0lpPkOniwGfHZYOREy4K3ulozkhukcnl7jOVIw_BbvW0CNDvUhjkdnzB-u_m3-SpISzpvEno3BOfroXeR5Aj9cB264qMjZSAE5Emn3EFE3JXmXfbg8JfAtnUnjOT-yA4epF6-bOIdRGdZ1iTAoKrf2pSSkOLBcwtnToRTu2nQ96ln0aZwT9QXtvHph6bhzkOp6_cZQJ3Y3xIKrLm5LEcwZcHYJOGOauiQx3AlyVrWVfK13-hfsdgXqgZB4AURf_dpaSXjtF223FCFCwT5tOR1NmPDeGt-mR]--></g></svg>