<svg xmlns="http://www.w3.org/2000/svg" xmlns:xlink="http://www.w3.org/1999/xlink" contentStyleType="text/css" data-diagram-type="SEQUENCE" height="405px" preserveAspectRatio="none" style="width:658px;height:405px;background:#FFFFFF;" version="1.1" viewBox="0 0 658 405" width="658px" zoomAndPan="magnify"><title>UC17: &#31649;&#29702;&#23398;&#29983;&#20449;&#24687; - &#39034;&#24207;&#22270;</title><defs/><g><text fill="#000000" font-family="sans-serif" font-size="14" font-weight="bold" lengthAdjust="spacing" textLength="186.7236" x="237.5056" y="29.5332">UC17: &#31649;&#29702;&#23398;&#29983;&#20449;&#24687; - &#39034;&#24207;&#22270;</text><g><title>...</title><rect fill="#000000" fill-opacity="0.00000" height="202.1094" width="8" x="25" y="121.2188"/><line style="stroke:#181818;stroke-width:0.5;stroke-dasharray:5,5;" x1="29" x2="29" y1="121.2188" y2="323.3281"/></g><g><title>......</title><rect fill="#000000" fill-opacity="0.00000" height="202.1094" width="8" x="218" y="121.2188"/><line style="stroke:#181818;stroke-width:0.5;stroke-dasharray:5,5;" x1="222" x2="222" y1="121.2188" y2="323.3281"/></g><g><title>.....</title><rect fill="#000000" fill-opacity="0.00000" height="202.1094" width="8" x="445.0679" y="121.2188"/><line style="stroke:#181818;stroke-width:0.5;stroke-dasharray:5,5;" x1="449.0679" x2="449.0679" y1="121.2188" y2="323.3281"/></g><g><title>Student</title><rect fill="#000000" fill-opacity="0.00000" height="202.1094" width="8" x="626.604" y="121.2188"/><line style="stroke:#181818;stroke-width:0.5;stroke-dasharray:5,5;" x1="630.4731" x2="630.4731" y1="121.2188" y2="323.3281"/></g><g class="participant participant-head" data-participant="Admin"><text fill="#000000" font-family="sans-serif" font-size="14" lengthAdjust="spacing" textLength="42" x="5" y="118.1426">&#31649;&#29702;&#21592;</text><ellipse cx="29" cy="52.1094" fill="#E2E2F0" rx="8" ry="8" style="stroke:#181818;stroke-width:0.5;"/><path d="M29,60.1094 L29,87.1094 M16,68.1094 L42,68.1094 M29,87.1094 L16,102.1094 M29,87.1094 L42,102.1094" fill="none" style="stroke:#181818;stroke-width:0.5;"/></g><g class="participant participant-tail" data-participant="Admin"><text fill="#000000" font-family="sans-serif" font-size="14" lengthAdjust="spacing" textLength="42" x="5" y="336.8613">&#31649;&#29702;&#21592;</text><ellipse cx="29" cy="348.4375" fill="#E2E2F0" rx="8" ry="8" style="stroke:#181818;stroke-width:0.5;"/><path d="M29,356.4375 L29,383.4375 M16,364.4375 L42,364.4375 M29,383.4375 L16,398.4375 M29,383.4375 L42,398.4375" fill="none" style="stroke:#181818;stroke-width:0.5;"/></g><g class="participant participant-head" data-participant="AdminPage"><text fill="#000000" font-family="sans-serif" font-size="14" lengthAdjust="spacing" textLength="84" x="177" y="118.1426">&#23398;&#29983;&#31649;&#29702;&#39029;&#38754;</text><path d="M201.5,75.6094 L201.5,99.6094 M201.5,87.6094 L218.5,87.6094" fill="none" style="stroke:#181818;stroke-width:0.5;"/><ellipse cx="230.5" cy="87.6094" fill="#E2E2F0" rx="12" ry="12" style="stroke:#181818;stroke-width:0.5;"/></g><g class="participant participant-tail" data-participant="AdminPage"><text fill="#000000" font-family="sans-serif" font-size="14" lengthAdjust="spacing" textLength="84" x="177" y="336.8613">&#23398;&#29983;&#31649;&#29702;&#39029;&#38754;</text><path d="M201.5,343.9375 L201.5,367.9375 M201.5,355.9375 L218.5,355.9375" fill="none" style="stroke:#181818;stroke-width:0.5;"/><ellipse cx="230.5" cy="355.9375" fill="#E2E2F0" rx="12" ry="12" style="stroke:#181818;stroke-width:0.5;"/></g><g class="participant participant-head" data-participant="AccMgr"><text fill="#000000" font-family="sans-serif" font-size="14" lengthAdjust="spacing" textLength="70" x="411.0679" y="118.1426">&#36134;&#25143;&#31649;&#29702;&#22120;</text><ellipse cx="449.0679" cy="87.6094" fill="#E2E2F0" rx="12" ry="12" style="stroke:#181818;stroke-width:0.5;"/><polygon fill="#181818" points="445.0679,75.6094,451.0679,70.6094,449.0679,75.6094,451.0679,80.6094,445.0679,75.6094" style="stroke:#181818;stroke-width:1;"/></g><g class="participant participant-tail" data-participant="AccMgr"><text fill="#000000" font-family="sans-serif" font-size="14" lengthAdjust="spacing" textLength="70" x="411.0679" y="336.8613">&#36134;&#25143;&#31649;&#29702;&#22120;</text><ellipse cx="449.0679" cy="355.9375" fill="#E2E2F0" rx="12" ry="12" style="stroke:#181818;stroke-width:0.5;"/><polygon fill="#181818" points="445.0679,343.9375,451.0679,338.9375,449.0679,343.9375,451.0679,348.9375,445.0679,343.9375" style="stroke:#181818;stroke-width:1;"/></g><g class="participant participant-head" data-participant="Student"><text fill="#000000" font-family="sans-serif" font-size="14" lengthAdjust="spacing" textLength="48.2617" x="603.4731" y="118.1426">Student</text><ellipse cx="630.604" cy="87.6094" fill="#E2E2F0" rx="12" ry="12" style="stroke:#181818;stroke-width:0.5;"/><line style="stroke:#181818;stroke-width:0.5;" x1="618.604" x2="642.604" y1="101.6094" y2="101.6094"/></g><g class="participant participant-tail" data-participant="Student"><text fill="#000000" font-family="sans-serif" font-size="14" lengthAdjust="spacing" textLength="48.2617" x="603.4731" y="336.8613">Student</text><ellipse cx="630.604" cy="355.9375" fill="#E2E2F0" rx="12" ry="12" style="stroke:#181818;stroke-width:0.5;"/><line style="stroke:#181818;stroke-width:0.5;" x1="618.604" x2="642.604" y1="369.9375" y2="369.9375"/></g><g class="message" data-participant-1="Admin" data-participant-2="AdminPage"><polygon fill="#181818" points="210,149.5703,220,153.5703,210,157.5703,214,153.5703" style="stroke:#181818;stroke-width:1;"/><line style="stroke:#181818;stroke-width:1;" x1="29" x2="216" y1="153.5703" y2="153.5703"/><text fill="#000000" font-family="sans-serif" font-size="13" lengthAdjust="spacing" textLength="169" x="36" y="148.7139">&#25191;&#34892;&#22686;&#21024;&#25913;&#26597;&#25110;&#25209;&#37327;&#23548;&#20837;&#25805;&#20316;</text></g><g class="message" data-participant-1="AdminPage" data-participant-2="AccMgr"><polygon fill="#181818" points="437.0679,179.9219,447.0679,183.9219,437.0679,187.9219,441.0679,183.9219" style="stroke:#181818;stroke-width:1;"/><line style="stroke:#181818;stroke-width:1;" x1="222" x2="443.0679" y1="183.9219" y2="183.9219"/><text fill="#000000" font-family="sans-serif" font-size="13" lengthAdjust="spacing" textLength="203.0679" x="229" y="179.0654">studentDataOperation(action, data)</text></g><g class="message" data-participant-1="AccMgr" data-participant-2="Student"><polygon fill="#181818" points="618.604,210.2734,628.604,214.2734,618.604,218.2734,622.604,214.2734" style="stroke:#181818;stroke-width:1;"/><line style="stroke:#181818;stroke-width:1;" x1="449.0679" x2="624.604" y1="214.2734" y2="214.2734"/><text fill="#000000" font-family="sans-serif" font-size="13" lengthAdjust="spacing" textLength="157.5361" x="456.0679" y="209.417">executeAction(action, data)</text></g><g class="message" data-participant-1="Student" data-participant-2="AccMgr"><polygon fill="#181818" points="460.0679,240.625,450.0679,244.625,460.0679,248.625,456.0679,244.625" style="stroke:#181818;stroke-width:1;"/><line style="stroke:#181818;stroke-width:1;stroke-dasharray:2,2;" x1="454.0679" x2="629.604" y1="244.625" y2="244.625"/><text fill="#000000" font-family="sans-serif" font-size="13" lengthAdjust="spacing" textLength="46.96" x="466.0679" y="239.7686">success</text></g><g class="message" data-participant-1="AccMgr" data-participant-2="AdminPage"><polygon fill="#181818" points="233,270.9766,223,274.9766,233,278.9766,229,274.9766" style="stroke:#181818;stroke-width:1;"/><line style="stroke:#181818;stroke-width:1;stroke-dasharray:2,2;" x1="227" x2="448.0679" y1="274.9766" y2="274.9766"/><text fill="#000000" font-family="sans-serif" font-size="13" lengthAdjust="spacing" textLength="78" x="239" y="270.1201">&#29366;&#24577;&#26356;&#26032;&#25552;&#31034;</text></g><g class="message" data-participant-1="AdminPage" data-participant-2="Admin"><polygon fill="#181818" points="40,301.3281,30,305.3281,40,309.3281,36,305.3281" style="stroke:#181818;stroke-width:1;"/><line style="stroke:#181818;stroke-width:1;" x1="34" x2="221" y1="305.3281" y2="305.3281"/><text fill="#000000" font-family="sans-serif" font-size="13" lengthAdjust="spacing" textLength="52" x="46" y="300.4717">&#23637;&#31034;&#32467;&#26524;</text></g><!--SRC=[RO_FIiD048Vl-nH3JWhsu4deGIXw5GNn0TRDKW8raMG3UhC7DHKbbTQYjBQcsEf5gr2LrdylqvqqR-6QH8l5qmuxt- -R6M680eUDfVc5B8JtGLW-a7VTiDeQVGPOx446ec0eXxwiVn12cR1iq5Biz5m3wa1Etp9CiccvfaxjNT2IUC94mLDqsPvWQpJF2RDCOLi5qCRzBdelgUtYDi4OMydRX9l244gsBbnTrN4hhGc9LP1Pd3WX2rYw6GV7ijsKtXLM1zZge5V3qY0wz6NlJUvti78oUc-GIUPR44zJQITnBrD1LxUvJOLXcJFgNFNCWQv-PqdAgbIwY8hn7SvSmNFi7_w7oloPupB67UTNDdL4UFICUqMizx7sW7uvl1vExHjVdWNvUAPwuMi5cuql]--></g></svg>