<svg xmlns="http://www.w3.org/2000/svg" xmlns:xlink="http://www.w3.org/1999/xlink" contentStyleType="text/css" data-diagram-type="SEQUENCE" height="375px" preserveAspectRatio="none" style="width:635px;height:375px;background:#FFFFFF;" version="1.1" viewBox="0 0 635 375" width="635px" zoomAndPan="magnify"><title>UC18: &#31649;&#29702;&#25945;&#24072;&#20449;&#24687; - &#39034;&#24207;&#22270;</title><defs/><g><text fill="#000000" font-family="sans-serif" font-size="14" font-weight="bold" lengthAdjust="spacing" textLength="186.7236" x="225.6384" y="29.5332">UC18: &#31649;&#29702;&#25945;&#24072;&#20449;&#24687; - &#39034;&#24207;&#22270;</text><g><title>...</title><rect fill="#000000" fill-opacity="0.00000" height="171.7578" width="8" x="25" y="121.2188"/><line style="stroke:#181818;stroke-width:0.5;stroke-dasharray:5,5;" x1="29" x2="29" y1="121.2188" y2="292.9766"/></g><g><title>......</title><rect fill="#000000" fill-opacity="0.00000" height="171.7578" width="8" x="192" y="121.2188"/><line style="stroke:#181818;stroke-width:0.5;stroke-dasharray:5,5;" x1="196" x2="196" y1="121.2188" y2="292.9766"/></g><g><title>.....</title><rect fill="#000000" fill-opacity="0.00000" height="171.7578" width="8" x="419.7852" y="121.2188"/><line style="stroke:#181818;stroke-width:0.5;stroke-dasharray:5,5;" x1="423.7852" x2="423.7852" y1="121.2188" y2="292.9766"/></g><g><title>Teacher</title><rect fill="#000000" fill-opacity="0.00000" height="171.7578" width="8" x="601.3213" y="121.2188"/><line style="stroke:#181818;stroke-width:0.5;stroke-dasharray:5,5;" x1="604.6421" x2="604.6421" y1="121.2188" y2="292.9766"/></g><g class="participant participant-head" data-participant="Admin"><text fill="#000000" font-family="sans-serif" font-size="14" lengthAdjust="spacing" textLength="42" x="5" y="118.1426">&#31649;&#29702;&#21592;</text><ellipse cx="29" cy="52.1094" fill="#E2E2F0" rx="8" ry="8" style="stroke:#181818;stroke-width:0.5;"/><path d="M29,60.1094 L29,87.1094 M16,68.1094 L42,68.1094 M29,87.1094 L16,102.1094 M29,87.1094 L42,102.1094" fill="none" style="stroke:#181818;stroke-width:0.5;"/></g><g class="participant participant-tail" data-participant="Admin"><text fill="#000000" font-family="sans-serif" font-size="14" lengthAdjust="spacing" textLength="42" x="5" y="306.5098">&#31649;&#29702;&#21592;</text><ellipse cx="29" cy="318.0859" fill="#E2E2F0" rx="8" ry="8" style="stroke:#181818;stroke-width:0.5;"/><path d="M29,326.0859 L29,353.0859 M16,334.0859 L42,334.0859 M29,353.0859 L16,368.0859 M29,353.0859 L42,368.0859" fill="none" style="stroke:#181818;stroke-width:0.5;"/></g><g class="participant participant-head" data-participant="AdminPage"><text fill="#000000" font-family="sans-serif" font-size="14" lengthAdjust="spacing" textLength="84" x="151" y="118.1426">&#25945;&#24072;&#31649;&#29702;&#39029;&#38754;</text><path d="M175.5,75.6094 L175.5,99.6094 M175.5,87.6094 L192.5,87.6094" fill="none" style="stroke:#181818;stroke-width:0.5;"/><ellipse cx="204.5" cy="87.6094" fill="#E2E2F0" rx="12" ry="12" style="stroke:#181818;stroke-width:0.5;"/></g><g class="participant participant-tail" data-participant="AdminPage"><text fill="#000000" font-family="sans-serif" font-size="14" lengthAdjust="spacing" textLength="84" x="151" y="306.5098">&#25945;&#24072;&#31649;&#29702;&#39029;&#38754;</text><path d="M175.5,313.5859 L175.5,337.5859 M175.5,325.5859 L192.5,325.5859" fill="none" style="stroke:#181818;stroke-width:0.5;"/><ellipse cx="204.5" cy="325.5859" fill="#E2E2F0" rx="12" ry="12" style="stroke:#181818;stroke-width:0.5;"/></g><g class="participant participant-head" data-participant="AccMgr"><text fill="#000000" font-family="sans-serif" font-size="14" lengthAdjust="spacing" textLength="70" x="385.7852" y="118.1426">&#36134;&#25143;&#31649;&#29702;&#22120;</text><ellipse cx="423.7852" cy="87.6094" fill="#E2E2F0" rx="12" ry="12" style="stroke:#181818;stroke-width:0.5;"/><polygon fill="#181818" points="419.7852,75.6094,425.7852,70.6094,423.7852,75.6094,425.7852,80.6094,419.7852,75.6094" style="stroke:#181818;stroke-width:1;"/></g><g class="participant participant-tail" data-participant="AccMgr"><text fill="#000000" font-family="sans-serif" font-size="14" lengthAdjust="spacing" textLength="70" x="385.7852" y="306.5098">&#36134;&#25143;&#31649;&#29702;&#22120;</text><ellipse cx="423.7852" cy="325.5859" fill="#E2E2F0" rx="12" ry="12" style="stroke:#181818;stroke-width:0.5;"/><polygon fill="#181818" points="419.7852,313.5859,425.7852,308.5859,423.7852,313.5859,425.7852,318.5859,419.7852,313.5859" style="stroke:#181818;stroke-width:1;"/></g><g class="participant participant-head" data-participant="Teacher"><text fill="#000000" font-family="sans-serif" font-size="14" lengthAdjust="spacing" textLength="51.3584" x="576.6421" y="118.1426">Teacher</text><ellipse cx="605.3213" cy="87.6094" fill="#E2E2F0" rx="12" ry="12" style="stroke:#181818;stroke-width:0.5;"/><line style="stroke:#181818;stroke-width:0.5;" x1="593.3213" x2="617.3213" y1="101.6094" y2="101.6094"/></g><g class="participant participant-tail" data-participant="Teacher"><text fill="#000000" font-family="sans-serif" font-size="14" lengthAdjust="spacing" textLength="51.3584" x="576.6421" y="306.5098">Teacher</text><ellipse cx="605.3213" cy="325.5859" fill="#E2E2F0" rx="12" ry="12" style="stroke:#181818;stroke-width:0.5;"/><line style="stroke:#181818;stroke-width:0.5;" x1="593.3213" x2="617.3213" y1="339.5859" y2="339.5859"/></g><g class="message" data-participant-1="Admin" data-participant-2="AdminPage"><polygon fill="#181818" points="184,149.5703,194,153.5703,184,157.5703,188,153.5703" style="stroke:#181818;stroke-width:1;"/><line style="stroke:#181818;stroke-width:1;" x1="29" x2="190" y1="153.5703" y2="153.5703"/><text fill="#000000" font-family="sans-serif" font-size="13" lengthAdjust="spacing" textLength="143" x="36" y="148.7139">&#25191;&#34892;&#22686;&#21024;&#25913;&#26597;&#25110;&#25209;&#37327;&#23548;&#20837;</text></g><g class="message" data-participant-1="AdminPage" data-participant-2="AccMgr"><polygon fill="#181818" points="411.7852,179.9219,421.7852,183.9219,411.7852,187.9219,415.7852,183.9219" style="stroke:#181818;stroke-width:1;"/><line style="stroke:#181818;stroke-width:1;" x1="196" x2="417.7852" y1="183.9219" y2="183.9219"/><text fill="#000000" font-family="sans-serif" font-size="13" lengthAdjust="spacing" textLength="203.7852" x="203" y="179.0654">teacherDataOperation(action, data)</text></g><g class="message" data-participant-1="AccMgr" data-participant-2="Teacher"><polygon fill="#181818" points="593.3213,210.2734,603.3213,214.2734,593.3213,218.2734,597.3213,214.2734" style="stroke:#181818;stroke-width:1;"/><line style="stroke:#181818;stroke-width:1;" x1="423.7852" x2="599.3213" y1="214.2734" y2="214.2734"/><text fill="#000000" font-family="sans-serif" font-size="13" lengthAdjust="spacing" textLength="157.5361" x="430.7852" y="209.417">executeAction(action, data)</text></g><g class="message" data-participant-1="Teacher" data-participant-2="AccMgr"><polygon fill="#181818" points="434.7852,240.625,424.7852,244.625,434.7852,248.625,430.7852,244.625" style="stroke:#181818;stroke-width:1;"/><line style="stroke:#181818;stroke-width:1;stroke-dasharray:2,2;" x1="428.7852" x2="604.3213" y1="244.625" y2="244.625"/><text fill="#000000" font-family="sans-serif" font-size="13" lengthAdjust="spacing" textLength="46.96" x="440.7852" y="239.7686">success</text></g><g class="message" data-participant-1="AccMgr" data-participant-2="AdminPage"><polygon fill="#181818" points="207,270.9766,197,274.9766,207,278.9766,203,274.9766" style="stroke:#181818;stroke-width:1;"/><line style="stroke:#181818;stroke-width:1;stroke-dasharray:2,2;" x1="201" x2="422.7852" y1="274.9766" y2="274.9766"/><text fill="#000000" font-family="sans-serif" font-size="13" lengthAdjust="spacing" textLength="78" x="213" y="270.1201">&#26356;&#26032;&#25104;&#21151;&#25552;&#31034;</text></g><!--SRC=[RO_1IiD048Rl-nH3JWhcu4rw48fUHG_w0EjcgO6Qo6O3UlIWfY8aWXPBqPfYrPFjeKKRH5_6dJHluPf48-9fXvtl_sP6shB9OMjbSQa6wLESHiTusL4lmSTxZ8T3C26B4vM4glj626NI5M0Kc3g_Ce1wKBTsROTikxvZKN40HX4lc2oUPDVz2jkW3KwOwqZXDi6OZUynU2vjdSS2Osoj8GXtf2srR9DJjiD5tYfhGd8LcCkL4sg0hOTPVARwDogunOifzWOOjB4rpKv2DNnLHmDIqL_HV8xEoSAwIYLTt-E2IjjrvlIX-ba0I__EavBLgN857UFxdFcIrza__3Tb_fxZ-Onnp_kH_Ls_EyRs28D8dVOmZDAxv1C0]--></g></svg>