<svg xmlns="http://www.w3.org/2000/svg" xmlns:xlink="http://www.w3.org/1999/xlink" contentStyleType="text/css" data-diagram-type="CLASS" height="542px" preserveAspectRatio="none" style="width:282px;height:542px;background:#FFFFFF;" version="1.1" viewBox="0 0 282 542" width="282px" zoomAndPan="magnify"><title>UC18: &#31649;&#29702;&#25945;&#24072;&#20449;&#24687; - &#21442;&#19982;&#31867;&#22270; (VOPC)</title><defs/><g><g class="title" data-source-line="1"><text fill="#000000" font-family="sans-serif" font-size="14" font-weight="bold" lengthAdjust="spacing" textLength="254.0508" x="10" y="24.5332">UC18: &#31649;&#29702;&#25945;&#24072;&#20449;&#24687; - &#21442;&#19982;&#31867;&#22270; (VOPC)</text></g><!--class TeacherAdminPage--><g class="entity" data-entity="TeacherAdminPage" data-source-line="3" data-uid="ent0002" id="entity_TeacherAdminPage"><rect fill="#F1F1F1" height="93.9219" rx="2.5" ry="2.5" style="stroke:#181818;stroke-width:0.5;" width="155.7373" x="66.1948" y="45.6094"/><ellipse cx="81.1948" cy="66.9609" fill="#ADD1B2" rx="11" ry="11" style="stroke:#181818;stroke-width:1;"/><path d="M83.9604,62.8359 Q84.1167,62.6172 84.3042,62.5078 Q84.4917,62.3984 84.7104,62.3984 Q85.0854,62.3984 85.3198,62.6641 Q85.5542,62.9141 85.5542,63.5234 L85.5542,64.9766 Q85.5542,65.5859 85.3198,65.8516 Q85.0854,66.1172 84.7104,66.1172 Q84.3667,66.1172 84.1636,65.9141 Q83.9604,65.7266 83.8511,65.2109 Q83.8042,64.8516 83.6167,64.6641 Q83.2886,64.2891 82.6792,64.0703 Q82.0698,63.8516 81.4448,63.8516 Q80.6792,63.8516 80.0386,64.1797 Q79.4136,64.5078 78.9136,65.2578 Q78.4292,66.0078 78.4292,67.0391 L78.4292,68.1328 Q78.4292,69.3672 79.3198,70.1953 Q80.2104,71.0078 81.8042,71.0078 Q82.7417,71.0078 83.3979,70.7578 Q83.7886,70.6016 84.2104,70.1641 Q84.4761,69.8984 84.6167,69.8203 Q84.7729,69.7422 84.9761,69.7422 Q85.3042,69.7422 85.5542,70.0078 Q85.8198,70.2578 85.8198,70.6016 Q85.8198,70.9453 85.4761,71.3516 Q84.9761,71.9297 84.1792,72.2578 Q83.1011,72.7109 81.8042,72.7109 Q80.2886,72.7109 79.0854,72.0859 Q78.1011,71.5859 77.4136,70.5234 Q76.7261,69.4453 76.7261,68.1641 L76.7261,67.0078 Q76.7261,65.6797 77.3354,64.5391 Q77.9604,63.3828 79.0542,62.7734 Q80.1479,62.1484 81.3823,62.1484 Q82.1167,62.1484 82.7573,62.3203 Q83.4136,62.4766 83.9604,62.8359 Z " fill="#000000"/><text fill="#000000" font-family="sans-serif" font-size="12" font-style="italic" lengthAdjust="spacing" textLength="63.3867" x="125.3701" y="63.0664">&#171;boundary&#187;</text><text fill="#000000" font-family="sans-serif" font-size="14" lengthAdjust="spacing" textLength="123.7373" x="95.1948" y="80.2363">TeacherAdminPage</text><line style="stroke:#181818;stroke-width:0.5;" x1="67.1948" x2="220.9321" y1="88.3125" y2="88.3125"/><line style="stroke:#181818;stroke-width:0.5;" x1="67.1948" x2="220.9321" y1="96.3125" y2="96.3125"/><ellipse cx="77.1948" cy="110.6172" fill="#84BE84" rx="3" ry="3" style="stroke:#038048;stroke-width:1;"/><text fill="#000000" font-family="sans-serif" font-size="14" lengthAdjust="spacing" textLength="90.2686" x="86.1948" y="114.8457">getOperation()</text><ellipse cx="77.1948" cy="128.2266" fill="#84BE84" rx="3" ry="3" style="stroke:#038048;stroke-width:1;"/><text fill="#000000" font-family="sans-serif" font-size="14" lengthAdjust="spacing" textLength="109.7168" x="86.1948" y="132.4551">getTeacherData()</text></g><!--class AccountManager--><g class="entity" data-entity="AccountManager" data-source-line="8" data-uid="ent0003" id="entity_AccountManager"><rect fill="#F1F1F1" height="76.3125" rx="2.5" ry="2.5" style="stroke:#181818;stroke-width:0.5;" width="209.6611" x="39.1948" y="217.6094"/><ellipse cx="86.855" cy="238.9609" fill="#ADD1B2" rx="11" ry="11" style="stroke:#181818;stroke-width:1;"/><path d="M89.6206,234.8359 Q89.7769,234.6172 89.9644,234.5078 Q90.1519,234.3984 90.3706,234.3984 Q90.7456,234.3984 90.98,234.6641 Q91.2144,234.9141 91.2144,235.5234 L91.2144,236.9766 Q91.2144,237.5859 90.98,237.8516 Q90.7456,238.1172 90.3706,238.1172 Q90.0269,238.1172 89.8237,237.9141 Q89.6206,237.7266 89.5112,237.2109 Q89.4644,236.8516 89.2769,236.6641 Q88.9487,236.2891 88.3394,236.0703 Q87.73,235.8516 87.105,235.8516 Q86.3394,235.8516 85.6987,236.1797 Q85.0737,236.5078 84.5737,237.2578 Q84.0894,238.0078 84.0894,239.0391 L84.0894,240.1328 Q84.0894,241.3672 84.98,242.1953 Q85.8706,243.0078 87.4644,243.0078 Q88.4019,243.0078 89.0581,242.7578 Q89.4487,242.6016 89.8706,242.1641 Q90.1362,241.8984 90.2769,241.8203 Q90.4331,241.7422 90.6362,241.7422 Q90.9644,241.7422 91.2144,242.0078 Q91.48,242.2578 91.48,242.6016 Q91.48,242.9453 91.1362,243.3516 Q90.6362,243.9297 89.8394,244.2578 Q88.7612,244.7109 87.4644,244.7109 Q85.9487,244.7109 84.7456,244.0859 Q83.7612,243.5859 83.0737,242.5234 Q82.3862,241.4453 82.3862,240.1641 L82.3862,239.0078 Q82.3862,237.6797 82.9956,236.5391 Q83.6206,235.3828 84.7144,234.7734 Q85.8081,234.1484 87.0425,234.1484 Q87.7769,234.1484 88.4175,234.3203 Q89.0737,234.4766 89.6206,234.8359 Z " fill="#000000"/><text fill="#000000" font-family="sans-serif" font-size="12" font-style="italic" lengthAdjust="spacing" textLength="49.3652" x="135.5928" y="235.0664">&#171;control&#187;</text><text fill="#000000" font-family="sans-serif" font-size="14" lengthAdjust="spacing" textLength="105.8408" x="107.355" y="252.2363">AccountManager</text><line style="stroke:#181818;stroke-width:0.5;" x1="40.1948" x2="247.856" y1="260.3125" y2="260.3125"/><line style="stroke:#181818;stroke-width:0.5;" x1="40.1948" x2="247.856" y1="268.3125" y2="268.3125"/><ellipse cx="50.1948" cy="282.6172" fill="#84BE84" rx="3" ry="3" style="stroke:#038048;stroke-width:1;"/><text fill="#000000" font-family="sans-serif" font-size="14" lengthAdjust="spacing" textLength="183.6611" x="59.1948" y="286.8457">manageTeacher(action, data)</text></g><!--class Teacher--><g class="entity" data-entity="Teacher" data-source-line="12" data-uid="ent0004" id="entity_Teacher"><rect fill="#F1F1F1" height="164.3594" rx="2.5" ry="2.5" style="stroke:#181818;stroke-width:0.5;" width="141.1719" x="73.6948" y="371.6094"/><ellipse cx="114.7109" cy="392.9609" fill="#ADD1B2" rx="11" ry="11" style="stroke:#181818;stroke-width:1;"/><path d="M117.4765,388.8359 Q117.6328,388.6172 117.8203,388.5078 Q118.0078,388.3984 118.2265,388.3984 Q118.6015,388.3984 118.8359,388.6641 Q119.0703,388.9141 119.0703,389.5234 L119.0703,390.9766 Q119.0703,391.5859 118.8359,391.8516 Q118.6015,392.1172 118.2265,392.1172 Q117.8828,392.1172 117.6796,391.9141 Q117.4765,391.7266 117.3671,391.2109 Q117.3203,390.8516 117.1328,390.6641 Q116.8046,390.2891 116.1953,390.0703 Q115.5859,389.8516 114.9609,389.8516 Q114.1953,389.8516 113.5546,390.1797 Q112.9296,390.5078 112.4296,391.2578 Q111.9453,392.0078 111.9453,393.0391 L111.9453,394.1328 Q111.9453,395.3672 112.8359,396.1953 Q113.7265,397.0078 115.3203,397.0078 Q116.2578,397.0078 116.914,396.7578 Q117.3046,396.6016 117.7265,396.1641 Q117.9921,395.8984 118.1328,395.8203 Q118.289,395.7422 118.4921,395.7422 Q118.8203,395.7422 119.0703,396.0078 Q119.3359,396.2578 119.3359,396.6016 Q119.3359,396.9453 118.9921,397.3516 Q118.4921,397.9297 117.6953,398.2578 Q116.6171,398.7109 115.3203,398.7109 Q113.8046,398.7109 112.6015,398.0859 Q111.6171,397.5859 110.9296,396.5234 Q110.2421,395.4453 110.2421,394.1641 L110.2421,393.0078 Q110.2421,391.6797 110.8515,390.5391 Q111.4765,389.3828 112.5703,388.7734 Q113.664,388.1484 114.8984,388.1484 Q115.6328,388.1484 116.2734,388.3203 Q116.9296,388.4766 117.4765,388.8359 Z " fill="#000000"/><text fill="#000000" font-family="sans-serif" font-size="12" font-style="italic" lengthAdjust="spacing" textLength="42.0293" x="139.1568" y="389.0664">&#171;entity&#187;</text><text fill="#000000" font-family="sans-serif" font-size="14" lengthAdjust="spacing" textLength="51.3584" x="134.4922" y="406.2363">Teacher</text><line style="stroke:#181818;stroke-width:0.5;" x1="74.6948" x2="213.8667" y1="414.3125" y2="414.3125"/><rect fill="none" height="6" style="stroke:#C82930;stroke-width:1;" width="6" x="81.6948" y="425.6172"/><text fill="#000000" font-family="sans-serif" font-size="14" lengthAdjust="spacing" textLength="102.7236" x="93.6948" y="432.8457">teacherId: String</text><rect fill="none" height="6" style="stroke:#C82930;stroke-width:1;" width="6" x="81.6948" y="443.2266"/><text fill="#000000" font-family="sans-serif" font-size="14" lengthAdjust="spacing" textLength="79.3721" x="93.6948" y="450.4551">name: String</text><rect fill="none" height="6" style="stroke:#C82930;stroke-width:1;" width="6" x="81.6948" y="460.8359"/><text fill="#000000" font-family="sans-serif" font-size="14" lengthAdjust="spacing" textLength="115.1719" x="93.6948" y="468.0645">department: String</text><rect fill="none" height="6" style="stroke:#C82930;stroke-width:1;" width="6" x="81.6948" y="478.4453"/><text fill="#000000" font-family="sans-serif" font-size="14" lengthAdjust="spacing" textLength="66.1377" x="93.6948" y="485.6738">title: String</text><line style="stroke:#181818;stroke-width:0.5;" x1="74.6948" x2="213.8667" y1="492.75" y2="492.75"/><ellipse cx="84.6948" cy="507.0547" fill="#84BE84" rx="3" ry="3" style="stroke:#038048;stroke-width:1;"/><text fill="#000000" font-family="sans-serif" font-size="14" lengthAdjust="spacing" textLength="48.2344" x="93.6948" y="511.2832">create()</text><ellipse cx="84.6948" cy="524.6641" fill="#84BE84" rx="3" ry="3" style="stroke:#038048;stroke-width:1;"/><text fill="#000000" font-family="sans-serif" font-size="14" lengthAdjust="spacing" textLength="52.1445" x="93.6948" y="528.8926">update()</text></g><!--link TeacherAdminPage to AccountManager--><g class="link" data-entity-1="TeacherAdminPage" data-entity-2="AccountManager" data-source-line="21" data-uid="lnk5" id="link_TeacherAdminPage_AccountManager"><path codeLine="21" d="M144.1948,139.7494 C144.1948,164.3694 144.1948,188.2694 144.1948,211.3994" fill="none" id="TeacherAdminPage-to-AccountManager" style="stroke:#181818;stroke-width:1;stroke-dasharray:7,7;"/><polygon fill="#181818" points="144.1948,217.3994,148.1948,208.3994,144.1948,212.3994,140.1948,208.3994,144.1948,217.3994" style="stroke:#181818;stroke-width:1;"/><text fill="#000000" font-family="sans-serif" font-size="13" lengthAdjust="spacing" textLength="27.46" x="145.1948" y="184.1045">uses</text></g><!--link AccountManager to Teacher--><g class="link" data-entity-1="AccountManager" data-entity-2="Teacher" data-source-line="22" data-uid="lnk6" id="link_AccountManager_Teacher"><path codeLine="22" d="M144.1948,293.9394 C144.1948,315.9294 144.1948,338.6394 144.1948,365.5894" fill="none" id="AccountManager-to-Teacher" style="stroke:#181818;stroke-width:1;stroke-dasharray:7,7;"/><polygon fill="#181818" points="144.1948,371.5894,148.1948,362.5894,144.1948,366.5894,140.1948,362.5894,144.1948,371.5894" style="stroke:#181818;stroke-width:1;"/><text fill="#000000" font-family="sans-serif" font-size="13" lengthAdjust="spacing" textLength="55.6372" x="145.1948" y="338.1045">maintains</text></g><!--SRC=[PP3FIiD04CRlUOevfjGMl4aeWL8l7aeB_hcFkqDSI3PXCpc8UD23U58l7iHJNq3nLX3qPPhcDPpOz8znO0_pVJi_vXis71ESZlOF0gZUPjNJtVBvfPpVBxvdovjtw47vUBkOFrGVd-Nh5_Xda-ceutagnZo74q9rGMwe4sEd614C1kTfOJMwop24Am-akX0HJp9oo2QrVcShDjE7o2ZozHewL4eOF4OhH2T8bLfsQRn3J7wzPjv7LPFtG0jeXzFO0Y3BXhSRzO1Nrf4Eu9YTiL6ZMqoe9MdAq74YY9R1zTt-Q5rGZf1fax78zAgLdVwTgjyFsr43A7BAlPPQVrnd2IIwiIml_m40]--></g></svg>