<svg xmlns="http://www.w3.org/2000/svg" xmlns:xlink="http://www.w3.org/1999/xlink" contentStyleType="text/css" data-diagram-type="SEQUENCE" height="437px" preserveAspectRatio="none" style="width:694px;height:437px;background:#FFFFFF;" version="1.1" viewBox="0 0 694 437" width="694px" zoomAndPan="magnify"><title>UC19: &#37197;&#32622;&#31995;&#32479;&#35774;&#32622; - &#39034;&#24207;&#22270;</title><defs/><g><text fill="#000000" font-family="sans-serif" font-size="14" font-weight="bold" lengthAdjust="spacing" textLength="186.7236" x="255.2385" y="29.5332">UC19: &#37197;&#32622;&#31995;&#32479;&#35774;&#32622; - &#39034;&#24207;&#22270;</text><rect fill="none" height="48.7031" style="stroke:#000000;stroke-width:1.5;" width="377.0063" x="311.1943" y="229.2734"/><g><title>...</title><rect fill="#000000" fill-opacity="0.00000" height="234.4609" width="8" x="25" y="121.2188"/><line style="stroke:#181818;stroke-width:0.5;stroke-dasharray:5,5;" x1="29" x2="29" y1="121.2188" y2="355.6797"/></g><g><title>....</title><rect fill="#000000" fill-opacity="0.00000" height="234.4609" width="8" x="205" y="121.2188"/><line style="stroke:#181818;stroke-width:0.5;stroke-dasharray:5,5;" x1="209" x2="209" y1="121.2188" y2="355.6797"/></g><g><title>.......</title><rect fill="#000000" fill-opacity="0.00000" height="234.4609" width="8" x="369.1943" y="121.2188"/><line style="stroke:#181818;stroke-width:0.5;stroke-dasharray:5,5;" x1="373.1943" x2="373.1943" y1="121.2188" y2="355.6797"/></g><g><title>SystemConfig</title><rect fill="#000000" fill-opacity="0.00000" height="234.4609" width="8" x="517.4497" y="121.2188"/><line style="stroke:#181818;stroke-width:0.5;stroke-dasharray:5,5;" x1="520.8774" x2="520.8774" y1="121.2188" y2="355.6797"/></g><g><title>Announcement</title><rect fill="#000000" fill-opacity="0.00000" height="234.4609" width="8" x="624.1113" y="121.2188"/><line style="stroke:#181818;stroke-width:0.5;stroke-dasharray:5,5;" x1="628.022" x2="628.022" y1="121.2188" y2="355.6797"/></g><g class="participant participant-head" data-participant="Admin"><text fill="#000000" font-family="sans-serif" font-size="14" lengthAdjust="spacing" textLength="42" x="5" y="118.1426">&#31649;&#29702;&#21592;</text><ellipse cx="29" cy="52.1094" fill="#E2E2F0" rx="8" ry="8" style="stroke:#181818;stroke-width:0.5;"/><path d="M29,60.1094 L29,87.1094 M16,68.1094 L42,68.1094 M29,87.1094 L16,102.1094 M29,87.1094 L42,102.1094" fill="none" style="stroke:#181818;stroke-width:0.5;"/></g><g class="participant participant-tail" data-participant="Admin"><text fill="#000000" font-family="sans-serif" font-size="14" lengthAdjust="spacing" textLength="42" x="5" y="369.2129">&#31649;&#29702;&#21592;</text><ellipse cx="29" cy="380.7891" fill="#E2E2F0" rx="8" ry="8" style="stroke:#181818;stroke-width:0.5;"/><path d="M29,388.7891 L29,415.7891 M16,396.7891 L42,396.7891 M29,415.7891 L16,430.7891 M29,415.7891 L42,430.7891" fill="none" style="stroke:#181818;stroke-width:0.5;"/></g><g class="participant participant-head" data-participant="Portal"><text fill="#000000" font-family="sans-serif" font-size="14" lengthAdjust="spacing" textLength="56" x="178" y="118.1426">&#37197;&#32622;&#38376;&#25143;</text><path d="M188.5,75.6094 L188.5,99.6094 M188.5,87.6094 L205.5,87.6094" fill="none" style="stroke:#181818;stroke-width:0.5;"/><ellipse cx="217.5" cy="87.6094" fill="#E2E2F0" rx="12" ry="12" style="stroke:#181818;stroke-width:0.5;"/></g><g class="participant participant-tail" data-participant="Portal"><text fill="#000000" font-family="sans-serif" font-size="14" lengthAdjust="spacing" textLength="56" x="178" y="369.2129">&#37197;&#32622;&#38376;&#25143;</text><path d="M188.5,376.2891 L188.5,400.2891 M188.5,388.2891 L205.5,388.2891" fill="none" style="stroke:#181818;stroke-width:0.5;"/><ellipse cx="217.5" cy="388.2891" fill="#E2E2F0" rx="12" ry="12" style="stroke:#181818;stroke-width:0.5;"/></g><g class="participant participant-head" data-participant="AdminCtrl"><text fill="#000000" font-family="sans-serif" font-size="14" lengthAdjust="spacing" textLength="98" x="321.1943" y="118.1426">&#31995;&#32479;&#31649;&#29702;&#25511;&#21046;&#22120;</text><ellipse cx="373.1943" cy="87.6094" fill="#E2E2F0" rx="12" ry="12" style="stroke:#181818;stroke-width:0.5;"/><polygon fill="#181818" points="369.1943,75.6094,375.1943,70.6094,373.1943,75.6094,375.1943,80.6094,369.1943,75.6094" style="stroke:#181818;stroke-width:1;"/></g><g class="participant participant-tail" data-participant="AdminCtrl"><text fill="#000000" font-family="sans-serif" font-size="14" lengthAdjust="spacing" textLength="98" x="321.1943" y="369.2129">&#31995;&#32479;&#31649;&#29702;&#25511;&#21046;&#22120;</text><ellipse cx="373.1943" cy="388.2891" fill="#E2E2F0" rx="12" ry="12" style="stroke:#181818;stroke-width:0.5;"/><polygon fill="#181818" points="369.1943,376.2891,375.1943,371.2891,373.1943,376.2891,375.1943,381.2891,369.1943,376.2891" style="stroke:#181818;stroke-width:1;"/></g><g class="participant participant-head" data-participant="Config"><text fill="#000000" font-family="sans-serif" font-size="14" lengthAdjust="spacing" textLength="87.1445" x="474.8774" y="118.1426">SystemConfig</text><ellipse cx="521.4497" cy="87.6094" fill="#E2E2F0" rx="12" ry="12" style="stroke:#181818;stroke-width:0.5;"/><line style="stroke:#181818;stroke-width:0.5;" x1="509.4497" x2="533.4497" y1="101.6094" y2="101.6094"/></g><g class="participant participant-tail" data-participant="Config"><text fill="#000000" font-family="sans-serif" font-size="14" lengthAdjust="spacing" textLength="87.1445" x="474.8774" y="369.2129">SystemConfig</text><ellipse cx="521.4497" cy="388.2891" fill="#E2E2F0" rx="12" ry="12" style="stroke:#181818;stroke-width:0.5;"/><line style="stroke:#181818;stroke-width:0.5;" x1="509.4497" x2="533.4497" y1="402.2891" y2="402.2891"/></g><g class="participant participant-head" data-participant="Announcement"><text fill="#000000" font-family="sans-serif" font-size="14" lengthAdjust="spacing" textLength="94.1787" x="578.022" y="118.1426">Announcement</text><ellipse cx="628.1113" cy="87.6094" fill="#E2E2F0" rx="12" ry="12" style="stroke:#181818;stroke-width:0.5;"/><line style="stroke:#181818;stroke-width:0.5;" x1="616.1113" x2="640.1113" y1="101.6094" y2="101.6094"/></g><g class="participant participant-tail" data-participant="Announcement"><text fill="#000000" font-family="sans-serif" font-size="14" lengthAdjust="spacing" textLength="94.1787" x="578.022" y="369.2129">Announcement</text><ellipse cx="628.1113" cy="388.2891" fill="#E2E2F0" rx="12" ry="12" style="stroke:#181818;stroke-width:0.5;"/><line style="stroke:#181818;stroke-width:0.5;" x1="616.1113" x2="640.1113" y1="402.2891" y2="402.2891"/></g><g class="message" data-participant-1="Admin" data-participant-2="Portal"><polygon fill="#181818" points="197,149.5703,207,153.5703,197,157.5703,201,153.5703" style="stroke:#181818;stroke-width:1;"/><line style="stroke:#181818;stroke-width:1;" x1="29" x2="203" y1="153.5703" y2="153.5703"/><text fill="#000000" font-family="sans-serif" font-size="13" lengthAdjust="spacing" textLength="156" x="36" y="148.7139">&#35774;&#32622;&#26102;&#38388;&#12289;&#20027;&#39064;&#25110;&#21457;&#24067;&#20844;&#21578;</text></g><g class="message" data-participant-1="Portal" data-participant-2="AdminCtrl"><polygon fill="#181818" points="361.1943,179.9219,371.1943,183.9219,361.1943,187.9219,365.1943,183.9219" style="stroke:#181818;stroke-width:1;"/><line style="stroke:#181818;stroke-width:1;" x1="209" x2="367.1943" y1="183.9219" y2="183.9219"/><text fill="#000000" font-family="sans-serif" font-size="13" lengthAdjust="spacing" textLength="140.1943" x="216" y="179.0654">updateSettings(settings)</text></g><g class="message" data-participant-1="AdminCtrl" data-participant-2="Config"><polygon fill="#181818" points="509.4497,210.2734,519.4497,214.2734,509.4497,218.2734,513.4497,214.2734" style="stroke:#181818;stroke-width:1;"/><line style="stroke:#181818;stroke-width:1;" x1="373.1943" x2="515.4497" y1="214.2734" y2="214.2734"/><text fill="#000000" font-family="sans-serif" font-size="13" lengthAdjust="spacing" textLength="124.2554" x="380.1943" y="209.417">saveParams(params)</text></g><path d="M311.1943,229.2734 L376.4053,229.2734 L376.4053,237.625 L366.4053,247.625 L311.1943,247.625 L311.1943,229.2734" fill="#EEEEEE" style="stroke:#000000;stroke-width:1.5;"/><rect fill="none" height="48.7031" style="stroke:#000000;stroke-width:1.5;" width="377.0063" x="311.1943" y="229.2734"/><text fill="#000000" font-family="sans-serif" font-size="13" font-weight="bold" lengthAdjust="spacing" textLength="20.2109" x="326.1943" y="243.7686">opt</text><text fill="#000000" font-family="sans-serif" font-size="11" font-weight="bold" lengthAdjust="spacing" textLength="52.7012" x="391.4053" y="242.6924">[&#21457;&#24067;&#20844;&#21578;]</text><g class="message" data-participant-1="AdminCtrl" data-participant-2="Announcement"><polygon fill="#181818" points="616.1113,265.9766,626.1113,269.9766,616.1113,273.9766,620.1113,269.9766" style="stroke:#181818;stroke-width:1;"/><line style="stroke:#181818;stroke-width:1;" x1="373.1943" x2="622.1113" y1="269.9766" y2="269.9766"/><text fill="#000000" font-family="sans-serif" font-size="13" lengthAdjust="spacing" textLength="87.4326" x="380.1943" y="265.1201">create(content)</text></g><g class="message" data-participant-1="Config" data-participant-2="AdminCtrl"><polygon fill="#181818" points="384.1943,303.3281,374.1943,307.3281,384.1943,311.3281,380.1943,307.3281" style="stroke:#181818;stroke-width:1;"/><line style="stroke:#181818;stroke-width:1;stroke-dasharray:2,2;" x1="378.1943" x2="520.4497" y1="307.3281" y2="307.3281"/><text fill="#000000" font-family="sans-serif" font-size="13" lengthAdjust="spacing" textLength="46.96" x="390.1943" y="302.4717">success</text></g><g class="message" data-participant-1="AdminCtrl" data-participant-2="Portal"><polygon fill="#181818" points="220,333.6797,210,337.6797,220,341.6797,216,337.6797" style="stroke:#181818;stroke-width:1;"/><line style="stroke:#181818;stroke-width:1;stroke-dasharray:2,2;" x1="214" x2="372.1943" y1="337.6797" y2="337.6797"/><text fill="#000000" font-family="sans-serif" font-size="13" lengthAdjust="spacing" textLength="78" x="226" y="332.8232">&#37197;&#32622;&#29983;&#25928;&#25552;&#31034;</text></g><!--SRC=[NP71IiD048Rl-nH3J-sX1u_s89IyGA7u06koba2oMtQtGc-AL8AWRK1jnKEf2FOWlIXjQR4levkOjt1CGfkQomwp___DFnljQe_1iNLmM8EaTnD_pkBtTRmU_ymsM4CLaidAhFhcQKC8jRMGK8fdatXmPS9H2QY2kkExd9o83dUex48fWoJ3QHGiKa53I4qzOWkkfV3Gdl8pI7JxQeAvUPpkK9QM7c5SknfXpQxIpBS4FtLRgIGhj_Trpd6mpNniP8X2Wv0K2DMZF0FK85ih6iwJuSVN-SNtSfqyZwBWmVH3ixmqlJSJNfDSZRvj8hHssWxLhCcqTdbBbLLULCXEX8ui8CeLFMCDAgcloktqg13Hrh0t2F3RSnVZ8yEM34UM_vuE6nLSso7vWEg_TAfZsqofOfZYtlcllHj7zq7K7yGlgry0]--></g></svg>