<svg xmlns="http://www.w3.org/2000/svg" xmlns:xlink="http://www.w3.org/1999/xlink" contentStyleType="text/css" data-diagram-type="CLASS" height="507px" preserveAspectRatio="none" style="width:359px;height:507px;background:#FFFFFF;" version="1.1" viewBox="0 0 359 507" width="359px" zoomAndPan="magnify"><title>UC19: &#37197;&#32622;&#31995;&#32479;&#35774;&#32622; - &#21442;&#19982;&#31867;&#22270; (VOPC)</title><defs/><g><g class="title" data-source-line="1"><text fill="#000000" font-family="sans-serif" font-size="14" font-weight="bold" lengthAdjust="spacing" textLength="254.0508" x="45.564" y="24.5332">UC19: &#37197;&#32622;&#31995;&#32479;&#35774;&#32622; - &#21442;&#19982;&#31867;&#22270; (VOPC)</text></g><!--class ConfigPortal--><g class="entity" data-entity="ConfigPortal" data-source-line="3" data-uid="ent0002" id="entity_ConfigPortal"><rect fill="#F1F1F1" height="93.9219" rx="2.5" ry="2.5" style="stroke:#181818;stroke-width:0.5;" width="148.9648" x="119.5" y="45.6094"/><ellipse cx="152.4657" cy="66.9609" fill="#ADD1B2" rx="11" ry="11" style="stroke:#181818;stroke-width:1;"/><path d="M155.2313,62.8359 Q155.3876,62.6172 155.5751,62.5078 Q155.7626,62.3984 155.9813,62.3984 Q156.3563,62.3984 156.5907,62.6641 Q156.8251,62.9141 156.8251,63.5234 L156.8251,64.9766 Q156.8251,65.5859 156.5907,65.8516 Q156.3563,66.1172 155.9813,66.1172 Q155.6376,66.1172 155.4345,65.9141 Q155.2313,65.7266 155.122,65.2109 Q155.0751,64.8516 154.8876,64.6641 Q154.5595,64.2891 153.9501,64.0703 Q153.3407,63.8516 152.7157,63.8516 Q151.9501,63.8516 151.3095,64.1797 Q150.6845,64.5078 150.1845,65.2578 Q149.7001,66.0078 149.7001,67.0391 L149.7001,68.1328 Q149.7001,69.3672 150.5907,70.1953 Q151.4813,71.0078 153.0751,71.0078 Q154.0126,71.0078 154.6688,70.7578 Q155.0595,70.6016 155.4813,70.1641 Q155.747,69.8984 155.8876,69.8203 Q156.0438,69.7422 156.247,69.7422 Q156.5751,69.7422 156.8251,70.0078 Q157.0907,70.2578 157.0907,70.6016 Q157.0907,70.9453 156.747,71.3516 Q156.247,71.9297 155.4501,72.2578 Q154.372,72.7109 153.0751,72.7109 Q151.5595,72.7109 150.3563,72.0859 Q149.372,71.5859 148.6845,70.5234 Q147.997,69.4453 147.997,68.1641 L147.997,67.0078 Q147.997,65.6797 148.6063,64.5391 Q149.2313,63.3828 150.3251,62.7734 Q151.4188,62.1484 152.6532,62.1484 Q153.3876,62.1484 154.0282,62.3203 Q154.6845,62.4766 155.2313,62.8359 Z " fill="#000000"/><text fill="#000000" font-family="sans-serif" font-size="12" font-style="italic" lengthAdjust="spacing" textLength="63.3867" x="177.2853" y="63.0664">&#171;boundary&#187;</text><text fill="#000000" font-family="sans-serif" font-size="14" lengthAdjust="spacing" textLength="77.041" x="170.4581" y="80.2363">ConfigPortal</text><line style="stroke:#181818;stroke-width:0.5;" x1="120.5" x2="267.4648" y1="88.3125" y2="88.3125"/><line style="stroke:#181818;stroke-width:0.5;" x1="120.5" x2="267.4648" y1="96.3125" y2="96.3125"/><ellipse cx="130.5" cy="110.6172" fill="#84BE84" rx="3" ry="3" style="stroke:#038048;stroke-width:1;"/><text fill="#000000" font-family="sans-serif" font-size="14" lengthAdjust="spacing" textLength="79.3721" x="139.5" y="114.8457">getSettings()</text><ellipse cx="130.5" cy="128.2266" fill="#84BE84" rx="3" ry="3" style="stroke:#038048;stroke-width:1;"/><text fill="#000000" font-family="sans-serif" font-size="14" lengthAdjust="spacing" textLength="122.9648" x="139.5" y="132.4551">getAnnouncement()</text></g><!--class SystemAdminController--><g class="entity" data-entity="SystemAdminController" data-source-line="8" data-uid="ent0003" id="entity_SystemAdminController"><rect fill="#F1F1F1" height="76.3125" rx="2.5" ry="2.5" style="stroke:#181818;stroke-width:0.5;" width="179.0479" x="104.5" y="217.6094"/><ellipse cx="119.5" cy="238.9609" fill="#ADD1B2" rx="11" ry="11" style="stroke:#181818;stroke-width:1;"/><path d="M122.2656,234.8359 Q122.4219,234.6172 122.6094,234.5078 Q122.7969,234.3984 123.0156,234.3984 Q123.3906,234.3984 123.625,234.6641 Q123.8594,234.9141 123.8594,235.5234 L123.8594,236.9766 Q123.8594,237.5859 123.625,237.8516 Q123.3906,238.1172 123.0156,238.1172 Q122.6719,238.1172 122.4688,237.9141 Q122.2656,237.7266 122.1563,237.2109 Q122.1094,236.8516 121.9219,236.6641 Q121.5938,236.2891 120.9844,236.0703 Q120.375,235.8516 119.75,235.8516 Q118.9844,235.8516 118.3438,236.1797 Q117.7188,236.5078 117.2188,237.2578 Q116.7344,238.0078 116.7344,239.0391 L116.7344,240.1328 Q116.7344,241.3672 117.625,242.1953 Q118.5156,243.0078 120.1094,243.0078 Q121.0469,243.0078 121.7031,242.7578 Q122.0938,242.6016 122.5156,242.1641 Q122.7813,241.8984 122.9219,241.8203 Q123.0781,241.7422 123.2813,241.7422 Q123.6094,241.7422 123.8594,242.0078 Q124.125,242.2578 124.125,242.6016 Q124.125,242.9453 123.7813,243.3516 Q123.2813,243.9297 122.4844,244.2578 Q121.4063,244.7109 120.1094,244.7109 Q118.5938,244.7109 117.3906,244.0859 Q116.4063,243.5859 115.7188,242.5234 Q115.0313,241.4453 115.0313,240.1641 L115.0313,239.0078 Q115.0313,237.6797 115.6406,236.5391 Q116.2656,235.3828 117.3594,234.7734 Q118.4531,234.1484 119.6875,234.1484 Q120.4219,234.1484 121.0625,234.3203 Q121.7188,234.4766 122.2656,234.8359 Z " fill="#000000"/><text fill="#000000" font-family="sans-serif" font-size="12" font-style="italic" lengthAdjust="spacing" textLength="49.3652" x="182.3413" y="235.0664">&#171;control&#187;</text><text fill="#000000" font-family="sans-serif" font-size="14" lengthAdjust="spacing" textLength="147.0479" x="133.5" y="252.2363">SystemAdminController</text><line style="stroke:#181818;stroke-width:0.5;" x1="105.5" x2="282.5479" y1="260.3125" y2="260.3125"/><line style="stroke:#181818;stroke-width:0.5;" x1="105.5" x2="282.5479" y1="268.3125" y2="268.3125"/><ellipse cx="115.5" cy="282.6172" fill="#84BE84" rx="3" ry="3" style="stroke:#038048;stroke-width:1;"/><text fill="#000000" font-family="sans-serif" font-size="14" lengthAdjust="spacing" textLength="94.165" x="124.5" y="286.8457">configure(data)</text></g><!--class SystemConfig--><g class="entity" data-entity="SystemConfig" data-source-line="12" data-uid="ent0004" id="entity_SystemConfig"><rect fill="#F1F1F1" height="129.1406" rx="2.5" ry="2.5" style="stroke:#181818;stroke-width:0.5;" width="183.9854" x="7" y="371.6094"/><ellipse cx="51.1784" cy="392.9609" fill="#ADD1B2" rx="11" ry="11" style="stroke:#181818;stroke-width:1;"/><path d="M53.944,388.8359 Q54.1002,388.6172 54.2877,388.5078 Q54.4752,388.3984 54.694,388.3984 Q55.069,388.3984 55.3034,388.6641 Q55.5377,388.9141 55.5377,389.5234 L55.5377,390.9766 Q55.5377,391.5859 55.3034,391.8516 Q55.069,392.1172 54.694,392.1172 Q54.3502,392.1172 54.1471,391.9141 Q53.944,391.7266 53.8346,391.2109 Q53.7877,390.8516 53.6002,390.6641 Q53.2721,390.2891 52.6627,390.0703 Q52.0534,389.8516 51.4284,389.8516 Q50.6627,389.8516 50.0221,390.1797 Q49.3971,390.5078 48.8971,391.2578 Q48.4127,392.0078 48.4127,393.0391 L48.4127,394.1328 Q48.4127,395.3672 49.3034,396.1953 Q50.194,397.0078 51.7877,397.0078 Q52.7252,397.0078 53.3815,396.7578 Q53.7721,396.6016 54.194,396.1641 Q54.4596,395.8984 54.6002,395.8203 Q54.7565,395.7422 54.9596,395.7422 Q55.2877,395.7422 55.5377,396.0078 Q55.8034,396.2578 55.8034,396.6016 Q55.8034,396.9453 55.4596,397.3516 Q54.9596,397.9297 54.1627,398.2578 Q53.0846,398.7109 51.7877,398.7109 Q50.2721,398.7109 49.069,398.0859 Q48.0846,397.5859 47.3971,396.5234 Q46.7096,395.4453 46.7096,394.1641 L46.7096,393.0078 Q46.7096,391.6797 47.319,390.5391 Q47.944,389.3828 49.0377,388.7734 Q50.1315,388.1484 51.3659,388.1484 Q52.1002,388.1484 52.7409,388.3203 Q53.3971,388.4766 53.944,388.8359 Z " fill="#000000"/><text fill="#000000" font-family="sans-serif" font-size="12" font-style="italic" lengthAdjust="spacing" textLength="42.0293" x="94.2201" y="389.0664">&#171;entity&#187;</text><text fill="#000000" font-family="sans-serif" font-size="14" lengthAdjust="spacing" textLength="87.1445" x="71.6625" y="406.2363">SystemConfig</text><line style="stroke:#181818;stroke-width:0.5;" x1="8" x2="189.9854" y1="414.3125" y2="414.3125"/><rect fill="none" height="6" style="stroke:#C82930;stroke-width:1;" width="6" x="15" y="425.6172"/><text fill="#000000" font-family="sans-serif" font-size="14" lengthAdjust="spacing" textLength="154.8682" x="27" y="432.8457">enrollmentPeriod: Range</text><rect fill="none" height="6" style="stroke:#C82930;stroke-width:1;" width="6" x="15" y="443.2266"/><text fill="#000000" font-family="sans-serif" font-size="14" lengthAdjust="spacing" textLength="157.9854" x="27" y="450.4551">gradeEntryPeriod: Range</text><rect fill="none" height="6" style="stroke:#C82930;stroke-width:1;" width="6" x="15" y="460.8359"/><text fill="#000000" font-family="sans-serif" font-size="14" lengthAdjust="spacing" textLength="116.7168" x="27" y="468.0645">themeColor: String</text><line style="stroke:#181818;stroke-width:0.5;" x1="8" x2="189.9854" y1="475.1406" y2="475.1406"/><ellipse cx="18" cy="489.4453" fill="#84BE84" rx="3" ry="3" style="stroke:#038048;stroke-width:1;"/><text fill="#000000" font-family="sans-serif" font-size="14" lengthAdjust="spacing" textLength="38.8965" x="27" y="493.6738">save()</text></g><!--class Announcement--><g class="entity" data-entity="Announcement" data-source-line="19" data-uid="ent0005" id="entity_Announcement"><rect fill="#F1F1F1" height="111.5313" rx="2.5" ry="2.5" style="stroke:#181818;stroke-width:0.5;" width="126.1787" x="226" y="380.1094"/><ellipse cx="241" cy="401.4609" fill="#ADD1B2" rx="11" ry="11" style="stroke:#181818;stroke-width:1;"/><path d="M243.7656,397.3359 Q243.9219,397.1172 244.1094,397.0078 Q244.2969,396.8984 244.5156,396.8984 Q244.8906,396.8984 245.125,397.1641 Q245.3594,397.4141 245.3594,398.0234 L245.3594,399.4766 Q245.3594,400.0859 245.125,400.3516 Q244.8906,400.6172 244.5156,400.6172 Q244.1719,400.6172 243.9688,400.4141 Q243.7656,400.2266 243.6563,399.7109 Q243.6094,399.3516 243.4219,399.1641 Q243.0938,398.7891 242.4844,398.5703 Q241.875,398.3516 241.25,398.3516 Q240.4844,398.3516 239.8438,398.6797 Q239.2188,399.0078 238.7188,399.7578 Q238.2344,400.5078 238.2344,401.5391 L238.2344,402.6328 Q238.2344,403.8672 239.125,404.6953 Q240.0156,405.5078 241.6094,405.5078 Q242.5469,405.5078 243.2031,405.2578 Q243.5938,405.1016 244.0156,404.6641 Q244.2813,404.3984 244.4219,404.3203 Q244.5781,404.2422 244.7813,404.2422 Q245.1094,404.2422 245.3594,404.5078 Q245.625,404.7578 245.625,405.1016 Q245.625,405.4453 245.2813,405.8516 Q244.7813,406.4297 243.9844,406.7578 Q242.9063,407.2109 241.6094,407.2109 Q240.0938,407.2109 238.8906,406.5859 Q237.9063,406.0859 237.2188,405.0234 Q236.5313,403.9453 236.5313,402.6641 L236.5313,401.5078 Q236.5313,400.1797 237.1406,399.0391 Q237.7656,397.8828 238.8594,397.2734 Q239.9531,396.6484 241.1875,396.6484 Q241.9219,396.6484 242.5625,396.8203 Q243.2188,396.9766 243.7656,397.3359 Z " fill="#000000"/><text fill="#000000" font-family="sans-serif" font-size="12" font-style="italic" lengthAdjust="spacing" textLength="42.0293" x="281.0747" y="397.5664">&#171;entity&#187;</text><text fill="#000000" font-family="sans-serif" font-size="14" lengthAdjust="spacing" textLength="94.1787" x="255" y="414.7363">Announcement</text><line style="stroke:#181818;stroke-width:0.5;" x1="227" x2="351.1787" y1="422.8125" y2="422.8125"/><rect fill="none" height="6" style="stroke:#C82930;stroke-width:1;" width="6" x="234" y="434.1172"/><text fill="#000000" font-family="sans-serif" font-size="14" lengthAdjust="spacing" textLength="66.1377" x="246" y="441.3457">title: String</text><rect fill="none" height="6" style="stroke:#C82930;stroke-width:1;" width="6" x="234" y="451.7266"/><text fill="#000000" font-family="sans-serif" font-size="14" lengthAdjust="spacing" textLength="90.2754" x="246" y="458.9551">content: String</text><line style="stroke:#181818;stroke-width:0.5;" x1="227" x2="351.1787" y1="466.0313" y2="466.0313"/><ellipse cx="237" cy="480.3359" fill="#84BE84" rx="3" ry="3" style="stroke:#038048;stroke-width:1;"/><text fill="#000000" font-family="sans-serif" font-size="14" lengthAdjust="spacing" textLength="35.7861" x="246" y="484.5645">post()</text></g><!--link ConfigPortal to SystemAdminController--><g class="link" data-entity-1="ConfigPortal" data-entity-2="SystemAdminController" data-source-line="25" data-uid="lnk6" id="link_ConfigPortal_SystemAdminController"><path codeLine="25" d="M194,139.7494 C194,164.3694 194,188.2694 194,211.3994" fill="none" id="ConfigPortal-to-SystemAdminController" style="stroke:#181818;stroke-width:1;stroke-dasharray:7,7;"/><polygon fill="#181818" points="194,217.3994,198,208.3994,194,212.3994,190,208.3994,194,217.3994" style="stroke:#181818;stroke-width:1;"/><text fill="#000000" font-family="sans-serif" font-size="13" lengthAdjust="spacing" textLength="27.46" x="195" y="184.1045">uses</text></g><!--link SystemAdminController to SystemConfig--><g class="link" data-entity-1="SystemAdminController" data-entity-2="SystemConfig" data-source-line="26" data-uid="lnk7" id="link_SystemAdminController_SystemConfig"><path codeLine="26" d="M174.08,294.0294 C162.17,316.4194 149.529,340.1728 135.739,366.0828" fill="none" id="SystemAdminController-to-SystemConfig" style="stroke:#181818;stroke-width:1;stroke-dasharray:7,7;"/><polygon fill="#181818" points="132.92,371.3794,140.6795,365.3139,135.2691,366.9656,133.6174,361.5552,132.92,371.3794" style="stroke:#181818;stroke-width:1;"/><text fill="#000000" font-family="sans-serif" font-size="13" lengthAdjust="spacing" textLength="46.2617" x="159" y="338.1045">updates</text></g><!--link SystemAdminController to Announcement--><g class="link" data-entity-1="SystemAdminController" data-entity-2="Announcement" data-source-line="27" data-uid="lnk8" id="link_SystemAdminController_Announcement"><path codeLine="27" d="M213.92,294.0294 C227.14,318.8694 241.9007,346.613 256.7307,374.473" fill="none" id="SystemAdminController-to-Announcement" style="stroke:#181818;stroke-width:1;stroke-dasharray:7,7;"/><polygon fill="#181818" points="259.55,379.7694,258.852,369.9453,257.2006,375.3557,251.7902,373.7043,259.55,379.7694" style="stroke:#181818;stroke-width:1;"/><text fill="#000000" font-family="sans-serif" font-size="13" lengthAdjust="spacing" textLength="42.6309" x="239" y="338.1045">creates</text></g><!--SRC=[VL3DIiD04BxdAUQO8YbuD9H02PuD1hsloHWNajsoEn62U14ygW_WmJSeY1SXsAUnHD_2IHj9ejKzxUxCzqkISeIJSF_0Xy_Rk-PjsRpKJVtqiLpn7JnOFzoylzutp_NwSGNkwL4KJXmdoOMr46frBhD86n8vp6PdkbIfC5KGm9K3VFOWGugHIAhCkfF-RwuKxoPOe2B-l_ucZ2jBMCpJGYhc9gFp70qp9zl7W3ZPI9S6tLIG-4MnTSP85f3KE_80LSlQ2aTef4vzE1OgmswQ6P7Y8OjLkwPqmOv3dMlZGqo6KtLkhBZ4OOvXlbqcg2rznE6rYOWNVp0ljEqQ6fKzdGP_bEL3QT4wkuSzh2k8jnTSuB-0KHWV4eCju0i0]--></g></svg>