<svg xmlns="http://www.w3.org/2000/svg" xmlns:xlink="http://www.w3.org/1999/xlink" contentStyleType="text/css" data-diagram-type="CLASS" height="454px" preserveAspectRatio="none" style="width:253px;height:454px;background:#FFFFFF;" version="1.1" viewBox="0 0 253 454" width="253px" zoomAndPan="magnify"><title>UC20: &#23457;&#26680;&#25104;&#32489; - &#21442;&#19982;&#31867;&#22270; (VOPC)</title><defs/><g><g class="title" data-source-line="1"><text fill="#000000" font-family="sans-serif" font-size="14" font-weight="bold" lengthAdjust="spacing" textLength="225.1758" x="10" y="24.5332">UC20: &#23457;&#26680;&#25104;&#32489; - &#21442;&#19982;&#31867;&#22270; (VOPC)</text></g><!--class AuditPortal--><g class="entity" data-entity="AuditPortal" data-source-line="3" data-uid="ent0002" id="entity_AuditPortal"><rect fill="#F1F1F1" height="76.3125" rx="2.5" ry="2.5" style="stroke:#181818;stroke-width:0.5;" width="148.9512" x="55.1123" y="45.6094"/><ellipse cx="91.9232" cy="66.9609" fill="#ADD1B2" rx="11" ry="11" style="stroke:#181818;stroke-width:1;"/><path d="M94.6889,62.8359 Q94.8451,62.6172 95.0326,62.5078 Q95.2201,62.3984 95.4389,62.3984 Q95.8139,62.3984 96.0482,62.6641 Q96.2826,62.9141 96.2826,63.5234 L96.2826,64.9766 Q96.2826,65.5859 96.0482,65.8516 Q95.8139,66.1172 95.4389,66.1172 Q95.0951,66.1172 94.892,65.9141 Q94.6889,65.7266 94.5795,65.2109 Q94.5326,64.8516 94.3451,64.6641 Q94.017,64.2891 93.4076,64.0703 Q92.7982,63.8516 92.1732,63.8516 Q91.4076,63.8516 90.767,64.1797 Q90.142,64.5078 89.642,65.2578 Q89.1576,66.0078 89.1576,67.0391 L89.1576,68.1328 Q89.1576,69.3672 90.0482,70.1953 Q90.9389,71.0078 92.5326,71.0078 Q93.4701,71.0078 94.1264,70.7578 Q94.517,70.6016 94.9389,70.1641 Q95.2045,69.8984 95.3451,69.8203 Q95.5014,69.7422 95.7045,69.7422 Q96.0326,69.7422 96.2826,70.0078 Q96.5482,70.2578 96.5482,70.6016 Q96.5482,70.9453 96.2045,71.3516 Q95.7045,71.9297 94.9076,72.2578 Q93.8295,72.7109 92.5326,72.7109 Q91.017,72.7109 89.8139,72.0859 Q88.8295,71.5859 88.142,70.5234 Q87.4545,69.4453 87.4545,68.1641 L87.4545,67.0078 Q87.4545,65.6797 88.0639,64.5391 Q88.6889,63.3828 89.7826,62.7734 Q90.8764,62.1484 92.1107,62.1484 Q92.8451,62.1484 93.4857,62.3203 Q94.142,62.4766 94.6889,62.8359 Z " fill="#000000"/><text fill="#000000" font-family="sans-serif" font-size="12" font-style="italic" lengthAdjust="spacing" textLength="63.3867" x="113.318" y="63.0664">&#171;boundary&#187;</text><text fill="#000000" font-family="sans-serif" font-size="14" lengthAdjust="spacing" textLength="68.4824" x="110.7701" y="80.2363">AuditPortal</text><line style="stroke:#181818;stroke-width:0.5;" x1="56.1123" x2="203.0635" y1="88.3125" y2="88.3125"/><line style="stroke:#181818;stroke-width:0.5;" x1="56.1123" x2="203.0635" y1="96.3125" y2="96.3125"/><ellipse cx="66.1123" cy="110.6172" fill="#84BE84" rx="3" ry="3" style="stroke:#038048;stroke-width:1;"/><text fill="#000000" font-family="sans-serif" font-size="14" lengthAdjust="spacing" textLength="122.9512" x="75.1123" y="114.8457">getApprovalAction()</text></g><!--class AuditController--><g class="entity" data-entity="AuditController" data-source-line="7" data-uid="ent0003" id="entity_AuditController"><rect fill="#F1F1F1" height="76.3125" rx="2.5" ry="2.5" style="stroke:#181818;stroke-width:0.5;" width="128.71" x="65.1123" y="199.6094"/><ellipse cx="81.962" cy="220.9609" fill="#ADD1B2" rx="11" ry="11" style="stroke:#181818;stroke-width:1;"/><path d="M84.7276,216.8359 Q84.8838,216.6172 85.0713,216.5078 Q85.2588,216.3984 85.4776,216.3984 Q85.8526,216.3984 86.087,216.6641 Q86.3213,216.9141 86.3213,217.5234 L86.3213,218.9766 Q86.3213,219.5859 86.087,219.8516 Q85.8526,220.1172 85.4776,220.1172 Q85.1338,220.1172 84.9307,219.9141 Q84.7276,219.7266 84.6182,219.2109 Q84.5713,218.8516 84.3838,218.6641 Q84.0557,218.2891 83.4463,218.0703 Q82.837,217.8516 82.212,217.8516 Q81.4463,217.8516 80.8057,218.1797 Q80.1807,218.5078 79.6807,219.2578 Q79.1963,220.0078 79.1963,221.0391 L79.1963,222.1328 Q79.1963,223.3672 80.087,224.1953 Q80.9776,225.0078 82.5713,225.0078 Q83.5088,225.0078 84.1651,224.7578 Q84.5557,224.6016 84.9776,224.1641 Q85.2432,223.8984 85.3838,223.8203 Q85.5401,223.7422 85.7432,223.7422 Q86.0713,223.7422 86.3213,224.0078 Q86.587,224.2578 86.587,224.6016 Q86.587,224.9453 86.2432,225.3516 Q85.7432,225.9297 84.9463,226.2578 Q83.8682,226.7109 82.5713,226.7109 Q81.0557,226.7109 79.8526,226.0859 Q78.8682,225.5859 78.1807,224.5234 Q77.4932,223.4453 77.4932,222.1641 L77.4932,221.0078 Q77.4932,219.6797 78.1026,218.5391 Q78.7276,217.3828 79.8213,216.7734 Q80.9151,216.1484 82.1495,216.1484 Q82.8838,216.1484 83.5245,216.3203 Q84.1807,216.4766 84.7276,216.8359 Z " fill="#000000"/><text fill="#000000" font-family="sans-serif" font-size="12" font-style="italic" lengthAdjust="spacing" textLength="49.3652" x="117.9902" y="217.0664">&#171;control&#187;</text><text fill="#000000" font-family="sans-serif" font-size="14" lengthAdjust="spacing" textLength="92.5996" x="96.373" y="234.2363">AuditController</text><line style="stroke:#181818;stroke-width:0.5;" x1="66.1123" x2="192.8223" y1="242.3125" y2="242.3125"/><line style="stroke:#181818;stroke-width:0.5;" x1="66.1123" x2="192.8223" y1="250.3125" y2="250.3125"/><ellipse cx="76.1123" cy="264.6172" fill="#84BE84" rx="3" ry="3" style="stroke:#038048;stroke-width:1;"/><text fill="#000000" font-family="sans-serif" font-size="14" lengthAdjust="spacing" textLength="102.71" x="85.1123" y="268.8457">audit(ids, status)</text></g><!--class Grade--><g class="entity" data-entity="Grade" data-source-line="11" data-uid="ent0004" id="entity_Grade"><rect fill="#F1F1F1" height="93.9219" rx="2.5" ry="2.5" style="stroke:#181818;stroke-width:0.5;" width="143.4961" x="58.1123" y="353.6094"/><ellipse cx="106.1553" cy="374.9609" fill="#ADD1B2" rx="11" ry="11" style="stroke:#181818;stroke-width:1;"/><path d="M108.9209,370.8359 Q109.0771,370.6172 109.2646,370.5078 Q109.4521,370.3984 109.6709,370.3984 Q110.0459,370.3984 110.2803,370.6641 Q110.5146,370.9141 110.5146,371.5234 L110.5146,372.9766 Q110.5146,373.5859 110.2803,373.8516 Q110.0459,374.1172 109.6709,374.1172 Q109.3271,374.1172 109.124,373.9141 Q108.9209,373.7266 108.8115,373.2109 Q108.7646,372.8516 108.5771,372.6641 Q108.249,372.2891 107.6396,372.0703 Q107.0303,371.8516 106.4053,371.8516 Q105.6396,371.8516 104.999,372.1797 Q104.374,372.5078 103.874,373.2578 Q103.3896,374.0078 103.3896,375.0391 L103.3896,376.1328 Q103.3896,377.3672 104.2803,378.1953 Q105.1709,379.0078 106.7646,379.0078 Q107.7021,379.0078 108.3584,378.7578 Q108.749,378.6016 109.1709,378.1641 Q109.4365,377.8984 109.5771,377.8203 Q109.7334,377.7422 109.9365,377.7422 Q110.2646,377.7422 110.5146,378.0078 Q110.7803,378.2578 110.7803,378.6016 Q110.7803,378.9453 110.4365,379.3516 Q109.9365,379.9297 109.1396,380.2578 Q108.0615,380.7109 106.7646,380.7109 Q105.249,380.7109 104.0459,380.0859 Q103.0615,379.5859 102.374,378.5234 Q101.6865,377.4453 101.6865,376.1641 L101.6865,375.0078 Q101.6865,373.6797 102.2959,372.5391 Q102.9209,371.3828 104.0146,370.7734 Q105.1084,370.1484 106.3428,370.1484 Q107.0771,370.1484 107.7178,370.3203 Q108.374,370.4766 108.9209,370.8359 Z " fill="#000000"/><text fill="#000000" font-family="sans-serif" font-size="12" font-style="italic" lengthAdjust="spacing" textLength="42.0293" x="125.0957" y="371.0664">&#171;entity&#187;</text><text fill="#000000" font-family="sans-serif" font-size="14" lengthAdjust="spacing" textLength="38.9102" x="126.6553" y="388.2363">Grade</text><line style="stroke:#181818;stroke-width:0.5;" x1="59.1123" x2="200.6084" y1="396.3125" y2="396.3125"/><rect fill="none" height="6" style="stroke:#C82930;stroke-width:1;" width="6" x="66.1123" y="407.6172"/><text fill="#000000" font-family="sans-serif" font-size="14" lengthAdjust="spacing" textLength="114.3994" x="78.1123" y="414.8457">auditStatus: Enum</text><line style="stroke:#181818;stroke-width:0.5;" x1="59.1123" x2="200.6084" y1="421.9219" y2="421.9219"/><ellipse cx="69.1123" cy="436.2266" fill="#84BE84" rx="3" ry="3" style="stroke:#038048;stroke-width:1;"/><text fill="#000000" font-family="sans-serif" font-size="14" lengthAdjust="spacing" textLength="117.4961" x="78.1123" y="440.4551">setAuditStatus(val)</text></g><!--link AuditPortal to AuditController--><g class="link" data-entity-1="AuditPortal" data-entity-2="AuditController" data-source-line="16" data-uid="lnk5" id="link_AuditPortal_AuditController"><path codeLine="16" d="M129.6123,121.7894 C129.6123,145.4394 129.6123,169.9294 129.6123,193.5494" fill="none" id="AuditPortal-to-AuditController" style="stroke:#181818;stroke-width:1;stroke-dasharray:7,7;"/><polygon fill="#181818" points="129.6123,199.5494,133.6123,190.5494,129.6123,194.5494,125.6123,190.5494,129.6123,199.5494" style="stroke:#181818;stroke-width:1;"/><text fill="#000000" font-family="sans-serif" font-size="13" lengthAdjust="spacing" textLength="27.46" x="130.6123" y="166.1045">uses</text></g><!--link AuditController to Grade--><g class="link" data-entity-1="AuditController" data-entity-2="Grade" data-source-line="17" data-uid="lnk6" id="link_AuditController_Grade"><path codeLine="17" d="M129.6123,275.9494 C129.6123,299.0794 129.6123,322.9594 129.6123,347.5494" fill="none" id="AuditController-to-Grade" style="stroke:#181818;stroke-width:1;stroke-dasharray:7,7;"/><polygon fill="#181818" points="129.6123,353.5494,133.6123,344.5494,129.6123,348.5494,125.6123,344.5494,129.6123,353.5494" style="stroke:#181818;stroke-width:1;"/><text fill="#000000" font-family="sans-serif" font-size="13" lengthAdjust="spacing" textLength="46.2617" x="130.6123" y="320.1045">updates</text></g><!--SRC=[AyaioKbL27KsCh1IUBfkuRC5EvvrJ7Y-UwM2hiBJ_gOdE_gURzpzTFO-1Oqm_m1dJIwkv9p4uc85nzAKp9A0_AAIn1m56vka_DAybCIYIZixXMek1I3GLaXFBN4iA2ZABqlCSKmkoSpFqz3agaNHxPoVLrAKdvEJMWGq8Hd2GJ8W4QH68pEbM4UXk2InfBGOIRzxKM9AAb1NQbv9PWd2Lbs8fc2mSYi5rxpINAXXnK3N8AGqW8u2cuRi2pqzEmntMIcK5gSMSw4BWvH2d01KK92IM99Q3000]--></g></svg>