<svg xmlns="http://www.w3.org/2000/svg" xmlns:xlink="http://www.w3.org/1999/xlink" contentStyleType="text/css" data-diagram-type="SEQUENCE" height="407px" preserveAspectRatio="none" style="width:581px;height:407px;background:#FFFFFF;" version="1.1" viewBox="0 0 581 407" width="581px" zoomAndPan="magnify"><title>UC20: &#23457;&#26680;&#25104;&#32489; - &#39034;&#24207;&#22270;</title><defs/><g><text fill="#000000" font-family="sans-serif" font-size="14" font-weight="bold" lengthAdjust="spacing" textLength="157.8486" x="213.3826" y="29.5332">UC20: &#23457;&#26680;&#25104;&#32489; - &#39034;&#24207;&#22270;</text><rect fill="none" height="79.0547" style="stroke:#000000;stroke-width:1.5;" width="231.6304" x="343.9834" y="198.9219"/><g><title>...</title><rect fill="#000000" fill-opacity="0.00000" height="204.1094" width="8" x="25" y="121.2188"/><line style="stroke:#181818;stroke-width:0.5;stroke-dasharray:5,5;" x1="29" x2="29" y1="121.2188" y2="325.3281"/></g><g><title>....</title><rect fill="#000000" fill-opacity="0.00000" height="204.1094" width="8" x="192" y="121.2188"/><line style="stroke:#181818;stroke-width:0.5;stroke-dasharray:5,5;" x1="196" x2="196" y1="121.2188" y2="325.3281"/></g><g><title>.....</title><rect fill="#000000" fill-opacity="0.00000" height="204.1094" width="8" x="387.9834" y="121.2188"/><line style="stroke:#181818;stroke-width:0.5;stroke-dasharray:5,5;" x1="391.9834" x2="391.9834" y1="121.2188" y2="325.3281"/></g><g><title>Grade</title><rect fill="#000000" fill-opacity="0.00000" height="204.1094" width="8" x="539.1587" y="121.2188"/><line style="stroke:#181818;stroke-width:0.5;stroke-dasharray:5,5;" x1="542.7036" x2="542.7036" y1="121.2188" y2="325.3281"/></g><g class="participant participant-head" data-participant="Admin"><text fill="#000000" font-family="sans-serif" font-size="14" lengthAdjust="spacing" textLength="42" x="5" y="118.1426">&#31649;&#29702;&#21592;</text><ellipse cx="29" cy="52.1094" fill="#E2E2F0" rx="8" ry="8" style="stroke:#181818;stroke-width:0.5;"/><path d="M29,60.1094 L29,87.1094 M16,68.1094 L42,68.1094 M29,87.1094 L16,102.1094 M29,87.1094 L42,102.1094" fill="none" style="stroke:#181818;stroke-width:0.5;"/></g><g class="participant participant-tail" data-participant="Admin"><text fill="#000000" font-family="sans-serif" font-size="14" lengthAdjust="spacing" textLength="42" x="5" y="338.8613">&#31649;&#29702;&#21592;</text><ellipse cx="29" cy="350.4375" fill="#E2E2F0" rx="8" ry="8" style="stroke:#181818;stroke-width:0.5;"/><path d="M29,358.4375 L29,385.4375 M16,366.4375 L42,366.4375 M29,385.4375 L16,400.4375 M29,385.4375 L42,400.4375" fill="none" style="stroke:#181818;stroke-width:0.5;"/></g><g class="participant participant-head" data-participant="Portal"><text fill="#000000" font-family="sans-serif" font-size="14" lengthAdjust="spacing" textLength="56" x="165" y="118.1426">&#23457;&#26680;&#38376;&#25143;</text><path d="M175.5,75.6094 L175.5,99.6094 M175.5,87.6094 L192.5,87.6094" fill="none" style="stroke:#181818;stroke-width:0.5;"/><ellipse cx="204.5" cy="87.6094" fill="#E2E2F0" rx="12" ry="12" style="stroke:#181818;stroke-width:0.5;"/></g><g class="participant participant-tail" data-participant="Portal"><text fill="#000000" font-family="sans-serif" font-size="14" lengthAdjust="spacing" textLength="56" x="165" y="338.8613">&#23457;&#26680;&#38376;&#25143;</text><path d="M175.5,345.9375 L175.5,369.9375 M175.5,357.9375 L192.5,357.9375" fill="none" style="stroke:#181818;stroke-width:0.5;"/><ellipse cx="204.5" cy="357.9375" fill="#E2E2F0" rx="12" ry="12" style="stroke:#181818;stroke-width:0.5;"/></g><g class="participant participant-head" data-participant="AuditCtrl"><text fill="#000000" font-family="sans-serif" font-size="14" lengthAdjust="spacing" textLength="70" x="353.9834" y="118.1426">&#23457;&#26680;&#25511;&#21046;&#22120;</text><ellipse cx="391.9834" cy="87.6094" fill="#E2E2F0" rx="12" ry="12" style="stroke:#181818;stroke-width:0.5;"/><polygon fill="#181818" points="387.9834,75.6094,393.9834,70.6094,391.9834,75.6094,393.9834,80.6094,387.9834,75.6094" style="stroke:#181818;stroke-width:1;"/></g><g class="participant participant-tail" data-participant="AuditCtrl"><text fill="#000000" font-family="sans-serif" font-size="14" lengthAdjust="spacing" textLength="70" x="353.9834" y="338.8613">&#23457;&#26680;&#25511;&#21046;&#22120;</text><ellipse cx="391.9834" cy="357.9375" fill="#E2E2F0" rx="12" ry="12" style="stroke:#181818;stroke-width:0.5;"/><polygon fill="#181818" points="387.9834,345.9375,393.9834,340.9375,391.9834,345.9375,393.9834,350.9375,387.9834,345.9375" style="stroke:#181818;stroke-width:1;"/></g><g class="participant participant-head" data-participant="Grade"><text fill="#000000" font-family="sans-serif" font-size="14" lengthAdjust="spacing" textLength="38.9102" x="520.7036" y="118.1426">Grade</text><ellipse cx="543.1587" cy="87.6094" fill="#E2E2F0" rx="12" ry="12" style="stroke:#181818;stroke-width:0.5;"/><line style="stroke:#181818;stroke-width:0.5;" x1="531.1587" x2="555.1587" y1="101.6094" y2="101.6094"/></g><g class="participant participant-tail" data-participant="Grade"><text fill="#000000" font-family="sans-serif" font-size="14" lengthAdjust="spacing" textLength="38.9102" x="520.7036" y="338.8613">Grade</text><ellipse cx="543.1587" cy="357.9375" fill="#E2E2F0" rx="12" ry="12" style="stroke:#181818;stroke-width:0.5;"/><line style="stroke:#181818;stroke-width:0.5;" x1="531.1587" x2="555.1587" y1="371.9375" y2="371.9375"/></g><g class="message" data-participant-1="Admin" data-participant-2="Portal"><polygon fill="#181818" points="184,149.5703,194,153.5703,184,157.5703,188,153.5703" style="stroke:#181818;stroke-width:1;"/><line style="stroke:#181818;stroke-width:1;" x1="29" x2="190" y1="153.5703" y2="153.5703"/><text fill="#000000" font-family="sans-serif" font-size="13" lengthAdjust="spacing" textLength="143" x="36" y="148.7139">&#26597;&#30475;&#24453;&#23457;&#25104;&#32489;&#24182;&#25552;&#20132;&#24847;&#35265;</text></g><g class="message" data-participant-1="Portal" data-participant-2="AuditCtrl"><polygon fill="#181818" points="379.9834,179.9219,389.9834,183.9219,379.9834,187.9219,383.9834,183.9219" style="stroke:#181818;stroke-width:1;"/><line style="stroke:#181818;stroke-width:1;" x1="196" x2="385.9834" y1="183.9219" y2="183.9219"/><text fill="#000000" font-family="sans-serif" font-size="13" lengthAdjust="spacing" textLength="171.9834" x="203" y="179.0654">auditGrades(gradeIds, action)</text></g><path d="M343.9834,198.9219 L416.418,198.9219 L416.418,207.2734 L406.418,217.2734 L343.9834,217.2734 L343.9834,198.9219" fill="#EEEEEE" style="stroke:#000000;stroke-width:1.5;"/><rect fill="none" height="79.0547" style="stroke:#000000;stroke-width:1.5;" width="231.6304" x="343.9834" y="198.9219"/><text fill="#000000" font-family="sans-serif" font-size="13" font-weight="bold" lengthAdjust="spacing" textLength="27.4346" x="358.9834" y="213.417">loop</text><text fill="#000000" font-family="sans-serif" font-size="11" font-weight="bold" lengthAdjust="spacing" textLength="52.7012" x="431.418" y="212.3408">[&#27599;&#20010;&#25104;&#32489;]</text><g class="message" data-participant-1="AuditCtrl" data-participant-2="Grade"><polygon fill="#181818" points="531.1587,235.625,541.1587,239.625,531.1587,243.625,535.1587,239.625" style="stroke:#181818;stroke-width:1;"/><line style="stroke:#181818;stroke-width:1;" x1="391.9834" x2="537.1587" y1="239.625" y2="239.625"/><text fill="#000000" font-family="sans-serif" font-size="13" lengthAdjust="spacing" textLength="127.1753" x="398.9834" y="234.7686">setAuditStatus(action)</text></g><g class="message" data-participant-1="Grade" data-participant-2="AuditCtrl"><polygon fill="#181818" points="402.9834,265.9766,392.9834,269.9766,402.9834,273.9766,398.9834,269.9766" style="stroke:#181818;stroke-width:1;"/><line style="stroke:#181818;stroke-width:1;stroke-dasharray:2,2;" x1="396.9834" x2="542.1587" y1="269.9766" y2="269.9766"/><text fill="#000000" font-family="sans-serif" font-size="13" lengthAdjust="spacing" textLength="46.9917" x="408.9834" y="265.1201">updated</text></g><g class="message" data-participant-1="AuditCtrl" data-participant-2="Portal"><polygon fill="#181818" points="207,303.3281,197,307.3281,207,311.3281,203,307.3281" style="stroke:#181818;stroke-width:1;"/><line style="stroke:#181818;stroke-width:1;stroke-dasharray:2,2;" x1="201" x2="390.9834" y1="307.3281" y2="307.3281"/><text fill="#000000" font-family="sans-serif" font-size="13" lengthAdjust="spacing" textLength="78" x="213" y="302.4717">&#23457;&#25209;&#23436;&#25104;&#25552;&#31034;</text></g><!--SRC=[NO_1IiD054NtxoiUMLKm82wx4AGBSIU87p1sWWHYfanU5Yu5bOXYuaf5GGELLXTnLzi8_PhEnFw5aqchnTdCuyszvyubdm8F3pgR6srKHQvVnZh9ggytT76UbwfCrUCKW7L9I7Ig8g-o2tLxxo2BS9iV-o4SYZZaJ9wWqzZdTqETV5h1df340kYAaAG8bW9zCr39I3qC6qZCVUgG3C0BoIU3sP6CU_RDJW0s1zsj1G_Rg9zVgwShDJslYVQxQZBIQJOh-_ei_HwSma9gJBy1niVgsLAZrb5zxV9e7KqvNuHh40ZHG_sHpiRl3HJGd3-_WLcl0KKUsVq-COgZrf9Gwnk9-oyvxd567ZSbEQmGLqlLNIudghWsuQPBrIz_0000]--></g></svg>