<svg xmlns="http://www.w3.org/2000/svg" xmlns:xlink="http://www.w3.org/1999/xlink" contentStyleType="text/css" data-diagram-type="SEQUENCE" height="479px" preserveAspectRatio="none" style="width:617px;height:479px;background:#FFFFFF;" version="1.1" viewBox="0 0 617 479" width="617px" zoomAndPan="magnify"><title>UC21: &#20840;&#23616;&#25104;&#32489;&#32479;&#35745;&#20998;&#26512; - &#39034;&#24207;&#22270;</title><defs/><g><text fill="#000000" font-family="sans-serif" font-size="14" font-weight="bold" lengthAdjust="spacing" textLength="215.5986" x="202.4004" y="29.5332">UC21: &#20840;&#23616;&#25104;&#32489;&#32479;&#35745;&#20998;&#26512; - &#39034;&#24207;&#22270;</text><g><title>...</title><rect fill="#000000" fill-opacity="0.00000" height="275.8125" width="8" x="25" y="121.2188"/><line style="stroke:#181818;stroke-width:0.5;stroke-dasharray:5,5;" x1="29" x2="29" y1="121.2188" y2="397.0313"/></g><g><title>......</title><rect fill="#000000" fill-opacity="0.00000" height="275.8125" width="8" x="153" y="121.2188"/><line style="stroke:#181818;stroke-width:0.5;stroke-dasharray:5,5;" x1="157" x2="157" y1="121.2188" y2="397.0313"/></g><g><title>.....</title><rect fill="#000000" fill-opacity="0.00000" height="275.8125" width="8" x="333" y="121.2188"/><line style="stroke:#181818;stroke-width:0.5;stroke-dasharray:5,5;" x1="337" x2="337" y1="121.2188" y2="397.0313"/></g><g><title>Grade</title><rect fill="#000000" fill-opacity="0.00000" height="275.8125" width="8" x="500.7998" y="121.2188"/><line style="stroke:#181818;stroke-width:0.5;stroke-dasharray:5,5;" x1="504.3447" x2="504.3447" y1="121.2188" y2="397.0313"/></g><g><title>Department</title><rect fill="#000000" fill-opacity="0.00000" height="275.8125" width="8" x="572.8271" y="121.2188"/><line style="stroke:#181818;stroke-width:0.5;stroke-dasharray:5,5;" x1="576.2549" x2="576.2549" y1="121.2188" y2="397.0313"/></g><g class="participant participant-head" data-participant="Admin"><text fill="#000000" font-family="sans-serif" font-size="14" lengthAdjust="spacing" textLength="42" x="5" y="118.1426">&#31649;&#29702;&#21592;</text><ellipse cx="29" cy="52.1094" fill="#E2E2F0" rx="8" ry="8" style="stroke:#181818;stroke-width:0.5;"/><path d="M29,60.1094 L29,87.1094 M16,68.1094 L42,68.1094 M29,87.1094 L16,102.1094 M29,87.1094 L42,102.1094" fill="none" style="stroke:#181818;stroke-width:0.5;"/></g><g class="participant participant-tail" data-participant="Admin"><text fill="#000000" font-family="sans-serif" font-size="14" lengthAdjust="spacing" textLength="42" x="5" y="410.5645">&#31649;&#29702;&#21592;</text><ellipse cx="29" cy="422.1406" fill="#E2E2F0" rx="8" ry="8" style="stroke:#181818;stroke-width:0.5;"/><path d="M29,430.1406 L29,457.1406 M16,438.1406 L42,438.1406 M29,457.1406 L16,472.1406 M29,457.1406 L42,472.1406" fill="none" style="stroke:#181818;stroke-width:0.5;"/></g><g class="participant participant-head" data-participant="Dashboard"><text fill="#000000" font-family="sans-serif" font-size="14" lengthAdjust="spacing" textLength="84" x="112" y="118.1426">&#20840;&#23616;&#20998;&#26512;&#38754;&#26495;</text><path d="M136.5,75.6094 L136.5,99.6094 M136.5,87.6094 L153.5,87.6094" fill="none" style="stroke:#181818;stroke-width:0.5;"/><ellipse cx="165.5" cy="87.6094" fill="#E2E2F0" rx="12" ry="12" style="stroke:#181818;stroke-width:0.5;"/></g><g class="participant participant-tail" data-participant="Dashboard"><text fill="#000000" font-family="sans-serif" font-size="14" lengthAdjust="spacing" textLength="84" x="112" y="410.5645">&#20840;&#23616;&#20998;&#26512;&#38754;&#26495;</text><path d="M136.5,417.6406 L136.5,441.6406 M136.5,429.6406 L153.5,429.6406" fill="none" style="stroke:#181818;stroke-width:0.5;"/><ellipse cx="165.5" cy="429.6406" fill="#E2E2F0" rx="12" ry="12" style="stroke:#181818;stroke-width:0.5;"/></g><g class="participant participant-head" data-participant="GradeCtrl"><text fill="#000000" font-family="sans-serif" font-size="14" lengthAdjust="spacing" textLength="70" x="299" y="118.1426">&#25104;&#32489;&#25511;&#21046;&#31867;</text><ellipse cx="337" cy="87.6094" fill="#E2E2F0" rx="12" ry="12" style="stroke:#181818;stroke-width:0.5;"/><polygon fill="#181818" points="333,75.6094,339,70.6094,337,75.6094,339,80.6094,333,75.6094" style="stroke:#181818;stroke-width:1;"/></g><g class="participant participant-tail" data-participant="GradeCtrl"><text fill="#000000" font-family="sans-serif" font-size="14" lengthAdjust="spacing" textLength="70" x="299" y="410.5645">&#25104;&#32489;&#25511;&#21046;&#31867;</text><ellipse cx="337" cy="429.6406" fill="#E2E2F0" rx="12" ry="12" style="stroke:#181818;stroke-width:0.5;"/><polygon fill="#181818" points="333,417.6406,339,412.6406,337,417.6406,339,422.6406,333,417.6406" style="stroke:#181818;stroke-width:1;"/></g><g class="participant participant-head" data-participant="Grade"><text fill="#000000" font-family="sans-serif" font-size="14" lengthAdjust="spacing" textLength="38.9102" x="482.3447" y="118.1426">Grade</text><ellipse cx="504.7998" cy="87.6094" fill="#E2E2F0" rx="12" ry="12" style="stroke:#181818;stroke-width:0.5;"/><line style="stroke:#181818;stroke-width:0.5;" x1="492.7998" x2="516.7998" y1="101.6094" y2="101.6094"/></g><g class="participant participant-tail" data-participant="Grade"><text fill="#000000" font-family="sans-serif" font-size="14" lengthAdjust="spacing" textLength="38.9102" x="482.3447" y="410.5645">Grade</text><ellipse cx="504.7998" cy="429.6406" fill="#E2E2F0" rx="12" ry="12" style="stroke:#181818;stroke-width:0.5;"/><line style="stroke:#181818;stroke-width:0.5;" x1="492.7998" x2="516.7998" y1="443.6406" y2="443.6406"/></g><g class="participant participant-head" data-participant="Dept"><text fill="#000000" font-family="sans-serif" font-size="14" lengthAdjust="spacing" textLength="73.1445" x="537.2549" y="118.1426">Department</text><ellipse cx="576.8271" cy="87.6094" fill="#E2E2F0" rx="12" ry="12" style="stroke:#181818;stroke-width:0.5;"/><line style="stroke:#181818;stroke-width:0.5;" x1="564.8271" x2="588.8271" y1="101.6094" y2="101.6094"/></g><g class="participant participant-tail" data-participant="Dept"><text fill="#000000" font-family="sans-serif" font-size="14" lengthAdjust="spacing" textLength="73.1445" x="537.2549" y="410.5645">Department</text><ellipse cx="576.8271" cy="429.6406" fill="#E2E2F0" rx="12" ry="12" style="stroke:#181818;stroke-width:0.5;"/><line style="stroke:#181818;stroke-width:0.5;" x1="564.8271" x2="588.8271" y1="443.6406" y2="443.6406"/></g><g class="message" data-participant-1="Admin" data-participant-2="Dashboard"><polygon fill="#181818" points="145,149.5703,155,153.5703,145,157.5703,149,153.5703" style="stroke:#181818;stroke-width:1;"/><line style="stroke:#181818;stroke-width:1;" x1="29" x2="151" y1="153.5703" y2="153.5703"/><text fill="#000000" font-family="sans-serif" font-size="13" lengthAdjust="spacing" textLength="104" x="36" y="148.7139">&#36873;&#25321;&#20840;&#23616;&#32479;&#35745;&#32500;&#24230;</text></g><g class="message" data-participant-1="Dashboard" data-participant-2="GradeCtrl"><polygon fill="#181818" points="325,179.9219,335,183.9219,325,187.9219,329,183.9219" style="stroke:#181818;stroke-width:1;"/><line style="stroke:#181818;stroke-width:1;" x1="157" x2="331" y1="183.9219" y2="183.9219"/><text fill="#000000" font-family="sans-serif" font-size="13" lengthAdjust="spacing" textLength="124.9917" x="164" y="179.0654">getGlobalStats(filters)</text></g><g class="message" data-participant-1="GradeCtrl" data-participant-2="Grade"><polygon fill="#181818" points="492.7998,210.2734,502.7998,214.2734,492.7998,218.2734,496.7998,214.2734" style="stroke:#181818;stroke-width:1;"/><line style="stroke:#181818;stroke-width:1;" x1="337" x2="498.7998" y1="214.2734" y2="214.2734"/><text fill="#000000" font-family="sans-serif" font-size="13" lengthAdjust="spacing" textLength="143.7998" x="344" y="209.417">findAndAggregate(filters)</text></g><g class="message" data-participant-1="Grade" data-participant-2="GradeCtrl"><polygon fill="#181818" points="348,240.625,338,244.625,348,248.625,344,244.625" style="stroke:#181818;stroke-width:1;"/><line style="stroke:#181818;stroke-width:1;stroke-dasharray:2,2;" x1="342" x2="503.7998" y1="244.625" y2="244.625"/><text fill="#000000" font-family="sans-serif" font-size="13" lengthAdjust="spacing" textLength="93.2407" x="354" y="239.7686">aggregatedData</text></g><g class="message" data-participant-1="GradeCtrl" data-participant-2="Dept"><polygon fill="#181818" points="564.8271,270.9766,574.8271,274.9766,564.8271,278.9766,568.8271,274.9766" style="stroke:#181818;stroke-width:1;"/><line style="stroke:#181818;stroke-width:1;" x1="337" x2="570.8271" y1="274.9766" y2="274.9766"/><text fill="#000000" font-family="sans-serif" font-size="13" lengthAdjust="spacing" textLength="98.9917" x="344" y="270.1201">getDeptContext()</text></g><g class="message" data-participant-1="Dept" data-participant-2="GradeCtrl"><polygon fill="#181818" points="348,301.3281,338,305.3281,348,309.3281,344,305.3281" style="stroke:#181818;stroke-width:1;"/><line style="stroke:#181818;stroke-width:1;stroke-dasharray:2,2;" x1="342" x2="575.8271" y1="305.3281" y2="305.3281"/><text fill="#000000" font-family="sans-serif" font-size="13" lengthAdjust="spacing" textLength="54.2026" x="354" y="300.4717">metadata</text></g><g class="message" data-participant-1="GradeCtrl" data-participant-2="GradeCtrl"><line style="stroke:#181818;stroke-width:1;" x1="337" x2="379" y1="335.6797" y2="335.6797"/><line style="stroke:#181818;stroke-width:1;" x1="379" x2="379" y1="335.6797" y2="348.6797"/><line style="stroke:#181818;stroke-width:1;" x1="338" x2="379" y1="348.6797" y2="348.6797"/><polygon fill="#181818" points="348,344.6797,338,348.6797,348,352.6797,344,348.6797" style="stroke:#181818;stroke-width:1;"/><text fill="#000000" font-family="sans-serif" font-size="13" lengthAdjust="spacing" textLength="130.0635" x="344" y="330.8232">prepareGlobalReport()</text></g><g class="message" data-participant-1="GradeCtrl" data-participant-2="Dashboard"><polygon fill="#181818" points="168,375.0313,158,379.0313,168,383.0313,164,379.0313" style="stroke:#181818;stroke-width:1;"/><line style="stroke:#181818;stroke-width:1;stroke-dasharray:2,2;" x1="162" x2="336" y1="379.0313" y2="379.0313"/><text fill="#000000" font-family="sans-serif" font-size="13" lengthAdjust="spacing" textLength="156" x="174" y="374.1748">&#36820;&#22238;&#36328;&#23398;&#38498;&#23545;&#27604;&#21450;&#22343;&#20998;&#20998;&#26512;</text></g><!--SRC=[PP5FJy8m6CRl_HJDJd3We4SE9WGIxXe_GA5bBXdhqhqcUkCYeYQ22GSD0GC7X8CG4gEH9V9fkh5lORS6XZFfeNtxUv_d_GCMs0oVbu-FYbZUpEIg5NHweJyF_TVjOYmxxM3KmmKSZTTotPM37uH87RZ0HhWOXxssV7esCF5mYJOj1zNufKE9kCQ6bjBfqN0I33S9LY7UHOqJGL6TEo2uZGrj5po-oSvdkF8Jh2e8PMKGDc8EMA3qaaZwjuzNc4i4DDLJwpCN44gAmOMJr0uNSTIw2nxckYxTNEX_oFKKfP3As3kh39D1rUOrOfy10I_Ni6nWmikZbDabABXXERIaZcaAPX9W6HmNCk9a1z8A0V9NC-v2-yUtifeKku9S7YNnh52J0Q7_90u9LyH3OhgNK-Po4OiTu9b9RJTzEHXjlsRoVHgzJEJoErZsPVTU3c_LGlLEVm40]--></g></svg>