<svg xmlns="http://www.w3.org/2000/svg" xmlns:xlink="http://www.w3.org/1999/xlink" contentStyleType="text/css" data-diagram-type="CLASS" height="590px" preserveAspectRatio="none" style="width:310px;height:590px;background:#FFFFFF;" version="1.1" viewBox="0 0 310 590" width="310px" zoomAndPan="magnify"><title>UC21: &#20840;&#23616;&#25104;&#32489;&#32479;&#35745;&#20998;&#26512; - &#21442;&#19982;&#31867;&#22270; (VOPC)</title><defs/><g><g class="title" data-source-line="1"><text fill="#000000" font-family="sans-serif" font-size="14" font-weight="bold" lengthAdjust="spacing" textLength="282.9258" x="10" y="24.5332">UC21: &#20840;&#23616;&#25104;&#32489;&#32479;&#35745;&#20998;&#26512; - &#21442;&#19982;&#31867;&#22270; (VOPC)</text></g><!--class GlobalStatsDashboard--><g class="entity" data-entity="GlobalStatsDashboard" data-source-line="3" data-uid="ent0002" id="entity_GlobalStatsDashboard"><rect fill="#F1F1F1" height="76.3125" rx="2.5" ry="2.5" style="stroke:#181818;stroke-width:0.5;" width="172.8613" x="72.0322" y="45.6094"/><ellipse cx="87.0322" cy="66.9609" fill="#ADD1B2" rx="11" ry="11" style="stroke:#181818;stroke-width:1;"/><path d="M89.7979,62.8359 Q89.9541,62.6172 90.1416,62.5078 Q90.3291,62.3984 90.5479,62.3984 Q90.9229,62.3984 91.1572,62.6641 Q91.3916,62.9141 91.3916,63.5234 L91.3916,64.9766 Q91.3916,65.5859 91.1572,65.8516 Q90.9229,66.1172 90.5479,66.1172 Q90.2041,66.1172 90.001,65.9141 Q89.7979,65.7266 89.6885,65.2109 Q89.6416,64.8516 89.4541,64.6641 Q89.126,64.2891 88.5166,64.0703 Q87.9072,63.8516 87.2822,63.8516 Q86.5166,63.8516 85.876,64.1797 Q85.251,64.5078 84.751,65.2578 Q84.2666,66.0078 84.2666,67.0391 L84.2666,68.1328 Q84.2666,69.3672 85.1572,70.1953 Q86.0479,71.0078 87.6416,71.0078 Q88.5791,71.0078 89.2354,70.7578 Q89.626,70.6016 90.0479,70.1641 Q90.3135,69.8984 90.4541,69.8203 Q90.6104,69.7422 90.8135,69.7422 Q91.1416,69.7422 91.3916,70.0078 Q91.6572,70.2578 91.6572,70.6016 Q91.6572,70.9453 91.3135,71.3516 Q90.8135,71.9297 90.0166,72.2578 Q88.9385,72.7109 87.6416,72.7109 Q86.126,72.7109 84.9229,72.0859 Q83.9385,71.5859 83.251,70.5234 Q82.5635,69.4453 82.5635,68.1641 L82.5635,67.0078 Q82.5635,65.6797 83.1729,64.5391 Q83.7979,63.3828 84.8916,62.7734 Q85.9854,62.1484 87.2197,62.1484 Q87.9541,62.1484 88.5947,62.3203 Q89.251,62.4766 89.7979,62.8359 Z " fill="#000000"/><text fill="#000000" font-family="sans-serif" font-size="12" font-style="italic" lengthAdjust="spacing" textLength="63.3867" x="139.7695" y="63.0664">&#171;boundary&#187;</text><text fill="#000000" font-family="sans-serif" font-size="14" lengthAdjust="spacing" textLength="140.8613" x="101.0322" y="80.2363">GlobalStatsDashboard</text><line style="stroke:#181818;stroke-width:0.5;" x1="73.0322" x2="243.8936" y1="88.3125" y2="88.3125"/><line style="stroke:#181818;stroke-width:0.5;" x1="73.0322" x2="243.8936" y1="96.3125" y2="96.3125"/><ellipse cx="83.0322" cy="110.6172" fill="#84BE84" rx="3" ry="3" style="stroke:#038048;stroke-width:1;"/><text fill="#000000" font-family="sans-serif" font-size="14" lengthAdjust="spacing" textLength="132.2686" x="92.0322" y="114.8457">renderComparisons()</text></g><!--class GradeController--><g class="entity" data-entity="GradeController" data-source-line="7" data-uid="ent0003" id="entity_GradeController"><rect fill="#F1F1F1" height="76.3125" rx="2.5" ry="2.5" style="stroke:#181818;stroke-width:0.5;" width="160.6064" x="78.0322" y="199.6094"/><ellipse cx="106.0853" cy="220.9609" fill="#ADD1B2" rx="11" ry="11" style="stroke:#181818;stroke-width:1;"/><path d="M108.8509,216.8359 Q109.0072,216.6172 109.1947,216.5078 Q109.3822,216.3984 109.6009,216.3984 Q109.9759,216.3984 110.2103,216.6641 Q110.4447,216.9141 110.4447,217.5234 L110.4447,218.9766 Q110.4447,219.5859 110.2103,219.8516 Q109.9759,220.1172 109.6009,220.1172 Q109.2572,220.1172 109.0541,219.9141 Q108.8509,219.7266 108.7416,219.2109 Q108.6947,218.8516 108.5072,218.6641 Q108.1791,218.2891 107.5697,218.0703 Q106.9603,217.8516 106.3353,217.8516 Q105.5697,217.8516 104.9291,218.1797 Q104.3041,218.5078 103.8041,219.2578 Q103.3197,220.0078 103.3197,221.0391 L103.3197,222.1328 Q103.3197,223.3672 104.2103,224.1953 Q105.1009,225.0078 106.6947,225.0078 Q107.6322,225.0078 108.2884,224.7578 Q108.6791,224.6016 109.1009,224.1641 Q109.3666,223.8984 109.5072,223.8203 Q109.6634,223.7422 109.8666,223.7422 Q110.1947,223.7422 110.4447,224.0078 Q110.7103,224.2578 110.7103,224.6016 Q110.7103,224.9453 110.3666,225.3516 Q109.8666,225.9297 109.0697,226.2578 Q107.9916,226.7109 106.6947,226.7109 Q105.1791,226.7109 103.9759,226.0859 Q102.9916,225.5859 102.3041,224.5234 Q101.6166,223.4453 101.6166,222.1641 L101.6166,221.0078 Q101.6166,219.6797 102.2259,218.5391 Q102.8509,217.3828 103.9447,216.7734 Q105.0384,216.1484 106.2728,216.1484 Q107.0072,216.1484 107.6478,216.3203 Q108.3041,216.4766 108.8509,216.8359 Z " fill="#000000"/><text fill="#000000" font-family="sans-serif" font-size="12" font-style="italic" lengthAdjust="spacing" textLength="49.3652" x="148.1032" y="217.0664">&#171;control&#187;</text><text fill="#000000" font-family="sans-serif" font-size="14" lengthAdjust="spacing" textLength="99.5996" x="122.986" y="234.2363">GradeController</text><line style="stroke:#181818;stroke-width:0.5;" x1="79.0322" x2="237.6387" y1="242.3125" y2="242.3125"/><line style="stroke:#181818;stroke-width:0.5;" x1="79.0322" x2="237.6387" y1="250.3125" y2="250.3125"/><ellipse cx="89.0322" cy="264.6172" fill="#84BE84" rx="3" ry="3" style="stroke:#038048;stroke-width:1;"/><text fill="#000000" font-family="sans-serif" font-size="14" lengthAdjust="spacing" textLength="134.6064" x="98.0322" y="268.8457">getGlobalStats(filters)</text></g><!--class Grade--><g class="entity" data-entity="Grade" data-source-line="11" data-uid="ent0004" id="entity_Grade"><rect fill="#F1F1F1" height="76.3125" rx="2.5" ry="2.5" style="stroke:#181818;stroke-width:0.5;" width="144.2891" x="86.5322" y="353.6094"/><ellipse cx="134.9717" cy="374.9609" fill="#ADD1B2" rx="11" ry="11" style="stroke:#181818;stroke-width:1;"/><path d="M137.7373,370.8359 Q137.8936,370.6172 138.0811,370.5078 Q138.2686,370.3984 138.4873,370.3984 Q138.8623,370.3984 139.0967,370.6641 Q139.3311,370.9141 139.3311,371.5234 L139.3311,372.9766 Q139.3311,373.5859 139.0967,373.8516 Q138.8623,374.1172 138.4873,374.1172 Q138.1436,374.1172 137.9404,373.9141 Q137.7373,373.7266 137.6279,373.2109 Q137.5811,372.8516 137.3936,372.6641 Q137.0654,372.2891 136.4561,372.0703 Q135.8467,371.8516 135.2217,371.8516 Q134.4561,371.8516 133.8154,372.1797 Q133.1904,372.5078 132.6904,373.2578 Q132.2061,374.0078 132.2061,375.0391 L132.2061,376.1328 Q132.2061,377.3672 133.0967,378.1953 Q133.9873,379.0078 135.5811,379.0078 Q136.5186,379.0078 137.1748,378.7578 Q137.5654,378.6016 137.9873,378.1641 Q138.2529,377.8984 138.3936,377.8203 Q138.5498,377.7422 138.7529,377.7422 Q139.0811,377.7422 139.3311,378.0078 Q139.5967,378.2578 139.5967,378.6016 Q139.5967,378.9453 139.2529,379.3516 Q138.7529,379.9297 137.9561,380.2578 Q136.8779,380.7109 135.5811,380.7109 Q134.0654,380.7109 132.8623,380.0859 Q131.8779,379.5859 131.1904,378.5234 Q130.5029,377.4453 130.5029,376.1641 L130.5029,375.0078 Q130.5029,373.6797 131.1123,372.5391 Q131.7373,371.3828 132.8311,370.7734 Q133.9248,370.1484 135.1592,370.1484 Q135.8936,370.1484 136.5342,370.3203 Q137.1904,370.4766 137.7373,370.8359 Z " fill="#000000"/><text fill="#000000" font-family="sans-serif" font-size="12" font-style="italic" lengthAdjust="spacing" textLength="42.0293" x="153.9121" y="371.0664">&#171;entity&#187;</text><text fill="#000000" font-family="sans-serif" font-size="14" lengthAdjust="spacing" textLength="38.9102" x="155.4717" y="388.2363">Grade</text><line style="stroke:#181818;stroke-width:0.5;" x1="87.5322" x2="229.8213" y1="396.3125" y2="396.3125"/><line style="stroke:#181818;stroke-width:0.5;" x1="87.5322" x2="229.8213" y1="404.3125" y2="404.3125"/><ellipse cx="97.5322" cy="418.6172" fill="#84BE84" rx="3" ry="3" style="stroke:#038048;stroke-width:1;"/><text fill="#000000" font-family="sans-serif" font-size="14" lengthAdjust="spacing" textLength="118.2891" x="106.5322" y="422.8457">aggregateByDept()</text></g><!--class Department--><g class="entity" data-entity="Department" data-source-line="15" data-uid="ent0005" id="entity_Department"><rect fill="#F1F1F1" height="76.3125" rx="2.5" ry="2.5" style="stroke:#181818;stroke-width:0.5;" width="134.9443" x="91.0322" y="507.6094"/><ellipse cx="119.4421" cy="528.9609" fill="#ADD1B2" rx="11" ry="11" style="stroke:#181818;stroke-width:1;"/><path d="M122.2078,524.8359 Q122.364,524.6172 122.5515,524.5078 Q122.739,524.3984 122.9578,524.3984 Q123.3328,524.3984 123.5671,524.6641 Q123.8015,524.9141 123.8015,525.5234 L123.8015,526.9766 Q123.8015,527.5859 123.5671,527.8516 Q123.3328,528.1172 122.9578,528.1172 Q122.614,528.1172 122.4109,527.9141 Q122.2078,527.7266 122.0984,527.2109 Q122.0515,526.8516 121.864,526.6641 Q121.5359,526.2891 120.9265,526.0703 Q120.3171,525.8516 119.6921,525.8516 Q118.9265,525.8516 118.2859,526.1797 Q117.6609,526.5078 117.1609,527.2578 Q116.6765,528.0078 116.6765,529.0391 L116.6765,530.1328 Q116.6765,531.3672 117.5671,532.1953 Q118.4578,533.0078 120.0515,533.0078 Q120.989,533.0078 121.6453,532.7578 Q122.0359,532.6016 122.4578,532.1641 Q122.7234,531.8984 122.864,531.8203 Q123.0203,531.7422 123.2234,531.7422 Q123.5515,531.7422 123.8015,532.0078 Q124.0671,532.2578 124.0671,532.6016 Q124.0671,532.9453 123.7234,533.3516 Q123.2234,533.9297 122.4265,534.2578 Q121.3484,534.7109 120.0515,534.7109 Q118.5359,534.7109 117.3328,534.0859 Q116.3484,533.5859 115.6609,532.5234 Q114.9734,531.4453 114.9734,530.1641 L114.9734,529.0078 Q114.9734,527.6797 115.5828,526.5391 Q116.2078,525.3828 117.3015,524.7734 Q118.3953,524.1484 119.6296,524.1484 Q120.364,524.1484 121.0046,524.3203 Q121.6609,524.4766 122.2078,524.8359 Z " fill="#000000"/><text fill="#000000" font-family="sans-serif" font-size="12" font-style="italic" lengthAdjust="spacing" textLength="42.0293" x="151.9797" y="525.0664">&#171;entity&#187;</text><text fill="#000000" font-family="sans-serif" font-size="14" lengthAdjust="spacing" textLength="73.1445" x="136.4221" y="542.2363">Department</text><line style="stroke:#181818;stroke-width:0.5;" x1="92.0322" x2="224.9766" y1="550.3125" y2="550.3125"/><rect fill="none" height="6" style="stroke:#C82930;stroke-width:1;" width="6" x="99.0322" y="561.6172"/><text fill="#000000" font-family="sans-serif" font-size="14" lengthAdjust="spacing" textLength="108.9443" x="111.0322" y="568.8457">deptName: String</text><line style="stroke:#181818;stroke-width:0.5;" x1="92.0322" x2="224.9766" y1="575.9219" y2="575.9219"/></g><!--link GlobalStatsDashboard to GradeController--><g class="link" data-entity-1="GlobalStatsDashboard" data-entity-2="GradeController" data-source-line="19" data-uid="lnk6" id="link_GlobalStatsDashboard_GradeController"><path codeLine="19" d="M158.5322,121.7894 C158.5322,145.4394 158.5322,169.9294 158.5322,193.5494" fill="none" id="GlobalStatsDashboard-to-GradeController" style="stroke:#181818;stroke-width:1;stroke-dasharray:7,7;"/><polygon fill="#181818" points="158.5322,199.5494,162.5322,190.5494,158.5322,194.5494,154.5322,190.5494,158.5322,199.5494" style="stroke:#181818;stroke-width:1;"/><text fill="#000000" font-family="sans-serif" font-size="13" lengthAdjust="spacing" textLength="27.46" x="159.5322" y="166.1045">uses</text></g><!--link GradeController to Grade--><g class="link" data-entity-1="GradeController" data-entity-2="Grade" data-source-line="20" data-uid="lnk7" id="link_GradeController_Grade"><path codeLine="20" d="M158.5322,275.7894 C158.5322,299.4394 158.5322,323.9294 158.5322,347.5494" fill="none" id="GradeController-to-Grade" style="stroke:#181818;stroke-width:1;stroke-dasharray:7,7;"/><polygon fill="#181818" points="158.5322,353.5494,162.5322,344.5494,158.5322,348.5494,154.5322,344.5494,158.5322,353.5494" style="stroke:#181818;stroke-width:1;"/><text fill="#000000" font-family="sans-serif" font-size="13" lengthAdjust="spacing" textLength="65.0508" x="159.5322" y="320.1045">aggregates</text></g><!--link Grade to Department--><g class="link" data-entity-1="Grade" data-entity-2="Department" data-source-line="21" data-uid="lnk8" id="link_Grade_Department"><path codeLine="21" d="M158.5322,429.7894 C158.5322,453.4394 158.5322,477.9294 158.5322,501.5494" fill="none" id="Grade-to-Department" style="stroke:#181818;stroke-width:1;stroke-dasharray:7,7;"/><polygon fill="#181818" points="158.5322,507.5494,162.5322,498.5494,158.5322,502.5494,154.5322,498.5494,158.5322,507.5494" style="stroke:#181818;stroke-width:1;"/><text fill="#000000" font-family="sans-serif" font-size="13" lengthAdjust="spacing" textLength="39.749" x="159.5322" y="474.1045">groups</text></g><!--SRC=[RKzDIyD04BtdLymnHLhGOoWvc88t5OhU9ysu1ZQxONPoA2A8eFIalGkADxq8lGa5Vurf-ZDSFmYXTMvlvdtCarmqmKcojnj1VVDIBwvMitcpV6sMJ-ktvtfsktgSGn_g- -lFzxjciQmVFY0yFJfEUa4mqUWS76YReXuBYXkXEqyjSWR3OMehao5FunWk0l2p0qmc8qviKIBdpXeNzeBBreOneyGQOQiriNUO_8AEWIBff8LdkHPYjsdYfMGabsuqAiMaK6X_Eg9Iki4U8qlX9Tl2FcIUVOW5HJ0MpetwrltRU328jpf4K3bomUQwfNf2-zWVxUVOUIa2nROgtHS0]--></g></svg>