<svg xmlns="http://www.w3.org/2000/svg" xmlns:xlink="http://www.w3.org/1999/xlink" contentStyleType="text/css" data-diagram-type="SEQUENCE" height="405px" preserveAspectRatio="none" style="width:567px;height:405px;background:#FFFFFF;" version="1.1" viewBox="0 0 567 405" width="567px" zoomAndPan="magnify"><title>UC22: &#22791;&#20221;&#31995;&#32479;&#25968;&#25454; - &#39034;&#24207;&#22270;</title><defs/><g><text fill="#000000" font-family="sans-serif" font-size="14" font-weight="bold" lengthAdjust="spacing" textLength="186.7236" x="191.7483" y="29.5332">UC22: &#22791;&#20221;&#31995;&#32479;&#25968;&#25454; - &#39034;&#24207;&#22270;</text><g><title>...</title><rect fill="#000000" fill-opacity="0.00000" height="202.1094" width="8" x="25" y="121.2188"/><line style="stroke:#181818;stroke-width:0.5;stroke-dasharray:5,5;" x1="29" x2="29" y1="121.2188" y2="323.3281"/></g><g><title>......</title><rect fill="#000000" fill-opacity="0.00000" height="202.1094" width="8" x="127" y="121.2188"/><line style="stroke:#181818;stroke-width:0.5;stroke-dasharray:5,5;" x1="131" x2="131" y1="121.2188" y2="323.3281"/></g><g><title>.....</title><rect fill="#000000" fill-opacity="0.00000" height="202.1094" width="8" x="294" y="121.2188"/><line style="stroke:#181818;stroke-width:0.5;stroke-dasharray:5,5;" x1="298" x2="298" y1="121.2188" y2="323.3281"/></g><g><title>DataArchive</title><rect fill="#000000" fill-opacity="0.00000" height="202.1094" width="8" x="435.0381" y="121.2188"/><line style="stroke:#181818;stroke-width:0.5;stroke-dasharray:5,5;" x1="438.9106" x2="438.9106" y1="121.2188" y2="323.3281"/></g><g><title>BackupLog</title><rect fill="#000000" fill-opacity="0.00000" height="202.1094" width="8" x="524.1929" y="121.2188"/><line style="stroke:#181818;stroke-width:0.5;stroke-dasharray:5,5;" x1="528.1655" x2="528.1655" y1="121.2188" y2="323.3281"/></g><g class="participant participant-head" data-participant="Admin"><text fill="#000000" font-family="sans-serif" font-size="14" lengthAdjust="spacing" textLength="42" x="5" y="118.1426">&#31649;&#29702;&#21592;</text><ellipse cx="29" cy="52.1094" fill="#E2E2F0" rx="8" ry="8" style="stroke:#181818;stroke-width:0.5;"/><path d="M29,60.1094 L29,87.1094 M16,68.1094 L42,68.1094 M29,87.1094 L16,102.1094 M29,87.1094 L42,102.1094" fill="none" style="stroke:#181818;stroke-width:0.5;"/></g><g class="participant participant-tail" data-participant="Admin"><text fill="#000000" font-family="sans-serif" font-size="14" lengthAdjust="spacing" textLength="42" x="5" y="336.8613">&#31649;&#29702;&#21592;</text><ellipse cx="29" cy="348.4375" fill="#E2E2F0" rx="8" ry="8" style="stroke:#181818;stroke-width:0.5;"/><path d="M29,356.4375 L29,383.4375 M16,364.4375 L42,364.4375 M29,383.4375 L16,398.4375 M29,383.4375 L42,398.4375" fill="none" style="stroke:#181818;stroke-width:0.5;"/></g><g class="participant participant-head" data-participant="BackupPage"><text fill="#000000" font-family="sans-serif" font-size="14" lengthAdjust="spacing" textLength="84" x="86" y="118.1426">&#22791;&#20221;&#35302;&#21457;&#39029;&#38754;</text><path d="M110.5,75.6094 L110.5,99.6094 M110.5,87.6094 L127.5,87.6094" fill="none" style="stroke:#181818;stroke-width:0.5;"/><ellipse cx="139.5" cy="87.6094" fill="#E2E2F0" rx="12" ry="12" style="stroke:#181818;stroke-width:0.5;"/></g><g class="participant participant-tail" data-participant="BackupPage"><text fill="#000000" font-family="sans-serif" font-size="14" lengthAdjust="spacing" textLength="84" x="86" y="336.8613">&#22791;&#20221;&#35302;&#21457;&#39029;&#38754;</text><path d="M110.5,343.9375 L110.5,367.9375 M110.5,355.9375 L127.5,355.9375" fill="none" style="stroke:#181818;stroke-width:0.5;"/><ellipse cx="139.5" cy="355.9375" fill="#E2E2F0" rx="12" ry="12" style="stroke:#181818;stroke-width:0.5;"/></g><g class="participant participant-head" data-participant="MaintCtrl"><text fill="#000000" font-family="sans-serif" font-size="14" lengthAdjust="spacing" textLength="70" x="260" y="118.1426">&#32500;&#25252;&#25511;&#21046;&#22120;</text><ellipse cx="298" cy="87.6094" fill="#E2E2F0" rx="12" ry="12" style="stroke:#181818;stroke-width:0.5;"/><polygon fill="#181818" points="294,75.6094,300,70.6094,298,75.6094,300,80.6094,294,75.6094" style="stroke:#181818;stroke-width:1;"/></g><g class="participant participant-tail" data-participant="MaintCtrl"><text fill="#000000" font-family="sans-serif" font-size="14" lengthAdjust="spacing" textLength="70" x="260" y="336.8613">&#32500;&#25252;&#25511;&#21046;&#22120;</text><ellipse cx="298" cy="355.9375" fill="#E2E2F0" rx="12" ry="12" style="stroke:#181818;stroke-width:0.5;"/><polygon fill="#181818" points="294,343.9375,300,338.9375,298,343.9375,300,348.9375,294,343.9375" style="stroke:#181818;stroke-width:1;"/></g><g class="participant participant-head" data-participant="Archive"><text fill="#000000" font-family="sans-serif" font-size="14" lengthAdjust="spacing" textLength="76.2549" x="397.9106" y="118.1426">DataArchive</text><ellipse cx="439.0381" cy="87.6094" fill="#E2E2F0" rx="12" ry="12" style="stroke:#181818;stroke-width:0.5;"/><line style="stroke:#181818;stroke-width:0.5;" x1="427.0381" x2="451.0381" y1="101.6094" y2="101.6094"/></g><g class="participant participant-tail" data-participant="Archive"><text fill="#000000" font-family="sans-serif" font-size="14" lengthAdjust="spacing" textLength="76.2549" x="397.9106" y="336.8613">DataArchive</text><ellipse cx="439.0381" cy="355.9375" fill="#E2E2F0" rx="12" ry="12" style="stroke:#181818;stroke-width:0.5;"/><line style="stroke:#181818;stroke-width:0.5;" x1="427.0381" x2="451.0381" y1="369.9375" y2="369.9375"/></g><g class="participant participant-head" data-participant="Log"><text fill="#000000" font-family="sans-serif" font-size="14" lengthAdjust="spacing" textLength="70.0547" x="490.1655" y="118.1426">BackupLog</text><ellipse cx="528.1929" cy="87.6094" fill="#E2E2F0" rx="12" ry="12" style="stroke:#181818;stroke-width:0.5;"/><line style="stroke:#181818;stroke-width:0.5;" x1="516.1929" x2="540.1929" y1="101.6094" y2="101.6094"/></g><g class="participant participant-tail" data-participant="Log"><text fill="#000000" font-family="sans-serif" font-size="14" lengthAdjust="spacing" textLength="70.0547" x="490.1655" y="336.8613">BackupLog</text><ellipse cx="528.1929" cy="355.9375" fill="#E2E2F0" rx="12" ry="12" style="stroke:#181818;stroke-width:0.5;"/><line style="stroke:#181818;stroke-width:0.5;" x1="516.1929" x2="540.1929" y1="369.9375" y2="369.9375"/></g><g class="message" data-participant-1="Admin" data-participant-2="BackupPage"><polygon fill="#181818" points="119,149.5703,129,153.5703,119,157.5703,123,153.5703" style="stroke:#181818;stroke-width:1;"/><line style="stroke:#181818;stroke-width:1;" x1="29" x2="125" y1="153.5703" y2="153.5703"/><text fill="#000000" font-family="sans-serif" font-size="13" lengthAdjust="spacing" textLength="78" x="36" y="148.7139">&#35302;&#21457;&#25163;&#21160;&#22791;&#20221;</text></g><g class="message" data-participant-1="BackupPage" data-participant-2="MaintCtrl"><polygon fill="#181818" points="286,179.9219,296,183.9219,286,187.9219,290,183.9219" style="stroke:#181818;stroke-width:1;"/><line style="stroke:#181818;stroke-width:1;" x1="131" x2="292" y1="183.9219" y2="183.9219"/><text fill="#000000" font-family="sans-serif" font-size="13" lengthAdjust="spacing" textLength="89.5972" x="138" y="179.0654">initiateBackup()</text></g><g class="message" data-participant-1="MaintCtrl" data-participant-2="Archive"><polygon fill="#181818" points="427.0381,210.2734,437.0381,214.2734,427.0381,218.2734,431.0381,214.2734" style="stroke:#181818;stroke-width:1;"/><line style="stroke:#181818;stroke-width:1;" x1="298" x2="433.0381" y1="214.2734" y2="214.2734"/><text fill="#000000" font-family="sans-serif" font-size="13" lengthAdjust="spacing" textLength="117.0381" x="305" y="209.417">performHotBackup()</text></g><g class="message" data-participant-1="Archive" data-participant-2="MaintCtrl"><polygon fill="#181818" points="309,240.625,299,244.625,309,248.625,305,244.625" style="stroke:#181818;stroke-width:1;"/><line style="stroke:#181818;stroke-width:1;stroke-dasharray:2,2;" x1="303" x2="438.0381" y1="244.625" y2="244.625"/><text fill="#000000" font-family="sans-serif" font-size="13" lengthAdjust="spacing" textLength="83.0972" x="315" y="239.7686">backupFileRef</text></g><g class="message" data-participant-1="MaintCtrl" data-participant-2="Log"><polygon fill="#181818" points="516.1929,270.9766,526.1929,274.9766,516.1929,278.9766,520.1929,274.9766" style="stroke:#181818;stroke-width:1;"/><line style="stroke:#181818;stroke-width:1;" x1="298" x2="522.1929" y1="274.9766" y2="274.9766"/><text fill="#000000" font-family="sans-serif" font-size="13" lengthAdjust="spacing" textLength="90.3018" x="305" y="270.1201">createEntry(ref)</text></g><g class="message" data-participant-1="MaintCtrl" data-participant-2="BackupPage"><polygon fill="#181818" points="142,301.3281,132,305.3281,142,309.3281,138,305.3281" style="stroke:#181818;stroke-width:1;"/><line style="stroke:#181818;stroke-width:1;stroke-dasharray:2,2;" x1="136" x2="297" y1="305.3281" y2="305.3281"/><text fill="#000000" font-family="sans-serif" font-size="13" lengthAdjust="spacing" textLength="143" x="148" y="300.4717">&#22791;&#20221;&#25104;&#21151;&#21450;&#25991;&#20214;&#19979;&#36733;&#38142;&#25509;</text></g><!--SRC=[NP31IW917CRlynJ3dkom5uyU0hEYGq44FS2upjhGkYFJ6FW2PIkvIXH5X6neUfAWad1PdyQPTT-YOQSszVIVFz-Fx_l-mmbtC3mjvVC5A0RNYp2AFy8uxClxTtaxWIPCWfcO-U9v3W2oE6NGY2T1tBqIlKS3eWjOhDI82ygquLOGQq93con7RyBl9S5NylAQOZl8Ec_KZr4L0ukwd5576OMVqXl8paYqfk9fd797YBYyn9a3iCi9LuQxYACYiyx89TQ1-ftfslcGLbDLJG3IJj3SNac51QWxoPksyCQw9LZH5PrbAvYuX1F4iIPoM-1VLEHl1yNLCRCfgnrGdf5_ehbXMKw1VUBW4sol-wdM2h0OLebxwdUQEORjjSpDO_G1ijKLNb_uddnGwtJntLv6KN8tbvtX3m00]--></g></svg>