<svg xmlns="http://www.w3.org/2000/svg" xmlns:xlink="http://www.w3.org/1999/xlink" contentStyleType="text/css" data-diagram-type="CLASS" height="472px" preserveAspectRatio="none" style="width:316px;height:472px;background:#FFFFFF;" version="1.1" viewBox="0 0 316 472" width="316px" zoomAndPan="magnify"><title>UC22: &#22791;&#20221;&#31995;&#32479;&#25968;&#25454; - &#21442;&#19982;&#31867;&#22270; (VOPC)</title><defs/><g><g class="title" data-source-line="1"><text fill="#000000" font-family="sans-serif" font-size="14" font-weight="bold" lengthAdjust="spacing" textLength="254.0508" x="24.2417" y="24.5332">UC22: &#22791;&#20221;&#31995;&#32479;&#25968;&#25454; - &#21442;&#19982;&#31867;&#22270; (VOPC)</text></g><!--class BackupTriggerPage--><g class="entity" data-entity="BackupTriggerPage" data-source-line="3" data-uid="ent0002" id="entity_BackupTriggerPage"><rect fill="#F1F1F1" height="76.3125" rx="2.5" ry="2.5" style="stroke:#181818;stroke-width:0.5;" width="155.7373" x="67" y="45.6094"/><ellipse cx="82" cy="66.9609" fill="#ADD1B2" rx="11" ry="11" style="stroke:#181818;stroke-width:1;"/><path d="M84.7656,62.8359 Q84.9219,62.6172 85.1094,62.5078 Q85.2969,62.3984 85.5156,62.3984 Q85.8906,62.3984 86.125,62.6641 Q86.3594,62.9141 86.3594,63.5234 L86.3594,64.9766 Q86.3594,65.5859 86.125,65.8516 Q85.8906,66.1172 85.5156,66.1172 Q85.1719,66.1172 84.9688,65.9141 Q84.7656,65.7266 84.6563,65.2109 Q84.6094,64.8516 84.4219,64.6641 Q84.0938,64.2891 83.4844,64.0703 Q82.875,63.8516 82.25,63.8516 Q81.4844,63.8516 80.8438,64.1797 Q80.2188,64.5078 79.7188,65.2578 Q79.2344,66.0078 79.2344,67.0391 L79.2344,68.1328 Q79.2344,69.3672 80.125,70.1953 Q81.0156,71.0078 82.6094,71.0078 Q83.5469,71.0078 84.2031,70.7578 Q84.5938,70.6016 85.0156,70.1641 Q85.2813,69.8984 85.4219,69.8203 Q85.5781,69.7422 85.7813,69.7422 Q86.1094,69.7422 86.3594,70.0078 Q86.625,70.2578 86.625,70.6016 Q86.625,70.9453 86.2813,71.3516 Q85.7813,71.9297 84.9844,72.2578 Q83.9063,72.7109 82.6094,72.7109 Q81.0938,72.7109 79.8906,72.0859 Q78.9063,71.5859 78.2188,70.5234 Q77.5313,69.4453 77.5313,68.1641 L77.5313,67.0078 Q77.5313,65.6797 78.1406,64.5391 Q78.7656,63.3828 79.8594,62.7734 Q80.9531,62.1484 82.1875,62.1484 Q82.9219,62.1484 83.5625,62.3203 Q84.2188,62.4766 84.7656,62.8359 Z " fill="#000000"/><text fill="#000000" font-family="sans-serif" font-size="12" font-style="italic" lengthAdjust="spacing" textLength="63.3867" x="126.1753" y="63.0664">&#171;boundary&#187;</text><text fill="#000000" font-family="sans-serif" font-size="14" lengthAdjust="spacing" textLength="123.7373" x="96" y="80.2363">BackupTriggerPage</text><line style="stroke:#181818;stroke-width:0.5;" x1="68" x2="221.7373" y1="88.3125" y2="88.3125"/><line style="stroke:#181818;stroke-width:0.5;" x1="68" x2="221.7373" y1="96.3125" y2="96.3125"/><ellipse cx="78" cy="110.6172" fill="#84BE84" rx="3" ry="3" style="stroke:#038048;stroke-width:1;"/><text fill="#000000" font-family="sans-serif" font-size="14" lengthAdjust="spacing" textLength="81.6963" x="87" y="114.8457">showStatus()</text></g><!--class MaintenanceController--><g class="entity" data-entity="MaintenanceController" data-source-line="7" data-uid="ent0003" id="entity_MaintenanceController"><rect fill="#F1F1F1" height="76.3125" rx="2.5" ry="2.5" style="stroke:#181818;stroke-width:0.5;" width="172.8545" x="58.5" y="199.6094"/><ellipse cx="73.5" cy="220.9609" fill="#ADD1B2" rx="11" ry="11" style="stroke:#181818;stroke-width:1;"/><path d="M76.2656,216.8359 Q76.4219,216.6172 76.6094,216.5078 Q76.7969,216.3984 77.0156,216.3984 Q77.3906,216.3984 77.625,216.6641 Q77.8594,216.9141 77.8594,217.5234 L77.8594,218.9766 Q77.8594,219.5859 77.625,219.8516 Q77.3906,220.1172 77.0156,220.1172 Q76.6719,220.1172 76.4688,219.9141 Q76.2656,219.7266 76.1563,219.2109 Q76.1094,218.8516 75.9219,218.6641 Q75.5938,218.2891 74.9844,218.0703 Q74.375,217.8516 73.75,217.8516 Q72.9844,217.8516 72.3438,218.1797 Q71.7188,218.5078 71.2188,219.2578 Q70.7344,220.0078 70.7344,221.0391 L70.7344,222.1328 Q70.7344,223.3672 71.625,224.1953 Q72.5156,225.0078 74.1094,225.0078 Q75.0469,225.0078 75.7031,224.7578 Q76.0938,224.6016 76.5156,224.1641 Q76.7813,223.8984 76.9219,223.8203 Q77.0781,223.7422 77.2813,223.7422 Q77.6094,223.7422 77.8594,224.0078 Q78.125,224.2578 78.125,224.6016 Q78.125,224.9453 77.7813,225.3516 Q77.2813,225.9297 76.4844,226.2578 Q75.4063,226.7109 74.1094,226.7109 Q72.5938,226.7109 71.3906,226.0859 Q70.4063,225.5859 69.7188,224.5234 Q69.0313,223.4453 69.0313,222.1641 L69.0313,221.0078 Q69.0313,219.6797 69.6406,218.5391 Q70.2656,217.3828 71.3594,216.7734 Q72.4531,216.1484 73.6875,216.1484 Q74.4219,216.1484 75.0625,216.3203 Q75.7188,216.4766 76.2656,216.8359 Z " fill="#000000"/><text fill="#000000" font-family="sans-serif" font-size="12" font-style="italic" lengthAdjust="spacing" textLength="49.3652" x="133.2446" y="217.0664">&#171;control&#187;</text><text fill="#000000" font-family="sans-serif" font-size="14" lengthAdjust="spacing" textLength="140.8545" x="87.5" y="234.2363">MaintenanceController</text><line style="stroke:#181818;stroke-width:0.5;" x1="59.5" x2="230.3545" y1="242.3125" y2="242.3125"/><line style="stroke:#181818;stroke-width:0.5;" x1="59.5" x2="230.3545" y1="250.3125" y2="250.3125"/><ellipse cx="69.5" cy="264.6172" fill="#84BE84" rx="3" ry="3" style="stroke:#038048;stroke-width:1;"/><text fill="#000000" font-family="sans-serif" font-size="14" lengthAdjust="spacing" textLength="96.4893" x="78.5" y="268.8457">initiateBackup()</text></g><!--class DataArchive--><g class="entity" data-entity="DataArchive" data-source-line="11" data-uid="ent0004" id="entity_DataArchive"><rect fill="#F1F1F1" height="76.3125" rx="2.5" ry="2.5" style="stroke:#181818;stroke-width:0.5;" width="108.2549" x="7" y="371.6094"/><ellipse cx="22" cy="392.9609" fill="#ADD1B2" rx="11" ry="11" style="stroke:#181818;stroke-width:1;"/><path d="M24.7656,388.8359 Q24.9219,388.6172 25.1094,388.5078 Q25.2969,388.3984 25.5156,388.3984 Q25.8906,388.3984 26.125,388.6641 Q26.3594,388.9141 26.3594,389.5234 L26.3594,390.9766 Q26.3594,391.5859 26.125,391.8516 Q25.8906,392.1172 25.5156,392.1172 Q25.1719,392.1172 24.9688,391.9141 Q24.7656,391.7266 24.6563,391.2109 Q24.6094,390.8516 24.4219,390.6641 Q24.0938,390.2891 23.4844,390.0703 Q22.875,389.8516 22.25,389.8516 Q21.4844,389.8516 20.8438,390.1797 Q20.2188,390.5078 19.7188,391.2578 Q19.2344,392.0078 19.2344,393.0391 L19.2344,394.1328 Q19.2344,395.3672 20.125,396.1953 Q21.0156,397.0078 22.6094,397.0078 Q23.5469,397.0078 24.2031,396.7578 Q24.5938,396.6016 25.0156,396.1641 Q25.2813,395.8984 25.4219,395.8203 Q25.5781,395.7422 25.7813,395.7422 Q26.1094,395.7422 26.3594,396.0078 Q26.625,396.2578 26.625,396.6016 Q26.625,396.9453 26.2813,397.3516 Q25.7813,397.9297 24.9844,398.2578 Q23.9063,398.7109 22.6094,398.7109 Q21.0938,398.7109 19.8906,398.0859 Q18.9063,397.5859 18.2188,396.5234 Q17.5313,395.4453 17.5313,394.1641 L17.5313,393.0078 Q17.5313,391.6797 18.1406,390.5391 Q18.7656,389.3828 19.8594,388.7734 Q20.9531,388.1484 22.1875,388.1484 Q22.9219,388.1484 23.5625,388.3203 Q24.2188,388.4766 24.7656,388.8359 Z " fill="#000000"/><text fill="#000000" font-family="sans-serif" font-size="12" font-style="italic" lengthAdjust="spacing" textLength="42.0293" x="53.1128" y="389.0664">&#171;entity&#187;</text><text fill="#000000" font-family="sans-serif" font-size="14" lengthAdjust="spacing" textLength="76.2549" x="36" y="406.2363">DataArchive</text><line style="stroke:#181818;stroke-width:0.5;" x1="8" x2="114.2549" y1="414.3125" y2="414.3125"/><line style="stroke:#181818;stroke-width:0.5;" x1="8" x2="114.2549" y1="422.3125" y2="422.3125"/><ellipse cx="18" cy="436.6172" fill="#84BE84" rx="3" ry="3" style="stroke:#038048;stroke-width:1;"/><text fill="#000000" font-family="sans-serif" font-size="14" lengthAdjust="spacing" textLength="54.4688" x="27" y="440.8457">backup()</text></g><!--class BackupLog--><g class="entity" data-entity="BackupLog" data-source-line="15" data-uid="ent0005" id="entity_BackupLog"><rect fill="#F1F1F1" height="111.5313" rx="2.5" ry="2.5" style="stroke:#181818;stroke-width:0.5;" width="159.0342" x="150.5" y="353.6094"/><ellipse cx="191.1408" cy="374.9609" fill="#ADD1B2" rx="11" ry="11" style="stroke:#181818;stroke-width:1;"/><path d="M193.9064,370.8359 Q194.0626,370.6172 194.2501,370.5078 Q194.4376,370.3984 194.6564,370.3984 Q195.0314,370.3984 195.2658,370.6641 Q195.5001,370.9141 195.5001,371.5234 L195.5001,372.9766 Q195.5001,373.5859 195.2658,373.8516 Q195.0314,374.1172 194.6564,374.1172 Q194.3126,374.1172 194.1095,373.9141 Q193.9064,373.7266 193.797,373.2109 Q193.7501,372.8516 193.5626,372.6641 Q193.2345,372.2891 192.6251,372.0703 Q192.0158,371.8516 191.3908,371.8516 Q190.6251,371.8516 189.9845,372.1797 Q189.3595,372.5078 188.8595,373.2578 Q188.3751,374.0078 188.3751,375.0391 L188.3751,376.1328 Q188.3751,377.3672 189.2658,378.1953 Q190.1564,379.0078 191.7501,379.0078 Q192.6876,379.0078 193.3439,378.7578 Q193.7345,378.6016 194.1564,378.1641 Q194.422,377.8984 194.5626,377.8203 Q194.7189,377.7422 194.922,377.7422 Q195.2501,377.7422 195.5001,378.0078 Q195.7658,378.2578 195.7658,378.6016 Q195.7658,378.9453 195.422,379.3516 Q194.922,379.9297 194.1251,380.2578 Q193.047,380.7109 191.7501,380.7109 Q190.2345,380.7109 189.0314,380.0859 Q188.047,379.5859 187.3595,378.5234 Q186.672,377.4453 186.672,376.1641 L186.672,375.0078 Q186.672,373.6797 187.2814,372.5391 Q187.9064,371.3828 189.0001,370.7734 Q190.0939,370.1484 191.3283,370.1484 Q192.0626,370.1484 192.7033,370.3203 Q193.3595,370.4766 193.9064,370.8359 Z " fill="#000000"/><text fill="#000000" font-family="sans-serif" font-size="12" font-style="italic" lengthAdjust="spacing" textLength="42.0293" x="224.8514" y="371.0664">&#171;entity&#187;</text><text fill="#000000" font-family="sans-serif" font-size="14" lengthAdjust="spacing" textLength="70.0547" x="210.8387" y="388.2363">BackupLog</text><line style="stroke:#181818;stroke-width:0.5;" x1="151.5" x2="308.5342" y1="396.3125" y2="396.3125"/><rect fill="none" height="6" style="stroke:#C82930;stroke-width:1;" width="6" x="158.5" y="407.6172"/><text fill="#000000" font-family="sans-serif" font-size="14" lengthAdjust="spacing" textLength="133.0342" x="170.5" y="414.8457">timestamp: DateTime</text><rect fill="none" height="6" style="stroke:#C82930;stroke-width:1;" width="6" x="158.5" y="425.2266"/><text fill="#000000" font-family="sans-serif" font-size="14" lengthAdjust="spacing" textLength="99.5928" x="170.5" y="432.4551">fileName: String</text><line style="stroke:#181818;stroke-width:0.5;" x1="151.5" x2="308.5342" y1="439.5313" y2="439.5313"/><ellipse cx="161.5" cy="453.8359" fill="#84BE84" rx="3" ry="3" style="stroke:#038048;stroke-width:1;"/><text fill="#000000" font-family="sans-serif" font-size="14" lengthAdjust="spacing" textLength="28.0068" x="170.5" y="458.0645">log()</text></g><!--link BackupTriggerPage to MaintenanceController--><g class="link" data-entity-1="BackupTriggerPage" data-entity-2="MaintenanceController" data-source-line="21" data-uid="lnk6" id="link_BackupTriggerPage_MaintenanceController"><path codeLine="21" d="M145,121.7894 C145,145.4394 145,169.9294 145,193.5494" fill="none" id="BackupTriggerPage-to-MaintenanceController" style="stroke:#181818;stroke-width:1;stroke-dasharray:7,7;"/><polygon fill="#181818" points="145,199.5494,149,190.5494,145,194.5494,141,190.5494,145,199.5494" style="stroke:#181818;stroke-width:1;"/><text fill="#000000" font-family="sans-serif" font-size="13" lengthAdjust="spacing" textLength="27.46" x="146" y="166.1045">uses</text></g><!--link MaintenanceController to DataArchive--><g class="link" data-entity-1="MaintenanceController" data-entity-2="DataArchive" data-source-line="22" data-uid="lnk7" id="link_MaintenanceController_DataArchive"><path codeLine="22" d="M126.57,275.9194 C112.56,304.2594 96.0489,337.6907 82.0489,366.0107" fill="none" id="MaintenanceController-to-DataArchive" style="stroke:#181818;stroke-width:1;stroke-dasharray:7,7;"/><polygon fill="#181818" points="79.39,371.3894,86.9642,365.094,81.6058,366.9072,79.7926,361.5488,79.39,371.3894" style="stroke:#181818;stroke-width:1;"/><text fill="#000000" font-family="sans-serif" font-size="13" lengthAdjust="spacing" textLength="52.0317" x="112" y="320.1045">executes</text></g><!--link MaintenanceController to BackupLog--><g class="link" data-entity-1="MaintenanceController" data-entity-2="BackupLog" data-source-line="23" data-uid="lnk8" id="link_MaintenanceController_BackupLog"><path codeLine="23" d="M163.65,275.9194 C174.99,298.5894 186.9976,322.5924 199.6676,347.9424" fill="none" id="MaintenanceController-to-BackupLog" style="stroke:#181818;stroke-width:1;stroke-dasharray:7,7;"/><polygon fill="#181818" points="202.35,353.3094,201.9043,343.4706,200.1146,348.8369,194.7484,347.0472,202.35,353.3094" style="stroke:#181818;stroke-width:1;"/><text fill="#000000" font-family="sans-serif" font-size="13" lengthAdjust="spacing" textLength="42.6309" x="188" y="320.1045">creates</text></g><!--SRC=[VP0zJyCm48Rt_8eRMw5sw6XLaI2CV5HgOR-QmxLmdCg-y274mi84J4mCBCm8n88KbL_JD7-3H2aYKW1lf_Fpl7xDcWt1GJGO2CYVRvRPedZFYknfzV2wkds17kJtrykFk-8jony_eNEuFugwGI0DUWzRA4_I-SHffSYDK14CXzCajKVeBi8GBWCepmRuMN8sPkJKTxh1rJUyYzeoMRIIeiIoIumXLmfaFJHuRJLhPAhZcevjPDnqSgPFgsYohBaPF6q1jM8dKUthFM0TasUCvw8IqwGSrvjZRMWFOn8mPgUjMljDecfv-oFw_V2FXW9IJpxuVLbXpL82w9naoly2FwK4I4Vbq_qN]--></g></svg>