<svg xmlns="http://www.w3.org/2000/svg" xmlns:xlink="http://www.w3.org/1999/xlink" contentStyleType="text/css" data-diagram-type="SEQUENCE" height="435px" preserveAspectRatio="none" style="width:648px;height:435px;background:#FFFFFF;" version="1.1" viewBox="0 0 648 435" width="648px" zoomAndPan="magnify"><title>UC23: &#21516;&#27493;&#35838;&#31243;&#20449;&#24687; - &#39034;&#24207;&#22270;</title><defs/><g><text fill="#000000" font-family="sans-serif" font-size="14" font-weight="bold" lengthAdjust="spacing" textLength="186.7236" x="232.2805" y="29.5332">UC23: &#21516;&#27493;&#35838;&#31243;&#20449;&#24687; - &#39034;&#24207;&#22270;</text><g><title>....</title><rect fill="#000000" fill-opacity="0.00000" height="232.4609" width="8" x="32" y="121.2188"/><line style="stroke:#181818;stroke-width:0.5;stroke-dasharray:5,5;" x1="36" x2="36" y1="121.2188" y2="353.6797"/></g><g><title>..API...</title><rect fill="#000000" fill-opacity="0.00000" height="232.4609" width="8" x="176.6118" y="121.2188"/><line style="stroke:#181818;stroke-width:0.5;stroke-dasharray:5,5;" x1="180.3291" x2="180.3291" y1="121.2188" y2="353.6797"/></g><g><title>.....</title><rect fill="#000000" fill-opacity="0.00000" height="232.4609" width="8" x="374.0552" y="121.2188"/><line style="stroke:#181818;stroke-width:0.5;stroke-dasharray:5,5;" x1="378.0552" x2="378.0552" y1="121.2188" y2="353.6797"/></g><g><title>SyncRequest</title><rect fill="#000000" fill-opacity="0.00000" height="232.4609" width="8" x="537.5195" y="121.2188"/><line style="stroke:#181818;stroke-width:0.5;stroke-dasharray:5,5;" x1="540.8853" x2="540.8853" y1="121.2188" y2="353.6797"/></g><g><title>Course</title><rect fill="#000000" fill-opacity="0.00000" height="232.4609" width="8" x="617.7192" y="121.2188"/><line style="stroke:#181818;stroke-width:0.5;stroke-dasharray:5,5;" x1="621.1538" x2="621.1538" y1="121.2188" y2="353.6797"/></g><g class="participant participant-head" data-participant="ExternalSystem"><text fill="#000000" font-family="sans-serif" font-size="14" lengthAdjust="spacing" textLength="56" x="5" y="118.1426">&#22806;&#37096;&#31995;&#32479;</text><ellipse cx="36" cy="52.1094" fill="#E2E2F0" rx="8" ry="8" style="stroke:#181818;stroke-width:0.5;"/><path d="M36,60.1094 L36,87.1094 M23,68.1094 L49,68.1094 M36,87.1094 L23,102.1094 M36,87.1094 L49,102.1094" fill="none" style="stroke:#181818;stroke-width:0.5;"/></g><g class="participant participant-tail" data-participant="ExternalSystem"><text fill="#000000" font-family="sans-serif" font-size="14" lengthAdjust="spacing" textLength="56" x="5" y="367.2129">&#22806;&#37096;&#31995;&#32479;</text><ellipse cx="36" cy="378.7891" fill="#E2E2F0" rx="8" ry="8" style="stroke:#181818;stroke-width:0.5;"/><path d="M36,386.7891 L36,413.7891 M23,394.7891 L49,394.7891 M36,413.7891 L23,428.7891 M36,413.7891 L49,428.7891" fill="none" style="stroke:#181818;stroke-width:0.5;"/></g><g class="participant participant-head" data-participant="Connector"><text fill="#000000" font-family="sans-serif" font-size="14" lengthAdjust="spacing" textLength="92.5654" x="131.3291" y="118.1426">&#22806;&#37096;API&#36830;&#25509;&#22120;</text><path d="M160.1118,75.6094 L160.1118,99.6094 M160.1118,87.6094 L177.1118,87.6094" fill="none" style="stroke:#181818;stroke-width:0.5;"/><ellipse cx="189.1118" cy="87.6094" fill="#E2E2F0" rx="12" ry="12" style="stroke:#181818;stroke-width:0.5;"/></g><g class="participant participant-tail" data-participant="Connector"><text fill="#000000" font-family="sans-serif" font-size="14" lengthAdjust="spacing" textLength="92.5654" x="131.3291" y="367.2129">&#22806;&#37096;API&#36830;&#25509;&#22120;</text><path d="M160.1118,374.2891 L160.1118,398.2891 M160.1118,386.2891 L177.1118,386.2891" fill="none" style="stroke:#181818;stroke-width:0.5;"/><ellipse cx="189.1118" cy="386.2891" fill="#E2E2F0" rx="12" ry="12" style="stroke:#181818;stroke-width:0.5;"/></g><g class="participant participant-head" data-participant="IntegCtrl"><text fill="#000000" font-family="sans-serif" font-size="14" lengthAdjust="spacing" textLength="70" x="340.0552" y="118.1426">&#38598;&#25104;&#25511;&#21046;&#22120;</text><ellipse cx="378.0552" cy="87.6094" fill="#E2E2F0" rx="12" ry="12" style="stroke:#181818;stroke-width:0.5;"/><polygon fill="#181818" points="374.0552,75.6094,380.0552,70.6094,378.0552,75.6094,380.0552,80.6094,374.0552,75.6094" style="stroke:#181818;stroke-width:1;"/></g><g class="participant participant-tail" data-participant="IntegCtrl"><text fill="#000000" font-family="sans-serif" font-size="14" lengthAdjust="spacing" textLength="70" x="340.0552" y="367.2129">&#38598;&#25104;&#25511;&#21046;&#22120;</text><ellipse cx="378.0552" cy="386.2891" fill="#E2E2F0" rx="12" ry="12" style="stroke:#181818;stroke-width:0.5;"/><polygon fill="#181818" points="374.0552,374.2891,380.0552,369.2891,378.0552,374.2891,380.0552,379.2891,374.0552,374.2891" style="stroke:#181818;stroke-width:1;"/></g><g class="participant participant-head" data-participant="SyncReq"><text fill="#000000" font-family="sans-serif" font-size="14" lengthAdjust="spacing" textLength="83.2686" x="496.8853" y="118.1426">SyncRequest</text><ellipse cx="541.5195" cy="87.6094" fill="#E2E2F0" rx="12" ry="12" style="stroke:#181818;stroke-width:0.5;"/><line style="stroke:#181818;stroke-width:0.5;" x1="529.5195" x2="553.5195" y1="101.6094" y2="101.6094"/></g><g class="participant participant-tail" data-participant="SyncReq"><text fill="#000000" font-family="sans-serif" font-size="14" lengthAdjust="spacing" textLength="83.2686" x="496.8853" y="367.2129">SyncRequest</text><ellipse cx="541.5195" cy="386.2891" fill="#E2E2F0" rx="12" ry="12" style="stroke:#181818;stroke-width:0.5;"/><line style="stroke:#181818;stroke-width:0.5;" x1="529.5195" x2="553.5195" y1="400.2891" y2="400.2891"/></g><g class="participant participant-head" data-participant="Course"><text fill="#000000" font-family="sans-serif" font-size="14" lengthAdjust="spacing" textLength="45.1309" x="596.1538" y="118.1426">Course</text><ellipse cx="621.7192" cy="87.6094" fill="#E2E2F0" rx="12" ry="12" style="stroke:#181818;stroke-width:0.5;"/><line style="stroke:#181818;stroke-width:0.5;" x1="609.7192" x2="633.7192" y1="101.6094" y2="101.6094"/></g><g class="participant participant-tail" data-participant="Course"><text fill="#000000" font-family="sans-serif" font-size="14" lengthAdjust="spacing" textLength="45.1309" x="596.1538" y="367.2129">Course</text><ellipse cx="621.7192" cy="386.2891" fill="#E2E2F0" rx="12" ry="12" style="stroke:#181818;stroke-width:0.5;"/><line style="stroke:#181818;stroke-width:0.5;" x1="609.7192" x2="633.7192" y1="400.2891" y2="400.2891"/></g><g class="message" data-participant-1="ExternalSystem" data-participant-2="Connector"><polygon fill="#181818" points="168.6118,149.5703,178.6118,153.5703,168.6118,157.5703,172.6118,153.5703" style="stroke:#181818;stroke-width:1;"/><line style="stroke:#181818;stroke-width:1;" x1="36" x2="174.6118" y1="153.5703" y2="153.5703"/><text fill="#000000" font-family="sans-serif" font-size="13" lengthAdjust="spacing" textLength="120.6118" x="43" y="148.7139">&#21457;&#36865;&#21464;&#26356;&#36890;&#30693;/&#25968;&#25454;&#21253;</text></g><g class="message" data-participant-1="Connector" data-participant-2="IntegCtrl"><polygon fill="#181818" points="366.0552,179.9219,376.0552,183.9219,366.0552,187.9219,370.0552,183.9219" style="stroke:#181818;stroke-width:1;"/><line style="stroke:#181818;stroke-width:1;" x1="180.6118" x2="372.0552" y1="183.9219" y2="183.9219"/><text fill="#000000" font-family="sans-serif" font-size="13" lengthAdjust="spacing" textLength="173.4434" x="187.6118" y="179.0654">handleIncomingData(payload)</text></g><g class="message" data-participant-1="IntegCtrl" data-participant-2="SyncReq"><polygon fill="#181818" points="529.5195,210.2734,539.5195,214.2734,529.5195,218.2734,533.5195,214.2734" style="stroke:#181818;stroke-width:1;"/><line style="stroke:#181818;stroke-width:1;" x1="378.0552" x2="535.5195" y1="214.2734" y2="214.2734"/><text fill="#000000" font-family="sans-serif" font-size="13" lengthAdjust="spacing" textLength="139.4644" x="385.0552" y="209.417">recordRequest(payload)</text></g><g class="message" data-participant-1="IntegCtrl" data-participant-2="Course"><polygon fill="#181818" points="609.7192,240.625,619.7192,244.625,609.7192,248.625,613.7192,244.625" style="stroke:#181818;stroke-width:1;"/><line style="stroke:#181818;stroke-width:1;" x1="378.0552" x2="615.7192" y1="244.625" y2="244.625"/><text fill="#000000" font-family="sans-serif" font-size="13" lengthAdjust="spacing" textLength="113.439" x="385.0552" y="239.7686">findByExternalId(id)</text></g><g class="message" data-participant-1="IntegCtrl" data-participant-2="Course"><polygon fill="#181818" points="609.7192,270.9766,619.7192,274.9766,609.7192,278.9766,613.7192,274.9766" style="stroke:#181818;stroke-width:1;"/><line style="stroke:#181818;stroke-width:1;" x1="378.0552" x2="615.7192" y1="274.9766" y2="274.9766"/><text fill="#000000" font-family="sans-serif" font-size="13" lengthAdjust="spacing" textLength="120.6753" x="385.0552" y="270.1201">updateOrInsert(data)</text></g><g class="message" data-participant-1="IntegCtrl" data-participant-2="Connector"><polygon fill="#181818" points="191.6118,301.3281,181.6118,305.3281,191.6118,309.3281,187.6118,305.3281" style="stroke:#181818;stroke-width:1;"/><line style="stroke:#181818;stroke-width:1;stroke-dasharray:2,2;" x1="185.6118" x2="377.0552" y1="305.3281" y2="305.3281"/><text fill="#000000" font-family="sans-serif" font-size="13" lengthAdjust="spacing" textLength="81.6372" x="197.6118" y="300.4717">HTTP 200 OK</text></g><g class="message" data-participant-1="Connector" data-participant-2="ExternalSystem"><polygon fill="#181818" points="47,331.6797,37,335.6797,47,339.6797,43,335.6797" style="stroke:#181818;stroke-width:1;"/><line style="stroke:#181818;stroke-width:1;" x1="41" x2="179.6118" y1="335.6797" y2="335.6797"/><text fill="#000000" font-family="sans-serif" font-size="13" lengthAdjust="spacing" textLength="52" x="53" y="330.8232">&#21516;&#27493;&#23436;&#25104;</text></g><!--SRC=[TP91Im9168Rlyoi6JtQGn6uTWjg2bWvAsW-OTYTRM6TiTXRQcnA5aAaTYaf8X2GlQL1qKD0_qyow_wBHTXK5R_Cnp_jzx_lDS8lR69vegQrjA1fL-T6Pz4T-z_Ptt9RbFap0e3qGWxfeZW101gSCniJROt3LzR-6_h0LWyY11vSSCuBihETmN02dr2KcObv4xcRqoVXLrZhYkJlZDKe8dlO21YMSKHl6WkQDh3HaxLrKVY9C9npdDSviW0ctkEgNzOXnZ2zSxF0P4TRpUuswpC7XZEaHW6LlCB6pc0vLulfzK2gB-fDiVWUb5x_LsPGFd_Ak9whNO04grToCKfqZOjfO9mOjM2I_ZpYA5v5dKsHkW0MdHA4_9M7OeCmClQ-X_oqh-CmYvfuNETVDkBKMTOicuZZDTE9WnkEgG4leIjx3N2u3KyaaJ1yjnrjPK_GNHA-gdkKF]--></g></svg>