<svg xmlns="http://www.w3.org/2000/svg" xmlns:xlink="http://www.w3.org/1999/xlink" contentStyleType="text/css" data-diagram-type="CLASS" height="490px" preserveAspectRatio="none" style="width:367px;height:490px;background:#FFFFFF;" version="1.1" viewBox="0 0 367 490" width="367px" zoomAndPan="magnify"><title>UC23: &#21516;&#27493;&#35838;&#31243;&#20449;&#24687; - &#21442;&#19982;&#31867;&#22270; (VOPC)</title><defs/><g><g class="title" data-source-line="1"><text fill="#000000" font-family="sans-serif" font-size="14" font-weight="bold" lengthAdjust="spacing" textLength="254.0508" x="49.6812" y="24.5332">UC23: &#21516;&#27493;&#35838;&#31243;&#20449;&#24687; - &#21442;&#19982;&#31867;&#22270; (VOPC)</text></g><!--class ExternalAPIConnector--><g class="entity" data-entity="ExternalAPIConnector" data-source-line="3" data-uid="ent0002" id="entity_ExternalAPIConnector"><rect fill="#F1F1F1" height="93.9219" rx="2.5" ry="2.5" style="stroke:#181818;stroke-width:0.5;" width="180.082" x="78.5" y="45.6094"/><ellipse cx="97.8044" cy="66.9609" fill="#ADD1B2" rx="11" ry="11" style="stroke:#181818;stroke-width:1;"/><path d="M100.5701,62.8359 Q100.7263,62.6172 100.9138,62.5078 Q101.1013,62.3984 101.3201,62.3984 Q101.6951,62.3984 101.9294,62.6641 Q102.1638,62.9141 102.1638,63.5234 L102.1638,64.9766 Q102.1638,65.5859 101.9294,65.8516 Q101.6951,66.1172 101.3201,66.1172 Q100.9763,66.1172 100.7732,65.9141 Q100.5701,65.7266 100.4607,65.2109 Q100.4138,64.8516 100.2263,64.6641 Q99.8982,64.2891 99.2888,64.0703 Q98.6794,63.8516 98.0544,63.8516 Q97.2888,63.8516 96.6482,64.1797 Q96.0232,64.5078 95.5232,65.2578 Q95.0388,66.0078 95.0388,67.0391 L95.0388,68.1328 Q95.0388,69.3672 95.9294,70.1953 Q96.8201,71.0078 98.4138,71.0078 Q99.3513,71.0078 100.0076,70.7578 Q100.3982,70.6016 100.8201,70.1641 Q101.0857,69.8984 101.2263,69.8203 Q101.3826,69.7422 101.5857,69.7422 Q101.9138,69.7422 102.1638,70.0078 Q102.4294,70.2578 102.4294,70.6016 Q102.4294,70.9453 102.0857,71.3516 Q101.5857,71.9297 100.7888,72.2578 Q99.7107,72.7109 98.4138,72.7109 Q96.8982,72.7109 95.6951,72.0859 Q94.7107,71.5859 94.0232,70.5234 Q93.3357,69.4453 93.3357,68.1641 L93.3357,67.0078 Q93.3357,65.6797 93.9451,64.5391 Q94.5701,63.3828 95.6638,62.7734 Q96.7576,62.1484 97.9919,62.1484 Q98.7263,62.1484 99.3669,62.3203 Q100.0232,62.4766 100.5701,62.8359 Z " fill="#000000"/><text fill="#000000" font-family="sans-serif" font-size="12" font-style="italic" lengthAdjust="spacing" textLength="63.3867" x="150.3259" y="63.0664">&#171;boundary&#187;</text><text fill="#000000" font-family="sans-serif" font-size="14" lengthAdjust="spacing" textLength="138.5166" x="112.761" y="80.2363">ExternalAPIConnector</text><line style="stroke:#181818;stroke-width:0.5;" x1="79.5" x2="257.582" y1="88.3125" y2="88.3125"/><line style="stroke:#181818;stroke-width:0.5;" x1="79.5" x2="257.582" y1="96.3125" y2="96.3125"/><ellipse cx="89.5" cy="110.6172" fill="#84BE84" rx="3" ry="3" style="stroke:#038048;stroke-width:1;"/><text fill="#000000" font-family="sans-serif" font-size="14" lengthAdjust="spacing" textLength="105.0479" x="98.5" y="114.8457">receivePayload()</text><ellipse cx="89.5" cy="128.2266" fill="#84BE84" rx="3" ry="3" style="stroke:#038048;stroke-width:1;"/><text fill="#000000" font-family="sans-serif" font-size="14" lengthAdjust="spacing" textLength="154.082" x="98.5" y="132.4551">sendAcknowledgement()</text></g><!--class IntegrationController--><g class="entity" data-entity="IntegrationController" data-source-line="8" data-uid="ent0003" id="entity_IntegrationController"><rect fill="#F1F1F1" height="76.3125" rx="2.5" ry="2.5" style="stroke:#181818;stroke-width:0.5;" width="158.8477" x="89" y="217.6094"/><ellipse cx="104" cy="238.9609" fill="#ADD1B2" rx="11" ry="11" style="stroke:#181818;stroke-width:1;"/><path d="M106.7656,234.8359 Q106.9219,234.6172 107.1094,234.5078 Q107.2969,234.3984 107.5156,234.3984 Q107.8906,234.3984 108.125,234.6641 Q108.3594,234.9141 108.3594,235.5234 L108.3594,236.9766 Q108.3594,237.5859 108.125,237.8516 Q107.8906,238.1172 107.5156,238.1172 Q107.1719,238.1172 106.9688,237.9141 Q106.7656,237.7266 106.6563,237.2109 Q106.6094,236.8516 106.4219,236.6641 Q106.0938,236.2891 105.4844,236.0703 Q104.875,235.8516 104.25,235.8516 Q103.4844,235.8516 102.8438,236.1797 Q102.2188,236.5078 101.7188,237.2578 Q101.2344,238.0078 101.2344,239.0391 L101.2344,240.1328 Q101.2344,241.3672 102.125,242.1953 Q103.0156,243.0078 104.6094,243.0078 Q105.5469,243.0078 106.2031,242.7578 Q106.5938,242.6016 107.0156,242.1641 Q107.2813,241.8984 107.4219,241.8203 Q107.5781,241.7422 107.7813,241.7422 Q108.1094,241.7422 108.3594,242.0078 Q108.625,242.2578 108.625,242.6016 Q108.625,242.9453 108.2813,243.3516 Q107.7813,243.9297 106.9844,244.2578 Q105.9063,244.7109 104.6094,244.7109 Q103.0938,244.7109 101.8906,244.0859 Q100.9063,243.5859 100.2188,242.5234 Q99.5313,241.4453 99.5313,240.1641 L99.5313,239.0078 Q99.5313,237.6797 100.1406,236.5391 Q100.7656,235.3828 101.8594,234.7734 Q102.9531,234.1484 104.1875,234.1484 Q104.9219,234.1484 105.5625,234.3203 Q106.2188,234.4766 106.7656,234.8359 Z " fill="#000000"/><text fill="#000000" font-family="sans-serif" font-size="12" font-style="italic" lengthAdjust="spacing" textLength="49.3652" x="156.7412" y="235.0664">&#171;control&#187;</text><text fill="#000000" font-family="sans-serif" font-size="14" lengthAdjust="spacing" textLength="126.8477" x="118" y="252.2363">IntegrationController</text><line style="stroke:#181818;stroke-width:0.5;" x1="90" x2="246.8477" y1="260.3125" y2="260.3125"/><line style="stroke:#181818;stroke-width:0.5;" x1="90" x2="246.8477" y1="268.3125" y2="268.3125"/><ellipse cx="100" cy="282.6172" fill="#84BE84" rx="3" ry="3" style="stroke:#038048;stroke-width:1;"/><text fill="#000000" font-family="sans-serif" font-size="14" lengthAdjust="spacing" textLength="116.7168" x="109" y="286.8457">processSync(data)</text></g><!--class SyncRequest--><g class="entity" data-entity="SyncRequest" data-source-line="12" data-uid="ent0004" id="entity_SyncRequest"><rect fill="#F1F1F1" height="111.5313" rx="2.5" ry="2.5" style="stroke:#181818;stroke-width:0.5;" width="128.7236" x="7" y="371.6094"/><ellipse cx="28.0548" cy="392.9609" fill="#ADD1B2" rx="11" ry="11" style="stroke:#181818;stroke-width:1;"/><path d="M30.8204,388.8359 Q30.9767,388.6172 31.1642,388.5078 Q31.3517,388.3984 31.5704,388.3984 Q31.9454,388.3984 32.1798,388.6641 Q32.4142,388.9141 32.4142,389.5234 L32.4142,390.9766 Q32.4142,391.5859 32.1798,391.8516 Q31.9454,392.1172 31.5704,392.1172 Q31.2267,392.1172 31.0235,391.9141 Q30.8204,391.7266 30.711,391.2109 Q30.6642,390.8516 30.4767,390.6641 Q30.1485,390.2891 29.5392,390.0703 Q28.9298,389.8516 28.3048,389.8516 Q27.5392,389.8516 26.8985,390.1797 Q26.2735,390.5078 25.7735,391.2578 Q25.2892,392.0078 25.2892,393.0391 L25.2892,394.1328 Q25.2892,395.3672 26.1798,396.1953 Q27.0704,397.0078 28.6642,397.0078 Q29.6017,397.0078 30.2579,396.7578 Q30.6485,396.6016 31.0704,396.1641 Q31.336,395.8984 31.4767,395.8203 Q31.6329,395.7422 31.836,395.7422 Q32.1642,395.7422 32.4142,396.0078 Q32.6798,396.2578 32.6798,396.6016 Q32.6798,396.9453 32.336,397.3516 Q31.836,397.9297 31.0392,398.2578 Q29.961,398.7109 28.6642,398.7109 Q27.1485,398.7109 25.9454,398.0859 Q24.961,397.5859 24.2735,396.5234 Q23.586,395.4453 23.586,394.1641 L23.586,393.0078 Q23.586,391.6797 24.1954,390.5391 Q24.8204,389.3828 25.9142,388.7734 Q27.0079,388.1484 28.2423,388.1484 Q28.9767,388.1484 29.6173,388.3203 Q30.2735,388.4766 30.8204,388.8359 Z " fill="#000000"/><text fill="#000000" font-family="sans-serif" font-size="12" font-style="italic" lengthAdjust="spacing" textLength="42.0293" x="64.0199" y="389.0664">&#171;entity&#187;</text><text fill="#000000" font-family="sans-serif" font-size="14" lengthAdjust="spacing" textLength="83.2686" x="43.4003" y="406.2363">SyncRequest</text><line style="stroke:#181818;stroke-width:0.5;" x1="8" x2="134.7236" y1="414.3125" y2="414.3125"/><rect fill="none" height="6" style="stroke:#C82930;stroke-width:1;" width="6" x="15" y="425.6172"/><text fill="#000000" font-family="sans-serif" font-size="14" lengthAdjust="spacing" textLength="102.7236" x="27" y="432.8457">requestId: String</text><rect fill="none" height="6" style="stroke:#C82930;stroke-width:1;" width="6" x="15" y="443.2266"/><text fill="#000000" font-family="sans-serif" font-size="14" lengthAdjust="spacing" textLength="96.4824" x="27" y="450.4551">rawData: String</text><line style="stroke:#181818;stroke-width:0.5;" x1="8" x2="134.7236" y1="457.5313" y2="457.5313"/><ellipse cx="18" cy="471.8359" fill="#84BE84" rx="3" ry="3" style="stroke:#038048;stroke-width:1;"/><text fill="#000000" font-family="sans-serif" font-size="14" lengthAdjust="spacing" textLength="38.8965" x="27" y="476.0645">save()</text></g><!--class Course--><g class="entity" data-entity="Course" data-source-line="18" data-uid="ent0005" id="entity_Course"><rect fill="#F1F1F1" height="93.9219" rx="2.5" ry="2.5" style="stroke:#181818;stroke-width:0.5;" width="189.4131" x="171" y="380.6094"/><ellipse cx="238.8911" cy="401.9609" fill="#ADD1B2" rx="11" ry="11" style="stroke:#181818;stroke-width:1;"/><path d="M241.6567,397.8359 Q241.813,397.6172 242.0005,397.5078 Q242.188,397.3984 242.4067,397.3984 Q242.7817,397.3984 243.0161,397.6641 Q243.2505,397.9141 243.2505,398.5234 L243.2505,399.9766 Q243.2505,400.5859 243.0161,400.8516 Q242.7817,401.1172 242.4067,401.1172 Q242.063,401.1172 241.8599,400.9141 Q241.6567,400.7266 241.5474,400.2109 Q241.5005,399.8516 241.313,399.6641 Q240.9849,399.2891 240.3755,399.0703 Q239.7661,398.8516 239.1411,398.8516 Q238.3755,398.8516 237.7349,399.1797 Q237.1099,399.5078 236.6099,400.2578 Q236.1255,401.0078 236.1255,402.0391 L236.1255,403.1328 Q236.1255,404.3672 237.0161,405.1953 Q237.9067,406.0078 239.5005,406.0078 Q240.438,406.0078 241.0942,405.7578 Q241.4849,405.6016 241.9067,405.1641 Q242.1724,404.8984 242.313,404.8203 Q242.4692,404.7422 242.6724,404.7422 Q243.0005,404.7422 243.2505,405.0078 Q243.5161,405.2578 243.5161,405.6016 Q243.5161,405.9453 243.1724,406.3516 Q242.6724,406.9297 241.8755,407.2578 Q240.7974,407.7109 239.5005,407.7109 Q237.9849,407.7109 236.7817,407.0859 Q235.7974,406.5859 235.1099,405.5234 Q234.4224,404.4453 234.4224,403.1641 L234.4224,402.0078 Q234.4224,400.6797 235.0317,399.5391 Q235.6567,398.3828 236.7505,397.7734 Q237.8442,397.1484 239.0786,397.1484 Q239.813,397.1484 240.4536,397.3203 Q241.1099,397.4766 241.6567,397.8359 Z " fill="#000000"/><text fill="#000000" font-family="sans-serif" font-size="12" font-style="italic" lengthAdjust="spacing" textLength="42.0293" x="260.9419" y="398.0664">&#171;entity&#187;</text><text fill="#000000" font-family="sans-serif" font-size="14" lengthAdjust="spacing" textLength="45.1309" x="259.3911" y="415.2363">Course</text><line style="stroke:#181818;stroke-width:0.5;" x1="172" x2="359.4131" y1="423.3125" y2="423.3125"/><rect fill="none" height="6" style="stroke:#C82930;stroke-width:1;" width="6" x="179" y="434.6172"/><text fill="#000000" font-family="sans-serif" font-size="14" lengthAdjust="spacing" textLength="105.834" x="191" y="441.8457">externalId: String</text><line style="stroke:#181818;stroke-width:0.5;" x1="172" x2="359.4131" y1="448.9219" y2="448.9219"/><ellipse cx="182" cy="463.2266" fill="#84BE84" rx="3" ry="3" style="stroke:#038048;stroke-width:1;"/><text fill="#000000" font-family="sans-serif" font-size="14" lengthAdjust="spacing" textLength="163.4131" x="191" y="467.4551">updateFromExternal(data)</text></g><!--link ExternalAPIConnector to IntegrationController--><g class="link" data-entity-1="ExternalAPIConnector" data-entity-2="IntegrationController" data-source-line="23" data-uid="lnk6" id="link_ExternalAPIConnector_IntegrationController"><path codeLine="23" d="M168.5,139.7494 C168.5,164.3694 168.5,188.2694 168.5,211.3994" fill="none" id="ExternalAPIConnector-to-IntegrationController" style="stroke:#181818;stroke-width:1;stroke-dasharray:7,7;"/><polygon fill="#181818" points="168.5,217.3994,172.5,208.3994,168.5,212.3994,164.5,208.3994,168.5,217.3994" style="stroke:#181818;stroke-width:1;"/><text fill="#000000" font-family="sans-serif" font-size="13" lengthAdjust="spacing" textLength="27.46" x="169.5" y="184.1045">uses</text></g><!--link IntegrationController to SyncRequest--><g class="link" data-entity-1="IntegrationController" data-entity-2="SyncRequest" data-source-line="24" data-uid="lnk7" id="link_IntegrationController_SyncRequest"><path codeLine="24" d="M147.21,293.9194 C134.27,316.5894 120.4928,340.7476 106.0328,366.0976" fill="none" id="IntegrationController-to-SyncRequest" style="stroke:#181818;stroke-width:1;stroke-dasharray:7,7;"/><polygon fill="#181818" points="103.06,371.3094,110.9938,365.4737,105.5374,366.9663,104.0448,361.5099,103.06,371.3094" style="stroke:#181818;stroke-width:1;"/><text fill="#000000" font-family="sans-serif" font-size="13" lengthAdjust="spacing" textLength="23.8481" x="130.5" y="338.1045">logs</text></g><!--link IntegrationController to Course--><g class="link" data-entity-1="IntegrationController" data-entity-2="Course" data-source-line="25" data-uid="lnk8" id="link_IntegrationController_Course"><path codeLine="25" d="M189.79,293.9194 C204.34,319.4294 220.7556,348.1985 236.2756,375.3885" fill="none" id="IntegrationController-to-Course" style="stroke:#181818;stroke-width:1;stroke-dasharray:7,7;"/><polygon fill="#181818" points="239.25,380.5994,238.2624,370.8002,236.7714,376.257,231.3145,374.766,239.25,380.5994" style="stroke:#181818;stroke-width:1;"/><text fill="#000000" font-family="sans-serif" font-size="13" lengthAdjust="spacing" textLength="46.2617" x="217.5" y="338.1045">updates</text></g><!--SRC=[VP31IiD048RlUOevjfJseBTG0YKgv6Imw7tT326utQsxazOW7lIgg7TF7WGlKhm9XVeoJUjZkD64HedkRV-P-UURdn8I28V-rhOB-VtDwkNfOxPOFryltnzNbpFeGdvtjNoxNR_EyuS5j8xsGx_jE5mmOs3tZ51B9WPXu2ifaPFIqEyVgrH6J6UU1-SEsDS1ZHoJ2OOi4uf5hNOf6vJHW9z8DHKOnJX2IRPsKVa7aZ3MZ18bhJzf9GGM2_Ztf-O_regZCSDCybR4YDLC2kq0JrCqP4VjXeGsP5rBzbKA8XU6f1CPLpgRxbYZ7we5PXEi4_egrGQRVB7CvfTn1zAn1SGzhKPLV1lYna1xFU-F95n83HgdkLYCrMztGQZul-Ro5hSaD9y0]--></g></svg>