<svg xmlns="http://www.w3.org/2000/svg" xmlns:xlink="http://www.w3.org/1999/xlink" contentStyleType="text/css" data-diagram-type="DESCRIPTION" height="795px" preserveAspectRatio="none" style="width:871px;height:795px;background:#FFFFFF;" version="1.1" viewBox="0 0 871 795" width="871px" zoomAndPan="magnify"><title>&#25945;&#21153;&#31649;&#29702;&#31995;&#32479; - &#29289;&#29702;&#37096;&#32626;&#22270;</title><defs/><g><g class="title" data-source-line="1"><text fill="#000000" font-family="sans-serif" font-size="14" font-weight="bold" lengthAdjust="spacing" textLength="171.2539" x="342.873" y="24.5332">&#25945;&#21153;&#31649;&#29702;&#31995;&#32479; - &#29289;&#29702;&#37096;&#32626;&#22270;</text></g><!--cluster ??? (????)--><g class="cluster" data-entity="... ......" data-source-line="5" data-uid="ent0002" id="cluster_... ......"><polygon fill="none" points="232,54.6094,242,44.6094,543,44.6094,543,156.6094,533,166.6094,232,166.6094,232,54.6094" style="stroke:#181818;stroke-width:1;"/><line style="stroke:#181818;stroke-width:1;" x1="533" x2="543" y1="54.6094" y2="44.6094"/><line style="stroke:#181818;stroke-width:1;" x1="232" x2="533" y1="54.6094" y2="54.6094"/><line style="stroke:#181818;stroke-width:1;" x1="533" x2="533" y1="54.6094" y2="166.6094"/><text fill="#000000" font-family="sans-serif" font-size="14" font-weight="bold" lengthAdjust="spacing" textLength="114.2764" x="326.3618" y="72.1426">&#23458;&#25143;&#31471; (&#29992;&#25143;&#32456;&#31471;)</text></g><!--cluster ????--><g class="cluster" data-entity="...." data-source-line="10" data-uid="ent0005" id="cluster_...."><path d="M8.5,216.6094 L67.25,216.6094 A3.75,3.75 0 0 1 69.75,219.1094 L76.75,240.2188 L657.5,240.2188 A2.5,2.5 0 0 1 660,242.7188 L660,785.6094 A2.5,2.5 0 0 1 657.5,788.1094 L8.5,788.1094 A2.5,2.5 0 0 1 6,785.6094 L6,219.1094 A2.5,2.5 0 0 1 8.5,216.6094" fill="none" style="stroke:#000000;stroke-width:1.5;"/><line style="stroke:#000000;stroke-width:1.5;" x1="6" x2="76.75" y1="240.2188" y2="240.2188"/><text fill="#000000" font-family="sans-serif" font-size="14" font-weight="bold" lengthAdjust="spacing" textLength="57.75" x="10" y="233.1426">&#26657;&#22253;&#20869;&#32593;</text></g><!--cluster WebServer--><g class="cluster" data-entity="WebServer" data-source-line="11" data-uid="ent0006" id="cluster_WebServer"><polygon fill="none" points="342,278.6094,352,268.6094,604,268.6094,604,379.6094,594,389.6094,342,389.6094,342,278.6094" style="stroke:#181818;stroke-width:1;"/><line style="stroke:#181818;stroke-width:1;" x1="594" x2="604" y1="278.6094" y2="268.6094"/><line style="stroke:#181818;stroke-width:1;" x1="342" x2="594" y1="278.6094" y2="278.6094"/><line style="stroke:#181818;stroke-width:1;" x1="594" x2="594" y1="278.6094" y2="389.6094"/><text fill="#000000" font-family="sans-serif" font-size="14" font-weight="bold" lengthAdjust="spacing" textLength="186.6074" x="375.6963" y="296.1426">Web &#20195;&#29702;&#21450;&#36127;&#36733;&#22343;&#34913; (Nginx)</text></g><!--cluster AppServer--><g class="cluster" data-entity="AppServer" data-source-line="15" data-uid="ent0008" id="cluster_AppServer"><polygon fill="none" points="349,465.6094,359,455.6094,613,455.6094,613,559.6094,603,569.6094,349,569.6094,349,465.6094" style="stroke:#181818;stroke-width:1;"/><line style="stroke:#181818;stroke-width:1;" x1="603" x2="613" y1="465.6094" y2="455.6094"/><line style="stroke:#181818;stroke-width:1;" x1="349" x2="603" y1="465.6094" y2="465.6094"/><line style="stroke:#181818;stroke-width:1;" x1="603" x2="603" y1="465.6094" y2="569.6094"/><text fill="#000000" font-family="sans-serif" font-size="14" font-weight="bold" lengthAdjust="spacing" textLength="188.9727" x="382.5137" y="483.1426">&#24212;&#29992;&#26381;&#21153;&#22120;&#38598;&#32676; (App Server)</text></g><!--cluster DBServer--><g class="cluster" data-entity="DBServer" data-source-line="19" data-uid="ent0010" id="cluster_DBServer"><polygon fill="none" points="38,646.1094,48,636.1094,323,636.1094,323,746.1094,313,756.1094,38,756.1094,38,646.1094" style="stroke:#181818;stroke-width:1;"/><line style="stroke:#181818;stroke-width:1;" x1="313" x2="323" y1="646.1094" y2="636.1094"/><line style="stroke:#181818;stroke-width:1;" x1="38" x2="313" y1="646.1094" y2="646.1094"/><line style="stroke:#181818;stroke-width:1;" x1="313" x2="313" y1="646.1094" y2="756.1094"/><text fill="#000000" font-family="sans-serif" font-size="14" font-weight="bold" lengthAdjust="spacing" textLength="209.5762" x="71.7119" y="663.6426">&#25968;&#25454;&#24211;&#26381;&#21153;&#22120; (Database Server)</text></g><!--cluster FileServer--><g class="cluster" data-entity="FileServer" data-source-line="23" data-uid="ent0012" id="cluster_FileServer"><polygon fill="none" points="363,649.1094,373,639.1094,628,639.1094,628,743.1094,618,753.1094,363,753.1094,363,649.1094" style="stroke:#181818;stroke-width:1;"/><line style="stroke:#181818;stroke-width:1;" x1="618" x2="628" y1="649.1094" y2="639.1094"/><line style="stroke:#181818;stroke-width:1;" x1="363" x2="618" y1="649.1094" y2="649.1094"/><line style="stroke:#181818;stroke-width:1;" x1="618" x2="618" y1="649.1094" y2="753.1094"/><text fill="#000000" font-family="sans-serif" font-size="14" font-weight="bold" lengthAdjust="spacing" textLength="189.7656" x="396.6172" y="666.6426">&#25991;&#20214;/&#22791;&#20221;&#26381;&#21153;&#22120; (File Server)</text></g><!--cluster ExternalSystem--><g class="cluster" data-entity="ExternalSystem" data-source-line="28" data-uid="ent0014" id="cluster_ExternalSystem"><polygon fill="none" points="692,645.6094,702,635.6094,854,635.6094,854,746.6094,844,756.6094,692,756.6094,692,645.6094" style="stroke:#181818;stroke-width:1;"/><line style="stroke:#181818;stroke-width:1;" x1="844" x2="854" y1="645.6094" y2="635.6094"/><line style="stroke:#181818;stroke-width:1;" x1="692" x2="844" y1="645.6094" y2="645.6094"/><line style="stroke:#181818;stroke-width:1;" x1="844" x2="844" y1="645.6094" y2="756.6094"/><text fill="#000000" font-family="sans-serif" font-size="14" font-weight="bold" lengthAdjust="spacing" textLength="86.625" x="725.6875" y="663.1426">&#22806;&#37096;&#25968;&#25454;&#31995;&#32479;</text></g><!--entity Web ???--><g class="entity" data-entity="Web ..." data-source-line="6" data-uid="ent0003" id="entity_Web ..."><rect fill="#F1F1F1" height="65.2188" rx="2.5" ry="2.5" style="stroke:#181818;stroke-width:0.5;" width="114.6758" x="248.5" y="85.6094"/><rect fill="#F1F1F1" height="10" style="stroke:#181818;stroke-width:0.5;" width="15" x="343.1758" y="90.6094"/><rect fill="#F1F1F1" height="2" style="stroke:#181818;stroke-width:0.5;" width="4" x="341.1758" y="92.6094"/><rect fill="#F1F1F1" height="2" style="stroke:#181818;stroke-width:0.5;" width="4" x="341.1758" y="96.6094"/><text fill="#000000" font-family="sans-serif" font-size="14" font-style="italic" lengthAdjust="spacing" textLength="66.917" x="267.3794" y="120.1426">&#171;Browser&#187;</text><text fill="#000000" font-family="sans-serif" font-size="14" lengthAdjust="spacing" textLength="74.6758" x="263.5" y="137.752">Web &#27983;&#35272;&#22120;</text></g><!--entity ??? App--><g class="entity" data-entity="... App" data-source-line="7" data-uid="ent0004" id="entity_... App"><rect fill="#F1F1F1" height="65.2188" rx="2.5" ry="2.5" style="stroke:#181818;stroke-width:0.5;" width="127.6133" x="399" y="85.6094"/><rect fill="#F1F1F1" height="10" style="stroke:#181818;stroke-width:0.5;" width="15" x="506.6133" y="90.6094"/><rect fill="#F1F1F1" height="2" style="stroke:#181818;stroke-width:0.5;" width="4" x="504.6133" y="92.6094"/><rect fill="#F1F1F1" height="2" style="stroke:#181818;stroke-width:0.5;" width="4" x="504.6133" y="96.6094"/><text fill="#000000" font-family="sans-serif" font-size="14" font-style="italic" lengthAdjust="spacing" textLength="85.6133" x="415" y="120.1426">&#171;Mobile App&#187;</text><text fill="#000000" font-family="sans-serif" font-size="14" lengthAdjust="spacing" textLength="70.7998" x="422.4067" y="137.752">&#31227;&#21160;&#31471; App</text></g><!--entity ??????--><g class="entity" data-entity="......" data-source-line="12" data-uid="ent0007" id="entity_......"><rect fill="#F1F1F1" height="47.6094" rx="2.5" ry="2.5" style="stroke:#181818;stroke-width:0.5;" width="124" x="438" y="317.6094"/><rect fill="#F1F1F1" height="10" style="stroke:#181818;stroke-width:0.5;" width="15" x="542" y="322.6094"/><rect fill="#F1F1F1" height="2" style="stroke:#181818;stroke-width:0.5;" width="4" x="540" y="324.6094"/><rect fill="#F1F1F1" height="2" style="stroke:#181818;stroke-width:0.5;" width="4" x="540" y="328.6094"/><text fill="#000000" font-family="sans-serif" font-size="14" lengthAdjust="spacing" textLength="84" x="453" y="352.1426">&#36127;&#36733;&#22343;&#34913;&#27169;&#22359;</text></g><!--entity App--><g class="entity" data-entity="App" data-source-line="16" data-uid="ent0009" id="entity_App"><rect fill="#F1F1F1" height="40.6094" rx="2.5" ry="2.5" style="stroke:#181818;stroke-width:0.5;" width="140.4482" x="434" y="504.6094"/><polygon fill="#F1F1F1" points="557.4482,509.6094,557.4482,523.6094,569.4482,523.6094,569.4482,515.6094,563.4482,509.6094,557.4482,509.6094" style="stroke:#181818;stroke-width:0.5;"/><line style="stroke:#181818;stroke-width:0.5;" x1="563.4482" x2="563.4482" y1="509.6094" y2="515.6094"/><line style="stroke:#181818;stroke-width:0.5;" x1="569.4482" x2="563.4482" y1="515.6094" y2="515.6094"/><text fill="#000000" font-family="sans-serif" font-size="14" lengthAdjust="spacing" textLength="110.4482" x="444" y="532.1426">&#25945;&#21153;&#31649;&#29702;&#31995;&#32479;.war</text></g><!--entity DB--><g class="entity" data-entity="DB" data-source-line="20" data-uid="ent0011" id="entity_DB"><path d="M143.5,695.1094 C143.5,685.1094 220.8032,685.1094 220.8032,685.1094 C220.8032,685.1094 298.1064,685.1094 298.1064,695.1094 L298.1064,721.7188 C298.1064,731.7188 220.8032,731.7188 220.8032,731.7188 C220.8032,731.7188 143.5,731.7188 143.5,721.7188 L143.5,695.1094" fill="#F1F1F1" style="stroke:#181818;stroke-width:0.5;"/><path d="M143.5,695.1094 C143.5,705.1094 220.8032,705.1094 220.8032,705.1094 C220.8032,705.1094 298.1064,705.1094 298.1064,695.1094" fill="none" style="stroke:#181818;stroke-width:0.5;"/><text fill="#000000" font-family="sans-serif" font-size="14" lengthAdjust="spacing" textLength="134.6064" x="153.5" y="723.6426">MySQL / PostgreSQL</text></g><!--entity ??????--><g class="entity" data-entity="......" data-source-line="24" data-uid="ent0013" id="entity_......"><rect fill="#F1F1F1" height="40.6094" rx="2.5" ry="2.5" style="stroke:#181818;stroke-width:0.5;" width="114" x="455" y="688.1094"/><polygon fill="#F1F1F1" points="552,693.1094,552,707.1094,564,707.1094,564,699.1094,558,693.1094,552,693.1094" style="stroke:#181818;stroke-width:0.5;"/><line style="stroke:#181818;stroke-width:0.5;" x1="558" x2="558" y1="693.1094" y2="699.1094"/><line style="stroke:#181818;stroke-width:0.5;" x1="564" x2="558" y1="699.1094" y2="699.1094"/><text fill="#000000" font-family="sans-serif" font-size="14" lengthAdjust="spacing" textLength="84" x="465" y="715.6426">&#25968;&#25454;&#22791;&#20221;&#25991;&#20214;</text></g><!--entity ?? API--><g class="entity" data-entity=".. API" data-source-line="29" data-uid="ent0015" id="entity_.. API"><rect fill="#F1F1F1" height="47.6094" rx="2.5" ry="2.5" style="stroke:#181818;stroke-width:0.5;" width="94.4551" x="735" y="684.6094"/><rect fill="#F1F1F1" height="10" style="stroke:#181818;stroke-width:0.5;" width="15" x="809.4551" y="689.6094"/><rect fill="#F1F1F1" height="2" style="stroke:#181818;stroke-width:0.5;" width="4" x="807.4551" y="691.6094"/><rect fill="#F1F1F1" height="2" style="stroke:#181818;stroke-width:0.5;" width="4" x="807.4551" y="695.6094"/><text fill="#000000" font-family="sans-serif" font-size="14" lengthAdjust="spacing" textLength="54.4551" x="750" y="719.1426">&#22806;&#37096; API</text></g><!--link Web ??? to WebServer--><g class="link" data-entity-1="Web ..." data-entity-2="WebServer" data-source-line="33" data-uid="lnk16" id="link_Web ..._WebServer"><path d="M304.86,150.9794 C305.09,166.2494 306.52,184.6394 311,200.6094 C315.6825,217.2844 322.5419,234.2306 330.2231,250.3048 C332.1434,254.3234 334.1151,258.2875 336.117,262.1791 C337.1179,264.125 338.1264,266.0527 339.1398,267.9602 C339.6465,268.9139 340.1544,269.8625 340.6632,270.8058 C340.9176,271.2774 341.1723,271.7477 341.4271,272.2166 C341.5545,272.4511 341.6819,272.6852 341.8094,272.919" fill="none" id="Web &#27983;&#35272;&#22120;-WebServer" style="stroke:#181818;stroke-width:1;"/><text fill="#000000" font-family="sans-serif" font-size="13" lengthAdjust="spacing" textLength="104.0254" x="312" y="197.1045">HTTPS (Port 443)</text></g><!--link ??? App to WebServer--><g class="link" data-entity-1="... App" data-entity-2="WebServer" data-source-line="34" data-uid="lnk17" id="link_... App_WebServer"><path d="M446.96,150.9094 C438.83,167.7894 429.18,189.0294 422,208.6094 C416.8375,222.6869 411.975,237.83 407.5775,252.6617 C406.4781,256.3696 405.4078,260.0581 404.3691,263.7056 C404.1095,264.6175 403.8518,265.5268 403.5961,266.4332 C403.4683,266.8864 403.3409,267.3389 403.2141,267.7906 C403.1507,268.0165 403.0874,268.2421 403.0243,268.4676" fill="none" id="&#31227;&#21160;&#31471; App-WebServer" style="stroke:#181818;stroke-width:1;"/><text fill="#000000" font-family="sans-serif" font-size="13" lengthAdjust="spacing" textLength="104.0254" x="433" y="197.1045">HTTPS (Port 443)</text></g><!--link WebServer to AppServer--><g class="link" data-entity-1="WebServer" data-entity-2="AppServer" data-source-line="36" data-uid="lnk18" id="link_WebServer_AppServer"><path d="M385,389.7234 C385,390.9452 385,392.1808 385,393.4291 C385,395.9256 385,398.4724 385,401.0596 C385,411.408 385,422.4009 385,433.3931 C385,438.8892 385,444.3851 385,449.8002 C385,451.154 385,452.5027 385,453.8452 C385,454.1808 385,454.516 385,454.8508 C385,455.0182 385,455.1855 385,455.3526" fill="none" id="WebServer-AppServer" style="stroke:#181818;stroke-width:1;"/><text fill="#000000" font-family="sans-serif" font-size="13" lengthAdjust="spacing" textLength="132.1963" x="386" y="428.1045">HTTP/TCP (Port 8080)</text></g><!--link AppServer to DBServer--><g class="link" data-entity-1="AppServer" data-entity-2="DBServer" data-source-line="37" data-uid="lnk19" id="link_AppServer_DBServer"><path d="M348.1041,528.5516 C347.4971,528.614 346.8843,528.678 346.2656,528.7436 C343.7912,529.0062 341.2248,529.2948 338.5743,529.6121 C333.2733,530.2467 327.6364,530.9959 321.7274,531.8803 C309.9096,533.6491 297.0041,535.9588 283.5238,538.9744 C229.6025,551.0369 166.485,574.3944 127,619.6094 C123.8125,623.2594 121.1184,627.3158 118.845,631.6266 C118.2767,632.7044 117.7346,633.798 117.2177,634.9051 C117.0885,635.1819 116.9608,635.4595 116.8347,635.738" fill="none" id="AppServer-DBServer" style="stroke:#181818;stroke-width:1;"/><text fill="#000000" font-family="sans-serif" font-size="13" lengthAdjust="spacing" textLength="70.7954" x="154" y="608.1045">JDBC / SQL</text></g><!--link AppServer to FileServer--><g class="link" data-entity-1="AppServer" data-entity-2="FileServer" data-source-line="38" data-uid="lnk20" id="link_AppServer_FileServer"><path d="M385,570.4982 C385,570.7983 385,571.0993 385,571.4012 C385,572.005 385,572.6125 385,573.2234 C385,574.4452 385,575.6808 385,576.9291 C385,579.4256 385,581.9724 385,584.5596 C385,594.908 385,605.9009 385,616.8931 C385,622.3892 385,627.8851 385,633.3002 C385,634.654 385,636.0027 385,637.3452 C385,637.6808 385,638.016 385,638.3508 C385,638.5182 385,638.6855 385,638.8526" fill="none" id="AppServer-FileServer" style="stroke:#181818;stroke-width:1;"/><text fill="#000000" font-family="sans-serif" font-size="13" lengthAdjust="spacing" textLength="129.2764" x="386" y="608.1045">NFS / SMB (&#25991;&#20214;&#23384;&#21462;)</text></g><!--link AppServer to ExternalSystem--><g class="link" data-entity-1="AppServer" data-entity-2="ExternalSystem" data-source-line="39" data-uid="lnk21" id="link_AppServer_ExternalSystem"><path d="M402.3086,569.7375 C402.3739,569.8332 402.4395,569.9288 402.5053,570.0242 C406.7169,576.1325 411.8325,581.6594 418,585.6094 C437.89,598.3494 501.05,588.0194 524,593.6094 C552.63,600.5894 559.54,604.7594 585,619.6094 C612.36,635.5694 640.645,657.1369 662.3175,674.9256 C673.1538,683.82 682.3369,691.7697 688.9247,697.6014 C689.7482,698.3304 690.5311,699.0262 691.2716,699.6867 C691.4568,699.8519 691.6392,700.0148 691.819,700.1754" fill="none" id="AppServer-ExternalSystem" style="stroke:#181818;stroke-width:1;"/><text fill="#000000" font-family="sans-serif" font-size="13" lengthAdjust="spacing" textLength="166.1182" x="571" y="608.1045">HTTPS / RESTful (&#25968;&#25454;&#21516;&#27493;)</text></g><!--SRC=[XL9TRz9W5Bv_VyK9DvOBPD5TB6HPCiOMDRAW9V72SF72Ea86BMdVkH6pAoERHCAC6xhWd5NCC0OqVYOqR7zcRz_kNtXA-LenoaqvxVDnpdaEox6y0lRX4Q-OecEA_RBuRWdh148Wddt2yl99I_I-ySOP8SP6JYrIdHOWenMAcggeJ6Obf6yMyZS8KRKr1GAyyzxU-oq-Vm597BJSlzOULi40F2Q0ln4L7ZvGqc3_h3cdU_oebOBv-QYkRHcAlh3WHufJYrTQhkXYiUWYurewXyPO8NY7a2BDRD0isjllJDvey_9JqNinjFGQSzqkh0yu4gzLd1ydJg_7ZtSTqmHfDPjJjx53QW2YP4L_fEW3hg-HIPxTCldngrGVXYsCdNZtm1tzJHLtYfDTDihYh0aIDWkUjcU5zPGLrLbkdMOO3Z8LoVKjgW-9qwRsuLUxsk7TboDVa6AKqJGrb2ksiUYKwzeG5uYNv7jt8Gm9pM1PNS5YmFcBONttmleLvaryz2PCLznW9WtT5_ySjD-u9zFN30pCTaOtrQpZ6Nf0RnTzuULjfkWgpSibWoc5wVloQB2Ok9rojQw1S_vMTCynVbwjEPqEyLzWA3IHVmHk9PC96QI4fZEOdRqP9Fux_1-UZByYT9ot1mqdbn83zDpCt4oGZ0687iKKWJknw19cWc5SXKmiDWAhAxABYKT1yhR8swzvhUvJzQris7COxY_BoVNDF9AzEFQVs-sFGV87]--></g></svg>